Music_AccumulaTown:
	musicheader 3, 1, Music_AccumulaTown_Ch1
	musicheader 1, 2, Music_AccumulaTown_Ch2
	musicheader 1, 3, Music_AccumulaTown_Ch3

Music_AccumulaTown_Ch1:
	tempo $AB
	volume $77
	dutycycle $2
	stereopanning $77
	tone 1
	intensity $a3
Music_AccumulaTown_Ch1_loop:
	octave 4
	notetype $C, $a5
	note G#, 1
	note A_, 1
	note B_, 1
	note A_, 1
	note __, 1
	note G#, 3
	note E_, 1
	note __, 1
	note C#, 4
	note __, 2
	note E_, 1
	note __, 1
	note C#, 2
	note __, 1
	note C#, 3
	note E_, 1
	notetype $6, $a5
	note __, 1
	note G#, 1
	notetype $C, $a5
	note A_, 2
	note G#, 1
	note __, 1
	note F#, 2
	note D#, 1
	notetype $6, $a5
	note __, 1
	note D#, 1
	notetype $C, $a5
	note E_, 1
	note __, 2
	note E_, 1
	note __, 2
	note E_, 1
	note __, 7
	note __, 16
	
	note G#, 1
	note A_, 1
	note B_, 1
	note A_, 1
	note __, 1
	note G#, 3
	note E_, 1
	note __, 1
	note C#, 4
	note __, 2
	note E_, 1
	note __, 1
	note C#, 2
	note __, 1
	note C#, 3
	note E_, 1
	notetype $6, $a5
	note __, 1
	note G#, 1
	notetype $C, $a5
	note A_, 2
	note G#, 1
	note __, 1
	note F#, 2
	note B_, 1
	notetype $6, $a5
	note __, 1
	note D#, 1
	notetype $C, $a5
	note E_, 1
	note __, 2
	note E_, 1
	note __, 2
	note E_, 1
	note __, 8
	notetype $4, $a5
	note B_, 1
	octave 5
	note C#, 1
	note D#, 1
	notetype $C, $a5
	note E_, 1
	note __, 2
	note E_, 1
	note __, 2
	note E_, 1
	note __, 7
	
	octave 4
	note E_, 2
	note C#, 6
	notetype $6, $a5
	note E_, 1
	note __, 1
	notetype $C, $a5
	note B_, 3
	note A_, 2
	note G#, 2
	note B_, 2
	note G#, 4
	note E_, 2
	notetype $6, $a5
	note F#, 1
	note __, 1
	notetype $C, $a5
	note E_, 6
	note __, 1
	note D_, 2
	note C#, 4
	note D#, 2
	notetype $6, $a5
	note E_, 1
	note __, 1
	notetype $C, $a5
	note C_, 3
	note D#, 2
	note E_, 2
	note F#, 1
	note __, 1
	note F#, 4
	note E_, 2
	notetype $6, $a5
	note F#, 1
	note __, 1
	notetype $C, $a5
	note G#, 7
	note __, 2
	
	note E_, 4
	notetype $6, $a5
	note C#, 3
	note __, 1
	note E_, 1
	note __, 1
	notetype $C, $a5
	note B_, 3
	note A_, 2
	note G#, 1
	note __, 1
	octave 5
	note E_, 2
	note D#, 2
	octave 4
	note B_, 1
	note __, 1
	note G#, 2
	note B_, 1
	note E_, 6
	note __, 1
	note D_, 2
	note C#, 6
	notetype $6, $a5
	note E_, 3
	note D#, 1
	notetype $C, $a5
	note E_, 3
	note __, 1
	note F#, 3
	note __, 1
	note E_, 12
	note __, 2
	loopchannel 0, Music_AccumulaTown_Ch1_loop

Music_AccumulaTown_Ch2:
Music_AccumulaTown_Ch2_loop:
	dutycycle $2
	tone 2
	intensity $71
	notetype $C, $a5
	note __, 2
	octave 3
	note E_, 1
	note __, 2
	note E_, 1
	note __, 2
	note E_, 1
	note __, 3
	note C#, 1
	note __, 1
	note C#, 3
	note __, 1
	note C#, 1
	note __, 2
	note C#, 1
	note __, 2
	note C#, 1
	note __, 3
	note C#, 1
	note __, 1
	note D#, 3
	note __, 1
	note E_, 1
	note __, 2
	note E_, 1
	note __, 2
	note E_, 1
	note __, 9
	note E_, 1
	note __, 2
	note E_, 1
	note __, 2
	note E_, 1
	note __, 9
	
	note E_, 1
	note __, 2
	note E_, 1
	note __, 2
	note E_, 1
	note __, 3
	note C#, 1
	note __, 1
	note C#, 3
	note __, 1
	note C#, 1
	note __, 2
	note C#, 1
	note __, 2
	note C#, 1
	note __, 3
	note E_, 1
	note __, 1
	note F#, 3
	note __, 1
	note E_, 1
	note __, 2
	note E_, 1
	note __, 2
	note E_, 1
	note __, 8
	notetype $4, $a5
	note B_, 1
	octave 4
	note C#, 1
	note D#, 1
	notetype $C, $a5
	note E_, 1
	note __, 2
	note E_, 1
	note __, 2
	note E_, 1
	note __, 11
	
	octave 4
	note C#, 1
	note __, 1
	note D#, 1
	note E_, 1
	note __, 1
	note B_, 3
	note A_, 1
	note __, 1
	notetype $6, $a5
	note G#, 3
	note __, 1
	notetype $C, $a5
	note B_, 1
	note __, 3
	note D#, 1
	note E_, 2
	note F#, 1
	note G#, 1
	note F#, 2
	note E_, 1
	note __, 1
	notetype $6, $a5
	note D_, 1
	note __, 1
	notetype $C, $a5
	note E_, 1
	note __, 1
	note D_, 1
	note __, 3
	octave 3
	note A_, 1
	note G#, 1
	note A_, 1
	note B_, 1
	octave 4
	note C#, 1
	note C_, 1
	note __, 1
	note C_, 1
	note D#, 1
	note E_, 1
	note F#, 1
	note G#, 1
	note A_, 1
	note B_, 1
	octave 5
	notetype $6, $a5
	note E_, 3
	note __, 1
	notetype $C, $a5
	note D_, 1
	note __, 1
	note C#, 1
	octave 4
	note B_, 1
	note A#, 1
	note B_, 1
	note __, 1
	note A_, 1
	note __, 2
	note G#, 1
	note __, 1
	note F#, 1
	note __, 3
	note D#, 1
	note E_, 1
	note C#, 1
	note D#, 1
	note __, 1
	note E_, 1
	note __, 1
	note E_, 1
	note F#, 1
	note G#, 1
	note A_, 1
	note B_, 1
	octave 5
	note C#, 1
	note D#, 1
	notetype $6, $a5
	note E_, 3
	note __, 1
	notetype $C, $a5
	note D#, 1
	note __, 1
	note E_, 1
	note F#, 1
	notetype $6, $a5
	note __, 1
	note F#, 1
	note G#, 3
	note __, 1
	notetype $C, $a5
	note F#, 1
	note __, 1
	note E_, 1
	note D#, 1
	note __, 1
	note D_, 1
	note __, 2
	octave 4
	note B_, 1
	octave 5
	note C#, 2
	octave 4
	note B_, 1
	note A_, 1
	note __, 1
	note G#, 1
	note __, 1
	note G#, 1
	note A_, 1
	note B_, 1
	note G#, 1
	note __, 1
	note E_, 1
	note __, 1
	note E_, 1
	note __, 1
	octave 3
	note B_, 1
	octave 4
	note E_, 1
	note __, 1
	octave 3
	note B_, 1
	note __, 1
	notetype $6, $a5
	note A_, 3
	note __, 1
	notetype $C, $a5
	note G#, 1
	note A_, 1
	note __, 1
	note F#, 1
	note __, 1
	loopchannel 0, Music_AccumulaTown_Ch2_loop

Music_AccumulaTown_Ch3:
Music_AccumulaTown_Ch3_loop:
	intensity $16
	notetype $C, $a5
	note __, 2
	octave 3
	note E_, 1
	note E_, 1
	note __, 1
	octave 2
	note B_, 1
	note B_, 1
	note __, 1
	octave 3
	note E_, 1
	note E_, 1
	note __, 2
	octave 2
	note A_, 1
	note __, 1
	note A_, 2
	note G#, 2
	note F#, 2
	note __, 1
	octave 3
	note C#, 2
	note __, 1
	octave 2
	note F#, 2
	note __, 2
	note B_, 1
	note __, 1
	note B_, 4
	octave 3
	notetype $6, $a5
	note E_, 3
	note __, 3
	note E_, 3
	note __, 3
	note E_, 3
	note __, 5
	notetype $C, $a5
	note __, 6
	notetype $6, $a5
	note E_, 3
	note __, 3
	note E_, 3
	note __, 3
	note E_, 3
	note __, 5
	notetype $C, $a5
	octave 2
	note B_, 2
	octave 3
	note C#, 1
	note __, 1
	
	note D#, 1
	note __, 1
	note E_, 1
	note E_, 1
	note __, 1
	note E_, 1
	note E_, 1
	note __, 1
	octave 2
	note G#, 1
	note G#, 1
	note __, 2
	note A_, 1
	note __, 1
	note A_, 2
	note G#, 2
	note F#, 2
	note __, 1
	octave 3
	note C#, 2
	note __, 1
	octave 2
	note F#, 2
	note __, 2
	note B_, 1
	note __, 1
	note B_, 4
	octave 3
	notetype $6, $a5
	note E_, 3
	note __, 3
	note E_, 3
	note __, 3
	note E_, 3
	note __, 5
	notetype $C, $a5
	note __, 6
	notetype $6, $a5
	note E_, 3
	note __, 3
	note E_, 3
	note __, 3
	note E_, 3
	note __, 5
	notetype $C, $a5
	note __, 6
	
	octave 2
	note A_, 2
	note __, 1
	notetype $6, $a5
	note A_, 1
	note __, 1
	octave 3
	notetype $C, $a5
	note E_, 3
	note __, 1
	notetype $6, $a5
	note D_, 5
	note __, 1
	notetype $C, $a5
	note D_, 1
	notetype $6, $a5
	note A_, 5
	note __, 1
	notetype $C, $a5
	note A_, 1
	octave 2
	note G#, 2
	note __, 1
	notetype $6, $a5
	note G#, 1
	note __, 1
	octave 3
	notetype $C, $a5
	note D#, 3
	note __, 1
	octave 2
	notetype $6, $a5
	note G_, 5
	note __, 1
	notetype $C, $a5
	note G_, 1
	notetype $6, $a5
	octave 3
	note D_, 5
	note __, 1
	notetype $C, $a5
	note D_, 1
	octave 2
	note F#, 2
	note __, 1
	notetype $6, $a5
	note F#, 1
	note __, 1
	octave 3
	notetype $C, $a5
	note C#, 2
	note __, 1
	notetype $6, $a5
	note C#, 1
	note __, 1
	octave 2
	note G#, 5
	note __, 1
	notetype $C, $a5
	note G#, 1
	octave 3
	notetype $6, $a5
	note D#, 5
	note __, 1
	notetype $C, $a5
	note D#, 1
	octave 2
	note B_, 2
	note __, 1
	notetype $6, $a5
	note B_, 1
	note __, 1
	octave 3
	notetype $C, $a5
	note F#, 3
	note __, 1
	octave 2
	notetype $6, $a5
	note A#, 5
	note __, 1
	notetype $C, $a5
	note A#, 1
	notetype $6, $a5
	note A#, 5
	note __, 1
	notetype $C, $a5
	note A#, 1
	note A_, 2
	note __, 1
	notetype $6, $a5
	note A_, 1
	note __, 1
	octave 3
	notetype $C, $a5
	note E_, 2
	note __, 1
	notetype $6, $a5
	note E_, 1
	note __, 1
	note A_, 5
	note __, 1
	note A_, 2
	note E_, 5
	note __, 1
	note E_, 2
	octave 2
	note G#, 4
	note __, 2
	note G#, 1
	note __, 1
	octave 3
	note D#, 4
	note __, 2
	note D#, 1
	note __, 1
	note C#, 5
	note __, 1
	note C#, 2
	octave 2
	note G#, 5
	note __, 1
	note G#, 2
	note F#, 4
	note __, 2
	note F#, 1
	note __, 1
	octave 3
	note C#, 4
	note __, 2
	note C#, 1
	note __, 1
	note F_, 5
	note __, 1
	note F_, 2
	note C_, 5
	note __, 1
	note C_, 2
	octave 2
	note E_, 4
	note __, 2
	note E_, 1
	note __, 1
	note B_, 4
	note __, 2
	note B_, 1
	note __, 1
	octave 3
	note E_, 5
	note __, 1
	note E_, 2
	octave 2
	note B_, 4
	loopchannel 0, Music_AccumulaTown_Ch3_loop
	