Music_CasteliaCity:
	musicheader 3, 1, Music_CasteliaCity_Ch1
	musicheader 1, 2, Music_CasteliaCity_Ch2
	musicheader 1, 3, Music_CasteliaCity_Ch3
	;musicheader 1, 4, Music_CasteliaCity_Ch4

Music_CasteliaCity_Ch1:
	tempo $A8
	volume $77
	stereopanning $77
	dutycycle 1
Music_CasteliaCity_Ch1_loop:
	notetype $C, $A5
	octave 4
	note C_, 3
	note __, 1
	note C_, 1
	note __, 1
	note C_, 1
	note __, 1
	notetype $3, $A5
	note C_, 1
	note C#, 7
	notetype $6, $A5
	note C_, 1
	note __, 1
	octave 3
	notetype $C, $A5
	note G#, 3
	note F_, 1
	note __, 1
	note G#, 5
	notetype $3, $A5
	note __, 3
	note G#, 1
	notetype $C, $A5
	note A#, 3
	note __, 1
	note G#, 3
	notetype $6, $A5
	note A#, 5
	note __, 1
	note A#, 7
	note __, 1
	notetype $C, $A5
	note A#, 2
	octave 4
	note C_, 1
	note __, 1
	note C#, 2
	note C_, 1
	note __, 1
	octave 3
	note A#, 2
	note G_, 1
	note __, 1
	note A#, 3
	note G#, 1
	note __, 2
	note G#, 7
	note __, 3
	
	note D#, 3
	note __, 1
	note D#, 2
	notetype $6, $A5
	note A#, 1
	note __, 1
	notetype $C, $A5
	note A#, 5
	note __, 4
	note D#, 3
	note __, 1
	note D#, 2
	notetype $6, $A5
	note A#, 1
	note __, 1
	note A#, 3
	note __, 3
	notetype $C, $A5
	note G#, 2
	note __, 1
	note A#, 2
	note __, 1
	note A#, 3
	octave 4
	note C_, 1
	note __, 2
	octave 3
	note G#, 7
	note __, 3
	note __, 14
	note G#, 1
	note A#, 1
	
	octave 4
	note C_, 3
	note __, 1
	note C_, 1
	note __, 1
	note C_, 1
	note __, 1
	notetype $3, $A5
	note C_, 1
	note C#, 7
	notetype $6, $A5
	note C_, 1
	note __, 1
	octave 3
	notetype $C, $A5
	note G#, 3
	note F_, 1
	note __, 1
	note G#, 5
	notetype $3, $A5
	note __, 3
	note G#, 1
	notetype $C, $A5
	note A#, 3
	note __, 1
	note G#, 3
	notetype $6, $A5
	note A#, 5
	note __, 1
	note A#, 7
	note __, 1
	notetype $C, $A5
	note A#, 2
	octave 4
	note C_, 1
	note __, 1
	note C#, 2
	note C_, 1
	note __, 1
	octave 3
	note A#, 2
	note G_, 1
	note __, 1
	note A#, 3
	note G#, 1
	note __, 2
	note G#, 7
	note __, 3
	
	note D#, 3
	note __, 1
	note D#, 2
	notetype $6, $A5
	note A#, 1
	note __, 1
	notetype $C, $A5
	note A#, 5
	note __, 4
	note D#, 3
	note __, 1
	note D#, 2
	notetype $6, $A5
	note A#, 1
	note __, 1
	note A#, 3
	note __, 3
	notetype $C, $A5
	note G#, 3
	note A#, 2
	note __, 1
	note A#, 3
	octave 4
	note C_, 1
	note __, 2
	octave 3
	note G#, 8
	note __, 2
	note __, 16
	
	note F_, 2
	note G#, 1
	note __, 1
	note A#, 2
	note G#, 1
	note __, 1
	note B_, 3
	note A#, 3
	note G#, 1
	note __, 1
	note B_, 3
	note A#, 1
	note __, 2
	note G#, 4
	note E_, 6
	note D#, 3
	note __, 1
	note D#, 2
	notetype $6, $A5
	note A#, 1
	note __, 1
	notetype $C, $A5
	note A#, 3
	note G#, 1
	note __, 1
	note G#, 2
	notetype $6, $A5
	note A#, 1
	note __, 3
	notetype $C, $A5
	note A#, 3
	octave 4
	note C_, 1
	note __, 2
	octave 3
	note G#, 7
	note __, 3
	
	octave 4
	note C#, 3
	note __, 1
	note C#, 2
	note C_, 1
	note C#, 3
	notetype $6, $A5
	note C_, 1
	note __, 3
	octave 3
	notetype $C, $A5
	note A#, 2
	notetype $6, $A5
	note G#, 1
	note __, 3
	notetype $C, $A5
	note F_, 3
	note __, 1
	note F_, 2
	notetype $6, $A5
	note G#, 1
	note __, 1
	notetype $C, $A5
	note A#, 1
	note __, 2
	note F_, 2
	note G_, 2
	note G#, 2
	note G#, 3
	note A#, 1
	note __, 2
	note A#, 9
	note __, 1
	notetype $6, $A5
	note G#, 5
	note __, 1
	notetype $C, $A5
	note G#, 1
	note __, 2
	note G_, 7
	note __, 1
	note G#, 1
	note A#, 1
	loopchannel 0, Music_CasteliaCity_Ch1_loop

Music_CasteliaCity_Ch2:
Music_CasteliaCity_Ch2_loop:
	dutycycle 2
	notetype $C, $A5
	octave 4
	note D#, 8
	note G#, 4
	note D#, 4
	note F_, 6
	note __, 1
	notetype $6, $A5
	note E_, 1
	note D#, 1
	notetype $C, $A5
	note C#, 4
	note F_, 4
	notetype $6, $A5
	note D#, 15
	note C#, 1
	notetype $C, $A5
	note C_, 4
	note E_, 4
	note F_, 8
	notetype $6, $A5
	note __, 3
	note G_, 1
	notetype $C, $A5
	note G#, 6
	note D#, 8
	note C#, 4
	note D#, 4
	octave 3
	note A#, 8
	octave 4
	note D#, 4
	note C#, 4
	note C_, 7
	octave 3
	note A#, 1
	note G#, 4
	octave 4
	note C_, 3
	notetype $6, $A5
	note __, 1
	octave 3
	note G#, 1
	notetype $C, $A5
	note A#, 3
	note G#, 1
	note __, 2
	note G#, 5
	note G_, 1
	note G#, 1
	note A#, 1
	octave 4
	note C_, 1
	note C#, 1
	
	note D#, 6
	note __, 1
	notetype $6, $A5
	note F_, 1
	note G_, 1
	notetype $C, $A5
	note G#, 4
	note D#, 4
	note F_, 6
	note __, 1
	notetype $6, $A5
	note E_, 1
	note D#, 1
	notetype $C, $A5
	note C#, 4
	note F_, 4
	note E_, 6
	note __, 1
	notetype $6, $A5
	note E_, 1
	note D_, 1
	notetype $C, $A5
	note C_, 4
	note E_, 4
	note F_, 9
	notetype $6, $A5
	note __, 1
	note G_, 1
	notetype $C, $A5
	note G#, 6
	
	note D#, 8
	note C#, 4
	note D#, 4
	octave 3
	note A#, 8
	octave 4
	note D#, 4
	note C#, 4
	note C_, 6
	notetype $6, $A5
	octave 3
	note B_, 1
	note A#, 1
	notetype $C, $A5
	note G#, 5
	octave 4
	note C_, 4
	octave 3
	note A#, 6
	note G#, 1
	note A#, 1
	octave 4
	note C_, 4
	note D#, 4
	
	note __, 2
	note F_, 1
	note __, 2
	note F_, 1
	note __, 2
	note F_, 1
	note __, 1
	note F_, 1
	note __, 1
	note F_, 1
	note D#, 1
	note C#, 1
	note D#, 1
	note __, 2
	note E_, 1
	note D#, 1
	note __, 1
	note E_, 1
	note __, 1
	note E_, 1
	note E_, 1
	note __, 1
	note E_, 1
	note __, 1
	note E_, 1
	note C#, 1
	note C_, 1
	note C#, 1
	note __, 2
	octave 3
	note D#, 1
	note C#, 1
	note D#, 1
	note __, 1
	note G_, 1
	note F#, 1
	note G_, 1
	note __, 1
	note A#, 1
	note A_, 1
	note A#, 1
	octave 4
	note C_, 1
	note D_, 1
	note D#, 1
	note F_, 3
	note G_, 1
	note __, 2
	note D#, 10
	note __, 2
	octave 3
	note C#, 1
	note C_, 1
	note C#, 1
	note D#, 1
	note F_, 1
	note G_, 1
	note G#, 1
	note A#, 1
	octave 4
	note C_, 1
	note C#, 1
	note D#, 1
	note F_, 1
	note G_, 1
	note G#, 1
	note __, 2
	octave 3
	note D_, 1
	note C#, 1
	note D_, 1
	note D#, 1
	note F_, 1
	note G_, 1
	note G#, 1
	note A#, 1
	octave 4
	note C_, 1
	note D_, 1
	note D#, 1
	note F_, 1
	note G_, 1
	note G#, 1
	
	note A#, 9
	note G#, 1
	note A#, 1
	note G#, 1
	note G_, 1
	note F_, 1
	note D#, 1
	note C#, 1
	notetype $6, $A5
	note D#, 5
	note __, 1
	note D#, 5
	note __, 1
	note D#, 11
	note __, 1
	notetype $C, $A5
	note D#, 1
	note C#, 1
	note C_, 1
	note C#, 1
	loopchannel 0, Music_CasteliaCity_Ch2_loop

Music_CasteliaCity_Ch3:
Music_CasteliaCity_Ch3_loop:
	dutycycle 5
	intensity $15
	notetype $C, $15
	octave 2
	note G#, 4
	octave 3
	note D#, 1
	note __, 1
	octave 2
	note G#, 3
	note __, 1
	note G#, 2
	octave 3
	note D#, 1
	note __, 1
	octave 2
	note G#, 2
	octave 3
	note C#, 4
	note G#, 1
	note __, 1
	note C#, 3
	note __, 1
	note C#, 2
	note G#, 1
	note C#, 3
	note D#, 4
	note A#, 1
	note __, 1
	note D#, 3
	note __, 1
	note E_, 2
	note A#, 1
	note __, 1
	note E_, 1
	note E_, 1
	note F_, 4
	octave 4
	note C_, 1
	note __, 1
	octave 3
	note F_, 3
	note __, 1
	octave 2
	note B_, 6
	note A#, 3
	note __, 1
	note A#, 1
	note __, 2
	octave 3
	note F_, 3
	octave 2
	note A#, 2
	octave 3
	note F_, 1
	note __, 1
	octave 2
	note A#, 2
	octave 3
	note D#, 4
	note A#, 1
	note __, 1
	note D#, 3
	note __, 1
	note D#, 2
	octave 4
	note C#, 1
	octave 3
	note G_, 3
	octave 2
	note G#, 4
	octave 3
	note D#, 1
	note __, 1
	octave 2
	note G#, 3
	note __, 1
	note G#, 2
	octave 3
	note D#, 1
	note __, 1
	octave 2
	note G#, 1
	note __, 1
	notetype $6, $15
	note G#, 5
	note __, 1
	note G#, 5
	note __, 1
	notetype $C, $15
	note G#, 6
	octave 3
	note D#, 4
	
	octave 2
	note G#, 4
	octave 3
	note D#, 1
	note __, 1
	octave 2
	note G#, 3
	note __, 1
	note G#, 2
	octave 3
	note D#, 1
	note __, 1
	octave 2
	note G#, 2
	octave 3
	note C#, 4
	note G#, 1
	note __, 1
	note C#, 3
	note __, 1
	note C#, 2
	note G#, 1
	note C#, 3
	note C_, 4
	note A#, 1
	note __, 1
	note C_, 2
	note E_, 3
	note __, 1
	note A#, 1
	note __, 1
	note E_, 1
	note E_, 1
	note F_, 4
	octave 4
	note C_, 1
	note __, 1
	octave 3
	note F_, 3
	note __, 1
	octave 2
	note B_, 6
	note A#, 4
	octave 3
	note F_, 1
	note __, 1
	octave 2
	note A#, 3
	note __, 1
	note A#, 2
	octave 3
	note F_, 1
	note __, 1
	octave 2
	note A#, 2
	octave 3
	note D#, 3
	octave 2
	note A#, 1
	note __, 2
	note G_, 4
	octave 3
	note D#, 2
	octave 4
	note C#, 1
	octave 3
	note G_, 3
	octave 2
	note G#, 4
	octave 3
	note D#, 1
	note __, 1
	octave 2
	note G#, 3
	note __, 1
	note G#, 2
	octave 3
	note D#, 1
	note __, 1
	octave 2
	note G#, 1
	note __, 1
	note G#, 4
	note G#, 4
	octave 3
	note G#, 4
	note G#, 4
	
	note C#, 1
	note __, 1
	note C#, 2
	note G#, 3
	note C#, 1
	note __, 2
	note C#, 2
	note G#, 1
	note __, 1
	notetype $3, $15
	note C#, 7
	note __, 1
	notetype $C, $15
	note C#, 1
	note __, 1
	note C#, 2
	note G#, 3
	note C#, 1
	note __, 2
	note C#, 2
	note G#, 1
	note __, 1
	notetype $3, $15
	note C#, 7
	note __, 1
	notetype $C, $15
	note C_, 1
	note __, 1
	note C_, 2
	note G_, 3
	note C_, 1
	note __, 2
	note C_, 2
	note G_, 1
	note __, 1
	notetype $3, $15
	note C_, 7
	note __, 1
	notetype $C, $15
	note F_, 3
	octave 4
	note C_, 1
	note __, 2
	octave 3
	note F_, 2
	note __, 2
	octave 2
	note B_, 4
	octave 3
	notetype $6, $15
	note F_, 3
	note __, 1
	octave 2
	notetype $C, $15
	note A#, 4
	octave 3
	note F_, 1
	note __, 2
	note A#, 5
	notetype $6, $15
	note F_, 3
	note __, 1
	octave 2
	note A#, 3
	note __, 1
	octave 3
	notetype $C, $15
	note D_, 4
	note F_, 1
	note __, 2
	note A#, 3
	note F_, 2
	octave 2
	note A#, 2
	octave 3
	note A#, 2
	note D#, 4
	note A#, 3
	note D#, 1
	note __, 2
	note D#, 2
	octave 2
	note A#, 2
	note D#, 2
	octave 3
	note D#, 2
	note __, 1
	note D#, 2
	note __, 1
	octave 2
	note D#, 3
	note __, 1
	note D#, 2
	note A#, 1
	note __, 1
	octave 3
	note D#, 1
	note __, 1
	loopchannel 0, Music_CasteliaCity_Ch3_loop

