Music_CelestialTower:
	musicheader 4, 1, Music_CelestialTower_Ch1
	musicheader 1, 2, Music_CelestialTower_Ch2
	musicheader 1, 3, Music_CelestialTower_Ch3
	musicheader 1, 4, Music_CelestialTower_Ch4


Music_CelestialTower_Ch1:
	tempo 220
	dutycycle $2
	vibrato $12, $15
	tone $0001
	notetype $3, $90
	octave 4
	note C#, 1
	note G_, 1
	octave 5
	notetype $6, $96
	note C_, 15
	octave 4
	note A#, 16
	notetype $3, $90
	note F_, 1
	note A#, 1
	octave 5
	notetype $6, $96
	note D#, 15
	note C#, 16
	octave 3
	notetype $3, $90
	note B_, 1
	octave 4
	note E_, 1
	notetype $6, $96
	note A_, 15
	note G_, 16
	notetype $3, $90
	note C#, 1
	note F_, 1
	octave 5
	notetype $6, $96
	note C_, 15
	octave 4
	note A#, 16
	notetype $3, $90
	note C_, 1
	note F_, 1
	notetype $6, $96
	note B_, 16
	octave 5
	intensity $83
	note B_, 3
	note E_, 3
	note F#, 3
	octave 4
	intensity $75
	note B_, 16
	note __, 6
	tempo 232
Music_CelestialTower_Ch1_loop_main:
Music_CelestialTower_Ch1_loop_1:
	intensity $85
	octave 4
	note A#, 2
	note D_, 2
	note D#, 2
	note A#, 4
	note D_, 2
	note D#, 2
	note A#, 4
	note D_, 2
	note D#, 2
	note A#, 4
	note D_, 2
	note D#, 2
	note A#, 2
	note A#, 2
	note D_, 2
	note D#, 2
	note A#, 4
	note D_, 2
	note D#, 2
	note A#, 4
	note D_, 2
	note D#, 2
	note A#, 4
	note D_, 2
	note D#, 2
	note A#, 2
	note G#, 2
	note C_, 2
	note C#, 2
	note G#, 4
	note C_, 2
	note C#, 2
	note G#, 4
	note C_, 2
	note C#, 2
	note G#, 4
	note C_, 2
	note C#, 2
	note G#, 2
	note F#, 2
	octave 3
	note A#, 2
	note B_, 2
	octave 4
	note F#, 4
	octave 3
	note A#, 2
	note B_, 2
	octave 4
	note F#, 4
	octave 3
	note A#, 2
	note B_, 2
	octave 4
	note F#, 4
	octave 3
	note A#, 2
	note B_, 2
	octave 4
	note F#, 2
	loopchannel 2, Music_CelestialTower_Ch1_loop_1
	note F_, 2
	octave 3
	note A#, 2
	note B_, 2
	octave 4
	note F_, 4
	octave 3
	note A#, 2
	note B_, 2
	octave 4
	note F_, 4
	octave 3
	note A#, 2
	note B_, 2
	octave 4
	note F_, 4
	octave 3
	note A#, 2
	note B_, 2
	octave 4
	note F_, 2
	note E_, 1
	note E_, 1
	octave 3
	note A#, 2
	note B_, 2
	octave 4
	note E_, 4
	octave 3
	note A#, 2
	note B_, 2
	octave 4
	note E_, 4
	octave 3
	note A#, 2
	note B_, 2
	octave 4
	note E_, 4
	octave 3
	note A#, 2
	note B_, 2
	octave 4
	note E_, 2
	note D#, 2
	octave 3
	note A_, 2
	note A#, 2
	octave 4
	note D#, 4
	octave 3
	note A_, 2
	note A#, 2
	octave 4
	note D#, 4
	octave 3
	note A_, 2
	note A#, 2
	octave 4
	note D#, 4
	octave 3
	note A_, 2
	note A#, 2
	octave 4
	note D#, 2
	note D_, 2
	octave 3
	note G#, 2
	note A_, 2
	octave 4
	note D_, 4
	octave 3
	note G#, 2
	note A_, 2
	octave 4
	note D_, 4
	octave 3
	note G#, 2
	note A_, 2
	octave 4
	note D_, 4
	octave 3
	note G#, 2
	note A_, 2
	octave 4
	note D_, 2
	octave 3
	notetype $3, $92
	note B_, 12
	note B_, 8
	note B_, 8
	note B_, 8
	note G_, 12
	note G_, 8
	note G_, 8
	note B_, 12
	note B_, 8
	note B_, 8
	note B_, 8
	note B_, 12
	note B_, 8
	note B_, 8
	note G_, 12
	note G_, 8
	note G_, 8
	note G_, 8
	note C_, 12
	note C_, 8
	note G_, 8
	octave 2
	note B_, 12
	note B_, 8
	note B_, 8
	note B_, 8
	octave 3
	note E_, 12
	note E_, 8
	note E_, 8
	note A#, 1
	octave 4
	note C_, 1
	notetype $6, $70
	note F_, 16
	intensity $77
	note F_, 15
	loopchannel 0, Music_CelestialTower_Ch1_loop_main
	
Music_CelestialTower_Ch2:
	dutycycle $3
	vibrato $12, $15
	tone $0001
	notetype $c, $70
	octave 3
	note C_, 8
	octave 2
	note A#, 6
	intensity $7c
	note A#, 2
	octave 3
	intensity $c0
	note D#, 8
	note C#, 4
	intensity $c7
	note C#, 4
	octave 2
	intensity $70
	note A_, 8
	note G_, 6
	intensity $7c
	note G_, 2
	octave 3
	intensity $c0
	note C_, 8
	octave 2
	note A#, 4
	intensity $c7
	note A#, 4
	intensity $90
	note B_, 15
	intensity $97
	note B_, 9
Music_CelestialTower_Ch2_loop_main:
Music_CelestialTower_Ch2_loop_1:
	notetype $6, $67
	octave 2
	note G_, 2
	octave 3
	note D_, 2
	note D#, 2
	note A#, 10
	octave 2
	note G_, 2
	octave 3
	note D_, 2
	note D#, 2
	note A#, 10
	octave 2
	note G#, 2
	octave 3
	note D_, 2
	note D#, 2
	note A#, 10
	octave 2
	note G#, 2
	octave 3
	note D_, 2
	note D#, 2
	note A#, 10
	octave 2
	note F_, 2
	octave 3
	note C_, 2
	note C#, 2
	note G#, 10
	octave 2
	note F_, 2
	octave 3
	note C_, 2
	note C#, 2
	note G#, 10
	octave 2
	note D#, 2
	note A#, 2
	note B_, 2
	octave 3
	note F#, 10
	octave 2
	note D#, 2
	note A#, 2
	note B_, 2
	octave 3
	note F#, 10
	loopchannel 2, Music_CelestialTower_Ch2_loop_1
	octave 2
	note D_, 2
	note A_, 2
	note A#, 2
	octave 3
	note F_, 10
	octave 2
	note D_, 2
	note A_, 2
	note A#, 2
	octave 3
	note F_, 10
	octave 2
	note C#, 2
	note G#, 2
	note A_, 2
	octave 3
	note E_, 10
	octave 2
	note C#, 2
	note G#, 2
	note A_, 2
	octave 3
	note E_, 10
	octave 2
	note C_, 2
	note G#, 2
	note A_, 2
	octave 3
	note D#, 10
	octave 2
	note C_, 2
	note G#, 2
	note A_, 2
	octave 3
	note D#, 10
	octave 1
	note B_, 2
	octave 2
	note G#, 2
	note A_, 2
	octave 3
	note D_, 10
	octave 1
	note B_, 2
	octave 2
	note G#, 2
	note A_, 2
	octave 3
	note D_, 10
	notetype $3, $92
	dutycycle 2	
	octave 4
	note D_, 1
	note A#, 11
	note D_, 1
	note A#, 7
	note D_, 1
	note A#, 7
	note D_, 1
	note A#, 7
	note D#, 1
	octave 5
	note C#, 11
	octave 4
	note D#, 1
	octave 5
	note C#, 7
	octave 4
	note D#, 1
	octave 5
	note C#, 7
	octave 4
	note C#, 1
	note G#, 11
	note C#, 1
	note G#, 7
	note C#, 1
	note G#, 7
	note C#, 1
	note G#, 7
	note D#, 1
	note B_, 11
	note D#, 1
	note B_, 7
	note D#, 1
	note B_, 7
	note D#, 1
	note A#, 11
	note D#, 1
	note A#, 7
	note D_, 1
	note A#, 7
	note C#, 1
	note A#, 7
	note F_, 1
	octave 5
	note C_, 11
	octave 4
	note E_, 1
	octave 5
	note C_, 7
	octave 4
	note D#, 1
	octave 5
	note C_, 7
	octave 4
	note C#, 1
	note G#, 11
	note C#, 1
	note G#, 7
	note C#, 1
	note G#, 7
	note C#, 1
	note G#, 7
	octave 3
	note B_, 1
	octave 4
	note F#, 11
	octave 3
	note B_, 1
	octave 4
	note F#, 7
	octave 3
	note B_, 1
	octave 4
	note F#, 7
	octave 3
	dutycycle 3
	notetype $c, $60
	note A#, 8
	intensity $67
	note A#, 8
	loopchannel 0, Music_CelestialTower_Ch2_loop_main
	
Music_CelestialTower_Ch3:
	notetype $c, $29
	octave 1
	note G_, 16
	octave 2
	intensity $19
	note C_, 12
	intensity $29
	note C_, 4
	octave 1
	note F#, 16
	octave 2
	intensity $19
	note C_, 12
	intensity $29
	note C_, 4
	octave 1
	note F_, 12
	intensity $39
	note F_, 8
	note __, 4
Music_CelestialTower_Ch3_loop_main:
	vibrato $0, $0
	notetype $c, $20
	octave 3
	note G_, 16
	note G#, 16
	note F_, 16
	note D#, 16
	vibrato $3, $24
	notetype $6, $16
	octave 5
	note D_, 16
	note C_, 8
	note F_, 6
	note E_, 1
	note D#, 1
	note D_, 16
	note C_, 16
	octave 4
	note G#, 16
	note A#, 8
	octave 5
	note C_, 8
	octave 4
	note F#, 16
	note F#, 8
	intensity $26
	note F#, 8
	intensity $16
	note F_, 16
	intensity $26
	note F_, 10
	intensity $16
	note A#, 2
	octave 5
	note C#, 2
	note F_, 2
	note E_, 16
	note C#, 16
	note D#, 16
	octave 4
	note A#, 8
	octave 5
	note F_, 6
	note E_, 1
	note D#, 1
	note D_, 16
	note D_, 8
	intensity $26
	note D_, 4
	intensity $36
	note D_, 4
	intensity $10
	octave 1
	note D#, 2
	intensity $20
	octave 2
	note B_, 2
	octave 3
	note C#, 2
	note D#, 4
	note __, 6
	octave 1
	intensity $10
	note G_, 2
	octave 2
	intensity $20
	note B_, 2
	octave 3
	note C#, 2
	note D#, 4
	note __, 6
	octave 1
	intensity $10
	note D#, 2
	octave 2
	intensity $20
	note B_, 2
	octave 3
	note C#, 2
	note D#, 4
	note __, 6
	octave 1
	intensity $10
	note E_, 2
	octave 2
	intensity $20
	note B_, 2
	octave 3
	note D#, 2
	note F_, 4
	note __, 6
	octave 1
	intensity $10
	note G_, 2
	octave 2
	intensity $20
	note B_, 2
	octave 3
	note C#, 2
	note D#, 4
	note __, 6
	octave 1
	intensity $10
	note C_, 2
	octave 2
	intensity $20
	note B_, 2
	octave 3
	note C#, 2
	note D#, 4
	note __, 6
	octave 1
	intensity $10
	note D#, 2
	octave 2
	intensity $20
	note B_, 2
	octave 3
	note C#, 2
	note D#, 4
	note __, 6
	octave 1
	intensity $10
	note E_, 2
	octave 2
	intensity $20
	note B_, 2
	octave 3
	note D#, 2
	note F_, 4
	note __, 6
	intensity $10
	octave 2
	note D_, 16
	intensity $20
	note D_, 8 
	intensity $30
	note D_, 8 
	loopchannel 0, Music_CelestialTower_Ch3_loop_main
	
Music_CelestialTower_Ch4:
	togglenoise $4
	notetype $c
	note __, 16
	note __, 16
	note __, 16
	note __, 16
	note __, 8
Music_CelestialTower_Ch4_loop_main:
	notetype $c
	note __, 16
	note __, 16
	note __, 16
	note __, 16
	note __, 16
	notetype $6
	callchannel Music_CelestialTower_Ch4_branch_1
	callchannel Music_CelestialTower_Ch4_branch_1
	callchannel Music_CelestialTower_Ch4_branch_2
	callchannel Music_CelestialTower_Ch4_branch_2
	callchannel Music_CelestialTower_Ch4_branch_1
	callchannel Music_CelestialTower_Ch4_branch_1
	callchannel Music_CelestialTower_Ch4_branch_2
	callchannel Music_CelestialTower_Ch4_branch_1
Music_CelestialTower_Ch4_loop_1:
	note C#, 1
	note G#, 1
	note C#, 1
	note G#, 1
	note C#, 1
	note G#, 1
	note C#, 1
	note G#, 1
	note G#, 2
	note G#, 6
	note __, 16
	loopchannel 4, Music_CelestialTower_Ch4_loop_1
	loopchannel 0, Music_CelestialTower_Ch4_loop_main
	
Music_CelestialTower_Ch4_branch_1:
	note C#, 1
	note G#, 1
	note C#, 1
	note G#, 1
	note C#, 1
	note G#, 1
	note C#, 1
	note G#, 1
	note G#, 1
	note F#, 1
	note G#, 1
	note F#, 1
	note D#, 2
	note D#, 2
	note __, 16
	endchannel
	
Music_CelestialTower_Ch4_branch_2:
	note C#, 1
	note G#, 1
	note C#, 1
	note G#, 1
	note C#, 1
	note G#, 1
	note C#, 1
	note G#, 1
	note G#, 1
	note F#, 1
	note G#, 1
	note F#, 1
	note D#, 2
	note D#, 2
	note __, 12
	note D#, 1
	note D#, 1
	note D#, 1
	note D#, 1
	endchannel