Music_NimbasaCity:
	musicheader 4, 1, Music_NimbasaCity_Ch1
	musicheader 1, 2, Music_NimbasaCity_Ch2
	musicheader 1, 3, Music_NimbasaCity_Ch3
	musicheader 1, 4, Music_NimbasaCity_Ch4

Music_NimbasaCity_Ch1:
	tempo $73
	volume $77
	stereopanning $77
Music_NimbasaCity_Ch1_loop:
Music_NimbasaCity_Ch1_loop1:
	dutycycle 3
	slidepitchto 1, 5, G#
	octave 3
	notetype $C, $A5
	note G#, 7
	note __, 1
	note G#, 3
	note A#, 1
	note __, 3
	note B_, 8
	note __, 1
	note B_, 3
	notetype $6, $A5
	octave 4
	note C_, 1
	note C#, 1
	notetype $C, $A5
	note D#, 1
	note __, 3
	note C#, 7
	note __, 1
	octave 3
	note G#, 3
	octave 4
	note C#, 1
	note __, 3
	octave 3
	note B_, 4
	note A#, 1
	note G#, 3
	note A#, 4
	note G#, 1
	note F#, 4
	note G#, 7
	note __, 1
	note G#, 3
	note A#, 1
	note __, 3
	note B_, 8
	note __, 1
	note B_, 3
	notetype $6, $A5
	octave 4
	note C_, 1
	note C#, 1
	notetype $C, $A5
	note D#, 1
	note __, 3
	note C#, 7
	note __, 1
	note C#, 3
	octave 3
	note B_, 1
	octave 4
	note C#, 3
	note D#, 13
	note __, 4
	loopchannel 2, Music_NimbasaCity_Ch1_loop1
	
	note E_, 7
	note __, 1
	note E_, 3
	note D#, 1
	note __, 3
	note C#, 1
	note __, 3
	octave 3
	note A#, 5
	note B_, 1
	note __, 3
	octave 4
	note C#, 1
	note __, 3
	note D#, 7
	note __, 1
	note D#, 3
	note C#, 1
	note __, 3
	octave 3
	note B_, 1
	note __, 3
	note G#, 5
	note A#, 1
	note __, 3
	note B_, 1
	note __, 3
	octave 4
	note C#, 7
	note __, 1
	note C#, 3
	octave 3
	note B_, 1
	note __, 3
	note A#, 1
	note __, 3
	note G_, 5
	note G#, 1
	note __, 3
	note A#, 1
	note __, 3
	note B_, 7
	note __, 1
	note B_, 3
	octave 4
	note C#, 1
	note __, 3
	note D#, 16
	note __, 1
	
	note E_, 7
	note __, 1
	note E_, 3
	note D#, 1
	note __, 3
	note C#, 1
	note __, 3
	octave 3
	note A#, 5
	note B_, 1
	note __, 3
	octave 4
	note C#, 1
	note __, 3
	note D#, 7
	note __, 1
	note D#, 3
	note C#, 1
	note __, 3
	octave 3
	note B_, 1
	note __, 3
	note G#, 5
	note A#, 1
	note __, 3
	note B_, 1
	note __, 3
	octave 4
	note C#, 1
	note __, 6
	note C#, 7
	note __, 2
	note D_, 1
	note __, 6
	note D_, 7
	note __, 2
	note D#, 12
	note __, 3
	note E_, 14
	note __, 2
	notetype $4, $A5
	octave 3
	note E_, 1
	note F#, 1
	note G#, 1
	notetype $C, $A5
	
	note A_, 7
	note __, 1
	note A_, 3
	note B_, 1
	note __, 3
	octave 4
	note C_, 8
	note __, 1
	note C_, 3
	notetype $6, $A5
	note C#, 1
	note D_, 1
	notetype $C, $A5
	note E_, 1
	note __, 3
	note D_, 7
	note __, 1
	octave 3
	note A_, 3
	octave 4
	note D_, 1
	note __, 3
	note C_, 4
	octave 3
	note B_, 1
	note A_, 2
	note __, 1
	note B_, 3
	note __, 1
	note A_, 1
	note G_, 4
	note A_, 3
	note __, 1
	octave 4
	notetype $4, $A5
	note E_, 4
	note D#, 4
	note E_, 4
	note A_, 1
	note __, 2
	notetype $C, $A5
	note __, 2
	note D#, 1
	note D_, 3
	note C_, 1
	octave 3
	note B_, 2
	note __, 1
	octave 4
	note C_, 1
	note D_, 3
	note E_, 1
	note __, 3
	note D#, 3
	notetype $4, $A5
	note D#, 1
	note D_, 1
	note C#, 1
	note C_, 1
	octave 3
	note B_, 1
	note A#, 1
	loopchannel 0, Music_NimbasaCity_Ch1_loop

Music_NimbasaCity_Ch2:
Music_NimbasaCity_Ch2_loop:
	dutycycle 2
	slidepitchto 1, 6, B_
	octave 2
	notetype $C, $A5
	note B_, 7
	note __, 1
	note B_, 3
	octave 3
	note C#, 1
	note __, 3
	note D#, 8
	note __, 1
	note D#, 4
	note F#, 1
	note __, 3
	note F_, 7
	note __, 1
	note C#, 3
	note F_, 1
	note __, 3
	note E_, 3
	note __, 1
	note D#, 1
	note C#, 2
	note __, 1
	note D#, 3
	note __, 1
	note C#, 1
	octave 2
	note A#, 4
	
	note B_, 7
	note __, 1
	note B_, 3
	octave 3
	note C#, 1
	note __, 3
	note D#, 8
	note __, 1
	note D#, 4
	note F#, 1
	note __, 3
	note F_, 7
	note __, 1
	note F_, 3
	note C#, 1
	note F_, 3
	note D#, 5
	note __, 3
	note G_, 5
	notetype $4, $A5
	note D#, 4
	note D_, 4
	note C#, 4
	

	octave 2
	notetype $C, $A5
	note B_, 7
	note __, 1
	note B_, 3
	octave 3
	note C#, 1
	note __, 3
	note D#, 8
	note __, 1
	note D#, 4
	note F#, 1
	note __, 3
	note F_, 7
	note __, 1
	note C#, 3
	note F_, 1
	note __, 3
	note E_, 3
	note __, 1
	note D#, 1
	note C#, 2
	note __, 1
	note D#, 3
	note __, 1
	note C#, 1
	octave 2
	note A#, 4
	
	note B_, 7
	note __, 1
	note B_, 3
	octave 3
	note C#, 1
	note __, 3
	note D#, 8
	note __, 1
	note D#, 4
	note F#, 1
	note __, 3
	note F_, 7
	note __, 1
	note F_, 3
	note C#, 1
	note F_, 3
	note D#, 5
	note __, 4
	notetype $4, $A5
	note D#, 4
	note G_, 4
	note A#, 4
	octave 4
	note C#, 4
	note D#, 4
	note G_, 4
	dutycycle 2
	intensity $97
	notetype $C, $97
	note E_, 8
	note C#, 8
	note F#, 8
	note C#, 8
	note D#, 14
	note C#, 1
	note D#, 1
	note E_, 8
	octave 3
	note B_, 8
	octave 4
	note C#, 16
	note D#, 8
	note C#, 8
	octave 3
	note B_, 16
	note __, 4
	notetype $4, $A5
	note D#, 4
	note D_, 4
	note D#, 4
	note F#, 4
	note G#, 4
	note A#, 4
	note B_, 4
	octave 4
	note C#, 4
	note D#, 4
	notetype $C, $97
	note E_, 8
	note C#, 8
	octave 3
	note A#, 8
	octave 4
	note G#, 8
	note F#, 16
	note D#, 12
	notetype $4, $97
	octave 3
	note A#, 4
	note B_, 4
	octave 4
	note C_, 4
	notetype $C, $97
	note C#, 1
	note __, 5
	note C#, 10
	note D_, 1
	note __, 5
	note D_, 10
	notetype $4, $97
	note __, 4
	octave 3
	note D_, 4
	note D#, 4
	note F_, 4
	note E_, 4
	note F_, 4
	note G_, 4
	note F#, 4
	note G_, 4
	note G#, 4
	note G_, 4
	note G#, 4
	note A_, 4
	note G#, 4
	note A_, 4
	note B_, 4
	note A#, 4
	note B_, 4
	note __, 4
	note A_, 4
	note B_, 4
	octave 4
	note E_, 4
	note A_, 4
	note B_, 4
	
	octave 3
	notetype $C, $A5
	note C_, 7
	note __, 1
	note C_, 3
	note D_, 1
	note __, 3
	note E_, 7
	note __, 2
	note E_, 4
	note G_, 1
	note __, 3
	note F#, 7
	note __, 1
	note D_, 3
	note F#, 1
	note __, 3
	note F_, 3
	note __, 1
	note E_, 1
	note D_, 1
	note __, 2
	note E_, 3
	note __, 1
	note D_, 1
	note C_, 2
	note __, 1
	octave 2
	note B_, 1
	note A_, 4
	notetype $4, $A5
	octave 3
	note C_, 4
	octave 2
	note B_, 4
	octave 3
	note C_, 4
	note D#, 1
	note __, 2
	notetype $C, $A5
	octave 2
	note __, 2
	note B_, 1
	note B_, 5
	note A_, 1
	note G#, 5
	note __, 4
	note G_, 3
	notetype $4, $A5
	note G_, 1
	octave 3
	note C_, 1
	octave 2
	note B_, 1
	note A#, 1
	note A_, 1
	note G#, 1
	notetype $C, $A5
	loopchannel 0, Music_NimbasaCity_Ch2_loop

Music_NimbasaCity_Ch3:
Music_NimbasaCity_Ch3_loop:
	octave 1
	dutycycle 5
	slidepitchto 1, 7, G#
	notetype $C, $15
	note G#, 3
	note __, 1
	note B_, 3
	note __, 1
	octave 2
	note D#, 3
	note __, 1
	octave 1
	note G#, 3
	note __, 1
	note B_, 3
	note __, 1
	octave 2
	note D#, 3
	note __, 1
	note F#, 3
	note __, 1
	octave 1
	note B_, 3
	note __, 1
	octave 2
	note C#, 3
	note __, 1
	note F_, 3
	note __, 1
	note G#, 3
	note __, 1
	note C#, 1
	note __, 2
	note E_, 4
	note __, 1
	octave 1
	note B_, 1
	note __, 2
	octave 2
	note F#, 4
	note __, 1
	note C#, 3
	note __, 1
	octave 1
	note G#, 3
	note __, 1
	note B_, 3
	note __, 1
	octave 2
	note D#, 3
	note __, 1
	octave 1
	note G#, 3
	note __, 1
	note B_, 3
	note __, 1
	octave 2
	note D#, 3
	note __, 1
	note F#, 3
	note __, 1
	octave 1
	note B_, 3
	note __, 1
	octave 2
	note C#, 3
	note __, 1
	note F_, 3
	note __, 1
	note G#, 3
	note __, 1
	octave 3
	note C#, 1
	note __, 2
	octave 2
	note D#, 4
	note G#, 1
	note A#, 1
	note __, 2
	note D#, 5
	note G#, 4
	
	octave 1
	note G#, 3
	note __, 1
	note B_, 3
	note __, 1
	octave 2
	note D#, 3
	note __, 1
	octave 1
	note G#, 3
	note __, 1
	note B_, 3
	note __, 1
	octave 2
	note D#, 3
	note __, 1
	note F#, 3
	note __, 1
	octave 1
	note B_, 3
	note __, 1
	octave 2
	note C#, 3
	note __, 1
	note F_, 3
	note __, 1
	note G#, 3
	note __, 1
	octave 3
	note C#, 1
	note __, 2
	octave 2
	note E_, 4
	note __, 1
	octave 1
	note B_, 1
	note __, 2
	octave 2
	note F#, 4
	note __, 1
	note C#, 3
	note __, 1
	
	octave 1
	note G#, 3
	note __, 1
	note B_, 3
	note __, 1
	octave 2
	note D#, 3
	note __, 1
	octave 1
	note G#, 3
	note __, 1
	note B_, 3
	note __, 1
	octave 2
	note D#, 3
	note __, 1
	note F#, 3
	note __, 1
	note B_, 3
	note __, 1
	note C#, 3
	note __, 1
	note F_, 3
	note __, 1
	note G#, 3
	note __, 1
	octave 3
	note C#, 1
	note __, 2
	octave 2
	note D#, 4
	note G#, 1
	note A#, 1
	note __, 2
	note D#, 5
	notetype $4, $15
	note C#, 4
	note D_, 4
	note D#, 4
	notetype $C, $15
	
	note C#, 3
	note __, 1
	note E_, 3
	note __, 1
	note G#, 3
	note __, 1
	note C#, 3
	note __, 1
	octave 1
	note F#, 3
	note __, 1
	note A#, 3
	note __, 1
	note B_, 3
	note __, 1
	octave 2
	note C#, 3
	note __, 1
	octave 1
	note B_, 3
	note __, 1
	note F#, 3
	note __, 1
	note B_, 3
	note __, 1
	octave 2
	note D#, 3
	note __, 1
	note E_, 3
	note __, 1
	note G#, 3
	note __, 1
	note E_, 3
	note __, 1
	octave 1
	note B_, 3
	note __, 1
	
	note A#, 3
	note __, 1
	octave 2
	note C#, 3
	note __, 1
	note F_, 3
	note __, 1
	note A#, 3
	note __, 1
	note D#, 3
	note __, 1
	note G_, 3
	note __, 1
	note G#, 3
	note __, 1
	note A#, 3
	note __, 1
	octave 1
	note G#, 3
	note __, 1
	octave 2
	note D#, 3
	note __, 1
	note G#, 3
	note __, 1
	note B_, 1
	note __, 2
	note C_, 5
	note G#, 1
	note __, 2
	octave 3
	note C_, 3
	note __, 1
	octave 2
	note G#, 1
	note D#, 3
	note C_, 1
	
	note C#, 3
	note __, 1
	note E_, 3
	note __, 1
	note G#, 3
	note __, 1
	note E_, 3
	note __, 1
	octave 1
	note F#, 3
	note __, 1
	note A#, 3
	note __, 1
	note B_, 3
	note __, 1
	octave 2
	note C#, 3
	note __, 1
	octave 1
	note B_, 3
	note __, 1
	octave 2
	note D#, 3
	note __, 1
	note F#, 3
	note __, 1
	note D#, 3
	note __, 1
	note E_, 3
	note __, 1
	note G#, 3
	note __, 1
	note A#, 3
	note __, 1
	note B_, 3
	note __, 1
	
	octave 1
	note A#, 2
	note __, 1
	note A#, 1
	note __, 2
	note A#, 4
	note __, 2
	notetype $4, $15
	note A#, 4
	octave 2
	note C#, 4
	note F_, 4
	octave 1
	notetype $C, $15
	note A#, 2
	note __, 1
	note A#, 1
	note __, 2
	octave 2
	note D_, 4
	note __, 2
	octave 1
	note A#, 4
	note D#, 3
	note __, 1
	note G#, 3
	note __, 1
	note A#, 3
	note __, 1
	note D#, 1
	note __, 2
	note E_, 4
	note __, 1
	note A_, 1
	note __, 2
	note B_, 5
	note G#, 1
	note __, 3
	
	octave 1
	note A_, 3
	note __, 1
	octave 2
	note C_, 3
	note __, 1
	note E_, 3
	note __, 1
	note A_, 3
	note __, 1
	note C_, 3
	note __, 1
	note E_, 3
	note __, 1
	note G_, 3
	note __, 1
	octave 3
	note C_, 3
	note __, 1
	octave 2
	note D_, 3
	note __, 1
	note F#, 3
	note __, 1
	note A_, 3
	note __, 1
	octave 3
	note D_, 1
	note __, 2
	octave 2
	note F_, 4
	note __, 1
	note C_, 1
	note __, 2
	note G_, 4
	note __, 1
	note D_, 3
	note __, 1
	
	octave 1
	note A_, 3
	note __, 1
	octave 2
	note A_, 3
	note __, 1
	note G#, 3
	note __, 1
	note G_, 3
	note __, 1
	note F#, 3
	note __, 1
	note F_, 3
	note E_, 1
	note __, 3
	note D#, 4
	note __, 1
	loopchannel 0, Music_NimbasaCity_Ch3_loop

Music_NimbasaCity_Ch4:
	togglenoise $1
Music_NimbasaCity_Ch4_loop:
Music_NimbasaCity_Ch4_loop1:
	notetype $C
	note B_, 1
	note __, 2
	note B_, 1
	note __, 3
	note B_, 1
	loopchannel 6, Music_NimbasaCity_Ch4_loop1
	
	note __, 3
	note B_, 1
	note __, 3
	note B_, 1
	
Music_NimbasaCity_Ch4_loop2:
	note B_, 1
	note __, 2
	note B_, 1
	note __, 3
	note B_, 1
	loopchannel 7, Music_NimbasaCity_Ch4_loop2
	
	note __, 7
	note B_, 1
	note __, 3
	note B_, 1
	note B_, 1
	note __, 2
	note B_, 1
	
Music_NimbasaCity_Ch4_loop3:
	note B_, 1
	note __, 2
	note B_, 1
	note __, 3
	note B_, 1
	loopchannel 6, Music_NimbasaCity_Ch4_loop3
	
	note __, 3
	note B_, 1
	note __, 3
	note B_, 1
	
Music_NimbasaCity_Ch4_loop4:
	note B_, 1
	note __, 2
	note B_, 1
	note __, 3
	note B_, 1
	loopchannel 7, Music_NimbasaCity_Ch4_loop4
	
	note __, 7
	note B_, 1
	note __, 3
	note B_, 1
	note B_, 1
	note __, 2
	note B_, 1
	
Music_NimbasaCity_Ch4_loop5:
	note B_, 1
	note __, 2
	note B_, 1
	note __, 3
	note B_, 1
	loopchannel 5, Music_NimbasaCity_Ch4_loop5
	
	note B_, 1
	note __, 2
	note B_, 1
	note __, 4
	
Music_NimbasaCity_Ch4_loop6:
	note B_, 1
	note __, 2
	note B_, 1
	note __, 3
	note B_, 1
	loopchannel 8, Music_NimbasaCity_Ch4_loop6
	
	note __, 7
	note B_, 1
	note __, 3
	note B_, 1
	note B_, 1
	note __, 2
	note B_, 1
	
Music_NimbasaCity_Ch4_loop7:
	note B_, 1
	note __, 2
	note B_, 1
	note __, 3
	note B_, 1
	loopchannel 6, Music_NimbasaCity_Ch4_loop7
	
	note __, 3
	note B_, 1
	note __, 3
	note B_, 1
	
Music_NimbasaCity_Ch4_loop8:
	note B_, 1
	note __, 2
	note B_, 1
	note __, 3
	note B_, 1
	loopchannel 2, Music_NimbasaCity_Ch4_loop8
	
	note __, 3
	note B_, 1
	note __, 3
	note B_, 1
	note B_, 1
	note __, 2
	note B_, 1
	note __, 3
	note B_, 1
	note __, 3
	note B_, 1
	note __, 3
	note B_, 1
	
Music_NimbasaCity_Ch4_loop9:
	note B_, 1
	note __, 2
	note B_, 1
	note __, 3
	note B_, 1
	loopchannel 2, Music_NimbasaCity_Ch4_loop9
	
	note __, 7
	note B_, 1
	note __, 3
	note B_, 1
	note B_, 1
	note __, 2
	note B_, 1
	
Music_NimbasaCity_Ch4_loop10:
	note B_, 1
	note __, 2
	note B_, 1
	note __, 3
	note B_, 1
	loopchannel 6, Music_NimbasaCity_Ch4_loop10
	
	note __, 3
	note B_, 1
	note __, 3
	note B_, 1
	note B_, 1
	note __, 2
	note B_, 1
	note __, 3
	note B_, 1
	
Music_NimbasaCity_Ch4_loop11:
	note B_, 1
	note __, 6
	note B_, 1
	loopchannel 3, Music_NimbasaCity_Ch4_loop11
	
	note __, 3
	note B_, 1
	note __, 3
	note B_, 1
	loopchannel 0, Music_NimbasaCity_Ch4_loop

