Music_RocketBattle:
	musicheader 3, 1, Music_VsPlasmaGrunt_Ch1
	musicheader 1, 2, Music_VsPlasmaGrunt_Ch2
	musicheader 1, 3, Music_VsPlasmaGrunt_Ch3

Music_VsPlasmaGrunt_Ch1:
	tempo $67
	volume $77
	stereopanning $77
        tone 1
	dutycycle 3
	vibrato $00, $13
	octave 3
	notetype $C, $C7
	note B_, 1
	note A#, 1
	note A_, 1
	note G#, 1
	note A#, 1
	note A_, 1
	note G#, 1
	note G_, 1
	note A_, 1
	note G#, 1
	note G_, 1
	note F#, 1
	note G#, 1
	note G_, 1
	note F#, 1
	note F_, 1
	note G_, 1
	note F#, 1
	note F_, 1
	note E_, 1
	note F#, 1
	note F_, 1
	note E_, 1
	note D#, 1
	note F_, 1
	note E_, 1
	note D#, 1
	note D_, 1
	note E_, 1
	note D#, 1
	note D_, 1
	note C#, 1
	note C_, 16
	notetype $8, $C7
	note E_, 4
	note G_, 4
	note E_, 4
	note C_, 4
	note C#, 4
	octave 2
	note A#, 4
	octave 3
	notetype $C, $C7
	note C_, 16
	notetype $8, $C7
	note E_, 4
	note G_, 4
	note E_, 4
	note A#, 4
	note F#, 4
	note G_, 4
	intensity $C2
	note G_, 3
	note __, 6
	note G_, 3
	note __, 6
	note G_, 3
	note __, 6
	note G_, 3
	note __, 6
	intensity $C7
	note G#, 6
	note F_, 6
	intensity $C2
	note G_, 3
	note __, 6
	note G_, 3
	note __, 6
	note G_, 3
	note __, 3
	note D#, 3
	note C_, 3
	note C#, 3
	note D#, 3
	note __, 3
	note D#, 3
	note C#, 6
Music_VsPlasmaGrunt_Ch1_loop:
	intensity $C7
        octave 2
	note G_, 9
	note D#, 9
	note G_, 6
	note G#, 9
	note A#, 9
	note B_, 6
	octave 3
	note C_, 9
	octave 2
	note A#, 9
	note G_, 6
	note C_, 3
	notetype $C, $C7
	note __, 1
	note D_, 1
	note D#, 8
	note C#, 2
	note D#, 1
	note C#, 1
	note G_, 6
	note D#, 6
	note G_, 4
	note G#, 6
	note A#, 6
	note B_, 4
	octave 3
	note C_, 6
	octave 2
	note G_, 6
	octave 3
	note C_, 4
	octave 2
	note C_, 2
	note __, 1
	note D_, 1
	note D#, 8
	note G_, 4
	note D_, 6
	note A_, 6
	note F_, 4
	note A#, 6
	octave 3
	note C_, 6
	note C#, 4
	note D_, 2
	note __, 1
	note E_, 1
	note F_, 8
	note D_, 4
	octave 2
	note D_, 2
	note __, 1
	note E_, 1
	note F_, 8
	note D_, 2
	note A_, 1
	note D_, 1
	octave 2
	note B_, 6
	note G_, 6
	note E_, 4
	note A_, 16
	note B_, 6
	note G_, 6
	note B_, 4
	octave 3
	note C_, 8
	octave 2
	note A_, 2
	note F_, 2
	octave 3
	note C_, 2
	octave 2
	note A_, 2
	octave 3
	note G_, 6
	note A#, 6
	note A_, 4
	note G_, 6
	note E_, 6
	note F_, 4
	note G_, 6
	note A#, 6
	note A_, 4
	note G_, 6
	octave 4
	note F_, 6
	note C#, 4
	intensity $C8
	note G_, 16
	note F#, 16
	note G_, 14
	intensity $C7
	note A_, 1
	note G_, 1
	note F#, 2
	note __, 4
	note F#, 2
	note __, 4
	note F#, 4
	octave 3
	note A_, 6
	note F_, 6
	note A_, 4
	note F_, 6
	note G_, 6
	note A_, 4
	note F_, 6
	note D_, 6
	note F_, 4
	note D_, 2
	note __, 1
	note E_, 1
	note F_, 8
	note D#, 2
	note F_, 1
	note D#, 1
	note A_, 6
	note F_, 6
	note A_, 4
	note A#, 6
	octave 4
	note C_, 6
	note C#, 4
	octave 3
	note A_, 6
	note F_, 6
	note A_, 4
	note D_, 2
	note __, 1
	note E_, 1
	note F_, 6
	note D#, 1
	note F_, 1
	note A_, 4
	note G_, 6
	note E_, 6
	note G_, 4
	note A_, 6
	octave 4
	note C_, 6
	note D#, 4
	note E_, 2
	note __, 1
	note F#, 1
	note G_, 12
	octave 3
	note G_, 2
	note __, 1
	note A_, 1
	note B_, 12
	intensity $C2
	note D_, 3
	note D#, 3
	note D_, 2
	note F_, 3
	note D#, 3
	note C_, 2
	note D_, 3
	note D#, 3
	note F_, 2
	note D#, 3
	note F_, 3
	note G#, 2
	note G_, 3
	note G#, 3
	note G_, 2
	note A#, 3
	note G#, 3
	note F_, 2
	note G_, 3
	note G#, 3
	note A#, 2
	note G#, 2
	note __, 1
	note A#, 2
	note __, 1
	octave 4
	note C#, 2
	intensity $C7
	note D#, 16
	note F_, 8
	note C#, 8
	note C_, 16
	octave 3
	note G_, 2
	note D#, 2
	note C_, 2
	note G_, 2
	note D#, 2
	note C_, 2
	note D#, 2
	note G_, 2
	octave 4
	note D#, 16
	note F_, 8
	note C#, 8
	note D#, 16
	intensity $28
	note G_, 2
	intensity $38
	note G_, 2
	intensity $48
	note G_, 2
	intensity $58
	note G_, 2
	intensity $68
	note G_, 2
	intensity $78
	note G_, 2
	intensity $88
	note G_, 3
	intensity $C2
	octave 3
	note A#, 1
	octave 4
	notetype $8, $C2
	note C#, 2
	note F_, 2
	note G#, 2
	octave 5
	note C_, 2
	note C#, 2
	note C_, 2
	octave 4
	note G#, 2
	note F_, 2
	note C#, 2
	octave 3
	note G#, 2
	note F_, 2
	note G#, 2
	octave 4
	note C#, 2
	note F_, 2
	note G#, 2
	octave 5
	note C_, 2
	note C#, 2
	note C_, 2
	octave 4
	note G#, 2
	note F_, 2
	note C#, 2
	octave 3
	note G#, 2
	note F_, 2
	note G#, 2
	octave 4
	note C#, 2
	note F_, 2
	note G#, 2
	octave 5
	note C_, 2
	note C#, 2
	note C_, 2
	octave 4
	note G#, 2
	note F_, 2
	note C#, 2
	octave 3
	note G#, 2
	note F_, 2
	note G#, 2
	note A#, 2
	octave 4
	note C#, 2
	note F_, 2
	note A_, 2
	note A#, 2
	note A_, 2
	note F_, 2
	note C#, 2
	octave 3
	note A#, 2
	note F_, 2
	note C#, 2
	note F_, 2
	intensity $5F
	note G_, 12
	intensity $C8
	note G_, 12
	intensity $5F
	note A#, 12
	intensity $C8
	note A#, 12
	intensity $5F
	octave 4
	note C_, 12
	intensity $C8
	note C_, 12
	intensity $C2
	note C_, 3
	note __, 6
	note C_, 3
	note __, 3
	note D#, 3
	intensity $C7
	note C#, 6
	intensity $C2
	note C#, 2
	note F#, 2
	note A#, 2
	octave 5
	note C_, 2
	note C#, 2
	note C_, 2
	octave 4
	note A#, 2
	note F#, 2
	note C#, 2
	octave 3
	note A#, 2
	note F#, 2
	note A#, 2
	octave 4
	note C#, 2
	note F#, 2
	note A#, 2
	octave 5
	note C_, 2
	note C#, 2
	note C_, 2
	octave 4
	note A#, 2
	note F#, 2
	note C#, 2
	octave 3
	note A#, 2
	note F#, 2
	note A#, 2
	octave 4
	note C#, 2
	note F#, 2
	note A#, 2
	octave 5
	note C_, 2
	note C#, 2
	note C_, 2
	octave 4
	note A#, 2
	note F#, 2
	note C#, 2
	octave 3
	note A#, 2
	note F#, 2
	note A#, 2
	note A#, 2
	octave 4
	note C#, 2
	note F_, 2
	note G#, 2
	note A#, 2
	note G#, 2
	note F_, 2
	note C#, 2
	octave 3
	note A#, 2
	note F_, 2
	note C#, 2
	note F_, 2
	intensity $C7
	octave 4
	note C_, 9
	octave 3
	note A#, 9
	note G#, 6
	note G_, 9
	note G#, 9
	note A#, 6
	octave 4
	note C_, 9
	note C#, 9
	octave 3
	note B_, 6
	intensity $5F
	octave 4
	note C_, 6
	intensity $C7
	note C_, 6
	intensity $5F
	note E_, 6
	intensity $C7
	note E_, 6
	loopchannel 0, Music_VsPlasmaGrunt_Ch1_loop

Music_VsPlasmaGrunt_Ch2:
        tone 2
	dutycycle 3
	vibrato $00, $24
	octave 4
	notetype $C, $C7
	note G_, 4
	note G#, 4
	note A_, 4
	note A#, 1
	note F#, 1
	note G_, 1
	note F#, 1
	note B_, 1
	note G_, 1
	note G#, 1
	note G_, 1
	octave 5
	note C_, 1
	octave 4
	note G#, 1
	note A_, 1
	note G#, 1
	octave 5
	note C#, 1
	octave 4
	note A_, 1
	note A#, 1
	note A_, 1
	octave 5
	note D_, 1
	octave 4
	note A#, 1
	note B_, 1
	note A#, 1
	notetype $8, $C7
	note C_, 4
	note F#, 2
	note G#, 4
	note G_, 2
	note A#, 4
	note G_, 2
	octave 5
	note D#, 6
	note E_, 16
	note __, 8
	octave 4
	note C_, 4
	note F#, 2
	note G#, 4
	note G_, 2
	note A#, 4
	note G_, 2
	note B_, 6
	octave 5
	note C_, 16
	note __, 8
	; note C_, 4
	; octave 3
	; note C_, 4
	; note A#, 4
	; octave 2
	; note A#, 2
	; octave 3
	; note G#, 2
	; note __, 2
	; note G#, 2
	; note G_, 2
	; note F_, 2
	; note G_, 4
	; note A#, 2
	; note B_, 2
	; octave 4
	; note C_, 4
	; octave 3
	; note C_, 4
	; octave 4
	; note C#, 4
	; octave 3
	; note C#, 2
	; octave 4
	; note D#, 2
	; note __, 2
	; note D#, 2
	; octave 3
	; note G_, 2
	; note A#, 2
	; octave 4
	; note F_, 4
	; note G_, 4
	notetype $C, $C7
	octave 4
	intensity $C2
	note C_, 2
	note __, 14
	note C_, 2
	note __, 8
	intensity $C7
	note C#, 4
	note D#, 1
	note C#, 1
	intensity $C2
	note C_, 2
	note __, 14
	note C_, 2
	octave 3
	note D#, 2
	note G_, 2
	octave 4
	note C_, 2
	note __, 2
	note C_, 2
	intensity $C7
	note F#, 4
Music_VsPlasmaGrunt_Ch2_loop:
        intensity $C7
        octave 3
	note C_, 12
	note G_, 4
	note D#, 6
	note G#, 6
	note G_, 4
	note D#, 2
	note __, 1
	note D_, 1
	note C_, 12
	note __, 16
	note C_, 12
	note G_, 4
	note D#, 6
	note G#, 6
	note G_, 4
	note D#, 2
	note __, 1
	note F_, 1
	note G_, 12
	note __, 16
	note D_, 12
	note A_, 4
	note G_, 6
	note A#, 6
	note A_, 4
	note F_, 2
	note __, 1
	note G_, 1
	note A_, 12
	note __, 14
	octave 3
	note E_, 1
	note D_, 1
	intensity $C2
	note E_, 2
	note __, 2
	note E_, 2
	note __, 2
	notetype $F, $C2
	note E_, 2
	note E_, 2
	notetype $C, $C2
	note E_, 2
	note __, 1
	notetype $F, $C2
	note E_, 2
	notetype $C, $C2
	note G_, 2
	note __, 1
	notetype $F, $C2
	note G_, 2
	note F_, 2
	notetype $C, $C2
	note D_, 2
	note __, 1
	notetype $F, $C2
	note F_, 2
	notetype $C, $C2
	note E_, 2
	note __, 2
	note E_, 2
	note __, 2
	notetype $F, $C2
	note E_, 2
	note E_, 2
	notetype $C, $C2
	note E_, 2
	note __, 1
	notetype $F, $C2
	note E_, 2
	notetype $C, $C2
	note G_, 2
	note __, 1
	notetype $F, $C2
	note G_, 2
	note F_, 2
	notetype $C, $C2
	note A#, 2
	note __, 1
	notetype $F, $C2
	note A_, 2
	octave 4
	notetype $C, $C2
	note E_, 2
	note __, 2
	note E_, 2
	note __, 2
	notetype $F, $C2
	note E_, 2
	note E_, 2
	notetype $C, $C2
	note E_, 2
	note __, 1
	notetype $F, $C2
	note E_, 2
	notetype $C, $C2
	note G_, 2
	note __, 1
	notetype $F, $C2
	note G_, 2
	note F_, 2
	notetype $C, $C2
	note D_, 2
	note __, 1
	notetype $F, $C2
	note F_, 2
	notetype $C, $C2
	note E_, 2
	note __, 2
	note E_, 2
	note __, 2
	notetype $F, $C2
	note E_, 2
	note E_, 2
	notetype $C, $C2
	note E_, 2
	note __, 1
	notetype $F, $C2
	note E_, 2
	notetype $C, $C2
	note G_, 2
	note __, 1
	notetype $F, $C2
	note G_, 2
	note F_, 2
	notetype $C, $C2
	note A#, 2
	note __, 1
	octave 5
	notetype $F, $C2
	note C#, 2
	vibrato $00, $00
	notetype $C, $A8
	note D_, 16
	note D_, 16
	note D_, 8
	intensity $85
	note D_, 8
	intensity $38
	note D_, 2
	intensity $48
	note D_, 2
	intensity $58
	note D_, 2
	intensity $68
	note D_, 2
	intensity $78
	vibrato $00, $24
	note D_, 2
	intensity $88
	note D_, 2
	intensity $A8
	note D_, 4
	intensity $C7
	octave 4
	note D_, 12
	note A_, 4
	note F_, 6
	note A#, 6
	note A_, 4
	note F_, 2
	note __, 1
	note E_, 1
	note D_, 12
	note __, 16
	note D_, 12
	note A_, 4
	note F_, 6
	note A#, 6
	note A_, 4
	note F_, 2
	note __, 1
	note G_, 1
	note A_, 12
	note __, 16
	note E_, 12
	note B_, 4
	note A_, 6
	octave 5
	note C_, 6
	octave 4
	note B_, 4
	note G_, 2
	note __, 1
	note A_, 1
	note B_, 12
	note __, 16
	intensity $C2
	octave 3
	note A_, 3
	note A#, 3
	note A_, 2
	octave 4
	note C_, 3
	octave 3
	note A#, 3
	note G_, 2
	note A_, 3
	note A#, 3
	octave 4
	note C_, 2
	octave 3
	note A#, 3
	octave 4
	note C_, 3
	note D#, 2
	note D_, 3
	note D#, 3
	note D_, 2
	note F_, 3
	note D#, 3
	note C_, 2
	note D_, 3
	note D#, 3
	note F_, 2
	note D#, 2
	note __, 1
	note F_, 2
	note __, 1
	note G#, 2
	intensity $C7
	note G_, 16
	note G#, 14
	note A#, 1
	note G#, 1
	note G_, 16
	intensity $28
	note C_, 2
	intensity $38
	note C_, 2
	intensity $48
	note C_, 2
	intensity $58
	note C_, 2
	intensity $68
	note C_, 2
	intensity $78
	note C_, 2
	intensity $88
	note C_, 2
	intensity $A8
	note C_, 2
	intensity $C7
	note G_, 16
	note G#, 14
	note A#, 1
	note G#, 1
	note G_, 14
	note F_, 1
	note G_, 1
	intensity $28
	octave 5
	note C_, 2
	intensity $38
	note C_, 2
	intensity $48
	note C_, 2
	intensity $58
	note C_, 2
	intensity $68
	note C_, 2
	intensity $78
	note C_, 2
	intensity $88
	note C_, 2
	intensity $A8
	note C_, 2
	intensity $C7
	octave 4
	note C#, 16
	note G#, 16
	note A#, 16
	octave 5
	note C#, 14
	note D#, 1
	note C#, 1
	intensity $C2
	note C_, 2
	note C_, 2
	note __, 2
	note C_, 2
	note __, 2
	note C_, 2
	note __, 2
	note C_, 2
	note __, 2
	note C_, 2
	note __, 2
	intensity $C7
	octave 4
	note G_, 1
	octave 5
	note C_, 1
	octave 4
	note A#, 4
	note B_, 4
	octave 5
	note C_, 6
	octave 4
	note G_, 10
	intensity $C2
	note D#, 2
	note __, 4
	note D#, 2
	note __, 2
	note G_, 2
	note F_, 2
	octave 5
	note D#, 2
	intensity $C8
	note C#, 8
	intensity $C7
	note C#, 8
	intensity $C8
	octave 4
	note A#, 8
	intensity $C7
	note A#, 8
	intensity $C8
	octave 5
	note C#, 8
	intensity $C7
	note C#, 8
	intensity $C8
	note F#, 8
	intensity $C7
	note F#, 6
	note D#, 1
	note C#, 1
	intensity $C3
	note C_, 4
	note __, 16
	note __, 16
	note __, 16
	note __, 6
	intensity $C5
	octave 4
	note C_, 2
	note E_, 4
	loopchannel 0, Music_VsPlasmaGrunt_Ch2_loop

Music_VsPlasmaGrunt_Ch3:
	dutycycle 9
	octave 3
	notetype $C, $19
	note F#, 2
	octave 4
	note C_, 2
	octave 3
	note F_, 2
	note B_, 2
	note E_, 2
	note A#, 2
	note D#, 2
	note A_, 2
	note D_, 2
	note G#, 2
	note C#, 2
	note G_, 2
	note C_, 2
	note C#, 2
	note D#, 2
	note C#, 2
	note C_, 2
	note G_, 2
	note C_, 2
	note G_, 2
	note G_, 2
	note C_, 2
	note C_, 2
	note G_, 2
	octave 2
	note A#, 2
	octave 3
	note F_, 2
	octave 2
	note A#, 2
	octave 3
	note F_, 2
	note F_, 2
	octave 2
	note A#, 2
	note A#, 2
	octave 3
	note F_, 2
	note C_, 2
	note G_, 2
	note C_, 2
	note G_, 2
	note G_, 2
	note C_, 2
	note C_, 2
	note G_, 2
	note C#, 2
	note G#, 2
	note C#, 2
	note G#, 2
	note G#, 2
	note C#, 2
	note F_, 2
	note G#, 2
	note C_, 2
	note C_, 2
	note __, 12
	; note D_, 2
	; note D#, 2
	; octave 2
	; note G_, 2
	; octave 3
	; note D#, 2
	; note C#, 2
	; octave 2
	; note A#, 2
	; octave 3
	note C_, 2
	note C_, 2
	note __, 4
	note C_, 2
	note C_, 2
	note __, 4
	; note D_, 2
	; note D#, 2
	; octave 2
	; note G_, 2
	; octave 3
	; note G_, 2
	; note D#, 2
	; octave 2
	; note A#, 2
	; octave 3
	note C_, 2
	note C_, 2
	note __, 4
	note C_, 2
	note C_, 2
	note __, 4
	; note D_, 2
	; note D#, 2
	; octave 2
	; note G_, 2
	; octave 3
	; note D#, 2
	; note C#, 2
	; octave 2
	; note A#, 2
	octave 3
	note C_, 2
	notetype $D, $19
	note D#, 2
	notetype $B, $19
	note __, 2
	notetype $D, $19
	note D#, 2
	notetype $B, $19
	note __, 2
	notetype $C, $19
	note D#, 2
	octave 2
	note A#, 2
	note B_, 2
Music_VsPlasmaGrunt_Ch3_loop:
        notetype $C, $19
	octave 3
	note C_, 2
	note G_, 2
	note C_, 2
	note G_, 2
	note C_, 2
	note G_, 2
	note C_, 2
	note G_, 2
	note C_, 2
	note G_, 2
	note C_, 2
	note G_, 2
	note C_, 2
	note G_, 2
	note D#, 2
	note G#, 2
	note C_, 2
	note G_, 2
	note C_, 2
	note G_, 2
	note C_, 2
	note G_, 2
	note C_, 2
	note G_, 2
	note C_, 2
	note D#, 2
	note G_, 2
	note C_, 2
	note D#, 2
	note G_, 2
	note C_, 2
	note C#, 2
	note C_, 2
	note G_, 2
	note C_, 2
	note G_, 2
	note C_, 2
	note G_, 2
	note C_, 2
	note G_, 2
	note C_, 2
	note G_, 2
	note C_, 2
	note G_, 2
	note C_, 2
	note G_, 2
	note D#, 2
	note G#, 2
	note C_, 2
	note G_, 2
	note C_, 2
	note G_, 2
	note C_, 2
	note G_, 2
	note C_, 2
	note G_, 2
	note C_, 2
	note D#, 2
	note G_, 2
	note C_, 2
	note D#, 2
	note G_, 2
	note D#, 2
	note C#, 2
	note D_, 2
	note A_, 2
	note D_, 2
	note A_, 2
	note D_, 2
	note A_, 2
	note D_, 2
	note A_, 2
	note D_, 2
	note A#, 2
	note D_, 2
	note A#, 2
	note D_, 2
	octave 4
	note C_, 2
	octave 3
	note A#, 2
	note G_, 2
	note D_, 2
	note A_, 2
	note D_, 2
	note A_, 2
	note D_, 2
	note A_, 2
	note D_, 2
	note A_, 2
	note D_, 2
	note A_, 2
	note D_, 2
	note A_, 2
	note D_, 2
	note A_, 2
	note D_, 2
	note F_, 2
	note E_, 2
	octave 2
	note B_, 2
	note B_, 2
	octave 3
	note E_, 2
	octave 2
	note B_, 2
	note B_, 2
	octave 3
	note E_, 2
	octave 2
	note B_, 2
	octave 3
	note E_, 2
	octave 2
	note B_, 2
	note B_, 2
	octave 3
	note E_, 2
	note D_, 2
	octave 2
	note A#, 2
	note A#, 2
	octave 3
	note D_, 2
	note E_, 2
	octave 2
	note B_, 2
	note B_, 2
	octave 3
	note E_, 2
	octave 2
	note B_, 2
	note B_, 2
	octave 3
	note E_, 2
	octave 2
	note B_, 2
	octave 3
	note E_, 2
	octave 2
	note B_, 2
	note B_, 2
	octave 3
	note E_, 2
	note F_, 2
	note D_, 2
	note D_, 2
	note C_, 2
	note E_, 2
	octave 2
	note B_, 2
	note B_, 2
	octave 3
	note E_, 2
	octave 2
	note B_, 2
	note B_, 2
	octave 3
	note E_, 2
	octave 2
	note B_, 2
	octave 3
	note E_, 2
	octave 2
	note B_, 2
	note B_, 2
	octave 3
	note E_, 2
	note D_, 2
	octave 2
	note A#, 2
	note A#, 2
	octave 3
	note D_, 2
	note E_, 2
	octave 2
	note B_, 2
	note B_, 2
	octave 3
	note E_, 2
	octave 2
	note B_, 2
	note B_, 2
	octave 3
	note E_, 2
	octave 2
	note B_, 2
	octave 3
	note E_, 2
	octave 2
	note B_, 2
	note B_, 2
	octave 3
	note E_, 2
	note F_, 2
	note D_, 2
	note C_, 2
	note D_, 2
	note D_, 2
	note D#, 2
	note F_, 2
	note D#, 1
	note D_, 1
	note A_, 2
	note F_, 2
	note A#, 2
	note A_, 1
	octave 4
	note C#, 1
	octave 3
	note D_, 2
	note D#, 2
	note F_, 2
	note D#, 1
	note D_, 1
	note A_, 2
	note F_, 2
	note A#, 2
	note A_, 1
	octave 4
	note C#, 1
	octave 3
	note D_, 2
	note D#, 2
	note F_, 2
	note D#, 1
	note D_, 1
	note A_, 2
	note F_, 2
	note A#, 2
	note A_, 1
	octave 4
	note C#, 1
	octave 3
	note D_, 2
	octave 2
	note A_, 2
	note A_, 2
	octave 3
	note D_, 2
	octave 2
	note A_, 2
	note A_, 2
	octave 3
	note D_, 2
	note C#, 2
	note D_, 2
	note A_, 2
	note D_, 2
	note A_, 2
	note D_, 2
	note A_, 2
	note D_, 2
	note A_, 2
	note D_, 2
	note A_, 2
	note D_, 2
	note A_, 2
	note D_, 2
	note A#, 2
	note F_, 2
	note A#, 2
	note D_, 2
	note A_, 2
	note D_, 2
	note A_, 2
	note D_, 2
	note A_, 2
	note D_, 2
	note A_, 2
	note D_, 2
	note D#, 2
	note F_, 2
	note D_, 2
	note D#, 2
	note F_, 2
	note D_, 2
	note D#, 2
	note D_, 2
	note A_, 2
	note D_, 2
	note A_, 2
	note D_, 2
	note A_, 2
	note D_, 2
	note A_, 2
	note D_, 2
	note A#, 2
	note D_, 2
	note A#, 2
	note D_, 2
	note A#, 2
	octave 4
	note C_, 2
	octave 3
	note A#, 2
	note D_, 2
	note A_, 2
	note D_, 2
	note A_, 2
	note D_, 2
	note A_, 2
	note D_, 2
	note A_, 2
	note A_, 2
	note F_, 2
	note D_, 2
	note A_, 2
	note F_, 2
	note D_, 2
	note A_, 2
	note A#, 2
	note E_, 2
	note B_, 2
	note E_, 2
	note B_, 2
	note E_, 2
	note B_, 2
	note E_, 2
	note B_, 2
	note E_, 2
	octave 4
	note C_, 2
	octave 3
	note E_, 2
	octave 4
	note C_, 2
	octave 3
	note E_, 2
	octave 4
	note D_, 2
	note C_, 2
	octave 3
	note A_, 2
	note E_, 2
	note B_, 2
	note E_, 2
	note B_, 2
	note E_, 2
	note B_, 2
	note E_, 2
	note B_, 2
	note E_, 2
	note B_, 2
	note E_, 2
	note B_, 2
	note E_, 2
	note B_, 2
	note E_, 2
	note A_, 2
	note D_, 8
	octave 2
	note A_, 8
	octave 3
	note D_, 8
	octave 2
	note A_, 8
	octave 3
	note G_, 8
	note D_, 8
	note G_, 8
	notetype $E, $19
	note D_, 2
	notetype $8, $19
	note __, 1
	notetype $E, $19
	note D_, 2
	notetype $8, $19
	note __, 1
	note C#, 3
	note C_, 3
	note D#, 3
	note G_, 3
	note C_, 3
	note D#, 3
	note G_, 3
	note C_, 3
	note D#, 3
	note C#, 3
	note F_, 3
	note G#, 3
	note C#, 3
	note F_, 3
	note G#, 3
	note C#, 3
	note F_, 3
	note C_, 3
	note D#, 3
	note G_, 3
	note C_, 3
	note D#, 3
	note G_, 3
	note C_, 3
	note D#, 3
	note C_, 3
	note D#, 3
	note C_, 3
	note D#, 3
	note G_, 3
	note D#, 3
	note C_, 3
	octave 2
	note G_, 3
	octave 3
	note C_, 3
	note D#, 3
	note G_, 3
	note C_, 3
	note D#, 3
	note G_, 3
	note C_, 3
	note D#, 3
	note C#, 3
	note F_, 3
	note G#, 3
	note C#, 3
	note F_, 3
	note G#, 3
	note C#, 3
	note F_, 3
	note C_, 3
	note D#, 3
	note G_, 3
	note C_, 3
	note D#, 3
	note G_, 3
	note C_, 3
	note D#, 3
	note C_, 3
	note D#, 3
	note C_, 3
	note D#, 3
	note G_, 3
	note C_, 3
	note D#, 3
	note G_, 3
	note C#, 3
	note C#, 3
	note D#, 3
	note F_, 3
	octave 2
	note G#, 3
	octave 3
	note F_, 3
	note D#, 3
	note C_, 3
	note C#, 3
	note C#, 3
	note D#, 3
	note F_, 3
	octave 2
	note G#, 3
	octave 3
	note G#, 3
	note F_, 3
	note D#, 3
	note C#, 3
	note C#, 3
	note D#, 3
	note F_, 3
	octave 2
	note G#, 3
	octave 3
	note F_, 3
	note D#, 3
	note C_, 3
	note C#, 3
	note C#, 3
	note D#, 3
	note F_, 3
	octave 2
	note A#, 3
	octave 3
	note F_, 3
	octave 2
	note A#, 3
	octave 3
	note C#, 3
	note C_, 3
	note C_, 3
	note D_, 3
	note D#, 3
	octave 2
	note G_, 3
	octave 3
	note D#, 3
	note C#, 3
	octave 2
	note A#, 3
	octave 3
	note C_, 3
	note C_, 3
	note D_, 3
	note D#, 3
	octave 2
	note G_, 3
	octave 3
	note G_, 3
	note D#, 3
	octave 2
	note A#, 3
	octave 3
	note C_, 3
	note C_, 3
	note D_, 3
	note D#, 3
	octave 2
	note G_, 3
	octave 3
	note D#, 3
	note C#, 3
	octave 2
	note A#, 3
	octave 3
	note C_, 3
	note C_, 3
	note D_, 3
	note D#, 3
	octave 2
	note G_, 3
	octave 3
	note G_, 3
	note D#, 3
	octave 2
	note A#, 3
	octave 3
	note C#, 3
	note C#, 3
	note D#, 3
	note F_, 3
	octave 2
	note G#, 3
	octave 3
	note F_, 3
	note D#, 3
	note C_, 3
	note C#, 3
	note C#, 3
	note D#, 3
	note F_, 3
	octave 2
	note G#, 3
	octave 3
	note G#, 3
	note F_, 3
	note D#, 3
	note C#, 3
	note C#, 3
	note D#, 3
	note F_, 3
	octave 2
	note G#, 3
	octave 3
	note F_, 3
	note D#, 3
	note C_, 3
	note C#, 3
	note C#, 3
	note D#, 3
	note F_, 3
	octave 2
	note A#, 3
	octave 3
	note F_, 3
	octave 2
	note A#, 3
	octave 3
	note C#, 3
	note C_, 3
	note C_, 3
	note D_, 3
	note D#, 3
	octave 2
	note G_, 3
	octave 3
	note D#, 3
	note C#, 3
	octave 2
	note A#, 3
	octave 3
	note C_, 3
	note C_, 3
	note D_, 3
	note D#, 3
	octave 2
	note G_, 3
	octave 3
	note G_, 3
	note D#, 3
	octave 2
	note A#, 3
	octave 3
	note C_, 3
	note C_, 3
	note D_, 3
	note D#, 3
	octave 2
	note G_, 3
	octave 3
	note D#, 3
	note C#, 3
	octave 2
	note A#, 3
	octave 3
	note C_, 3
	note C_, 3
	note D_, 3
	note D#, 3
	octave 2
	note G_, 3
	octave 3
	note G_, 3
	note D#, 3
	octave 2
	note A#, 3
	loopchannel 0, Music_VsPlasmaGrunt_Ch3_loop
