Music_StriatonCity:
	musicheader 3, 1, Music_StriatonCity_Ch1
	musicheader 1, 2, Music_StriatonCity_Ch2
	musicheader 1, 3, Music_StriatonCity_Ch3

Music_StriatonCity_Ch1:
	tempo $B6
	volume $77
	stereopanning $77
Music_StriatonCity_Ch1_loop:
	dutycycle 2
	octave 4
	notetype $C, $A5
	note C_, 1
	octave 3
	note B_, 1
	octave 4
	note C_, 1
	octave 3
	note G_, 1
	note A_, 1
	note B_, 1
	octave 4
	note C_, 1
	octave 3
	note B_, 1
	octave 4
	note C_, 1
	octave 3
	note G_, 1
	note A_, 1
	note B_, 1
	octave 4
	note C_, 1
	octave 3
	note B_, 1
	octave 4
	note C_, 1
	note C#, 1
	note D_, 1
	note D#, 1
	note E_, 1
	note __, 5
	
	octave 3
	note C_, 2
	octave 2
	note A_, 2
	octave 3
	note C_, 2
	note A#, 4
	note A_, 2
	note G_, 4
	note A_, 2
	note C_, 6
	note F_, 2
	note E_, 2
	note F_, 2
	note G_, 4
	note F_, 2
	note E_, 6
	note D_, 4
	note E_, 2
	
	note F_, 1
	note __, 3
	note D_, 1
	note E_, 1
	note F_, 2
	note E_, 2
	note D_, 2
	note F_, 1
	note __, 3
	note E_, 1
	note F_, 1
	note G_, 2
	note A_, 2
	note C_, 2
	octave 2
	note B_, 2
	octave 3
	note D_, 2
	note F_, 2
	note A_, 3
	note G_, 1
	note A_, 1
	note A#, 1
	octave 4
	note E_, 2
	note D_, 2
	note C_, 2
	octave 3
	note A#, 4
	note __, 2
	
	octave 2
	note A_, 5
	note A#, 1
	octave 3
	note C_, 4
	octave 2
	note F_, 2
	note D_, 5
	note E_, 1
	note F_, 4
	note A#, 2
	note B_, 5
	octave 3
	note C_, 1
	note D_, 4
	octave 2
	note G_, 2
	octave 3
	note C_, 4
	note C_, 2
	octave 2
	note A#, 2
	note B_, 2
	octave 3
	note C_, 2
	
	note F_, 1
	note C_, 1
	octave 4
	note C_, 1
	note C_, 1
	note C_, 1
	note C_, 1
	octave 3
	note F_, 1
	note C_, 1
	octave 4
	note C_, 1
	note C_, 1
	note C_, 1
	note C_, 1
	octave 3
	note E_, 1
	note C_, 1
	octave 4
	note C_, 1
	note C_, 1
	note C_, 1
	note C_, 1
	octave 3
	note F_, 1
	note C_, 1
	octave 4
	note C_, 1
	note C_, 1
	note C_, 1
	note C_, 1
	octave 3
	note F_, 2
	note D_, 2
	octave 4
	note D_, 1
	note D_, 1
	note C_, 1
	note C_, 1
	note C_, 1
	octave 3
	note A#, 1
	note A_, 1
	note G_, 1
	note F_, 6
	note __, 3
	loopchannel 0, Music_StriatonCity_Ch1_loop

Music_StriatonCity_Ch2:
Music_StriatonCity_Ch2_loop:
	octave 2
	notetype $C, $A5
	note C_, 2
	note __, 4
	note C_, 2
	note __, 4
	note C_, 2
	note __, 4
	note C_, 1
	note __, 1
	note D_, 1
	note __, 1
	note E_, 1
	note __, 1
	
	note F_, 5
	note __, 1
	note C_, 5
	note __, 1
	note F_, 5
	note __, 1
	note C_, 5
	note __, 1
	note F_, 4
	note __, 2
	note A_, 4
	note __, 2
	note A#, 4
	note __, 2
	octave 1
	note A_, 5
	note __, 1
	note A#, 1
	note __, 9
	note A#, 2
	octave 2
	note F_, 1
	note __, 9
	note C_, 2
	octave 1
	note G_, 5
	note __, 1
	note B_, 5
	note __, 1
	octave 2
	note C_, 4
	note C_, 2
	note C_, 2
	note D_, 2
	note E_, 2
	note F_, 3
	note __, 3
	note C_, 3
	note __, 3
	octave 1
	note A#, 3
	note __, 3
	octave 2
	note F_, 3
	note __, 3
	octave 1
	note B_, 3
	note __, 3
	octave 2
	note G_, 3
	note __, 3
	note C_, 3
	note __, 3
	note C_, 2
	octave 1
	note B_, 2
	octave 2
	note C_, 2
	octave 1
	note A_, 6
	note A#, 6
	octave 2
	note C_, 4
	note C#, 2
	note D_, 4
	octave 1
	note A_, 2
	note G_, 4
	note G_, 2
	octave 2
	note C_, 1
	note __, 2
	note C_, 1
	note D_, 1
	note E_, 1
	note F_, 2
	note __, 2
	note C_, 1
	note __, 1
	octave 1
	note F_, 1
	note __, 2
	loopchannel 0, Music_StriatonCity_Ch2_loop

Music_StriatonCity_Ch3:
Music_StriatonCity_Ch3_loop:
	octave 3
	notetype $C, $11
	note E_, 1
	note D#, 1
	note E_, 1
	note __, 3
	note G_, 1
	note F#, 1
	note G_, 1
	note __, 3
	octave 4
	note C_, 1
	octave 3
	note B_, 1
	octave 4
	note C_, 1
	octave 3
	note G_, 1
	note A_, 1
	note B_, 1
	octave 4
	note C_, 1
	note __, 1
	octave 3
	note A#, 1
	note A_, 1
	note G_, 1
	note __, 1
	
	note C_, 6
	note F_, 6
	note A_, 6
	note C_, 6
	note F_, 6
	note C_, 6
	note D_, 6
	note D_, 6
	octave 2
	note A#, 1
	note __, 1
	octave 3
	note D_, 1
	note E_, 1
	note F_, 1
	octave 4
	note C_, 1
	octave 3
	note A#, 6
	octave 2
	note F_, 1
	note __, 1
	octave 3
	note F_, 1
	note G_, 1
	note A_, 1
	octave 4
	note D_, 1
	note C_, 6
	octave 3
	note B_, 4
	note A_, 2
	note G_, 6
	octave 4
	note C_, 7
	note __, 1
	note C_, 1
	note D_, 1
	note D#, 1
	note E_, 1
	
	notetype $C, $12
	note F_, 3
	note E_, 1
	note F_, 1
	note G_, 1
	note F_, 2
	note E_, 2
	note F_, 2
	note G_, 2
	note A_, 1
	note G_, 1
	note F_, 1
	note E_, 1
	note D_, 4
	note __, 2
	note G_, 3
	note F#, 1
	note G_, 1
	note A_, 1
	note G_, 2
	note F#, 2
	note G_, 2
	note A_, 2
	note A#, 1
	note A_, 1
	note G_, 1
	note F_, 1
	note E_, 1
	note __, 1
	note F#, 2
	note G_, 2
	octave 5
	note C_, 4
	octave 4
	note A_, 1
	note F_, 1
	octave 5
	note E_, 4
	note D_, 2
	note C_, 4
	note D_, 2
	octave 4
	note F_, 6
	note A#, 1
	note A_, 1
	note G_, 1
	note F_, 1
	note E_, 1
	note D_, 1
	note C_, 1
	note __, 1
	octave 5
	note E_, 1
	note D_, 1
	note C_, 1
	octave 4
	note A#, 1
	note A_, 6
	note __, 3
	loopchannel 0, Music_StriatonCity_Ch3_loop
