Music_UnovaBattle:
	musicheader 4, 1, Music_UnovaBattle_Ch1
	musicheader 1, 2, Music_AzaleaTown_Ch2
	musicheader 1, 3, Music_AzaleaTown_Ch3
	musicheader 1, 4, Music_AzaleaTown_Ch4
	
Music_UnovaBattle_Ch1:
		tempo $70
		volume $77
		dutycycle 1
		notetype 12, $B8
Music_UnovaBattle1_branch_1:
		octave 1
		dutycycle 0
		note E_, 3
		note __, 1
		note E_, 3
		note __, 1
		note E_, 3
		note __, 1
		note E_, 3
		note __, 1
Music_UnovaBattle1_branch_2:
		note E_, 3
		note __, 1
		note E_, 3
		note __, 1
		note E_, 3
		note __, 1
		note E_, 3
		note __, 1
Music_UnovaBattle1_branch_3:
		note E_, 2
		note B_, 2
		octave 2
		note E_, 2
		octave 1
		note B_, 2
		octave 2
		note F_, 2
		note F_, 2
		octave 1
		note E_, 2
		note A_, 2
Music_UnovaBattle1_branch_4:
		octave 2
		note G_, 2
		octave 1
		note E_, 2
		octave 2
		note G#, 2
		note D_, 2
		octave 1
		note E_, 1
		note G#, 1
		note B_, 2
		octave 2
		note E_, 2
		note F_, 2
Music_UnovaBattle1_branch_5:
		octave 1
		note E_, 2
		note B_, 2
		octave 2
		note E_, 2
		octave 1
		note B_, 2
		octave 2
		note F_, 2
		note F_, 2
		octave 1
		note E_, 2
		note A#, 2
Music_UnovaBattle1_branch_6:
		octave 2
		note G_, 2
		octave 1
		note E_, 2
		octave 2
		note G#, 2
		note D_, 2
		octave 1
		note E_, 2
		note B_, 2
		octave 2
		note E_, 2
		note F_, 1
		note G_, 1
Music_UnovaBattle1_branch_7:
		octave 1
		note F_, 2
		octave 2
		note C_, 2
		note F_, 2
		note C_, 2
		note F#, 2
		note F#, 2
		octave 1
		note F_, 2
		note A#, 2
Music_UnovaBattle1_branch_8:
		octave 2
		note G#, 2
		octave 1
		note F_, 2
		octave 2
		note A_, 2
		note D#, 2
		octave 1
		note F_, 1
		note B_, 1
		octave 2
		note C_, 2
		note F_, 2
		note F#, 2
Music_UnovaBattle1_branch_9:
		octave 1
		note F_, 2
		octave 2
		note C_, 2
		note F_, 2
		note C_, 2
		note F#, 2
		note F#, 2
		octave 1
		note F_, 2
		note A#, 2
Music_UnovaBattle1_branch_10:
		octave 2
		note G#, 2
		octave 1
		note F_, 2
		octave 2
		note A_, 2
		note D#, 2
		octave 1
		note F_, 2
		octave 2
		note D_, 2
		note D#, 2
		note E_, 2
Music_UnovaBattle1_branch_11:
		octave 1
		note F_, 2
		octave 2
		note F_, 2
		octave 1
		note F_, 2
		octave 2
		note F_, 2
		octave 1
		note F_, 2
		octave 2
		note F_, 2
		octave 1
		note F_, 2
		octave 2
		note F_, 2
Music_UnovaBattle1_branch_12:
		octave 1
		note F_, 2
		octave 2
		note F_, 2
		octave 1
		note F_, 2
		octave 2
		note F_, 2
		octave 1
		note F_, 2
		octave 2
		note F_, 2
		octave 1
		note F_, 2
		octave 2
		note F_, 2
Music_UnovaBattle1_branch_13:
		octave 1
		note F#, 2
		octave 2
		note F#, 2
		note A#, 2
		octave 1
		note F#, 2
		octave 3
		note C_, 2
		octave 2
		note A#, 2
		octave 1
		note F#, 2
		octave 2
		note F#, 2
Music_UnovaBattle1_branch_14:
		octave 1
		note F#, 2
		octave 2
		note C#, 2
		note F#, 2
		octave 1
		note F#, 2
		octave 2
		note A#, 2
		octave 3
		note C_, 2
		octave 1
		note C#, 2
		note D#, 2
Music_UnovaBattle1_branch_15:
		note F_, 2
		octave 2
		note F_, 2
		octave 1
		note F_, 2
		octave 2
		note F_, 2
		octave 1
		note F_, 2
		octave 2
		note F_, 2
		octave 1
		note F_, 2
		octave 2
		note F_, 2
Music_UnovaBattle1_branch_16:
		octave 1
		note F_, 2
		octave 2
		note F_, 2
		octave 1
		note F_, 2
		octave 2
		note F_, 2
		octave 1
		note F_, 2
		octave 2
		note F_, 2
		octave 1
		note F_, 2
		octave 2
		note F_, 2
Music_UnovaBattle1_branch_17:
		octave 1
		note D#, 2
		octave 2
		note D#, 2
		note D#, 2
		octave 1
		note D#, 2
		octave 2
		note D#, 2
		note D#, 2
		octave 1
		note D#, 2
		octave 2
		note D#, 2
Music_UnovaBattle1_branch_18:
		octave 1
		note D#, 2
		note A#, 2
		octave 2
		note D#, 2
		octave 1
		note D#, 2
		octave 2
		note A#, 2
		octave 3
		note C_, 2
		octave 2
		note D#, 2
		note D_, 2
Music_UnovaBattle1_branch_19:
		octave 1
		note C#, 2
		octave 2
		note C#, 2
		octave 1
		note C#, 2
		octave 2
		note C#, 2
		octave 1
		note C#, 2
		octave 2
		note C#, 2
		octave 1
		note C#, 2
		octave 2
		note C#, 2
Music_UnovaBattle1_branch_20:
		octave 1
		note C#, 2
		octave 2
		note C#, 2
		octave 1
		note C#, 2
		octave 2
		note C#, 2
		octave 1
		note C#, 2
		octave 2
		note C#, 2
		octave 1
		note D_, 2
		octave 2
		note D_, 2
Music_UnovaBattle1_branch_21:
		octave 1
		note D#, 2
		octave 2
		note D#, 2
		octave 1
		note D#, 2
		octave 2
		note D#, 2
		octave 1
		note D#, 2
		octave 2
		note D#, 2
		octave 1
		note E_, 2
		note F_, 2
Music_UnovaBattle1_branch_22:
		note G_, 2
		octave 2
		note G_, 2
		octave 1
		note F_, 2
		octave 2
		note F_, 2
		octave 1
		note D#, 2
		octave 2
		note D#, 2
		octave 1
		note C#, 2
		octave 2
		note C#, 2
Music_UnovaBattle1_branch_23:
		octave 1
		note C#, 2
		octave 2
		note C#, 2
		octave 1
		note C#, 2
		octave 2
		note C#, 2
		octave 1
		note C#, 2
		octave 2
		note C#, 2
		octave 1
		note C#, 2
		octave 2
		note C#, 2
Music_UnovaBattle1_branch_24:
		octave 1
		note C#, 2
		octave 2
		note C#, 2
		octave 1
		note C#, 2
		octave 2
		note C#, 2
		octave 1
		note C#, 2
		octave 2
		note C#, 2
		octave 1
		note D_, 2
		octave 2
		note D_, 2
Music_UnovaBattle1_branch_25:
		octave 1
		note D#, 3
		note __, 1
		note D#, 2
		octave 2
		note D#, 2
		octave 1
		note D#, 2
		octave 2
		note D#, 2
		octave 1
		note D#, 2
		octave 2
		note D#, 2
Music_UnovaBattle1_branch_26:
		octave 1
		note D#, 2
		octave 2
		note D#, 2
		octave 1
		note E_, 2
		octave 2
		note E_, 2
		note G_, 2
		note E_, 2
		note D#, 1
		note E_, 1
		note C#, 2
Music_UnovaBattle1_branch_27:
		octave 1
		note D#, 2
		note A#, 2
		note D#, 2
		note A#, 2
		octave 2
		note E_, 2
		note E_, 2
		octave 1
		note D#, 2
		note G#, 2
Music_UnovaBattle1_branch_28:
		octave 2
		note F#, 2
		octave 1
		note D#, 2
		octave 2
		note G_, 2
		note C#, 2
		octave 1
		note D#, 2
		note A#, 2
		note D#, 2
		note A#, 2
Music_UnovaBattle1_branch_29:
		note D#, 2
		note A#, 2
		note D#, 2
		note A#, 2
		octave 2
		note E_, 2
		note E_, 2
		octave 1
		note D#, 2
		note G#, 2
Music_UnovaBattle1_branch_30:
		octave 2
		note E_, 2
		octave 1
		note D#, 2
		octave 2
		note G_, 2
		note C#, 2
		octave 1
		note D#, 2
		octave 2
		note D#, 2
		octave 1
		note D#, 2
		octave 2
		note G_, 2
Music_UnovaBattle1_branch_31:
		octave 1
		note D#, 2
		octave 2
		note D#, 2
		octave 1
		note D#, 2
		octave 2
		note D#, 2
		octave 1
		note D#, 2
		octave 2
		note D#, 2
		octave 1
		note D#, 2
		octave 2
		note D#, 2
Music_UnovaBattle1_branch_32:
		octave 1
		note D#, 2
		octave 2
		note D#, 2
		octave 1
		note D#, 2
		octave 2
		note D#, 2
		octave 1
		note D#, 2
		octave 2
		note D#, 2
		octave 1
		note D#, 2
		octave 2
		note D#, 2
Music_UnovaBattle1_branch_33:
		octave 1
		note D#, 2
		octave 2
		note D#, 2
		octave 1
		note D#, 2
		octave 2
		note D#, 2
		octave 1
		note D#, 2
		octave 2
		note D#, 2
		octave 1
		note D#, 2
		octave 2
		note D#, 2
Music_UnovaBattle1_branch_34:
		octave 1
		note D#, 2
		octave 2
		note D#, 2
		octave 1
		note D#, 2
		octave 2
		note D#, 2
		octave 1
		note D#, 2
		octave 2
		note D#, 2
		octave 1
		note D#, 2
		octave 2
		note D#, 2
Music_UnovaBattle1_branch_35:
		octave 1
		note E_, 2
		octave 2
		note E_, 2
		octave 1
		note E_, 2
		octave 2
		note E_, 2
		octave 1
		note E_, 2
		octave 2
		note E_, 2
		octave 1
		note E_, 2
		octave 2
		note E_, 2
Music_UnovaBattle1_branch_36:
		octave 1
		note E_, 2
		octave 2
		note E_, 2
		octave 1
		note E_, 2
		octave 2
		note E_, 2
		octave 1
		note E_, 2
		octave 2
		note E_, 2
		octave 1
		note E_, 2
		octave 2
		note E_, 2
Music_UnovaBattle1_branch_37:
		octave 1
		note D#, 2
		octave 2
		note D#, 2
		octave 1
		note D#, 2
		octave 2
		note D#, 2
		octave 1
		note D#, 2
		octave 2
		note D#, 2
		octave 1
		note D#, 2
		octave 2
		note D#, 2
Music_UnovaBattle1_branch_38:
		octave 1
		note D#, 2
		octave 2
		note D#, 2
		octave 1
		note D#, 2
		octave 2
		note D#, 2
		octave 1
		note D#, 2
		octave 2
		note D#, 2
		octave 1
		note D#, 2
		octave 2
		note D#, 2
Music_UnovaBattle1_branch_39:
		octave 1
		note D#, 2
		octave 2
		note D#, 2
		octave 1
		note D#, 2
		octave 2
		note D#, 2
		octave 1
		note D#, 2
		octave 2
		note D#, 2
		octave 1
		note D#, 2
		octave 2
		note D#, 2
Music_UnovaBattle1_branch_40:
		octave 1
		note D#, 2
		octave 2
		note D#, 2
		octave 1
		note D#, 2
		octave 2
		note D#, 2
		octave 1
		note D#, 2
		octave 2
		note D#, 2
		octave 1
		note D#, 2
		octave 2
		note D#, 2
Music_UnovaBattle1_branch_41:
		octave 1
		note E_, 2
		octave 2
		note E_, 2
		octave 1
		note E_, 2
		octave 2
		note E_, 2
		octave 1
		note E_, 2
		octave 2
		note E_, 2
		octave 1
		note E_, 2
		octave 2
		note E_, 2
Music_UnovaBattle1_branch_42:
		octave 1
		note C#, 2
		octave 2
		note C#, 2
		octave 1
		note C#, 2
		octave 2
		note C#, 2
		octave 1
		note C#, 2
		octave 2
		note C#, 2
		octave 1
		note C#, 2
		note D_, 2
Music_UnovaBattle1_branch_43:
		note D#, 2
		octave 2
		note D#, 2
		octave 1
		note D#, 2
		octave 2
		note D#, 2
		octave 1
		note D#, 2
		octave 2
		note D#, 2
		octave 1
		note D#, 2
		octave 2
		note D#, 2
Music_UnovaBattle1_branch_44:
		octave 1
		note D#, 2
		octave 2
		note D#, 2
		octave 1
		note D#, 2
		octave 2
		note D#, 2
		octave 1
		note D#, 2
		octave 2
		note D#, 2
		octave 1
		note D#, 2
		octave 2
		note D#, 2
Music_UnovaBattle1_branch_45:
		octave 1
		note D#, 2
		octave 2
		note D#, 2
		octave 1
		note D#, 2
		octave 2
		note D#, 2
		octave 1
		note D#, 2
		octave 2
		note D#, 2
		octave 1
		note D#, 2
		octave 2
		note D#, 2
Music_UnovaBattle1_branch_46:
		octave 1
		note D#, 2
		octave 2
		note D#, 2
		note D_, 2
		note D#, 2
		octave 1
		note D#, 2
		note G#, 2
		octave 2
		note D_, 4
Music_UnovaBattle1_branch_47:
		octave 1
		note C#, 2
		octave 2
		note C#, 2
		octave 1
		note C#, 2
		octave 2
		note C#, 2
		octave 1
		note C#, 2
		octave 2
		note C#, 2
		octave 1
		note C#, 2
		octave 2
		note C#, 2
Music_UnovaBattle1_branch_48:
		octave 1
		note C#, 2
		octave 2
		note F_, 2
		octave 1
		note C#, 2
		octave 2
		note D#, 2
		octave 1
		note C#, 2
		octave 2
		note C#, 2
		octave 1
		note D_, 2
		octave 2
		note D_, 2
Music_UnovaBattle1_branch_49:
		octave 1
		note D#, 2
		octave 2
		note D#, 2
		octave 1
		note D#, 2
		octave 2
		note D#, 2
		note C#, 2
		note D#, 2
		octave 1
		note D#, 2
		octave 2
		note D#, 2
Music_UnovaBattle1_branch_50:
		octave 1
		note D#, 2
		octave 2
		note G_, 1
		note G_, 1
		octave 1
		note D#, 2
		octave 2
		note F_, 1
		note F_, 1
		note D#, 2
		note C#, 2
		note D#, 2
		octave 1
		note A#, 2
Music_UnovaBattle1_branch_51:
		note C#, 2
		octave 2
		note C#, 2
		octave 1
		note C#, 2
		octave 2
		note C#, 2
		octave 1
		note G#, 2
		octave 2
		note F_, 2
		note C_, 2
		note C#, 2
Music_UnovaBattle1_branch_52:
		octave 1
		note C#, 2
		octave 2
		note F_, 2
		octave 1
		note C#, 2
		octave 2
		note D#, 2
		octave 1
		note C#, 2
		octave 2
		note C#, 2
		octave 1
		note C#, 2
		octave 2
		note D_, 2
Music_UnovaBattle1_branch_53:
		octave 1
		note D#, 2
		octave 2
		note D#, 2
		octave 1
		note D#, 2
		octave 2
		note D#, 2
		note C#, 2
		note D#, 2
		octave 1
		note D#, 2
		octave 2
		note D#, 2
Music_UnovaBattle1_branch_54:
		octave 1
		note D#, 2
		octave 2
		note G_, 1
		note G_, 1
		octave 1
		note D#, 2
		octave 2
		note G_, 1
		note G_, 1
		octave 1
		note D#, 2
		octave 2
		note D#, 2
		octave 1
		note E_, 2
		octave 2
		note E_, 2
Music_UnovaBattle1_branch_55:
		octave 1
		note F_, 2
		octave 2
		note F_, 2
		octave 1
		note F_, 2
		octave 2
		note F_, 2
		octave 1
		note F_, 2
		octave 2
		note C_, 2
		note F_, 2
		note A_, 2
Music_UnovaBattle1_branch_56:
		note F_, 2
		note C_, 2
		note F_, 2
		octave 1
		note F_, 2
		note A_, 2
		note G#, 2
		octave 2
		note C_, 2
		octave 1
		note F_, 2
Music_UnovaBattle1_branch_57:
		note G_, 2
		octave 2
		note G_, 2
		octave 1
		note G_, 2
		octave 2
		note G_, 2
		octave 1
		note G_, 2
		octave 2
		note D_, 2
		note G_, 2
		note B_, 2
Music_UnovaBattle1_branch_58:
		note G_, 2
		note D_, 2
		note G_, 2
		octave 1
		note G_, 2
		octave 2
		note G_, 2
		note D_, 2
		octave 1
		note G_, 2
		note G#, 2
Music_UnovaBattle1_branch_59:
		note A_, 2
		octave 2
		note A_, 2
		octave 1
		note A_, 2
		octave 2
		note A_, 2
		octave 1
		note A_, 2
		octave 2
		note E_, 2
		note A_, 2
		octave 3
		note C#, 2
Music_UnovaBattle1_branch_60:
		octave 2
		note A_, 2
		note E_, 2
		note A_, 2
		octave 1
		note A_, 2
		octave 2
		note A_, 2
		note E_, 2
		octave 1
		note G_, 2
		note G#, 2
Music_UnovaBattle1_branch_61:
		note A_, 2
		octave 2
		note A_, 2
		note __, 2
		note A_, 2
		octave 1
		note A_, 2
		octave 2
		note E_, 2
		note A_, 2
		octave 3
		note C#, 2
Music_UnovaBattle1_branch_62:
		octave 2
		note A_, 2
		note G_, 2
		note A_, 2
		octave 1
		note A_, 2
		note A#, 2
		note A_, 2
		note G_, 2
		note A#, 2
Music_UnovaBattle1_branch_63:
		note A_, 2
		octave 2
		note A_, 1
		note __, 1
		note A_, 1
		note __, 1
		octave 1
		note A_, 2
		octave 2
		note A_, 1
		note __, 1
		note E_, 1
		note __, 1
		note E_, 2
		note A#, 2
Music_UnovaBattle1_branch_64:
		octave 1
		note A_, 2
		octave 2
		note E_, 1
		note __, 1
		note A_, 1
		note __, 1
		octave 1
		note C#, 2
		note A_, 1
		note __, 1
		note A#, 1
		note __, 1
		note A_, 2
		note E_, 2
Music_UnovaBattle1_branch_65:
		note C#, 2
		note A_, 2
		note D_, 2
		note A#, 2
		note C#, 2
		note A_, 2
		note E_, 2
		octave 2
		note C_, 2
Music_UnovaBattle1_branch_66:
		octave 1
		note C#, 2
		note A_, 2
		note F#, 2
		octave 2
		note D_, 2
		octave 1
		note C#, 2
		note A_, 2
		note G_, 2
		octave 2
		note D#, 2
Music_UnovaBattle1_branch_67:
		octave 1
		note D#, 2
		note B_, 2
		note E_, 2
		octave 2
		note C_, 2
		octave 1
		note D#, 2
		note B_, 2
		note F#, 2
		octave 2
		note D_, 2
Music_UnovaBattle1_branch_68:
		octave 1
		note D#, 2
		note B_, 2
		note G#, 2
		octave 2
		note E_, 2
		octave 1
		note D#, 2
		note B_, 2
		note G#, 2
		octave 2
		note D#, 2
Music_UnovaBattle1_branch_69:
		octave 1
		note D#, 1
		note F#, 1
		note __, 2
		note __, 1
		note __, 1
		note G#, 1
		note __, 2
		note __, 2
		note __, 1
		note __, 1
		note G#, 1
		note F#, 1
		note __, 2
Music_UnovaBattle1_branch_70:
		note __, 1
		note __, 1
		note G#, 1
		note __, 2
		note __, 2
		note __, 1
		note __, 1
		note C#, 1
		note E_, 1
		note __, 2
		note __, 1
		note __, 1
Music_UnovaBattle1_branch_71:
		note E_, 1
		note C#, 1
		note __, 2
		note __, 1
		note __, 1
		note A_, 1
		note G#, 1
		note __, 2
		note __, 1
		note __, 1
		note E_, 1
		note A_, 1
		octave 2
		note __, 2
Music_UnovaBattle1_branch_72:
		note __, 1
		note __, 1
		octave 1
		note B_, 1
		note A_, 1
		note __, 1
		note B_, 1
		note __, 1
		note __, 1
		note __, 2
		note B_, 1
		note __, 2
		note __, 1
		note __, 1
		note F#, 1
Music_UnovaBattle1_branch_73:
		note A_, 1
		note __, 2
		note __, 1
		note __, 1
		note __, 1
		note __, 1
		note __, 1
		note B_, 1
		note F#, 1
		note __, 1
		octave 2
		note C#, 1
		note __, 1
		note __, 2
		note __, 1
Music_UnovaBattle1_branch_74:
		note __, 1
		octave 1
		note C#, 1
		note __, 1
		note __, 2
		note __, 1
		note __, 1
		note F_, 1
		note G#, 1
		octave 2
		note __, 2
		note __, 1
		note __, 1
		octave 1
		note C#, 2
		note __, 1
Music_UnovaBattle1_branch_75:
		note __, 1
		note __, 1
		note __, 1
		note C#, 2
		octave 2
		note C_, 2
		note F_, 2
		note C_, 2
		note F#, 2
		note F#, 2
		octave 1
		note F_, 2
Music_UnovaBattle1_branch_76:
		note A#, 2
		octave 2
		note G#, 2
		octave 1
		note F_, 2
		octave 2
		note A_, 2
		note D#, 2
		octave 1
		note F_, 2
		octave 2
		note C_, 2
		note F_, 2
Music_UnovaBattle1_branch_77:
		note F#, 2
		octave 1
		note F_, 2
		octave 2
		note C_, 2
		note F_, 2
		note C_, 2
		note F#, 2
		note F#, 2
		octave 1
		note F_, 2
Music_UnovaBattle1_branch_78:
		note A#, 2
		octave 2
		note G#, 2
		octave 1
		note F_, 2
		octave 2
		note A_, 2
		note D#, 2
		octave 1
		note F_, 2
		octave 2
		note C_, 2
		note F_, 2
Music_UnovaBattle1_branch_79:
		note F#, 2
		note __, 16
Music_UnovaBattle1_branch_80:
		dutycycle 1
		octave 3
		note D_, 1
		octave 2
		octave 3
		octave 2
		octave 3
		note C#, 1
		octave 2
		octave 3
		octave 2
		octave 3
		note D_, 1
		octave 2
		octave 3
		octave 2
		octave 3
		note C#, 1
		octave 2
		octave 3
		octave 2
		octave 3
		note C_, 1
		octave 2
		octave 3
		octave 2
		octave 3
		note C#, 1
		octave 2
		octave 3
		octave 2
		octave 3
		note C_, 1
		octave 2
		octave 3
		octave 2
		note B_, 1
		octave 3
		note C_, 1
		octave 2
		octave 3
		octave 2
		note B_, 1
		note A#, 1
		note B_, 1
		note A#, 1
Music_UnovaBattle1_branch_81:
		note B_, 1
		note A#, 1
		note F_, 1
		octave 3
		note E_, 16
Music_UnovaBattle1_branch_82:
		octave 2
		note B_, 15
Music_UnovaBattle1_branch_83:
		note __, 1
		octave 3
		note __, 2
		octave 2
		note E_, 4
		note __, 2
		octave 3
		note E_, 2
		octave 2
		note E_, 4
Music_UnovaBattle1_branch_84:
		note E_, 2
		octave 3
		note E_, 4
		octave 2
		note E_, 4
		octave 3
		note E_, 4
		octave 2
		note E_, 4
Music_UnovaBattle1_branch_85:
		octave 3
		note F_, 15
Music_UnovaBattle1_branch_86:
		note __, 1
		note C_, 16
Music_UnovaBattle1_branch_87:
		note F_, 2
		octave 2
		note F_, 4
		note __, 2
		octave 3
		note F_, 2
		octave 2
		note F_, 4
Music_UnovaBattle1_branch_88:
		note F_, 2
		octave 3
		note F_, 4
		octave 2
		note F_, 4
		octave 3
		note F_, 4
		note C_, 1
Music_UnovaBattle1_branch_89:
		note C_, 1
		note C_, 1
		note C_, 1
		octave 2
		note F_, 10
		note __, 16
Music_UnovaBattle1_branch_90:
		note __, 16
Music_UnovaBattle1_branch_91:
		note __, 6
Music_UnovaBattle1_branch_92:
		note F_, 6
		octave 3
		note F#, 2
		note F#, 2
		note C#, 6
Music_UnovaBattle1_branch_93:
		octave 2
		note F_, 12
		note __, 16
Music_UnovaBattle1_branch_94:
		note __, 16
Music_UnovaBattle1_branch_95:
		note __, 4
Music_UnovaBattle1_branch_96:
		note A_, 5
		note __, 1
		octave 3
		note D#, 2
		note D#, 2
		octave 2
		note A#, 4
Music_UnovaBattle1_branch_97:
		octave 3
		note D#, 2
		octave 2
		note G#, 16
Music_UnovaBattle1_branch_98:
		note __, 16
Music_UnovaBattle1_branch_99:
		note __, 16
Music_UnovaBattle1_branch_100:
		note __, 16
Music_UnovaBattle1_branch_101:
		note __, 16
Music_UnovaBattle1_branch_102:
		note __, 16
Music_UnovaBattle1_branch_103:
		note __, 16
Music_UnovaBattle1_branch_104:
		note __, 16
Music_UnovaBattle1_branch_105:
		note D#, 2
		note A#, 2
		note D#, 2
		note A#, 2
		octave 3
		note E_, 2
		note E_, 2
		octave 2
		note D#, 2
Music_UnovaBattle1_branch_106:
		note G#, 2
		octave 3
		note F#, 2
		octave 2
		note D#, 2
		octave 3
		note G_, 2
		note C#, 2
		octave 2
		note D#, 2
		note A#, 2
		note D#, 2
Music_UnovaBattle1_branch_107:
		note A#, 2
		note D#, 2
		note A#, 2
		note D#, 2
		note A#, 2
		octave 3
		note E_, 2
		note E_, 2
		octave 2
		note D#, 2
Music_UnovaBattle1_branch_108:
		note G#, 2
		octave 3
		note E_, 2
		octave 2
		note D#, 2
		octave 3
		note G_, 2
		note C#, 2
		octave 2
		note D#, 2
		note G_, 2
		note D#, 2
Music_UnovaBattle1_branch_109:
		note G_, 2
		note __, 16
Music_UnovaBattle1_branch_110:
		note __, 16
Music_UnovaBattle1_branch_111:
		note __, 16
Music_UnovaBattle1_branch_112:
		note __, 16
Music_UnovaBattle1_branch_113:
		note __, 16
Music_UnovaBattle1_branch_114:
		note __, 16
Music_UnovaBattle1_branch_115:
		note __, 16
Music_UnovaBattle1_branch_116:
		note __, 16
Music_UnovaBattle1_branch_117:
		note __, 9
		octave 3
		note D#, 2
		note F_, 2
Music_UnovaBattle1_branch_118:
		note G#, 2
		note F_, 2
		note G_, 16
Music_UnovaBattle1_branch_119:
		note G#, 8
		octave 2
		note B_, 4
Music_UnovaBattle1_branch_120:
		octave 3
		note C_, 4
		note C#, 12
Music_UnovaBattle1_branch_121:
		note E_, 4
		note G_, 8
		note D#, 4
Music_UnovaBattle1_branch_122:
		note F_, 4
		note G_, 8
		note G_, 2
		note F_, 2
Music_UnovaBattle1_branch_123:
		note D#, 2
		note F_, 2
		note G_, 8
		note D#, 2
		note F_, 2
Music_UnovaBattle1_branch_124:
		note A#, 2
		note G#, 2
		note G_, 6
		note __, 9
Music_UnovaBattle1_branch_125:
		note F_, 2
		note D#, 2
		note F_, 2
		note G#, 6
		note F_, 4
Music_UnovaBattle1_branch_126:
		note E_, 1
		note F_, 7
		note C#, 2
		note F_, 2
		octave 4
		note C#, 2
Music_UnovaBattle1_branch_127:
		octave 3
		note G#, 2
		note G#, 6
		note G_, 10
Music_UnovaBattle1_branch_128:
		note A#, 2
		note A_, 2
		note A#, 2
		octave 4
		note D#, 6
		note __, 4
Music_UnovaBattle1_branch_129:
		octave 3
		note F_, 2
		note __, 4
		note G#, 6
		note F_, 4
Music_UnovaBattle1_branch_130:
		note F_, 8
		note C#, 2
		note F_, 2
		octave 4
		note C#, 2
Music_UnovaBattle1_branch_131:
		octave 3
		note G#, 2
		note A#, 6
		note D#, 6
		note A#, 4
Music_UnovaBattle1_branch_132:
		note A#, 2
		note A_, 2
		note A#, 6
		octave 4
		note D#, 2
		note __, 4
Music_UnovaBattle1_branch_133:
		octave 3
		note A_, 2
		note __, 4
		note F_, 6
		note A_, 4
Music_UnovaBattle1_branch_134:
		octave 4
		note C_, 16
Music_UnovaBattle1_branch_135:
		octave 3
		note B_, 2
		note __, 4
		note G_, 6
		note B_, 4
Music_UnovaBattle1_branch_136:
		octave 4
		note D_, 12
		note __, 4
Music_UnovaBattle1_branch_137:
		note C#, 2
		note __, 4
		octave 3
		note A_, 6
		octave 4
		note C#, 4
Music_UnovaBattle1_branch_138:
		note E_, 16
Music_UnovaBattle1_branch_139:
		octave 3
		note G_, 2
		note G_, 4
		note E_, 6
		note G_, 4
Music_UnovaBattle1_branch_140:
		note C#, 16
Music_UnovaBattle1_branch_141:
		note __, 16
Music_UnovaBattle1_branch_142:
		note __, 8
		octave 2
		note G_, 1
		note G_, 1
		note G_, 1
		note G_, 1
		note G_, 1
Music_UnovaBattle1_branch_143:
		note G_, 1
		note G_, 1
		note G_, 1
		octave 3
		note C#, 4
		note __, 2
		note C#, 4
		note __, 2
		note C#, 4
Music_UnovaBattle1_branch_144:
		note __, 2
		note C#, 4
		note __, 2
		octave 2
		note F#, 4
		note F#, 4
Music_UnovaBattle1_branch_145:
		octave 3
		note D#, 4
		note __, 2
		note D#, 4
		note __, 2
		note D#, 4
Music_UnovaBattle1_branch_146:
		note __, 2
		note D#, 4
		note __, 2
		octave 2
		note G#, 4
		note G#, 4
Music_UnovaBattle1_branch_147:
		note G#, 16
Music_UnovaBattle1_branch_148:
		note G#, 6
		note __, 16
Music_UnovaBattle1_branch_149:
		note __, 16
Music_UnovaBattle1_branch_150:
		note __, 16
Music_UnovaBattle1_branch_151:
		note __, 16
Music_UnovaBattle1_branch_152:
		note __, 16
Music_UnovaBattle1_branch_153:
		note __, 16
Music_UnovaBattle1_branch_154:
		note __, 16
Music_UnovaBattle1_branch_155:
		note __, 16
Music_UnovaBattle1_branch_156:
		note __, 16
Music_UnovaBattle1_branch_157:
		note __, 16
Music_UnovaBattle1_branch_158:
		note __, 6
		octave 3
		note C_, 1
Music_UnovaBattle1_branch_159:
		note C_, 1
		note C_, 1
		note C_, 1
		octave 5
		dutycycle 2
		note E_, 1
		octave 4
		note B_, 1
		octave 5
		note E_, 1
		note __, 1
		note E_, 1
		octave 4
		note B_, 1
		octave 5
		note E_, 1
		note __, 1
		note E_, 1
		octave 4
		note B_, 1
		octave 5
		note E_, 1
		note __, 1
		note E_, 1
Music_UnovaBattle1_branch_160:
		octave 4
		note B_, 1
		octave 5
		note E_, 1
		note __, 1
		note E_, 1
		octave 4
		note B_, 1
		octave 5
		note E_, 1
		note __, 1
		note E_, 1
		octave 4
		note B_, 1
		octave 5
		note E_, 1
		note __, 1
		note E_, 1
		octave 4
		note B_, 1
		octave 5
		note E_, 1
		note __, 1
		note E_, 1
Music_UnovaBattle1_branch_161:
		octave 4
		note B_, 1
		octave 5
		note E_, 1
		note __, 1
		note __, 16
Music_UnovaBattle1_branch_162:
		note __, 16
Music_UnovaBattle1_branch_163:
		octave 3
		octave 4
		note E_, 1
		octave 3
		octave 4
		note __, 1
		octave 3
		octave 4
		note E_, 1
		octave 3
		octave 4
		note __, 1
		note G_, 4
		octave 3
		octave 4
		note E_, 1
		octave 3
		octave 4
		note __, 1
		octave 3
		octave 4
		note E_, 1
		octave 3
		octave 4
		note __, 1
		note A_, 4
Music_UnovaBattle1_branch_164:
		octave 3
		octave 4
		note E_, 1
		octave 3
		octave 4
		note __, 1
		octave 3
		octave 4
		note E_, 1
		octave 3
		octave 4
		note __, 1
		note A#, 4
		octave 3
		octave 4
		note E_, 1
		octave 3
		octave 4
		note __, 1
		octave 3
		octave 4
		note E_, 1
		octave 3
		octave 4
		note __, 1
		note B_, 4
Music_UnovaBattle1_branch_165:
		note __, 16
Music_UnovaBattle1_branch_166:
		note __, 16
Music_UnovaBattle1_branch_167:
		note F_, 1
		note __, 1
		note F_, 1
		note __, 1
		note G#, 4
		note F_, 1
		note __, 1
		note F_, 1
		note __, 1
		note A#, 4
Music_UnovaBattle1_branch_168:
		note F_, 1
		note __, 1
		note F_, 1
		note __, 1
		note B_, 4
		note F_, 1
		note __, 1
		note F_, 1
		note __, 1
		octave 5
		note C_, 4
Music_UnovaBattle1_branch_169:
		octave 4
		octave 5
		note __, 16
Music_UnovaBattle1_branch_170:
		note __, 16
Music_UnovaBattle1_branch_171:
		note __, 16
Music_UnovaBattle1_branch_172:
		octave 4
		note F_, 1
		note __, 1
		note F#, 10
		octave 3
		octave 4
		octave 3
		octave 4
		octave 3
		octave 4
		octave 3
		octave 4
		octave 3
		octave 4
		octave 3
		octave 4
		octave 3
		note A_, 1
Music_UnovaBattle1_branch_173:
		note F_, 1
		octave 4
		note C_, 16
Music_UnovaBattle1_branch_174:
		note __, 16
Music_UnovaBattle1_branch_175:
		note __, 16
Music_UnovaBattle1_branch_176:
		octave 3
		octave 4
		note D_, 1
		octave 3
		octave 4
		note __, 1
		octave 3
		octave 4
		note D#, 10
		octave 3
		octave 4
		octave 3
		octave 4
		octave 3
		octave 4
		octave 3
		octave 4
		octave 3
		octave 4
		octave 3
		note F_, 1
		note G_, 1
		octave 4
		note C#, 6
Music_UnovaBattle1_branch_177:
		note C_, 2
		octave 3
		note G#, 6
		note G_, 2
		note F_, 6
Music_UnovaBattle1_branch_178:
		note G_, 2
		note G#, 6
		note A#, 2
		octave 4
		note C_, 14
Music_UnovaBattle1_branch_179:
		note C#, 2
		octave 3
		note A#, 2
Music_UnovaBattle1_branch_180:
		octave 4
		octave 3
		octave 4
		note __, 4
		octave 3
		octave 4
		octave 3
		octave 4
		note __, 2
		octave 3
		octave 4
		note D#, 1
		octave 3
		octave 4
		octave 3
		octave 4
		octave 3
		octave 4
		note __, 1
		octave 3
		octave 4
		octave 3
		octave 4
		note __, 4
		octave 3
		octave 4
		octave 3
		octave 4
		note __, 2
		note F_, 6
Music_UnovaBattle1_branch_181:
		note D#, 2
		note C#, 6
		note C_, 2
		octave 3
		note A#, 6
Music_UnovaBattle1_branch_182:
		note G#, 2
		note F_, 6
		note G#, 2
		octave 2
		octave 3
		note G_, 2
Music_UnovaBattle1_branch_183:
		octave 2
		octave 3
		octave 2
		octave 3
		note G_, 4
		octave 2
		octave 3
		note A#, 2
		octave 4
		note D#, 1
		octave 3
		octave 4
		octave 3
		octave 4
		octave 3
		octave 4
		octave 3
		octave 4
		octave 3
		octave 4
		octave 3
		note __, 6
		octave 4
		note D#, 1
		octave 3
		octave 4
		note __, 1
Music_UnovaBattle1_branch_184:
		octave 3
		octave 4
		octave 3
		octave 4
		note __, 4
		octave 3
		octave 4
		octave 3
		octave 4
		note __, 2
		octave 3
		octave 4
		note D#, 1
		octave 3
		octave 4
		octave 3
		octave 4
		octave 3
		octave 4
		note __, 1
		octave 3
		octave 4
		octave 3
		octave 4
		note __, 2
		octave 3
		octave 4
		note D#, 1
		octave 3
		octave 4
		note __, 1
		octave 3
		octave 4
		note C#, 1
		octave 3
		octave 4
		note __, 1
		octave 3
		note A#, 1
		note __, 1
Music_UnovaBattle1_branch_185:
		note A#, 1
		note __, 7
		note A#, 1
		note __, 1
		note A#, 1
		note __, 5
Music_UnovaBattle1_branch_186:
		octave 4
		note E_, 1
		octave 3
		octave 4
		note __, 1
		octave 3
		octave 4
		note E_, 1
		octave 3
		octave 4
		note __, 3
		octave 3
		octave 4
		note D#, 1
		octave 3
		octave 4
		note __, 1
		octave 3
		octave 4
		note D#, 1
		octave 3
		octave 4
		note __, 1
		octave 3
		octave 4
		note C#, 1
		octave 3
		octave 4
		octave 3
		octave 4
		octave 3
		octave 4
		note __, 1
		octave 3
		octave 4
		octave 3
		octave 4
		note __, 1
		octave 3
		octave 4
		octave 3
		octave 4
		note __, 1
		octave 2
		octave 3
		note C#, 16
Music_UnovaBattle1_branch_187:
		note C#, 8
Music_UnovaBattle1_branch_188:
		octave 2
		octave 3
		octave 4
		note C#, 8
		octave 3
		octave 4
		note __, 16
Music_UnovaBattle1_branch_189:
		note __, 16
Music_UnovaBattle1_branch_190:
		octave 3
		note D#, 1
		note __, 1
Music_UnovaBattle1_branch_191:
		octave 4
		note D#, 1
		octave 3
		octave 4
		note __, 1
		octave 3
		octave 4
		note D#, 1
		octave 3
		octave 4
		note __, 1
		octave 3
		note D#, 1
		note __, 1
		octave 4
		note E_, 1
		octave 3
		octave 4
		note __, 1
		octave 3
		octave 4
		note E_, 1
		octave 3
		octave 4
		note __, 1
		octave 3
		note D#, 1
		note __, 1
		octave 4
		note F#, 1
		note __, 1
		note F#, 1
		note __, 1
Music_UnovaBattle1_branch_192:
		octave 3
		note D#, 1
		note __, 1
		octave 4
		note G_, 1
		note __, 1
		note G_, 1
		note __, 16
Music_UnovaBattle1_branch_193:
		note __, 16
Music_UnovaBattle1_branch_194:
		note __, 16
Music_UnovaBattle1_branch_195:
		note __, 16
Music_UnovaBattle1_branch_196:
		note __, 9
		octave 3
		note G_, 8
Music_UnovaBattle1_branch_197:
		octave 2
		note G_, 4
		note G#, 4
		note A#, 8
Music_UnovaBattle1_branch_198:
		note G_, 8
		octave 3
		note E_, 8
Music_UnovaBattle1_branch_199:
		octave 2
		note G#, 4
		note A#, 4
		note B_, 8
Music_UnovaBattle1_branch_200:
		note G#, 4
		octave 3
		note E_, 4
		note D#, 8
Music_UnovaBattle1_branch_201:
		octave 2
		note A#, 12
Music_UnovaBattle1_branch_202:
		note G_, 12
		note D#, 8
Music_UnovaBattle1_branch_203:
		note C#, 4
		note D#, 4
		note A#, 8
Music_UnovaBattle1_branch_204:
		note A_, 4
		octave 3
		note D_, 4
		note __, 16
Music_UnovaBattle1_branch_205:
		note __, 16
Music_UnovaBattle1_branch_206:
		note __, 16
Music_UnovaBattle1_branch_207:
		note __, 16
Music_UnovaBattle1_branch_208:
		note __, 16
Music_UnovaBattle1_branch_209:
		note __, 16
Music_UnovaBattle1_branch_210:
		note __, 16
Music_UnovaBattle1_branch_211:
		note __, 16
Music_UnovaBattle1_branch_212:
		note __, 16
Music_UnovaBattle1_branch_213:
		note __, 16
Music_UnovaBattle1_branch_214:
		note __, 16
Music_UnovaBattle1_branch_215:
		note __, 16
Music_UnovaBattle1_branch_216:
		note __, 16
Music_UnovaBattle1_branch_217:
		note __, 16
Music_UnovaBattle1_branch_218:
		note __, 16
Music_UnovaBattle1_branch_219:
		note __, 16
Music_UnovaBattle1_branch_220:
		octave 2
		note E_, 2
Music_UnovaBattle1_branch_221:
		note __, 4
		note G_, 6
		note A_, 4
		octave 3
		note C_, 1
		note C#, 12
Music_UnovaBattle1_branch_222:
		note __, 1
		octave 1
		note G#, 1
		note G_, 1
		note F#, 1
		note __, 1
Music_UnovaBattle1_branch_223:
		note F#, 1
		note __, 1
		octave 2
		note C#, 4
		octave 1
		note F#, 1
		note __, 1
		note F#, 1
		note __, 1
		octave 2
		note D_, 4
		octave 1
		note F#, 1
		note __, 1
Music_UnovaBattle1_branch_224:
		note F#, 1
		note __, 1
		octave 2
		note C#, 4
		octave 1
		note F#, 1
		note __, 1
		note F#, 1
		note __, 1
		note F_, 4
		note F#, 1
		note __, 1
Music_UnovaBattle1_branch_225:
		note F#, 1
		note __, 1
		octave 2
		note D#, 4
		octave 1
		note F#, 1
		note __, 1
		note F#, 1
		note __, 1
		octave 2
		note E_, 4
		octave 1
		note F#, 1
		note __, 1
Music_UnovaBattle1_branch_226:
		note F#, 1
		note __, 1
		octave 2
		note D#, 4
		octave 1
		note F#, 1
		note __, 1
		note F#, 1
		note __, 1
		note G#, 1
		note __, 1
		note D#, 2
		note __, 16
Music_UnovaBattle1_branch_227:
		note __, 16
Music_UnovaBattle1_branch_228:
		note __, 16
Music_UnovaBattle1_branch_229:
		note __, 16
Music_UnovaBattle1_branch_230:
		note __, 16
Music_UnovaBattle1_branch_231:
		note __, 16
Music_UnovaBattle1_branch_232:
		note __, 16
Music_UnovaBattle1_branch_233:
		note __, 8
Music_UnovaBattle1_branch_234:
		octave 3
		note C#, 1
		note __, 1
		note C#, 1
		note C#, 1
		note C#, 1
		note C#, 1
		note C#, 16
Music_UnovaBattle1_branch_235:
		note __, 16
Music_UnovaBattle1_branch_236:
		note __, 16
Music_UnovaBattle1_branch_237:
		note __, 12
Music_UnovaBattle1_branch_238:
		note A#, 1
		octave 4
		note C_, 1
		octave 3
		octave 4
		octave 3
		octave 4
		note D_, 1
		octave 3
		octave 4
		octave 3
		octave 4
		note E_, 1
		octave 3
		octave 4
		octave 5
		dutycycle 3
		note E_, 1
		octave 4
		note B_, 1
		octave 5
		note E_, 1
		note B_, 1
Music_UnovaBattle1_branch_239:
		note E_, 1
		octave 4
		note B_, 1
		octave 5
		note E_, 1
		note B_, 1
		note E_, 1
		octave 4
		note B_, 1
		octave 5
		note E_, 1
		note B_, 1
		note E_, 1
		octave 4
		note B_, 1
		octave 5
		note E_, 1
		note B_, 1
		note E_, 1
		octave 4
		note B_, 1
		octave 5
		note E_, 1
		note B_, 1
Music_UnovaBattle1_branch_240:
		note E_, 1
		octave 4
		note B_, 1
		octave 5
		note E_, 1
		note B_, 1
		note E_, 1
		octave 4
		note B_, 1
		octave 5
		note E_, 1
		note B_, 1
		note E_, 1
		octave 4
		note B_, 1
		octave 5
		note E_, 1
		note B_, 1
		octave 4
		octave 5
		note E_, 12
Music_UnovaBattle1_branch_241:
		octave 4
		octave 5
		octave 4
		octave 3
		octave 4
		note E_, 16
Music_UnovaBattle1_branch_242:
		octave 3
		octave 4
		note __, 16
Music_UnovaBattle1_branch_243:
		note __, 16
Music_UnovaBattle1_branch_244:
		octave 5
		note F_, 12
Music_UnovaBattle1_branch_245:
		octave 4
		octave 5
		octave 4
		note F_, 16
Music_UnovaBattle1_branch_246:
		note __, 16
Music_UnovaBattle1_branch_247:
		note __, 12
Music_UnovaBattle1_branch_248:
		octave 3
		note A#, 1
		octave 4
		note C_, 1
		octave 3
		octave 4
		octave 3
		octave 4
		note D_, 1
		octave 3
		octave 4
		octave 3
		octave 4
		note E_, 1
		octave 3
		octave 4
		octave 3
		octave 4
		note F_, 16
Music_UnovaBattle1_branch_249:
		octave 3
		octave 4
		octave 3
		octave 4
		note F_, 1
		octave 3
		octave 4
		note __, 1
		octave 3
		octave 4
		note C_, 6
		octave 3
		octave 4
		octave 3
		octave 4
		note F_, 1
		octave 3
		octave 4
		note __, 3
Music_UnovaBattle1_branch_250:
		octave 5
		note C_, 1
		octave 4
		octave 5
		note __, 3
		octave 4
		octave 5
		note C_, 1
		octave 4
		octave 5
		note __, 1
		octave 4
		octave 5
		note C#, 16
Music_UnovaBattle1_branch_251:
		note C#, 12
Music_UnovaBattle1_branch_252:
		octave 4
		octave 5
		octave 4
		note __, 1
		note __, 1
		octave 3
		octave 4
		note F_, 16
Music_UnovaBattle1_branch_253:
		octave 3
		octave 4
		octave 3
		octave 4
		note F_, 1
		octave 3
		octave 4
		note __, 1
		octave 3
		octave 4
		note C_, 6
		octave 3
		octave 4
		octave 3
		octave 4
		note F_, 1
		octave 3
		octave 4
		note __, 3
Music_UnovaBattle1_branch_254:
		octave 5
		note C_, 1
		octave 4
		octave 5
		note __, 3
		octave 4
		octave 5
		note C_, 1
		octave 4
		octave 5
		note __, 1
		octave 3
		octave 4
		note A#, 16
Music_UnovaBattle1_branch_255:
		note A#, 10
Music_UnovaBattle1_branch_256:
		octave 3
		octave 4
		octave 3
		octave 4
		note C#, 1
		octave 3
		octave 4
		octave 3
		octave 4
		note D#, 1
		octave 3
		octave 4
		octave 3
		octave 4
		note F_, 1
		octave 3
		octave 4
		octave 3
		octave 4
		note G_, 1
		octave 3
		octave 4
		octave 3
		octave 4
		note G#, 16
Music_UnovaBattle1_branch_257:
		octave 3
		octave 4
		octave 3
		octave 4
		note F_, 8
		octave 3
		octave 4
		octave 5
		note C_, 4
Music_UnovaBattle1_branch_258:
		octave 4
		octave 5
		octave 3
		octave 4
		note G#, 4
		octave 3
		octave 4
		octave 3
		octave 4
		note G_, 6
		octave 3
		octave 4
		octave 3
		octave 4
		note A#, 16
Music_UnovaBattle1_branch_259:
		note A#, 10
Music_UnovaBattle1_branch_260:
		octave 3
		octave 4
		octave 3
		octave 4
		note G#, 16
Music_UnovaBattle1_branch_261:
		octave 3
		octave 4
		octave 3
		octave 4
		note F_, 8
		octave 3
		octave 4
		octave 5
		note C_, 4
Music_UnovaBattle1_branch_262:
		octave 4
		octave 5
		octave 3
		octave 4
		note G#, 4
		octave 3
		octave 4
		octave 3
		octave 4
		note A#, 6
		octave 3
		octave 4
		octave 5
		note D#, 16
Music_UnovaBattle1_branch_263:
		note D#, 10
Music_UnovaBattle1_branch_264:
		octave 4
		octave 5
		note __, 16
Music_UnovaBattle1_branch_265:
		note __, 16
Music_UnovaBattle1_branch_266:
		note __, 16
Music_UnovaBattle1_branch_267:
		note __, 16
Music_UnovaBattle1_branch_268:
		octave 3
		note D#, 1
		note __, 1
		octave 4
		note D#, 1
		octave 3
		octave 4
		note __, 1
		octave 3
		octave 4
		note D#, 1
		octave 3
		octave 4
		note __, 1
		octave 3
		note D#, 1
		note __, 1
		octave 4
		note E_, 1
		octave 3
		octave 4
		note __, 1
		octave 3
		octave 4
		note E_, 1
		octave 3
		octave 4
		note __, 1
Music_UnovaBattle1_branch_269:
		octave 3
		note D#, 1
		note __, 1
		octave 4
		note F#, 1
		note __, 1
		note F#, 1
		note __, 1
		octave 3
		note D#, 1
		note __, 1
		octave 4
		note G_, 1
		note __, 1
		note G_, 1
		note __, 3
		octave 3
		note D#, 1
		note __, 1
Music_UnovaBattle1_branch_270:
		note C#, 1
		note __, 1
		note D#, 1
		note __, 1
		note D#, 1
		note __, 1
		octave 4
		note D#, 1
		octave 3
		octave 4
		note __, 1
		octave 3
		octave 4
		note D#, 1
		octave 3
		octave 4
		note __, 1
		octave 3
		note D#, 1
		note __, 1
		octave 4
		note E_, 1
		octave 3
		octave 4
		note __, 1
		octave 3
		octave 4
		note E_, 1
		octave 3
		octave 4
		note __, 1
Music_UnovaBattle1_branch_271:
		octave 3
		note D#, 1
		note __, 1
		octave 4
		note F#, 1
		note __, 1
		note F#, 1
		note __, 1
		octave 3
		note D#, 1
		note __, 1
		octave 4
		note G_, 1
		note __, 1
		note G_, 1
		note __, 9
Music_UnovaBattle1_branch_272:
		octave 3
		note E_, 1
		note __, 1
		octave 4
		note E_, 1
		octave 3
		octave 4
		note __, 1
		octave 3
		octave 4
		note E_, 1
		octave 3
		octave 4
		note __, 1
		octave 3
		note E_, 1
		note __, 1
		octave 4
		note F_, 1
		note __, 1
		note F_, 1
		note __, 1
Music_UnovaBattle1_branch_273:
		octave 3
		note E_, 1
		note __, 1
		octave 4
		note G_, 1
		note __, 1
		note G_, 1
		note __, 1
		octave 3
		note E_, 1
		note __, 1
		octave 4
		note G#, 1
		note __, 1
		note G#, 1
		note __, 1
		note G#, 1
		note __, 1
		octave 3
		note E_, 1
		note __, 1
Music_UnovaBattle1_branch_274:
		note C#, 1
		note __, 1
		note E_, 1
		note __, 1
		note D#, 1
		note __, 1
		octave 4
		note D#, 1
		octave 3
		octave 4
		note __, 1
		octave 3
		octave 4
		note D_, 1
		octave 3
		octave 4
		note __, 1
		octave 3
		note D#, 1
		note __, 1
		octave 4
		note F_, 1
		note __, 1
		octave 3
		octave 4
		note E_, 1
		octave 3
		octave 4
		note __, 1
Music_UnovaBattle1_branch_275:
		octave 3
		note D#, 1
		note __, 1
		octave 4
		note F#, 1
		note __, 1
		note F_, 1
		note __, 1
		octave 3
		note A#, 1
		note __, 1
		octave 4
		note F#, 1
		note __, 1
		note G_, 1
		note __, 1
		octave 3
		note D#, 8
Music_UnovaBattle1_branch_276:
		octave 2
		note G_, 6
		note A#, 16
Music_UnovaBattle1_branch_277:
		note A#, 2
		octave 3
		note C#, 8
Music_UnovaBattle1_branch_278:
		octave 2
		note B_, 12
Music_UnovaBattle1_branch_279:
		note A#, 4
		note G#, 12
Music_UnovaBattle1_branch_280:
		note G_, 4
		note G#, 4
		note A#, 16
Music_UnovaBattle1_branch_281:
		note A#, 4
		octave 3
		note C#, 4
Music_UnovaBattle1_branch_282:
		note D_, 4
		note D#, 16
Music_UnovaBattle1_branch_283:
		note D#, 8
		note D_, 8
Music_UnovaBattle1_branch_284:
		octave 4
		note C#, 2
		octave 3
		octave 4
		octave 3
		octave 4
		note C_, 2
		octave 3
		octave 4
		octave 3
		octave 4
		note C#, 2
		octave 3
		octave 4
		octave 3
		octave 4
		note F_, 10
Music_UnovaBattle1_branch_285:
		octave 3
		octave 4
		octave 3
		octave 4
		note C#, 8
		octave 3
		octave 4
		octave 2
		octave 3
		note G#, 2
		octave 2
		octave 3
		octave 4
		note C#, 2
Music_UnovaBattle1_branch_286:
		octave 3
		octave 4
		octave 3
		octave 4
		note G#, 2
		octave 3
		octave 4
		octave 3
		octave 4
		note F_, 2
		octave 3
		octave 4
		octave 3
		octave 4
		note D#, 6
		octave 3
		octave 4
		octave 2
		octave 3
		note A#, 10
Music_UnovaBattle1_branch_287:
		octave 2
		octave 3
		octave 4
		note G_, 2
		octave 3
		octave 4
		octave 3
		octave 4
		note F_, 2
		octave 3
		octave 4
		octave 3
		octave 4
		note G_, 2
		octave 3
		octave 4
		octave 3
		octave 4
		note A#, 6
Music_UnovaBattle1_branch_288:
		octave 3
		octave 4
		note __, 4
		octave 3
		octave 4
		note C#, 2
		octave 3
		octave 4
		note __, 4
		octave 3
		octave 4
		note F_, 6
Music_UnovaBattle1_branch_289:
		octave 3
		octave 4
		octave 3
		octave 4
		note C#, 3
		octave 3
		octave 4
		note __, 1
		octave 2
		octave 3
		note G#, 6
		octave 2
		octave 3
		octave 2
		note C#, 2
		octave 3
		note G#, 2
		octave 2
		octave 3
		octave 4
		note C#, 2
Music_UnovaBattle1_branch_290:
		octave 3
		octave 4
		octave 3
		octave 4
		note G#, 2
		octave 3
		octave 4
		octave 3
		octave 4
		note F_, 2
		octave 3
		octave 4
		octave 3
		octave 4
		note D#, 6
		octave 3
		octave 4
		octave 2
		octave 3
		note A#, 6
Music_UnovaBattle1_branch_291:
		octave 2
		octave 3
		octave 4
		note D#, 4
		octave 3
		octave 4
		octave 3
		octave 4
		note G_, 2
		octave 3
		octave 4
		octave 3
		octave 4
		note F_, 2
		octave 3
		octave 4
		octave 3
		octave 4
		note G_, 6
		octave 3
		octave 4
		octave 3
		octave 4
		note A#, 2
Music_UnovaBattle1_branch_292:
		octave 3
		octave 4
		note __, 4
		octave 3
		octave 4
		note F_, 2
		octave 3
		octave 4
		note __, 4
		octave 3
		octave 4
		note C_, 6
Music_UnovaBattle1_branch_293:
		octave 3
		octave 4
		octave 3
		octave 4
		note F_, 4
		octave 3
		octave 4
		octave 3
		octave 4
		note A_, 16
Music_UnovaBattle1_branch_294:
		octave 3
		octave 4
		octave 3
		octave 4
		note G_, 2
		octave 3
		octave 4
		note __, 4
		octave 3
		octave 4
		note D_, 6
Music_UnovaBattle1_branch_295:
		octave 3
		octave 4
		octave 3
		octave 4
		note G_, 3
		octave 3
		octave 4
		note __, 1
		octave 3
		octave 4
		note G_, 2
		octave 3
		octave 4
		octave 3
		octave 4
		note B_, 14
Music_UnovaBattle1_branch_296:
		octave 3
		octave 4
		octave 3
		octave 4
		note A_, 2
		octave 3
		octave 4
		note __, 4
		octave 3
		octave 4
		note E_, 6
Music_UnovaBattle1_branch_297:
		octave 3
		octave 4
		octave 3
		octave 4
		note A_, 4
		octave 3
		octave 4
		octave 5
		note C#, 16
Music_UnovaBattle1_branch_298:
		octave 4
		octave 5
		octave 3
		octave 4
		note E_, 2
		octave 3
		octave 4
		octave 3
		octave 4
		note E_, 4
		octave 3
		octave 4
		octave 3
		octave 4
		note C#, 6
Music_UnovaBattle1_branch_299:
		octave 3
		octave 4
		octave 3
		octave 4
		note E_, 4
		octave 3
		octave 4
		octave 3
		octave 4
		note A_, 16
Music_UnovaBattle1_branch_300:
		octave 3
		octave 4
		octave 3
		note E_, 2
		note __, 4
		note G_, 6
Music_UnovaBattle1_branch_301:
		note A_, 4
		octave 4
		note C#, 6
		octave 3
		octave 4
		octave 3
		octave 4
		note A_, 6
Music_UnovaBattle1_branch_302:
		note A_, 1
		note A#, 1
		note B_, 1
		octave 5
		note C_, 1
		octave 3
		octave 4
		octave 5
		octave 4
		octave 5
		note C#, 1
		octave 4
		octave 5
		note __, 1
		octave 4
		octave 5
		note C#, 1
		octave 4
		octave 5
		note __, 1
		octave 4
		octave 5
		note D_, 4
		octave 4
		octave 5
		octave 4
		octave 5
		note C#, 1
		octave 4
		octave 5
		note __, 1
		octave 4
		octave 5
		note C#, 1
		octave 4
		octave 5
		note __, 1
Music_UnovaBattle1_branch_303:
		octave 4
		octave 5
		note E_, 4
		octave 4
		octave 5
		octave 4
		octave 5
		note C#, 1
		octave 4
		octave 5
		note __, 1
		octave 4
		octave 5
		note C#, 1
		octave 4
		octave 5
		note __, 1
		octave 4
		octave 5
		note F#, 4
		octave 4
		octave 5
		octave 4
		octave 5
		note C#, 1
		octave 4
		octave 5
		note __, 1
		octave 4
		octave 5
		note C#, 1
		octave 4
		octave 5
		note __, 1
Music_UnovaBattle1_branch_304:
		note G_, 4
		octave 4
		octave 5
		note D#, 1
		octave 4
		octave 5
		note __, 1
		octave 4
		octave 5
		note D#, 1
		octave 4
		octave 5
		note __, 1
		octave 4
		octave 5
		note E_, 4
		octave 4
		octave 5
		octave 4
		octave 5
		note D#, 1
		octave 4
		octave 5
		note __, 1
		octave 4
		octave 5
		note D#, 1
		octave 4
		octave 5
		note __, 1
Music_UnovaBattle1_branch_305:
		octave 4
		octave 5
		note F#, 4
		octave 4
		octave 5
		octave 4
		octave 5
		note D#, 1
		octave 4
		octave 5
		note __, 1
		octave 4
		octave 5
		note D#, 1
		octave 4
		octave 5
		note __, 1
		note G#, 4
		octave 4
		octave 5
		note D#, 1
		octave 4
		octave 5
		note __, 1
		octave 4
		octave 5
		note D#, 1
		octave 4
		octave 5
		note __, 1
Music_UnovaBattle1_branch_306:
		note G#, 1
		note __, 1
		note A_, 2
		octave 4
		note G#, 2
		octave 3
		octave 2
		note G#, 13
Music_UnovaBattle1_branch_307:
		octave 4
		octave 2
		octave 3
		octave 1
		octave 2
		octave 3
		note G#, 16
Music_UnovaBattle1_branch_308:
		octave 1
		octave 2
		octave 3
		octave 2
		octave 3
		octave 4
		note A_, 16
Music_UnovaBattle1_branch_309:
		octave 2
		octave 3
		octave 4
		octave 1
		octave 2
		octave 3
		octave 4
		octave 5
		note C#, 6
		octave 4
		octave 5
		octave 4
		note B_, 6
		note A_, 4
Music_UnovaBattle1_branch_310:
		octave 1
		octave 2
		octave 3
		octave 4
		octave 2
		octave 3
		octave 4
		note B_, 16
Music_UnovaBattle1_branch_311:
		octave 2
		octave 3
		octave 4
		octave 1
		octave 2
		octave 3
		note B_, 16
Music_UnovaBattle1_branch_312:
		octave 1
		octave 2
		octave 3
		octave 2
		octave 4
		note B_, 2
		octave 2
		octave 4
		octave 3
		octave 4
		octave 5
		note C#, 12
Music_UnovaBattle1_branch_313:
		note F_, 1
		note D#, 1
		octave 3
		octave 4
		octave 5
		octave 2
		octave 3
		octave 5
		note G#, 1
		note __, 1
		note G#, 1
		note __, 2
		note G#, 1
		note __, 1
		note G#, 1
		note __, 1
		octave 2
		octave 3
		octave 4
		octave 5
		note C#, 1
		octave 3
		octave 4
		octave 5
		note __, 1
		octave 3
		octave 4
		octave 5
		note C#, 1
		octave 3
		octave 4
		octave 5
		note __, 1
Music_UnovaBattle1_branch_314:
		octave 3
		octave 4
		octave 5
		note C#, 1
		octave 3
		octave 4
		octave 5
		note __, 1
		octave 3
		octave 4
		octave 5
		note C#, 1
		octave 3
		octave 4
		octave 5
		note __, 1
		octave 3
		octave 4
		octave 5
		note C#, 1
		octave 3
		octave 4
		octave 5
		note __, 1
		octave 3
		octave 4
		octave 5
		note C#, 1
		octave 3
		octave 4
		octave 5
		note __, 1
		octave 2
		note F_, 1
		note __, 1
		note F#, 4
		note F_, 1
		note __, 1
Music_UnovaBattle1_branch_315:
		note F_, 1
		note __, 1
		note G#, 4
		note F_, 1
		note __, 1
		note F_, 1
		note __, 1
		note A#, 4
		note F_, 1
		note __, 1
Music_UnovaBattle1_branch_316:
		note F_, 1
		note __, 1
		note B_, 4
		note F_, 1
		note __, 1
		note F_, 1
		note __, 1
		note F#, 4
		note F_, 1
		note __, 1
Music_UnovaBattle1_branch_317:
		note F_, 1
		note __, 1
		note G#, 4
		note F_, 1
		note __, 1
		note F_, 1
		note __, 1
		note A#, 4
		note F_, 1
		note __, 1
Music_UnovaBattle1_branch_318:
		note F_, 1
		note __, 1
		note B_, 4
		note __, 16
Music_UnovaBattle1_branch_319:
		dutycycle 4
		note __, 16
Music_UnovaBattle1_branch_320:
		note __, 16
Music_UnovaBattle1_branch_321:
		note __, 16
Music_UnovaBattle1_branch_322:
		octave 1
		note __, 2
		note E_, 1
		note __, 1
		note B_, 4
		note __, 2
Music_UnovaBattle1_branch_323:
		note E_, 1
		note __, 1
		octave 2
		note C_, 4
		octave 1
		note __, 2
		note E_, 1
		note __, 1
		note B_, 4
		note __, 2
Music_UnovaBattle1_branch_324:
		note E_, 1
		note __, 1
		note D#, 4
		note __, 16
Music_UnovaBattle1_branch_325:
		note __, 16
Music_UnovaBattle1_branch_326:
		note __, 2
		note F_, 1
		note __, 1
		octave 2
		note C_, 4
		octave 1
		note __, 2
Music_UnovaBattle1_branch_327:
		note F_, 1
		note __, 1
		octave 2
		note C#, 4
		octave 1
		note __, 2
		note F_, 1
		note __, 1
		octave 2
		note C_, 4
		octave 1
		note __, 2
Music_UnovaBattle1_branch_328:
		note F_, 1
		note __, 1
		note E_, 4
		note A_, 14
Music_UnovaBattle1_branch_329:
		note G_, 1
		note F#, 1
		note __, 2
		octave 2
		note C_, 6
		octave 1
		note A_, 1
		note __, 3
Music_UnovaBattle1_branch_330:
		note F_, 1
		note __, 3
		octave 2
		note C#, 1
		note __, 1
		octave 1
		note A#, 14
Music_UnovaBattle1_branch_331:
		note G#, 1
		note __, 1
		note F#, 14
Music_UnovaBattle1_branch_332:
		note A_, 14
Music_UnovaBattle1_branch_333:
		note F_, 1
		note G_, 1
		note __, 2
		octave 2
		note C_, 6
		octave 1
		note A_, 1
		note __, 3
Music_UnovaBattle1_branch_334:
		note F_, 1
		note __, 3
		note G_, 1
		note __, 1
		note A#, 14
Music_UnovaBattle1_branch_335:
		octave 2
		note C_, 1
		note __, 1
		octave 1
		note A#, 12
Music_UnovaBattle1_branch_336:
		note __, 2
		note G#, 2
		note __, 4
		note G#, 1
		note __, 9
Music_UnovaBattle1_branch_337:
		note C#, 2
		note __, 4
		note C#, 1
		note __, 9
Music_UnovaBattle1_branch_338:
		note D#, 2
		note __, 4
		note D#, 1
		note __, 9
Music_UnovaBattle1_branch_339:
		note G_, 2
		note __, 2
		note F_, 2
		note __, 2
		note D#, 2
Music_UnovaBattle1_branch_340:
		note __, 2
		note C#, 2
		note __, 2
		note G#, 2
		note __, 4
		note C#, 1
		note __, 9
Music_UnovaBattle1_branch_341:
		note F_, 2
		note __, 4
		note G#, 1
		note __, 9
Music_UnovaBattle1_branch_342:
		note D#, 2
		note __, 4
		note D#, 1
		note __, 9
Music_UnovaBattle1_branch_343:
		note D#, 2
		note __, 2
		note C#, 2
		note __, 2
		note G_, 2
Music_UnovaBattle1_branch_344:
		note F_, 2
		note __, 16
Music_UnovaBattle1_branch_345:
		note __, 16
Music_UnovaBattle1_branch_346:
		note __, 16
Music_UnovaBattle1_branch_347:
		note __, 16
Music_UnovaBattle1_branch_348:
		note __, 4
		octave 6
		note __, 4
		octave 5
		note __, 4
		octave 6
		note __, 4
Music_UnovaBattle1_branch_349:
		octave 5
		note __, 4
		octave 6
		note __, 4
		octave 5
		note __, 4
		octave 6
		note __, 4
Music_UnovaBattle1_branch_350:
		octave 5
		note __, 4
		octave 6
		note __, 4
		octave 5
		note __, 4
		octave 6
		note __, 4
Music_UnovaBattle1_branch_351:
		octave 5
		note __, 4
		octave 6
		note __, 4
		octave 5
		note __, 4
		octave 6
		note __, 4
Music_UnovaBattle1_branch_352:
		octave 5
		note __, 2
		octave 4
		octave 5
		note D_, 1
		octave 4
		octave 5
		octave 4
		octave 5
		note D#, 1
		octave 4
		octave 5
		octave 4
		octave 5
		note E_, 1
		octave 4
		octave 5
		note __, 1
		octave 4
		octave 5
		note E_, 1
		octave 4
		octave 5
		note __, 1
		octave 4
		octave 5
		note E_, 1
		octave 4
		octave 5
		note __, 3
		octave 4
		octave 5
		note F_, 1
		octave 4
		octave 5
		note __, 1
Music_UnovaBattle1_branch_353:
		octave 4
		octave 5
		note F_, 1
		octave 4
		octave 5
		note __, 3
		octave 4
		octave 5
		note G_, 1
		octave 4
		octave 5
		note __, 1
		octave 4
		octave 5
		note G_, 1
		octave 4
		octave 5
		note __, 3
		octave 4
		octave 5
		note G#, 1
		octave 4
		octave 5
		note __, 1
		octave 4
		octave 5
		note G#, 1
		octave 4
		octave 5
		note __, 1
		octave 4
		octave 5
		note G#, 1
		octave 4
		octave 5
		note __, 9
Music_UnovaBattle1_branch_354:
		note D#, 1
		note __, 1
		note D_, 1
		note __, 3
		note F_, 1
		note __, 1
Music_UnovaBattle1_branch_355:
		note E_, 1
		note __, 3
		note F#, 1
		note __, 1
		note F_, 1
		note __, 1
		octave 4
		note A#, 1
		note __, 1
		octave 5
		note F#, 1
		note __, 1
		note G_, 1
		note __, 16
Music_UnovaBattle1_branch_356:
		note __, 16
Music_UnovaBattle1_branch_357:
		note __, 16
Music_UnovaBattle1_branch_358:
		note __, 16
Music_UnovaBattle1_branch_359:
		note __, 16
Music_UnovaBattle1_branch_360:
		note __, 16
Music_UnovaBattle1_branch_361:
		note __, 16
Music_UnovaBattle1_branch_362:
		note __, 16
Music_UnovaBattle1_branch_363:
		note __, 16
Music_UnovaBattle1_branch_364:
		note __, 16
Music_UnovaBattle1_branch_365:
		note __, 16
Music_UnovaBattle1_branch_366:
		note __, 16
Music_UnovaBattle1_branch_367:
		note __, 16
Music_UnovaBattle1_branch_368:
		note __, 16
Music_UnovaBattle1_branch_369:
		note __, 16
Music_UnovaBattle1_branch_370:
		note __, 16
Music_UnovaBattle1_branch_371:
		note __, 16
Music_UnovaBattle1_branch_372:
		note __, 16
Music_UnovaBattle1_branch_373:
		note __, 9
Music_UnovaBattle1_branch_374:
		octave 3
		note B_, 16
Music_UnovaBattle1_branch_375:
		note G_, 8
		octave 4
		note D_, 4
Music_UnovaBattle1_branch_376:
		octave 3
		note B_, 4
		note A_, 6
		octave 4
		note C#, 16
Music_UnovaBattle1_branch_377:
		note C#, 10
Music_UnovaBattle1_branch_378:
		note __, 16
Music_UnovaBattle1_branch_379:
		note __, 16
Music_UnovaBattle1_branch_380:
		note __, 16
Music_UnovaBattle1_branch_381:
		note __, 16
Music_UnovaBattle1_branch_382:
		note __, 16
Music_UnovaBattle1_branch_383:
		note __, 16
Music_UnovaBattle1_branch_384:
		note __, 16
Music_UnovaBattle1_branch_385:
		note __, 16
Music_UnovaBattle1_branch_386:
		note __, 16
Music_UnovaBattle1_branch_387:
		note __, 16
Music_UnovaBattle1_branch_388:
		note __, 16
Music_UnovaBattle1_branch_389:
		note __, 16
Music_UnovaBattle1_branch_390:
		note __, 16
Music_UnovaBattle1_branch_391:
		note __, 16
Music_UnovaBattle1_branch_392:
		note __, 16
Music_UnovaBattle1_branch_393:
		note __, 16
Music_UnovaBattle1_branch_394:
		note __, 2
		octave 2
		note C_, 2
		note F_, 2
		note F#, 2
		note F_, 2
Music_UnovaBattle1_branch_395:
		note C_, 2
		octave 1
		note A_, 2
		note F_, 2
		note F#, 2
		note F_, 2
		octave 2
		note C_, 2
		note C#, 2
		note C_, 2
Music_UnovaBattle1_branch_396:
		octave 1
		note G#, 2
		note A_, 2
		note E_, 2
		note F_, 2
		note B_, 2
		octave 2
		note E_, 2
		note F_, 2
		note E_, 2
Music_UnovaBattle1_branch_397:
		octave 1
		note B_, 2
		note G#, 2
		note E_, 2
		note F_, 2
		note E_, 2
		note B_, 2
		octave 2
		note C_, 2
		octave 1
		note B_, 2
Music_UnovaBattle1_branch_398:
		note G_, 2
		note G#, 2
		note D#, 2
		note B_, 1
		dutycycle 5
		note __, 2
		octave 2
		note B_, 1
		note C_, 1
		note __, 2
		octave 3
		note C_, 1
		octave 2
		note C#, 1
		note __, 2
Music_UnovaBattle1_branch_399:
		octave 3
		note C#, 1
		octave 2
		note D_, 1
		note __, 2
		octave 3
		note D_, 1
		octave 2
		note D#, 1
		note __, 2
		octave 3
		note D#, 1
		octave 2
		note E_, 1
		note __, 2
		octave 3
		note E_, 1
		octave 2
		note F_, 1
		note __, 2
Music_UnovaBattle1_branch_400:
		octave 3
		note F_, 1
		octave 2
		note F#, 1
		note __, 2
		octave 3
		note F#, 1
		octave 2
		note E_, 1
		note __, 16
Music_UnovaBattle1_branch_401:
		note __, 15
Music_UnovaBattle1_branch_402:
		octave 3
		note E_, 1
		note __, 1
		note E_, 1
		note __, 1
		note G_, 4
		note E_, 1
		note __, 1
Music_UnovaBattle1_branch_403:
		note E_, 1
		note __, 1
		note A_, 4
		note E_, 1
		note __, 1
		note E_, 1
		note __, 1
		note A#, 4
		note E_, 1
		note __, 1
Music_UnovaBattle1_branch_404:
		note E_, 1
		note __, 1
		note B_, 4
		note __, 16
Music_UnovaBattle1_branch_405:
		note __, 16
Music_UnovaBattle1_branch_406:
		note F_, 1
		note __, 1
		note F_, 1
		note __, 1
		note G#, 4
		note F_, 1
		note __, 1
Music_UnovaBattle1_branch_407:
		note F_, 1
		note __, 1
		note A#, 4
		note F_, 1
		note __, 1
		note F_, 1
		note __, 1
		note B_, 4
		note F_, 1
		note __, 1
Music_UnovaBattle1_branch_408:
		note F_, 1
		note __, 1
		octave 4
		note C_, 4
		octave 2
		note A_, 15
Music_UnovaBattle1_branch_409:
		note __, 2
		note F_, 5
		note __, 1
		note __, 4
Music_UnovaBattle1_branch_410:
		note __, 4
		note __, 2
		note F#, 14
Music_UnovaBattle1_branch_411:
		octave 3
		note __, 2
		octave 2
		note A#, 10
Music_UnovaBattle1_branch_412:
		note __, 2
		note A_, 1
		note A#, 1
		octave 3
		note C_, 14
Music_UnovaBattle1_branch_413:
		octave 2
		note B_, 1
		note A#, 1
		note __, 2
		note F_, 6
		octave 3
		note __, 4
Music_UnovaBattle1_branch_414:
		note __, 4
		note D#, 1
		note __, 1
		note C#, 14
Music_UnovaBattle1_branch_415:
		octave 2
		note D#, 1
		note __, 1
		note G_, 11
Music_UnovaBattle1_branch_416:
		note __, 1
		note G#, 6
		note C#, 6
		note F_, 4
Music_UnovaBattle1_branch_417:
		note G#, 6
		note F_, 6
		note G#, 4
Music_UnovaBattle1_branch_418:
		note A#, 6
		note G_, 6
		note G#, 4
Music_UnovaBattle1_branch_419:
		octave 3
		note D#, 6
		octave 2
		note A#, 6
		octave 3
		note G_, 4
Music_UnovaBattle1_branch_420:
		note F_, 6
		note C#, 6
		note F_, 4
Music_UnovaBattle1_branch_421:
		note G#, 6
		note F_, 6
		note G#, 4
Music_UnovaBattle1_branch_422:
		note A#, 6
		note G_, 6
		note G#, 4
Music_UnovaBattle1_branch_423:
		note A#, 6
		note B_, 2
		note G_, 8
Music_UnovaBattle1_branch_424:
		note __, 16
Music_UnovaBattle1_branch_425:
		note __, 16
Music_UnovaBattle1_branch_426:
		note __, 16
Music_UnovaBattle1_branch_427:
		note __, 16
Music_UnovaBattle1_branch_428:
		octave 4
		note __, 2
		note __, 2
		octave 5
		note __, 2
		octave 4
		note __, 2
		octave 5
		note __, 2
		octave 4
		note __, 2
		octave 5
		note __, 2
Music_UnovaBattle1_branch_429:
		octave 4
		note __, 2
		octave 5
		note __, 2
		octave 4
		note __, 2
		octave 5
		note __, 2
		octave 4
		note __, 2
		note D#, 1
		note __, 1
		note D#, 1
		note __, 1
		note C#, 1
Music_UnovaBattle1_branch_430:
		note __, 1
		note D#, 1
		note __, 1
		octave 3
		note A#, 1
		note __, 1
		octave 4
		note __, 2
		octave 5
		note __, 2
		octave 4
		note __, 2
		octave 5
		note __, 2
		octave 4
		note __, 2
		octave 5
		note __, 2
Music_UnovaBattle1_branch_431:
		octave 4
		note __, 2
		octave 5
		note __, 2
		octave 4
		note __, 2
		octave 5
		note __, 2
		octave 4
		note __, 2
		octave 5
		note __, 2
		octave 4
		note __, 2
		note __, 2
Music_UnovaBattle1_branch_432:
		note __, 16
Music_UnovaBattle1_branch_433:
		note __, 12
		note E_, 1
		note __, 1
		note C#, 1
Music_UnovaBattle1_branch_434:
		note __, 1
		note E_, 1
		note __, 1
		note D#, 1
		note __, 16
Music_UnovaBattle1_branch_435:
		note __, 16
Music_UnovaBattle1_branch_436:
		note __, 7
		octave 3
		octave 4
		note D#, 1
		octave 3
		octave 4
		note F_, 1
		octave 3
		octave 4
		note G#, 1
		octave 3
		octave 4
		note F_, 1
		octave 3
		octave 4
		note G_, 15
Music_UnovaBattle1_branch_437:
		octave 3
		octave 4
		note G#, 7
Music_UnovaBattle1_branch_438:
		octave 3
		octave 2
		octave 4
		octave 3
		note B_, 3
		octave 2
		octave 3
		octave 4
		note C_, 3
		octave 3
		octave 4
		note C#, 11
Music_UnovaBattle1_branch_439:
		octave 3
		octave 4
		note E_, 3
		octave 3
		octave 4
		note G_, 7
Music_UnovaBattle1_branch_440:
		octave 3
		octave 4
		note D#, 3
		octave 3
		octave 4
		note F_, 3
		octave 3
		octave 4
		note G_, 7
		octave 3
		octave 4
		note G_, 1
		octave 3
		octave 4
		note F_, 1
		octave 3
		octave 4
		note D#, 1
Music_UnovaBattle1_branch_441:
		octave 3
		octave 4
		note F_, 1
		octave 3
		octave 4
		note G_, 7
		octave 3
		octave 4
		note D#, 1
		octave 3
		octave 4
		note F_, 1
		octave 3
		octave 4
		note A#, 1
		octave 3
		octave 4
		note G#, 1
		octave 3
		octave 4
		note G_, 11
Music_UnovaBattle1_branch_442:
		octave 3
		octave 4
		octave 3
		note A_, 4
		octave 4
		note C#, 2
		note C_, 2
		note C#, 2
Music_UnovaBattle1_branch_443:
		note F_, 10
		note C#, 8
Music_UnovaBattle1_branch_444:
		octave 3
		note G#, 2
		octave 4
		note C#, 2
		note G#, 2
		note F_, 2
		note D#, 6
Music_UnovaBattle1_branch_445:
		octave 3
		note A#, 10
		octave 4
		note G_, 2
		note F_, 2
		note G_, 2
Music_UnovaBattle1_branch_446:
		note A#, 4
		octave 3
		note G_, 2
		note A#, 2
		note D#, 2
		octave 4
		note C#, 2
		note __, 4
Music_UnovaBattle1_branch_447:
		note F_, 6
		note C#, 4
		octave 3
		note G#, 6
Music_UnovaBattle1_branch_448:
		note __, 2
		note G#, 2
		octave 4
		note C#, 2
		note G#, 2
		note F_, 2
		note D#, 6
Music_UnovaBattle1_branch_449:
		octave 3
		note A#, 6
		octave 4
		note D#, 4
		note G_, 2
		note F_, 2
		note G_, 6
Music_UnovaBattle1_branch_450:
		note A#, 2
		note __, 4
		note F_, 2
		note __, 4
Music_UnovaBattle1_branch_451:
		note C_, 6
		note F_, 4
		note A_, 6
Music_UnovaBattle1_branch_452:
		octave 5
		note C_, 1
		note C_, 1
		octave 4
		note A_, 2
		note F_, 2
		note C_, 2
		octave 3
		note A_, 2
		octave 4
		note G_, 2
		note __, 4
Music_UnovaBattle1_branch_453:
		note D_, 6
		note G_, 3
		note __, 1
		note G_, 2
		note B_, 4
Music_UnovaBattle1_branch_454:
		octave 5
		note D_, 1
		note D_, 1
		octave 4
		note B_, 2
		note G_, 2
		note D_, 2
		octave 3
		note B_, 2
		octave 4
		note A_, 2
		note __, 4
Music_UnovaBattle1_branch_455:
		note E_, 6
		note A_, 4
		octave 5
		note C#, 8
Music_UnovaBattle1_branch_456:
		octave 4
		note C#, 2
		note E_, 6
		note __, 6
Music_UnovaBattle1_branch_457:
		octave 3
		note C#, 1
		note __, 5
		note E_, 1
		note __, 3
		note A_, 15
Music_UnovaBattle1_branch_458:
		note __, 1
		note E_, 2
		note __, 4
Music_UnovaBattle1_branch_459:
		note G_, 6
		note A_, 4
		note A#, 14
Music_UnovaBattle1_branch_460:
		note B_, 1
		octave 4
		note C_, 1
		octave 3
		octave 4
		note C#, 1
		octave 3
		octave 4
		note __, 1
		octave 3
		octave 4
		note C#, 1
		octave 3
		octave 4
		note __, 1
		octave 3
		octave 4
		note D_, 4
Music_UnovaBattle1_branch_461:
		octave 3
		octave 4
		octave 3
		octave 4
		note C#, 1
		octave 3
		octave 4
		note __, 1
		octave 3
		octave 4
		note C#, 1
		octave 3
		octave 4
		note __, 1
		octave 3
		octave 4
		note E_, 4
		octave 3
		octave 4
		octave 3
		octave 4
		note C#, 1
		octave 3
		octave 4
		note __, 1
		octave 3
		octave 4
		note C#, 1
		octave 3
		octave 4
		note __, 1
		octave 3
		octave 4
		note F#, 4
Music_UnovaBattle1_branch_462:
		octave 3
		octave 4
		octave 3
		octave 4
		note C#, 1
		octave 3
		octave 4
		note __, 1
		octave 3
		octave 4
		note C#, 1
		octave 3
		octave 4
		note __, 1
		note G_, 4
		octave 3
		octave 4
		note D#, 1
		octave 3
		octave 4
		note __, 1
		octave 3
		octave 4
		note D#, 1
		octave 3
		octave 4
		note __, 1
		octave 3
		octave 4
		note E_, 4
Music_UnovaBattle1_branch_463:
		octave 3
		octave 4
		octave 3
		octave 4
		note D#, 1
		octave 3
		octave 4
		note __, 1
		octave 3
		octave 4
		note D#, 1
		octave 3
		octave 4
		note __, 1
		octave 3
		octave 4
		note F#, 4
		octave 3
		octave 4
		octave 3
		octave 4
		note D#, 1
		octave 3
		octave 4
		note __, 1
		octave 3
		octave 4
		note D#, 1
		octave 3
		octave 4
		note __, 1
		note G#, 4
Music_UnovaBattle1_branch_464:
		octave 3
		octave 4
		note D#, 1
		octave 3
		octave 4
		note __, 1
		octave 3
		octave 4
		note D#, 1
		octave 3
		octave 4
		note __, 1
		note G#, 1
		note __, 1
		note A_, 2
		octave 2
		octave 3
		octave 4
		note G#, 2
		note G#, 8
Music_UnovaBattle1_branch_465:
		note __, 5
		octave 2
		octave 3
		octave 1
		octave 2
		note G#, 16
Music_UnovaBattle1_branch_466:
		octave 1
		octave 2
		octave 3
		note A_, 16
Music_UnovaBattle1_branch_467:
		octave 2
		octave 3
		octave 4
		note C#, 6
Music_UnovaBattle1_branch_468:
		octave 3
		octave 4
		octave 2
		octave 3
		note B_, 6
		octave 2
		octave 3
		octave 2
		octave 3
		note A_, 4
		octave 2
		octave 3
		octave 2
		octave 3
		note B_, 16
Music_UnovaBattle1_branch_469:
		octave 2
		octave 3
		octave 1
		octave 2
		note B_, 15
Music_UnovaBattle1_branch_470:
		octave 1
		octave 2
		note __, 1
		octave 3
		note F#, 1
		octave 2
		octave 3
		note __, 1
		octave 2
		octave 3
		note F_, 13
Music_UnovaBattle1_branch_471:
		octave 2
		octave 3
		note __, 1
		note C#, 1
		note __, 2
		note __, 1
		note __, 1
		note __, 1
Music_UnovaBattle1_branch_472:
		note __, 1
		octave 2
		note G#, 1
		note __, 2
		note __, 1
		note __, 1
		note __, 1
		note __, 1
		note G#, 2
		note __, 16
Music_UnovaBattle1_branch_473:
		dutycycle 6
		note __, 16
Music_UnovaBattle1_branch_474:
		note __, 16
Music_UnovaBattle1_branch_475:
		note __, 14
Music_UnovaBattle1_branch_476:
		octave 4
		note G#, 1
		note G_, 1
		note F#, 1
		note G_, 1
		note F#, 1
		note F_, 1
		note F#, 1
		note F_, 1
Music_UnovaBattle1_branch_477:
		note E_, 1
		note F_, 1
		note E_, 1
		octave 3
		octave 4
		note D#, 1
		octave 3
		octave 4
		note E_, 1
		octave 3
		octave 4
		note D#, 1
		octave 3
		octave 4
		octave 3
		octave 4
		note D_, 1
		octave 3
		octave 4
		octave 3
		octave 4
		note D#, 1
		octave 3
		octave 4
		octave 3
		octave 4
		note D_, 1
		octave 3
		octave 4
		octave 3
		octave 4
		note C#, 1
		octave 3
		octave 4
		octave 3
		octave 4
		note D_, 1
		octave 3
		octave 4
		octave 3
		octave 4
		note C#, 1
		octave 3
		octave 4
		octave 3
		octave 4
		note C_, 1
		octave 3
		octave 4
		octave 3
		octave 4
		note C#, 1
		octave 3
		octave 4
		octave 3
		octave 4
		note C_, 1
		octave 3
		octave 4
		octave 3
		note B_, 1
Music_UnovaBattle1_branch_478:
		octave 4
		note C_, 1
		octave 3
		octave 4
		octave 3
		note B_, 1
		note A#, 1
		note B_, 1
		note A#, 1
		note B_, 1
		note A#, 1
		note A_, 1
		octave 4
		note G#, 12
Music_UnovaBattle1_branch_479:
		octave 3
		octave 4
		octave 3
		note G#, 16
Music_UnovaBattle1_branch_480:
		octave 2
		octave 3
		note B_, 1
		note __, 1
		note B_, 1
		note __, 1
		octave 4
		note D_, 4
		octave 3
		note B_, 1
		note __, 1
		note B_, 1
		note __, 1
Music_UnovaBattle1_branch_481:
		octave 4
		note E_, 4
		octave 3
		note B_, 1
		note __, 1
		note B_, 1
		note __, 1
		octave 4
		note F_, 4
		octave 3
		note B_, 1
		note __, 1
		note B_, 1
		note __, 1
Music_UnovaBattle1_branch_482:
		octave 4
		note E_, 1
		octave 3
		octave 4
		octave 3
		octave 4
		note F_, 1
		octave 3
		octave 4
		octave 3
		octave 4
		note G_, 1
		octave 3
		octave 4
		octave 3
		octave 4
		note G#, 1
		octave 2
		octave 3
		octave 4
		note A_, 12
Music_UnovaBattle1_branch_483:
		octave 3
		octave 4
		octave 3
		note A_, 16
Music_UnovaBattle1_branch_484:
		octave 4
		note C_, 1
		note __, 1
		note C_, 1
		note __, 1
		note D#, 4
		note C_, 1
		note __, 1
		note C_, 1
		note __, 1
		note F_, 4
Music_UnovaBattle1_branch_485:
		note C_, 1
		note __, 1
		note C_, 1
		note __, 1
		note F#, 4
		note C_, 1
		note __, 1
		note C_, 1
		note __, 1
		note F_, 4
Music_UnovaBattle1_branch_486:
		note C_, 16
Music_UnovaBattle1_branch_487:
		note C_, 1
		note __, 1
		octave 3
		note F_, 6
		octave 4
		note C_, 1
		note __, 3
		note F_, 1
		note __, 3
Music_UnovaBattle1_branch_488:
		note F_, 1
		note __, 1
		note F#, 4
		note A#, 1
		note G#, 1
		note F#, 6
		note F#, 1
		note F_, 1
Music_UnovaBattle1_branch_489:
		note D#, 8
		octave 3
		note A#, 2
		octave 4
		octave 3
		note __, 2
		octave 4
		note __, 2
		note G#, 1
		note __, 1
Music_UnovaBattle1_branch_490:
		note C_, 16
Music_UnovaBattle1_branch_491:
		note C_, 1
		note __, 1
		octave 3
		note F_, 6
		octave 4
		note C_, 1
		note __, 3
		note F_, 1
		note __, 3
Music_UnovaBattle1_branch_492:
		note F_, 1
		note __, 1
		note D#, 4
		note G_, 1
		note F_, 1
		note D#, 6
		note D#, 1
		note D_, 1
Music_UnovaBattle1_branch_493:
		note C_, 8
		octave 3
		note A#, 2
		octave 4
		note C_, 2
		note __, 4
Music_UnovaBattle1_branch_494:
		note C#, 6
		octave 3
		note G#, 1
		octave 4
		note C_, 1
		note F_, 6
		note F_, 1
		note D#, 1
Music_UnovaBattle1_branch_495:
		note C#, 8
		note F_, 4
		note C#, 4
Music_UnovaBattle1_branch_496:
		note D#, 2
		note F_, 2
		note C#, 2
		note D#, 2
		note F_, 2
		note G_, 2
		note G#, 2
		note F_, 2
Music_UnovaBattle1_branch_497:
		note D#, 6
		note D_, 2
		note G_, 6
		note D#, 2
Music_UnovaBattle1_branch_498:
		note C#, 6
		octave 3
		note G#, 1
		octave 4
		note C#, 1
		note F_, 6
		note F_, 1
		note D#, 1
Music_UnovaBattle1_branch_499:
		note C#, 8
		note F_, 4
		note C#, 4
Music_UnovaBattle1_branch_500:
		note D#, 2
		note G_, 2
		note D_, 2
		note D#, 2
		note F_, 6
		note G#, 2
Music_UnovaBattle1_branch_501:
		note G_, 6
		note A#, 2
		note G_, 1
		note F_, 1
		note D#, 1
		note C#, 1
		octave 3
		note B_, 1
		note A#, 1
		note __, 1
		octave 4
		octave 5
		octave 4
		octave 5
		octave 4
		octave 5
		octave 4
		octave 5
		octave 4
		octave 5
		note D#, 5
Music_UnovaBattle1_branch_502:
		octave 3
		octave 4
		octave 5
		octave 3
		octave 4
		octave 5
		note E_, 10
		octave 3
		octave 4
		octave 5
		octave 3
		octave 4
		octave 5
		note C#, 8
Music_UnovaBattle1_branch_503:
		octave 3
		octave 4
		octave 5
		octave 2
		octave 3
		octave 4
		note A#, 2
		octave 2
		octave 3
		octave 4
		octave 3
		octave 4
		octave 5
		note C#, 2
		octave 3
		octave 4
		octave 5
		octave 3
		octave 4
		octave 5
		octave 3
		octave 4
		octave 5
		octave 3
		octave 4
		octave 5
		octave 3
		octave 4
		octave 5
		octave 3
		octave 4
		octave 5
		note G#, 1
		octave 3
		octave 4
		octave 5
		octave 3
		octave 4
		octave 5
		note E_, 2
		octave 3
		octave 4
		octave 5
		octave 3
		octave 4
		octave 5
		note D#, 6
Music_UnovaBattle1_branch_504:
		octave 3
		octave 4
		octave 5
		octave 2
		octave 3
		octave 4
		note A#, 10
		octave 2
		octave 3
		octave 4
		octave 2
		octave 3
		octave 4
		note G_, 8
Music_UnovaBattle1_branch_505:
		octave 2
		octave 3
		octave 4
		octave 2
		octave 3
		octave 4
		octave 5
		note D#, 2
		octave 2
		octave 3
		octave 4
		octave 5
		octave 2
		octave 3
		octave 4
		octave 5
		note A#, 2
		octave 2
		octave 3
		octave 4
		octave 5
		octave 3
		octave 4
		octave 5
		note G_, 1
		octave 3
		octave 4
		octave 5
		octave 3
		octave 4
		octave 5
		note G#, 1
		octave 3
		octave 4
		octave 5
		octave 3
		octave 4
		octave 5
		note E_, 2
		octave 3
		octave 4
		octave 5
		octave 3
		octave 4
		octave 5
		note D#, 2
		octave 3
		octave 4
		octave 5
		note __, 16
Music_UnovaBattle1_branch_506:
		note __, 16
Music_UnovaBattle1_branch_507:
		note __, 16
Music_UnovaBattle1_branch_508:
		note __, 6
Music_UnovaBattle1_branch_509:
		octave 2
		octave 3
		octave 4
		note D#, 2
		octave 2
		octave 3
		octave 4
		octave 2
		octave 3
		octave 4
		note B_, 2
		octave 2
		octave 3
		octave 4
		octave 3
		octave 4
		octave 5
		octave 3
		octave 4
		octave 5
		octave 3
		octave 4
		octave 5
		octave 3
		octave 4
		octave 5
		octave 3
		octave 4
		octave 5
		note G#, 1
		octave 3
		octave 4
		octave 5
		octave 3
		octave 4
		octave 5
		note F_, 2
		octave 3
		octave 4
		octave 5
		octave 3
		octave 4
		octave 5
		note E_, 16
Music_UnovaBattle1_branch_510:
		note E_, 4
Music_UnovaBattle1_branch_511:
		note __, 4
		octave 3
		octave 4
		octave 2
		octave 3
		note G#, 2
		octave 2
		octave 3
		octave 4
		note C#, 2
		octave 3
		octave 4
		octave 3
		octave 4
		note G#, 2
		octave 3
		octave 4
		octave 3
		octave 4
		note E_, 2
		octave 3
		octave 4
		octave 3
		octave 4
		note D#, 6
Music_UnovaBattle1_branch_512:
		octave 3
		octave 4
		octave 2
		octave 3
		note A#, 10
		octave 2
		octave 3
		octave 2
		octave 3
		note G_, 8
Music_UnovaBattle1_branch_513:
		octave 2
		octave 3
		octave 2
		octave 3
		note D#, 2
		octave 2
		octave 3
		octave 2
		octave 3
		note A#, 2
		octave 2
		octave 3
		octave 4
		note G_, 2
		octave 3
		octave 4
		octave 3
		octave 4
		note F_, 2
		octave 3
		octave 4
		octave 3
		octave 4
		note D#, 16
Music_UnovaBattle1_branch_514:
		note D#, 8
Music_UnovaBattle1_branch_515:
		octave 3
		octave 4
		octave 2
		octave 3
		note G_, 2
		octave 2
		octave 3
		octave 2
		octave 3
		note A#, 2
		octave 2
		octave 3
		octave 4
		note G_, 2
		octave 3
		octave 4
		octave 3
		octave 4
		note D#, 2
		octave 3
		octave 4
		octave 3
		octave 4
		note E_, 14
Music_UnovaBattle1_branch_516:
		octave 3
		octave 4
		octave 3
		octave 4
		note D#, 1
		octave 3
		octave 4
		octave 3
		octave 4
		note D_, 1
		octave 3
		octave 4
		octave 3
		octave 4
		note C#, 12
Music_UnovaBattle1_branch_517:
		octave 3
		octave 4
		octave 3
		octave 4
		note E_, 4
		octave 3
		octave 4
		octave 3
		octave 4
		note D#, 16
Music_UnovaBattle1_branch_518:
		note D#, 8
Music_UnovaBattle1_branch_519:
		octave 2
		octave 3
		note __, 1
		octave 2
		octave 3
		octave 4
		note D#, 2
		octave 3
		octave 4
		octave 3
		octave 4
		note G#, 2
		octave 3
		octave 4
		octave 3
		octave 4
		note F_, 2
		octave 3
		octave 4
		octave 3
		octave 4
		note G_, 14
Music_UnovaBattle1_branch_520:
		octave 3
		octave 4
		octave 3
		octave 4
		note G#, 2
		octave 3
		octave 4
		octave 3
		octave 4
		note A#, 12
Music_UnovaBattle1_branch_521:
		octave 3
		octave 4
		note D_, 4
		octave 3
		octave 4
		note C#, 16
Music_UnovaBattle1_branch_522:
		octave 3
		octave 4
		octave 3
		octave 4
		note C#, 1
		octave 3
		octave 4
		note __, 1
		octave 2
		octave 3
		note G#, 6
Music_UnovaBattle1_branch_523:
		octave 2
		octave 3
		octave 4
		note C#, 1
		octave 3
		octave 4
		note __, 3
		octave 3
		octave 4
		note G#, 1
		octave 3
		octave 4
		note __, 3
		octave 3
		octave 4
		note G#, 1
		octave 3
		octave 4
		note __, 1
		octave 3
		octave 4
		note G_, 14
Music_UnovaBattle1_branch_524:
		octave 3
		octave 4
		octave 3
		octave 4
		note F_, 1
		octave 3
		octave 4
		note __, 1
		octave 3
		octave 4
		note G_, 14
Music_UnovaBattle1_branch_525:
		octave 3
		octave 4
		octave 3
		octave 4
		note C#, 16
Music_UnovaBattle1_branch_526:
		octave 3
		octave 4
		octave 3
		octave 4
		note C#, 1
		octave 3
		octave 4
		note __, 1
		octave 2
		octave 3
		note G#, 6
Music_UnovaBattle1_branch_527:
		octave 2
		octave 3
		octave 4
		note C#, 1
		octave 3
		octave 4
		note __, 3
		octave 3
		octave 4
		note G#, 1
		octave 3
		octave 4
		note __, 3
		octave 3
		octave 4
		note G#, 1
		octave 3
		octave 4
		note __, 1
		octave 3
		octave 4
		note A#, 14
Music_UnovaBattle1_branch_528:
		octave 3
		octave 4
		octave 3
		octave 4
		note A#, 1
		octave 3
		octave 4
		note __, 1
		octave 3
		octave 4
		note G_, 14
Music_UnovaBattle1_branch_529:
		octave 3
		octave 4
		octave 3
		octave 4
		note D#, 1
		octave 3
		octave 4
		note __, 1
		octave 3
		octave 4
		note F_, 14
Music_UnovaBattle1_branch_530:
		octave 3
		octave 4
		octave 3
		octave 4
		note F_, 1
		octave 3
		octave 4
		note __, 1
		octave 3
		octave 4
		note C_, 14
Music_UnovaBattle1_branch_531:
		octave 3
		octave 4
		octave 3
		octave 4
		note F_, 1
		octave 3
		octave 4
		note __, 1
		octave 3
		octave 4
		note G_, 14
Music_UnovaBattle1_branch_532:
		octave 3
		octave 4
		octave 3
		octave 4
		note D_, 8
Music_UnovaBattle1_branch_533:
		octave 3
		octave 4
		octave 3
		octave 4
		note G_, 8
		octave 3
		octave 4
		octave 3
		octave 4
		note D_, 1
		octave 3
		octave 4
		note __, 1
		octave 3
		octave 4
		note E_, 14
Music_UnovaBattle1_branch_534:
		octave 3
		octave 4
		octave 3
		octave 4
		note G_, 1
		octave 3
		octave 4
		note __, 1
		octave 3
		octave 4
		note A_, 14
Music_UnovaBattle1_branch_535:
		octave 3
		octave 4
		octave 2
		octave 3
		note C#, 2
		octave 2
		octave 3
		octave 2
		octave 3
		note C#, 4
Music_UnovaBattle1_branch_536:
		octave 2
		octave 3
		octave 2
		note A_, 6
		octave 3
		note C#, 4
		octave 2
		note A_, 16
Music_UnovaBattle1_branch_537:
		octave 3
		octave 4
		note G_, 2
		octave 3
		octave 4
		note __, 4
Music_UnovaBattle1_branch_538:
		octave 3
		octave 4
		note A#, 6
		octave 3
		octave 4
		octave 5
		note C_, 4
		octave 4
		octave 5
		octave 4
		octave 5
		note C#, 16
Music_UnovaBattle1_branch_539:
		octave 4
		octave 5
		octave 2
		note F#, 1
		note __, 1
		note F#, 1
		note __, 1
		note G_, 4
Music_UnovaBattle1_branch_540:
		note F#, 1
		note __, 1
		note F#, 1
		note __, 1
		note A_, 4
		note F#, 1
		note __, 1
		note F#, 1
		note __, 1
		note B_, 4
Music_UnovaBattle1_branch_541:
		note F#, 1
		note __, 1
		note F#, 1
		note __, 1
		octave 3
		note C_, 4
		octave 2
		note G#, 1
		note __, 1
		note G#, 1
		note __, 1
		note A_, 4
Music_UnovaBattle1_branch_542:
		note G#, 1
		note __, 1
		note G#, 1
		note __, 1
		note B_, 4
		note G#, 1
		note __, 1
		note G#, 1
		note __, 1
		octave 3
		note C#, 4
Music_UnovaBattle1_branch_543:
		octave 2
		note G#, 1
		note __, 1
		note G#, 1
		note __, 1
		octave 3
		note C#, 1
		note __, 1
		note D_, 2
		note __, 16
Music_UnovaBattle1_branch_544:
		note __, 16
Music_UnovaBattle1_branch_545:
		note __, 16
Music_UnovaBattle1_branch_546:
		note __, 16
Music_UnovaBattle1_branch_547:
		note B_, 16
Music_UnovaBattle1_branch_548:
		note F#, 16
Music_UnovaBattle1_branch_549:
		note B_, 2
		octave 4
		note C#, 14
Music_UnovaBattle1_branch_550:
		octave 2
		octave 3
		note G#, 1
		octave 2
		octave 3
		note __, 2
		octave 2
		octave 3
		note G#, 1
		octave 2
		octave 3
		note __, 1
Music_UnovaBattle1_branch_551:
		octave 2
		octave 3
		note G#, 1
		octave 2
		octave 3
		note __, 1
		octave 2
		octave 3
		note G#, 1
		octave 2
		octave 3
		note __, 1
		octave 2
		octave 3
		note G#, 1
		octave 2
		octave 3
		note __, 1
		octave 4
		note C#, 1
		note __, 2
		note C#, 1
		note __, 1
		note C#, 1
		note __, 1
		note C#, 1
		note __, 1
		note C#, 1
Music_UnovaBattle1_branch_552:
		note __, 1
		note C#, 2
		note __, 2
		octave 2
		note C#, 4
		note C_, 1
		note __, 1
		note C_, 1
		note __, 1
		note D#, 4
Music_UnovaBattle1_branch_553:
		note C_, 1
		note __, 1
		note C_, 1
		note __, 1
		note F_, 4
		note C_, 1
		note __, 1
		note C_, 1
		note __, 1
		note F_, 4
Music_UnovaBattle1_branch_554:
		note C_, 1
		note __, 1
		note C_, 1
		note __, 1
		note C#, 4
		note C_, 1
		note __, 1
		note C_, 1
		note __, 1
		note D#, 4
Music_UnovaBattle1_branch_555:
		note C_, 1
		note __, 1
		note C_, 1
		note __, 1
		note F_, 4
		note C_, 1
		note __, 1
		note C_, 1
		note __, 1
		note F_, 4
Music_UnovaBattle1_branch_556:
		note __, 16
Music_UnovaBattle1_branch_557:
		dutycycle 7
		note __, 16
Music_UnovaBattle1_branch_558:
		note __, 16
Music_UnovaBattle1_branch_559:
		note __, 16
Music_UnovaBattle1_branch_560:
		note __, 16
Music_UnovaBattle1_branch_561:
		note __, 16
Music_UnovaBattle1_branch_562:
		note __, 16
Music_UnovaBattle1_branch_563:
		note __, 16
Music_UnovaBattle1_branch_564:
		note __, 16
Music_UnovaBattle1_branch_565:
		note __, 16
Music_UnovaBattle1_branch_566:
		note __, 16
Music_UnovaBattle1_branch_567:
		note __, 16
Music_UnovaBattle1_branch_568:
		note __, 16
Music_UnovaBattle1_branch_569:
		note __, 16
Music_UnovaBattle1_branch_570:
		note __, 16
Music_UnovaBattle1_branch_571:
		note __, 16
Music_UnovaBattle1_branch_572:
		note __, 16
Music_UnovaBattle1_branch_573:
		note __, 16
Music_UnovaBattle1_branch_574:
		note __, 16
Music_UnovaBattle1_branch_575:
		note __, 16
Music_UnovaBattle1_branch_576:
		note __, 16
Music_UnovaBattle1_branch_577:
		note __, 16
Music_UnovaBattle1_branch_578:
		note __, 16
Music_UnovaBattle1_branch_579:
		note __, 16
Music_UnovaBattle1_branch_580:
		note __, 16
Music_UnovaBattle1_branch_581:
		note __, 16
Music_UnovaBattle1_branch_582:
		note __, 16
Music_UnovaBattle1_branch_583:
		note __, 16
Music_UnovaBattle1_branch_584:
		note __, 16
Music_UnovaBattle1_branch_585:
		note __, 16
Music_UnovaBattle1_branch_586:
		note __, 16
Music_UnovaBattle1_branch_587:
		note __, 16
Music_UnovaBattle1_branch_588:
		note __, 16
Music_UnovaBattle1_branch_589:
		note __, 16
Music_UnovaBattle1_branch_590:
		note __, 16
Music_UnovaBattle1_branch_591:
		note __, 16
Music_UnovaBattle1_branch_592:
		note __, 16
Music_UnovaBattle1_branch_593:
		note __, 16
Music_UnovaBattle1_branch_594:
		note __, 16
Music_UnovaBattle1_branch_595:
		note __, 16
Music_UnovaBattle1_branch_596:
		note __, 16
Music_UnovaBattle1_branch_597:
		note __, 16
Music_UnovaBattle1_branch_598:
		note __, 16
Music_UnovaBattle1_branch_599:
		note __, 16
Music_UnovaBattle1_branch_600:
		note __, 16
Music_UnovaBattle1_branch_601:
		note __, 16
Music_UnovaBattle1_branch_602:
		note __, 2
		octave 4
		note C#, 16
Music_UnovaBattle1_branch_603:
		note C#, 1
		note __, 1
		octave 3
		note G#, 6
		octave 4
		note C#, 1
		note __, 3
		note G#, 1
Music_UnovaBattle1_branch_604:
		note __, 3
		note G#, 1
		note __, 1
		note G_, 14
Music_UnovaBattle1_branch_605:
		note F_, 1
		note __, 1
		octave 3
		octave 4
		note G_, 14
Music_UnovaBattle1_branch_606:
		octave 3
		octave 4
		note C#, 16
Music_UnovaBattle1_branch_607:
		note C#, 1
		note __, 1
		octave 3
		note G#, 6
		octave 4
		note C#, 1
		note __, 3
		note G#, 1
Music_UnovaBattle1_branch_608:
		note __, 3
		note G#, 1
		note __, 1
		note A#, 14
Music_UnovaBattle1_branch_609:
		note A#, 1
		note __, 1
		note G_, 14
Music_UnovaBattle1_branch_610:
		note D#, 1
		note __, 1
		note F_, 14
Music_UnovaBattle1_branch_611:
		note F_, 1
		note __, 1
		note C_, 14
Music_UnovaBattle1_branch_612:
		note F_, 1
		note __, 1
		note G_, 14
Music_UnovaBattle1_branch_613:
		note D_, 8
		note G_, 8
Music_UnovaBattle1_branch_614:
		note D_, 1
		note __, 1
		note E_, 14
Music_UnovaBattle1_branch_615:
		note G_, 1
		note __, 1
		note A_, 14
Music_UnovaBattle1_branch_616:
		note __, 16
Music_UnovaBattle1_branch_617:
		note __, 16
Music_UnovaBattle1_branch_618:
		note __, 16
Music_UnovaBattle1_branch_619:
		note __, 14
Music_UnovaBattle1_branch_620:
		octave 3
		note C#, 1
		note __, 1
		note C#, 1
		note __, 1
		note D_, 4
		note C#, 1
		note __, 1
		note C#, 1
		note __, 1
		note E_, 4
Music_UnovaBattle1_branch_621:
		note C#, 1
		note __, 1
		note C#, 1
		note __, 1
		note F#, 4
		note C#, 1
		note __, 1
		note C#, 1
		note __, 1
		note G_, 4
Music_UnovaBattle1_branch_622:
		note D#, 1
		note __, 1
		note D#, 1
		note __, 1
		note E_, 4
		note D#, 1
		note __, 1
		note D#, 1
		note __, 1
		note F#, 4
Music_UnovaBattle1_branch_623:
		note D#, 1
		note __, 1
		note D#, 1
		note __, 1
		note G#, 4
		note D#, 1
		note __, 1
		note D#, 1
		note __, 1
		note G#, 1
		note __, 1
		note A_, 2
Music_UnovaBattle1_branch_624:
		note __, 16
Music_UnovaBattle1_branch_625:
		dutycycle 9
		note __, 16
Music_UnovaBattle1_branch_626:
		note __, 16
Music_UnovaBattle1_branch_627:
		note __, 16
Music_UnovaBattle1_branch_628:
		note __, 16
Music_UnovaBattle1_branch_629:
		note __, 16
Music_UnovaBattle1_branch_630:
		note __, 16
Music_UnovaBattle1_branch_631:
		note __, 16
Music_UnovaBattle1_branch_632:
		note __, 16
Music_UnovaBattle1_branch_633:
		note __, 16
Music_UnovaBattle1_branch_634:
		note __, 16
Music_UnovaBattle1_branch_635:
		note __, 16
Music_UnovaBattle1_branch_636:
		octave 1
		note __, 1
		note __, 1
		note A#, 2
		note __, 1
		note __, 1
		note A#, 2
		note __, 1
		note __, 1
		note A#, 2
		note __, 1
		note __, 1
		note A#, 2
Music_UnovaBattle1_branch_637:
		note __, 1
		note __, 1
		note A#, 2
		note __, 1
		note __, 1
		note A#, 2
		note __, 1
		note __, 1
		note __, 1
		note __, 1
		note __, 1
		note A#, 2
Music_UnovaBattle1_branch_638:
		note F#, 1
		note __, 1
		note __, 2
		note __, 2
		note __, 2
		note __, 1
		note F#, 1
		note __, 2
		note __, 2
		note __, 2
Music_UnovaBattle1_branch_639:
		note F#, 1
		note __, 1
		note __, 2
		note __, 2
		note __, 2
		note F#, 1
		note __, 1
		note __, 2
		note __, 2
		note __, 2
Music_UnovaBattle1_branch_640:
		note F#, 1
		note __, 1
		note __, 2
		note __, 2
		note __, 2
		note A#, 2
		note __, 2
		note __, 2
		note A#, 2
Music_UnovaBattle1_branch_641:
		note __, 2
		note A#, 2
		note __, 2
		note __, 2
		note __, 1
		note __, 1
		note __, 2
		note __, 2
		note A#, 2
Music_UnovaBattle1_branch_642:
		note __, 2
		note __, 2
		note __, 2
		note __, 2
		note __, 1
		note __, 2
		note __, 2
		note __, 2
		note __, 2
Music_UnovaBattle1_branch_643:
		note __, 2
		note __, 2
		note __, 2
		note F#, 1
		note __, 1
		note __, 2
		note __, 2
		note A#, 2
		note F#, 1
Music_UnovaBattle1_branch_644:
		note __, 1
		note __, 2
		note __, 2
		note __, 2
		note A#, 2
		note __, 2
		note __, 2
		note A#, 2
		note F#, 1
Music_UnovaBattle1_branch_645:
		note __, 1
		note A#, 2
		note __, 2
		note A#, 2
		note __, 2
		note __, 2
		note __, 2
		note __, 2
		octave 3
		octave 1
		note __, 2
Music_UnovaBattle1_branch_646:
		note __, 2
		note __, 2
		note A#, 2
		note __, 2
		note __, 2
		octave 3
		octave 1
		note __, 2
		note __, 2
		note __, 1
Music_UnovaBattle1_branch_647:
		note __, 1
		note __, 2
		note __, 2
		note __, 2
		note __, 2
		note __, 2
		note __, 2
		note A#, 2
		note __, 2
Music_UnovaBattle1_branch_648:
		note __, 2
		note __, 2
		note A#, 2
		note __, 2
		note __, 2
		note __, 2
		note __, 2
		note __, 1
Music_UnovaBattle1_branch_649:
		note __, 1
		note __, 2
		note __, 2
		note __, 2
		note __, 2
		note __, 2
		note A#, 2
		note __, 2
		note __, 2
Music_UnovaBattle1_branch_650:
		note __, 2
		note __, 2
		note A#, 2
		note __, 2
		note __, 2
		note __, 2
		note __, 2
		note __, 1
Music_UnovaBattle1_branch_651:
		note __, 1
		note __, 2
		note __, 2
		note __, 2
		note __, 2
		note __, 2
		note __, 2
		note A#, 2
		note __, 2
Music_UnovaBattle1_branch_652:
		note __, 2
		note __, 2
		note A#, 2
		note __, 2
		note __, 2
		note __, 2
		note __, 2
		note __, 1
Music_UnovaBattle1_branch_653:
		note __, 1
		note __, 2
		note __, 2
		note __, 2
		note __, 2
		note __, 2
		note A#, 2
		note __, 2
		note __, 2
Music_UnovaBattle1_branch_654:
		note __, 2
		note __, 2
		note A#, 2
		note __, 2
		note __, 2
		note __, 2
		note __, 2
		note __, 1
Music_UnovaBattle1_branch_655:
		note __, 1
		note __, 2
		note __, 2
		note __, 2
		note __, 2
		note __, 2
		note __, 2
		note A#, 2
		note __, 2
Music_UnovaBattle1_branch_656:
		note __, 2
		note __, 2
		note A#, 2
		note __, 2
		note __, 2
		note __, 2
		note __, 2
		note __, 1
Music_UnovaBattle1_branch_657:
		note __, 1
		note __, 2
		note __, 2
		note __, 2
		note __, 2
		note __, 2
		note __, 2
		note A#, 2
		note __, 2
Music_UnovaBattle1_branch_658:
		note __, 2
		note __, 2
		note A#, 2
		note __, 2
		note __, 2
		note __, 2
		note __, 2
		note __, 1
Music_UnovaBattle1_branch_659:
		note __, 1
		note __, 2
		note __, 2
		note __, 2
		note __, 2
		note __, 2
		note __, 2
		note A#, 2
		note __, 2
Music_UnovaBattle1_branch_660:
		note __, 2
		note __, 2
		note A#, 2
		note __, 2
		note __, 2
		note __, 2
		note __, 2
		note __, 1
Music_UnovaBattle1_branch_661:
		note __, 1
		note __, 2
		note __, 2
		note __, 2
		note __, 2
		note __, 2
		note __, 2
		note A#, 2
		octave 3
		note G_, 2
Music_UnovaBattle1_branch_662:
		octave 1
		note __, 2
		note __, 2
		note A#, 2
		note __, 2
		note __, 2
		octave 3
		octave 1
		note __, 2
		note __, 2
		note __, 1
Music_UnovaBattle1_branch_663:
		note __, 1
		note __, 2
		note __, 2
		note __, 2
		note __, 2
		note __, 2
		note __, 2
		note A#, 2
		octave 3
		octave 1
		note __, 2
Music_UnovaBattle1_branch_664:
		note __, 2
		note __, 1
		octave 3
		note __, 1
		octave 1
		octave 3
		note G_, 2
		octave 1
		note __, 2
		note __, 2
		note __, 2
		octave 3
		octave 1
		note __, 2
		note __, 1
Music_UnovaBattle1_branch_665:
		note __, 1
		note __, 2
		note __, 2
		note __, 2
		note __, 2
		note __, 2
		note __, 2
		note A#, 2
		note __, 2
Music_UnovaBattle1_branch_666:
		note __, 2
		note __, 2
		note A#, 2
		note __, 2
		note __, 2
		note __, 2
		note __, 2
		note __, 1
Music_UnovaBattle1_branch_667:
		note __, 1
		note __, 2
		note __, 2
		note __, 2
		note __, 2
		note __, 2
		note __, 2
		note A#, 2
		note __, 2
Music_UnovaBattle1_branch_668:
		note __, 2
		note __, 2
		note A#, 2
		note __, 2
		note __, 2
		note __, 2
		note __, 2
		note __, 1
Music_UnovaBattle1_branch_669:
		note __, 1
		note __, 2
		note __, 2
		note __, 2
		note __, 2
		note __, 2
		note __, 4
		note __, 2
Music_UnovaBattle1_branch_670:
		note __, 2
		note __, 2
		note A#, 2
		note __, 2
		note __, 2
		note __, 2
		note __, 2
		note __, 1
Music_UnovaBattle1_branch_671:
		note __, 1
		note __, 2
		note __, 2
		note __, 2
		note __, 2
		note __, 2
		note __, 2
		note A#, 2
		note __, 2
Music_UnovaBattle1_branch_672:
		note __, 2
		note __, 2
		note A#, 2
		note __, 2
		note __, 2
		note __, 2
		note __, 2
		note __, 1
Music_UnovaBattle1_branch_673:
		note __, 1
		note __, 2
		note __, 2
		note __, 2
		note __, 2
		note __, 2
		note __, 4
		note __, 2
Music_UnovaBattle1_branch_674:
		note __, 2
		note __, 2
		note A#, 2
		note __, 2
		note __, 2
		note __, 2
		note __, 2
		note __, 1
Music_UnovaBattle1_branch_675:
		note __, 1
		note __, 2
		note __, 2
		note __, 2
		note __, 2
		note __, 2
		note __, 2
		note A#, 2
		note __, 2
Music_UnovaBattle1_branch_676:
		note __, 2
		note __, 2
		note A#, 2
		note __, 2
		note __, 2
		note __, 2
		note __, 2
		note __, 1
Music_UnovaBattle1_branch_677:
		note __, 1
		note __, 2
		note __, 2
		note __, 2
		note __, 2
		note __, 2
		note __, 2
		note A#, 2
		note __, 2
Music_UnovaBattle1_branch_678:
		note __, 2
		note __, 2
		note A#, 2
		note __, 2
		note __, 2
		note __, 2
		note __, 2
		note __, 1
Music_UnovaBattle1_branch_679:
		note __, 1
		note __, 2
		note __, 2
		note __, 2
		note __, 2
		note __, 2
		note __, 2
		note A#, 2
		note __, 2
Music_UnovaBattle1_branch_680:
		note __, 2
		note __, 2
		note A#, 2
		note __, 2
		note __, 2
		note __, 2
		note __, 2
		note __, 1
Music_UnovaBattle1_branch_681:
		note __, 1
		note __, 2
		note __, 2
		note __, 2
		note __, 2
		note __, 2
		note __, 2
		note A#, 2
		note __, 2
Music_UnovaBattle1_branch_682:
		note __, 2
		note __, 2
		note A#, 2
		note __, 2
		note __, 2
		note __, 2
		note __, 2
		note __, 1
Music_UnovaBattle1_branch_683:
		note __, 1
		note __, 2
		note __, 2
		note __, 2
		note __, 2
		note __, 2
		note __, 2
		note A#, 2
		note __, 2
Music_UnovaBattle1_branch_684:
		note __, 2
		note __, 2
		note A#, 2
		note __, 2
		note __, 2
		note __, 2
		note __, 2
		note __, 1
Music_UnovaBattle1_branch_685:
		note __, 1
		note __, 2
		note __, 2
		note __, 2
		note __, 2
		note __, 2
		note __, 2
		note A#, 2
		note __, 2
Music_UnovaBattle1_branch_686:
		note __, 2
		note __, 2
		note A#, 2
		note __, 2
		note __, 2
		note __, 2
		note __, 2
		note __, 1
Music_UnovaBattle1_branch_687:
		note __, 1
		note __, 2
		note __, 2
		note __, 2
		note __, 2
		note __, 2
		note __, 2
		note A#, 2
		note __, 2
Music_UnovaBattle1_branch_688:
		note __, 2
		note __, 2
		note A#, 2
		note __, 2
		note __, 2
		note __, 2
		note __, 2
		note __, 1
Music_UnovaBattle1_branch_689:
		note __, 1
		note __, 2
		note __, 2
		note __, 2
		note __, 2
		note __, 2
		note __, 2
		note A#, 2
		note __, 2
Music_UnovaBattle1_branch_690:
		note __, 2
		note __, 2
		note A#, 2
		note __, 2
		note __, 2
		note __, 2
		note __, 2
		note __, 1
Music_UnovaBattle1_branch_691:
		note __, 1
		note __, 2
		note __, 2
		note __, 2
		note __, 2
		note __, 2
		note __, 2
		note A#, 2
		note __, 2
Music_UnovaBattle1_branch_692:
		note __, 2
		note __, 2
		note A#, 2
		note __, 2
		note __, 2
		note __, 2
		note __, 2
		note __, 1
Music_UnovaBattle1_branch_693:
		note __, 1
		note __, 2
		note __, 2
		note __, 2
		note __, 2
		note __, 2
		note __, 2
		note A#, 2
		note __, 2
Music_UnovaBattle1_branch_694:
		note __, 2
		note __, 2
		note A#, 2
		note __, 2
		note __, 2
		note __, 2
		note __, 2
		note __, 1
Music_UnovaBattle1_branch_695:
		note __, 1
		note __, 2
		note __, 2
		note __, 2
		note __, 2
		note __, 2
		note __, 2
		note A#, 2
		note __, 2
Music_UnovaBattle1_branch_696:
		note __, 2
		note __, 2
		note A#, 2
		note __, 2
		note __, 2
		note __, 2
		note __, 2
		note __, 1
Music_UnovaBattle1_branch_697:
		note __, 1
		note __, 2
		note __, 2
		note __, 2
		note __, 2
		note __, 2
		note __, 2
		note A#, 2
		note __, 2
Music_UnovaBattle1_branch_698:
		note __, 2
		note __, 4
		note __, 2
		note __, 2
		note __, 2
		note __, 2
		note __, 1
Music_UnovaBattle1_branch_699:
		note __, 1
		note __, 2
		note __, 2
		note __, 2
		note __, 2
		note __, 2
		note __, 2
		note A#, 2
		note __, 4
Music_UnovaBattle1_branch_700:
		octave 2
		note E_, 1
		note C#, 1
		octave 1
		note F_, 2
		note __, 4
		octave 2
		note F#, 1
		note __, 1
		octave 1
		note F_, 2
		note __, 16
Music_UnovaBattle1_branch_701:
		note __, 16
Music_UnovaBattle1_branch_702:
		note __, 16
Music_UnovaBattle1_branch_703:
		note __, 16
Music_UnovaBattle1_branch_704:
		note __, 16
Music_UnovaBattle1_branch_705:
		note __, 16
Music_UnovaBattle1_branch_706:
		octave 3
		note G#, 8
Music_UnovaBattle1_branch_707:
		note __, 8
		note F_, 1
Music_UnovaBattle1_branch_708:
		note __, 1
		note F_, 1
		note __, 1
		note F_, 1
		note __, 9
		note D_, 1
		note __, 3
Music_UnovaBattle1_branch_709:
		note D_, 1
		note __, 1
		note D_, 1
		note __, 8
		note G#, 11
Music_UnovaBattle1_branch_710:
		note __, 16
Music_UnovaBattle1_branch_711:
		dutycycle 10
		note __, 16
Music_UnovaBattle1_branch_712:
		note __, 16
Music_UnovaBattle1_branch_713:
		note __, 16
Music_UnovaBattle1_branch_714:
		note __, 16
Music_UnovaBattle1_branch_715:
		note __, 5
		octave 1
		octave 3
		note A_, 2
		octave 1
		note E_, 2
Music_UnovaBattle1_branch_716:
		note C_, 4
		octave 3
		octave 1
		octave 3
		note __, 4
		octave 1
		note C_, 4
		note C_, 2
		note E_, 2
Music_UnovaBattle1_branch_717:
		note C_, 2
		note E_, 2
		octave 2
		octave 1
		octave 2
		note __, 1
		octave 1
		octave 2
		note __, 1
		octave 1
		note __, 1
		note __, 1
		note __, 1
		octave 3
		octave 1
		note C_, 4
		note C_, 4
Music_UnovaBattle1_branch_718:
		octave 3
		octave 1
		note C_, 4
		note C_, 4
		note C_, 4
		note C_, 4
Music_UnovaBattle1_branch_719:
		note C_, 4
		note C_, 4
		octave 3
		note D_, 4
		octave 1
		note C_, 4
Music_UnovaBattle1_branch_720:
		octave 3
		octave 1
		note E_, 2
		note C_, 2
		note __, 2
		note C_, 2
		note C_, 2
		note E_, 2
		note C_, 2
		note __, 2
Music_UnovaBattle1_branch_721:
		octave 3
		note F_, 2
		octave 1
		note C_, 2
		octave 3
		note D_, 1
		octave 1
		note __, 1
		note E_, 1
		octave 3
		octave 1
		note C_, 2
		note __, 2
		note C_, 4
Music_UnovaBattle1_branch_722:
		octave 3
		octave 1
		note C_, 4
		note C_, 4
		note C_, 4
		note C_, 4
Music_UnovaBattle1_branch_723:
		note C_, 4
		note C_, 4
		octave 3
		note C#, 4
		octave 1
		note C_, 4
Music_UnovaBattle1_branch_724:
		octave 3
		octave 1
		note E_, 2
		note C_, 2
		note __, 2
		note C_, 2
		note E_, 2
		note C_, 2
		note C_, 2
		note E_, 2
Music_UnovaBattle1_branch_725:
		octave 3
		octave 1
		note C_, 2
		note E_, 2
		octave 3
		octave 1
		octave 3
		octave 1
		octave 3
		octave 1
		note C_, 4
		note E_, 3
		octave 3
		note __, 1
		octave 1
		note C_, 2
		note C_, 2
Music_UnovaBattle1_branch_726:
		note E_, 4
		note C_, 4
		note E_, 4
		note C_, 2
		note C_, 2
Music_UnovaBattle1_branch_727:
		note E_, 4
		note C_, 4
		note E_, 2
		note C_, 2
		note __, 2
		note E_, 2
Music_UnovaBattle1_branch_728:
		note E_, 2
		note C_, 2
		note C_, 4
		note E_, 2
		note C_, 2
		note __, 2
		note C_, 2
Music_UnovaBattle1_branch_729:
		note E_, 2
		note E_, 1
		note E_, 1
		note C_, 4
		note E_, 4
		note C_, 2
		note C_, 2
Music_UnovaBattle1_branch_730:
		note E_, 4
		note C_, 4
		note E_, 4
		note C_, 2
		note C_, 2
Music_UnovaBattle1_branch_731:
		note E_, 4
		note C_, 4
		note E_, 2
		note C_, 2
		note __, 2
		note E_, 2
Music_UnovaBattle1_branch_732:
		note E_, 2
		note C_, 2
		note C_, 4
		note E_, 2
		note C_, 2
		note __, 2
		note C_, 2
Music_UnovaBattle1_branch_733:
		note E_, 2
		note E_, 1
		note E_, 1
		octave 3
		octave 1
		note C_, 4
		note E_, 4
		octave 3
		octave 1
		note C_, 2
		note C_, 2
Music_UnovaBattle1_branch_734:
		note E_, 4
		note C_, 4
		note E_, 4
		note C_, 2
		note C_, 2
Music_UnovaBattle1_branch_735:
		note E_, 4
		note C_, 4
		note E_, 4
		note C_, 2
		note C_, 2
Music_UnovaBattle1_branch_736:
		note E_, 4
		note C_, 4
		note E_, 4
		note C_, 2
		note C_, 2
Music_UnovaBattle1_branch_737:
		note E_, 4
		note C_, 4
		note E_, 4
		note C_, 2
		note C_, 2
Music_UnovaBattle1_branch_738:
		note E_, 4
		note C_, 4
		note E_, 4
		note C_, 2
		note C_, 2
Music_UnovaBattle1_branch_739:
		note E_, 4
		note E_, 2
		note B_, 2
		note G_, 1
		note E_, 2
		note __, 2
		note C_, 1
		note __, 3
Music_UnovaBattle1_branch_740:
		note E_, 2
		octave 2
		note D#, 1
		note D_, 1
		octave 1
		octave 2
		note C_, 1
		octave 1
		note B_, 1
		note A_, 1
		note __, 1
		note G#, 1
		note __, 1
		octave 2
		note B_, 1
		note C_, 1
		octave 1
		note A_, 1
		note G_, 1
		octave 2
		octave 1
		octave 2
		octave 1
		note F_, 1
Music_UnovaBattle1_branch_741:
		octave 3
		octave 1
		note C_, 2
		note __, 1
		note __, 1
		note E_, 1
		octave 3
		note __, 1
		octave 1
		note E_, 2
		note C_, 2
		note E_, 2
		note __, 1
		note __, 1
		note E_, 2
Music_UnovaBattle1_branch_742:
		note E_, 2
		note __, 1
		note __, 1
		note E_, 2
		note __, 1
		note __, 1
		note C_, 2
		note E_, 2
		note __, 1
		note __, 1
		note E_, 2
Music_UnovaBattle1_branch_743:
		octave 3
		note E_, 4
		octave 1
		note E_, 1
		octave 3
		note __, 1
		octave 1
		octave 3
		note E_, 2
		octave 1
		note E_, 2
		note E_, 2
		octave 3
		octave 1
		note C_, 2
		note E_, 2
Music_UnovaBattle1_branch_744:
		note E_, 2
		note __, 1
		note __, 1
		note E_, 2
		note __, 1
		note C_, 2
		note E_, 1
		note E_, 1
		note E_, 2
		note E_, 1
		note E_, 1
		octave 3
		note E_, 4
Music_UnovaBattle1_branch_745:
		octave 1
		note E_, 4
		octave 3
		octave 1
		note C_, 2
		note C_, 2
		note E_, 4
		note C_, 4
Music_UnovaBattle1_branch_746:
		note E_, 4
		note C_, 2
		note C_, 2
		note E_, 4
		note C_, 4
Music_UnovaBattle1_branch_747:
		note E_, 4
		note C_, 2
		note C_, 2
		note E_, 4
		note C_, 4
Music_UnovaBattle1_branch_748:
		note E_, 4
		note C_, 2
		note C_, 2
		note E_, 2
		note E_, 1
		note E_, 1
		note C_, 4
Music_UnovaBattle1_branch_749:
		note E_, 4
		note C_, 2
		note C_, 2
		note E_, 4
		note C_, 4
Music_UnovaBattle1_branch_750:
		note E_, 4
		note C_, 2
		note C_, 2
		note E_, 4
		note C_, 4
Music_UnovaBattle1_branch_751:
		note E_, 4
		note C_, 2
		note C_, 2
		note E_, 4
		note C_, 4
Music_UnovaBattle1_branch_752:
		note E_, 4
		note C_, 2
		note C_, 2
		note E_, 2
		note E_, 1
		note E_, 1
		note C_, 4
Music_UnovaBattle1_branch_753:
		note E_, 4
		note C_, 2
		note C_, 2
		note E_, 4
		note C_, 4
Music_UnovaBattle1_branch_754:
		note E_, 4
		note C_, 2
		note C_, 2
		note E_, 4
		note C_, 4
Music_UnovaBattle1_branch_755:
		note E_, 4
		note C_, 2
		note C_, 2
		note E_, 4
		note C_, 4
Music_UnovaBattle1_branch_756:
		note E_, 4
		note C_, 2
		note C_, 2
		note E_, 4
		note C_, 4
Music_UnovaBattle1_branch_757:
		note E_, 4
		note C_, 2
		note C_, 2
		note E_, 4
		note C_, 4
Music_UnovaBattle1_branch_758:
		note E_, 4
		note C_, 2
		note C_, 2
		note E_, 4
		note C_, 4
Music_UnovaBattle1_branch_759:
		note E_, 4
		note C_, 2
		note C_, 2
		note E_, 4
		note C_, 2
Music_UnovaBattle1_branch_760:
		note E_, 4
		note C_, 2
		note E_, 2
		octave 3
		note F#, 2
		octave 1
		note E_, 1
		note E_, 1
		octave 3
		octave 1
		note C_, 3
Music_UnovaBattle1_branch_761:
		note __, 1
		note E_, 4
		octave 3
		octave 1
		note C_, 2
		note C_, 2
		note E_, 4
		note C_, 4
Music_UnovaBattle1_branch_762:
		note E_, 4
		note C_, 2
		note C_, 2
		note E_, 4
		note C_, 4
Music_UnovaBattle1_branch_763:
		note E_, 4
		note C_, 2
		note C_, 2
		note E_, 4
		note C_, 4
Music_UnovaBattle1_branch_764:
		note E_, 1
		note __, 3
		note C_, 2
		note C_, 2
		octave 3
		note F_, 4
		octave 1
		octave 3
		octave 1
		note C_, 4
Music_UnovaBattle1_branch_765:
		note E_, 4
		octave 3
		octave 1
		note C_, 2
		note C_, 2
		note E_, 4
		note C_, 4
Music_UnovaBattle1_branch_766:
		note E_, 4
		note C_, 2
		note C_, 2
		note E_, 4
		note C_, 4
Music_UnovaBattle1_branch_767:
		note E_, 4
		note C_, 2
		note C_, 2
		note E_, 4
		note C_, 4
Music_UnovaBattle1_branch_768:
		note E_, 4
		note E_, 2
		note C_, 2
		note __, 1
		note E_, 1
		note C_, 2
		octave 3
		octave 1
		note C_, 4
Music_UnovaBattle1_branch_769:
		note E_, 4
		note C_, 2
		note C_, 2
		octave 3
		octave 1
		note E_, 4
		note C_, 2
		note E_, 2
Music_UnovaBattle1_branch_770:
		note E_, 2
		note __, 2
		note E_, 2
		note E_, 2
		note C_, 2
		note E_, 2
		octave 3
		octave 1
		note C_, 4
Music_UnovaBattle1_branch_771:
		note E_, 4
		note C_, 2
		note C_, 2
		octave 3
		octave 1
		note E_, 4
		note C_, 3
Music_UnovaBattle1_branch_772:
		note __, 1
		note E_, 4
		note C_, 2
		note C_, 2
		note E_, 2
		note E_, 2
		note C_, 3
Music_UnovaBattle1_branch_773:
		note __, 1
		note E_, 4
		note C_, 2
		note C_, 2
		note E_, 4
		note E_, 2
		note C_, 2
Music_UnovaBattle1_branch_774:
		note E_, 4
		note E_, 1
		note E_, 1
		note C_, 2
		note C_, 2
		note E_, 2
		note C_, 2
		note E_, 1
Music_UnovaBattle1_branch_775:
		note __, 3
		note __, 2
		note C_, 2
		note C_, 2
		note E_, 4
		note C_, 4
Music_UnovaBattle1_branch_776:
		note E_, 4
		note C_, 2
		note E_, 2
		note E_, 2
		note E_, 1
		note E_, 1
		octave 3
		octave 1
		note C_, 2
		note E_, 2
Music_UnovaBattle1_branch_777:
		note E_, 4
		note C_, 1
		octave 3
		note __, 1
		octave 1
		note E_, 2
		note E_, 2
		note E_, 2
		octave 2
		note __, 1
		octave 1
		octave 2
		octave 1
		octave 2
		note __, 1
		octave 1
		note __, 1
Music_UnovaBattle1_branch_778:
		note F_, 2
		note C_, 2
		note F_, 2
		note F_, 1
		note E_, 1
		note F_, 1
		note E_, 1
		note C_, 2
		note C_, 2
		octave 3
		note D#, 2
Music_UnovaBattle1_branch_779:
		octave 1
		note E_, 2
		note C_, 2
		note C_, 2
		octave 3
		octave 1
		octave 3
		note G_, 4
		octave 1
		note C_, 2
		note C_, 2
		octave 3
		octave 1
		octave 3
		note C#, 4
Music_UnovaBattle1_branch_780:
		octave 1
		note C_, 2
		note C_, 2
		octave 3
		octave 1
		octave 3
		note A_, 2
		octave 1
		note E_, 2
		note C_, 2
		note C_, 2
		octave 3
		octave 1
		octave 3
		note E_, 2
Music_UnovaBattle1_branch_781:
		octave 1
		note E_, 2
		note C_, 2
		note C_, 2
		octave 3
		octave 1
		octave 3
		note E_, 2
		octave 1
		note E_, 2
		note C_, 2
		note C_, 2
		octave 3
		octave 1
		octave 3
		note G_, 2
Music_UnovaBattle1_branch_782:
		octave 1
		note E_, 2
		note C_, 2
		note C_, 2
		octave 3
		octave 1
		note E_, 2
		octave 3
		note A_, 2
		octave 1
		octave 2
		octave 3
		note E_, 1
		octave 2
		note E_, 1
		octave 1
		note B_, 1
		note G#, 1
		note __, 1
		note G_, 1
Music_UnovaBattle1_branch_783:
		octave 3
		octave 1
		note E_, 2
		note E_, 1
		note C_, 1
		note C_, 1
		note C_, 1
		octave 2
		octave 3
		note F#, 1
		octave 2
		note E_, 1
		octave 1
		note G#, 1
		note F_, 1
		note C_, 1
		note C_, 1
		octave 3
		octave 1
		octave 2
		note A#, 1
		note C_, 1
		octave 1
		octave 2
		octave 1
		note A_, 1
		note F_, 1
Music_UnovaBattle1_branch_784:
		note C_, 1
		octave 2
		octave 1
		note C_, 1
		octave 2
		octave 1
		octave 2
		note F#, 1
		note C_, 1
		octave 1
		note B_, 1
		note G#, 1
		note C_, 1
		note F_, 1
		octave 3
		note C#, 2
		octave 1
		note E_, 1
		octave 3
		octave 1
		octave 3
		note E_, 1
		octave 1
		note C_, 1
		note C_, 1
		octave 3
		octave 1
		octave 2
		note E_, 1
		note E_, 1
Music_UnovaBattle1_branch_785:
		octave 1
		note G#, 1
		note F_, 1
		note C_, 1
		note C_, 1
		note E_, 2
		note E_, 1
		note C_, 1
		note C_, 1
		octave 2
		note E_, 1
		note E_, 1
		octave 1
		note B_, 1
		note G#, 1
		note C_, 1
		note G_, 1
		octave 3
		note F#, 1
Music_UnovaBattle1_branch_786:
		note __, 1
		octave 1
		octave 3
		note F#, 1
		octave 1
		octave 3
		octave 1
		note C_, 1
		octave 3
		note F#, 1
		octave 1
		octave 3
		octave 1
		note C_, 1
		octave 2
		note E_, 1
		note E_, 1
		octave 1
		note G#, 1
		note F_, 1
		note C_, 1
		note A_, 1
		octave 3
		note G#, 1
		note __, 1
		note G#, 1
		note __, 1
		octave 1
		octave 3
		note G#, 1
Music_UnovaBattle1_branch_787:
		note __, 1
		octave 1
		octave 3
		note G#, 1
		octave 1
		octave 3
		note G#, 1
		octave 1
		octave 3
		note G#, 1
		octave 1
		octave 2
		octave 3
		note F#, 1
		octave 2
		note E_, 1
		octave 1
		note B_, 1
		note G#, 1
		note C_, 1
		note G_, 1
		octave 3
		octave 1
		octave 3
		note E_, 1
		note __, 1
		note E_, 1
		note __, 1
		octave 1
		octave 3
		note E_, 1
		note __, 1
Music_UnovaBattle1_branch_788:
		octave 1
		octave 3
		note E_, 1
		octave 1
		octave 3
		note E_, 1
		octave 1
		octave 3
		note E_, 1
		octave 1
		octave 2
		octave 3
		note G_, 1
		octave 1
		octave 2
		note __, 1
		octave 1
		note G#, 1
		octave 3
		note __, 1
		octave 1
		note C_, 1
		note G_, 1
		note E_, 2
		note E_, 1
		octave 3
		note G#, 1
		octave 1
		note B_, 1
		note F_, 1
		octave 3
		octave 1
		octave 3
		note F#, 4
Music_UnovaBattle1_branch_789:
		octave 1
		note B_, 4
		note B_, 4
		octave 3
		octave 1
		note B_, 4
		note B_, 4
Music_UnovaBattle1_branch_790:
		note B_, 4
		note B_, 4
		note B_, 4
		note B_, 4
Music_UnovaBattle1_branch_791:
		note B_, 4
		note B_, 4
		note B_, 4
		note B_, 4
Music_UnovaBattle1_branch_792:
		note B_, 4
		note B_, 2
		note B_, 2
		note E_, 2
		note E_, 1
		note E_, 1
		note __, 16
Music_UnovaBattle1_branch_793:
		dutycycle 11
		note __, 16
Music_UnovaBattle1_branch_794:
		note __, 2
Music_UnovaBattle1_branch_795:
		octave 4
		note B_, 12
		note E_, 16
Music_UnovaBattle1_branch_796:
		octave 3
		note E_, 1
		note __, 1
		note E_, 1
Music_UnovaBattle1_branch_797:
		note __, 1
		note G_, 4
		note E_, 1
		note __, 1
		note E_, 1
		note __, 1
		note A_, 4
		note E_, 1
		note __, 1
		note E_, 1
Music_UnovaBattle1_branch_798:
		note __, 1
		note A#, 4
		note E_, 1
		note __, 1
		note E_, 1
		note __, 3
		note B_, 2
		octave 5
		note C_, 2
		octave 3
		note __, 10
Music_UnovaBattle1_branch_799:
		octave 5
		octave 4
		note F_, 16
Music_UnovaBattle1_branch_800:
		octave 3
		note F_, 1
		note __, 1
		note F_, 1
		note __, 1
		note G#, 4
Music_UnovaBattle1_branch_801:
		note F_, 1
		note __, 1
		note F_, 1
		note __, 1
		note A#, 4
		note F_, 1
		note __, 1
		note F_, 1
		note __, 1
		note B_, 4
Music_UnovaBattle1_branch_802:
		note F_, 1
		note __, 1
		note F_, 1
		note __, 1
		octave 4
		note C_, 4
		note F_, 16
Music_UnovaBattle1_branch_803:
		note F_, 1
		note __, 1
		note C_, 6
Music_UnovaBattle1_branch_804:
		note F_, 1
		note __, 3
		octave 5
		note C_, 1
		note __, 3
		note C_, 1
		note __, 1
		note C#, 16
Music_UnovaBattle1_branch_805:
		note C#, 12
Music_UnovaBattle1_branch_806:
		octave 4
		note __, 1
		note __, 1
		note F_, 16
Music_UnovaBattle1_branch_807:
		note F_, 1
		note __, 1
		note C_, 6
Music_UnovaBattle1_branch_808:
		note F_, 1
		note __, 3
		octave 5
		note C_, 1
		note __, 3
		note C_, 1
		note __, 1
		octave 4
		note A#, 16
Music_UnovaBattle1_branch_809:
		note A#, 10
Music_UnovaBattle1_branch_810:
		note __, 4
		note G#, 16
Music_UnovaBattle1_branch_811:
		note F_, 8
Music_UnovaBattle1_branch_812:
		octave 5
		note C_, 4
		octave 4
		note G#, 4
		note G_, 6
		note A#, 16
Music_UnovaBattle1_branch_813:
		note A#, 10
Music_UnovaBattle1_branch_814:
		note G#, 16
Music_UnovaBattle1_branch_815:
		note F_, 8
Music_UnovaBattle1_branch_816:
		octave 5
		note C_, 4
		octave 4
		note G#, 4
		note A#, 6
		octave 5
		note D#, 16
Music_UnovaBattle1_branch_817:
		note D#, 10
Music_UnovaBattle1_branch_818:
		octave 4
		note D#, 5
		note E_, 10
Music_UnovaBattle1_branch_819:
		note C#, 8
Music_UnovaBattle1_branch_820:
		octave 3
		note A#, 2
		octave 4
		note C#, 2
		note G#, 1
		note E_, 2
		note D#, 6
		octave 3
		note A#, 10
Music_UnovaBattle1_branch_821:
		note G_, 8
		octave 4
		note D#, 2
Music_UnovaBattle1_branch_822:
		note A#, 2
		note G_, 1
		note G#, 1
		note E_, 2
		note D#, 2
		note __, 16
Music_UnovaBattle1_branch_823:
		note __, 16
Music_UnovaBattle1_branch_824:
		note __, 16
Music_UnovaBattle1_branch_825:
		note __, 16
Music_UnovaBattle1_branch_826:
		note __, 16
Music_UnovaBattle1_branch_827:
		note __, 16
Music_UnovaBattle1_branch_828:
		note __, 16
Music_UnovaBattle1_branch_829:
		note __, 7
Music_UnovaBattle1_branch_830:
		octave 3
		note D#, 2
		note A#, 2
		octave 4
		note G_, 2
		note F_, 2
		note D#, 16
Music_UnovaBattle1_branch_831:
		note D#, 8
Music_UnovaBattle1_branch_832:
		octave 3
		note G_, 2
		note A#, 2
		octave 4
		note G_, 2
		note D#, 2
		note E_, 14
Music_UnovaBattle1_branch_833:
		note D#, 1
		note D_, 1
		note C#, 12
Music_UnovaBattle1_branch_834:
		note E_, 4
		note D#, 16
Music_UnovaBattle1_branch_835:
		note D#, 8
Music_UnovaBattle1_branch_836:
		octave 3
		note A#, 2
		octave 4
		note D#, 2
		note G#, 2
		note F_, 2
		note G_, 14
Music_UnovaBattle1_branch_837:
		note G#, 2
		note A#, 15
Music_UnovaBattle1_branch_838:
		note C#, 1
		note __, 1
		note C_, 2
		note C#, 2
		note F_, 6
Music_UnovaBattle1_branch_839:
		note C#, 4
		note C_, 1
		note C#, 7
		octave 3
		note G#, 2
Music_UnovaBattle1_branch_840:
		octave 4
		note C#, 2
		note G#, 2
		note F_, 2
		note D#, 6
		octave 3
		note A#, 10
Music_UnovaBattle1_branch_841:
		octave 4
		note G_, 2
		note F_, 2
		note G_, 2
		note A#, 4
Music_UnovaBattle1_branch_842:
		octave 3
		note G_, 2
		note A#, 2
		note D#, 2
		octave 4
		note C#, 2
		note __, 4
		note F_, 6
Music_UnovaBattle1_branch_843:
		note C#, 4
		note C_, 1
		note C#, 5
		note __, 2
		octave 3
		note G#, 2
Music_UnovaBattle1_branch_844:
		octave 4
		note C#, 2
		note G#, 2
		note F_, 2
		note D#, 6
		octave 3
		note A#, 6
Music_UnovaBattle1_branch_845:
		octave 4
		note D#, 4
		note G_, 2
		note F_, 2
		note G_, 6
Music_UnovaBattle1_branch_846:
		note A#, 2
		note __, 4
		note F_, 2
		note __, 4
		note C_, 6
Music_UnovaBattle1_branch_847:
		note F_, 4
		note A_, 6
		octave 5
		note C_, 1
		note C_, 1
		octave 4
		note A_, 2
Music_UnovaBattle1_branch_848:
		note F_, 2
		note __, 2
		octave 3
		note A_, 2
		octave 4
		note G_, 2
		note __, 4
		note D_, 6
Music_UnovaBattle1_branch_849:
		note G_, 3
		note __, 1
		note G_, 2
		note B_, 4
		octave 5
		note D_, 1
		note D_, 1
		octave 4
		note B_, 2
Music_UnovaBattle1_branch_850:
		note G_, 2
		note __, 2
		octave 3
		note B_, 2
		octave 4
		note A_, 2
		note __, 4
		note E_, 6
Music_UnovaBattle1_branch_851:
		note A_, 4
		octave 5
		note C#, 8
		octave 4
		note C#, 2
Music_UnovaBattle1_branch_852:
		note E_, 6
		note __, 16
Music_UnovaBattle1_branch_853:
		note __, 16
Music_UnovaBattle1_branch_854:
		note __, 16
Music_UnovaBattle1_branch_855:
		note __, 16
Music_UnovaBattle1_branch_856:
		note __, 16
Music_UnovaBattle1_branch_857:
		note __, 16
Music_UnovaBattle1_branch_858:
		note __, 16
Music_UnovaBattle1_branch_859:
		note __, 16
Music_UnovaBattle1_branch_860:
		note G#, 15
Music_UnovaBattle1_branch_861:
		note __, 1
		octave 3
		note G#, 16
Music_UnovaBattle1_branch_862:
		octave 4
		note A_, 16
Music_UnovaBattle1_branch_863:
		octave 5
		note C#, 6
		octave 4
		note B_, 6
Music_UnovaBattle1_branch_864:
		note A_, 4
		note B_, 16
Music_UnovaBattle1_branch_865:
		octave 3
		note B_, 16
Music_UnovaBattle1_branch_866:
		octave 4
		note B_, 2
		octave 5
		note C#, 12
		endchannel

; ===========================================================================
Music_UnovaBattle_Ch2:
		dutycycle 1
		notetype 12, $B8
Music_UnovaBattle2_branch_1:
		octave 1
		dutycycle 0
		note E_, 3
		note __, 1
		note E_, 3
		note __, 1
		note E_, 3
		note __, 1
		note E_, 3
		note __, 1
Music_UnovaBattle2_branch_2:
		note E_, 3
		note __, 1
		note E_, 3
		note __, 1
		note E_, 3
		note __, 1
		note E_, 3
		note __, 1
Music_UnovaBattle2_branch_3:
		note E_, 2
		note B_, 2
		octave 2
		note E_, 2
		octave 1
		note B_, 2
		octave 2
		note F_, 2
		note F_, 2
		octave 1
		note E_, 2
		note A_, 2
Music_UnovaBattle2_branch_4:
		octave 2
		note G_, 2
		octave 1
		note E_, 2
		octave 2
		note G#, 2
		note D_, 2
		octave 1
		note E_, 1
		note G#, 1
		note B_, 2
		octave 2
		note E_, 2
		note F_, 2
Music_UnovaBattle2_branch_5:
		octave 1
		note E_, 2
		note B_, 2
		octave 2
		note E_, 2
		octave 1
		note B_, 2
		octave 2
		note F_, 2
		note F_, 2
		octave 1
		note E_, 2
		note A#, 2
Music_UnovaBattle2_branch_6:
		octave 2
		note G_, 2
		octave 1
		note E_, 2
		octave 2
		note G#, 2
		note D_, 2
		octave 1
		note E_, 2
		note B_, 2
		octave 2
		note E_, 2
		note F_, 1
		note G_, 1
Music_UnovaBattle2_branch_7:
		octave 1
		note F_, 2
		octave 2
		note C_, 2
		note F_, 2
		note C_, 2
		note F#, 2
		note F#, 2
		octave 1
		note F_, 2
		note A#, 2
Music_UnovaBattle2_branch_8:
		octave 2
		note G#, 2
		octave 1
		note F_, 2
		octave 2
		note A_, 2
		note D#, 2
		octave 1
		note F_, 1
		note B_, 1
		octave 2
		note C_, 2
		note F_, 2
		note F#, 2
Music_UnovaBattle2_branch_9:
		octave 1
		note F_, 2
		octave 2
		note C_, 2
		note F_, 2
		note C_, 2
		note F#, 2
		note F#, 2
		octave 1
		note F_, 2
		note A#, 2
Music_UnovaBattle2_branch_10:
		octave 2
		note G#, 2
		octave 1
		note F_, 2
		octave 2
		note A_, 2
		note D#, 2
		octave 1
		note F_, 2
		octave 2
		note D_, 2
		note D#, 2
		note E_, 2
Music_UnovaBattle2_branch_11:
		octave 1
		note F_, 2
		octave 2
		note F_, 2
		octave 1
		note F_, 2
		octave 2
		note F_, 2
		octave 1
		note F_, 2
		octave 2
		note F_, 2
		octave 1
		note F_, 2
		octave 2
		note F_, 2
Music_UnovaBattle2_branch_12:
		octave 1
		note F_, 2
		octave 2
		note F_, 2
		octave 1
		note F_, 2
		octave 2
		note F_, 2
		octave 1
		note F_, 2
		octave 2
		note F_, 2
		octave 1
		note F_, 2
		octave 2
		note F_, 2
Music_UnovaBattle2_branch_13:
		octave 1
		note F#, 2
		octave 2
		note F#, 2
		note A#, 2
		octave 1
		note F#, 2
		octave 3
		note C_, 2
		octave 2
		note A#, 2
		octave 1
		note F#, 2
		octave 2
		note F#, 2
Music_UnovaBattle2_branch_14:
		octave 1
		note F#, 2
		octave 2
		note C#, 2
		note F#, 2
		octave 1
		note F#, 2
		octave 2
		note A#, 2
		octave 3
		note C_, 2
		octave 1
		note C#, 2
		note D#, 2
Music_UnovaBattle2_branch_15:
		note F_, 2
		octave 2
		note F_, 2
		octave 1
		note F_, 2
		octave 2
		note F_, 2
		octave 1
		note F_, 2
		octave 2
		note F_, 2
		octave 1
		note F_, 2
		octave 2
		note F_, 2
Music_UnovaBattle2_branch_16:
		octave 1
		note F_, 2
		octave 2
		note F_, 2
		octave 1
		note F_, 2
		octave 2
		note F_, 2
		octave 1
		note F_, 2
		octave 2
		note F_, 2
		octave 1
		note F_, 2
		octave 2
		note F_, 2
Music_UnovaBattle2_branch_17:
		octave 1
		note D#, 2
		octave 2
		note D#, 2
		note D#, 2
		octave 1
		note D#, 2
		octave 2
		note D#, 2
		note D#, 2
		octave 1
		note D#, 2
		octave 2
		note D#, 2
Music_UnovaBattle2_branch_18:
		octave 1
		note D#, 2
		note A#, 2
		octave 2
		note D#, 2
		octave 1
		note D#, 2
		octave 2
		note A#, 2
		octave 3
		note C_, 2
		octave 2
		note D#, 2
		note D_, 2
Music_UnovaBattle2_branch_19:
		octave 1
		note C#, 2
		octave 2
		note C#, 2
		octave 1
		note C#, 2
		octave 2
		note C#, 2
		octave 1
		note C#, 2
		octave 2
		note C#, 2
		octave 1
		note C#, 2
		octave 2
		note C#, 2
Music_UnovaBattle2_branch_20:
		octave 1
		note C#, 2
		octave 2
		note C#, 2
		octave 1
		note C#, 2
		octave 2
		note C#, 2
		octave 1
		note C#, 2
		octave 2
		note C#, 2
		octave 1
		note D_, 2
		octave 2
		note D_, 2
Music_UnovaBattle2_branch_21:
		octave 1
		note D#, 2
		octave 2
		note D#, 2
		octave 1
		note D#, 2
		octave 2
		note D#, 2
		octave 1
		note D#, 2
		octave 2
		note D#, 2
		octave 1
		note E_, 2
		note F_, 2
Music_UnovaBattle2_branch_22:
		note G_, 2
		octave 2
		note G_, 2
		octave 1
		note F_, 2
		octave 2
		note F_, 2
		octave 1
		note D#, 2
		octave 2
		note D#, 2
		octave 1
		note C#, 2
		octave 2
		note C#, 2
Music_UnovaBattle2_branch_23:
		octave 1
		note C#, 2
		octave 2
		note C#, 2
		octave 1
		note C#, 2
		octave 2
		note C#, 2
		octave 1
		note C#, 2
		octave 2
		note C#, 2
		octave 1
		note C#, 2
		octave 2
		note C#, 2
Music_UnovaBattle2_branch_24:
		octave 1
		note C#, 2
		octave 2
		note C#, 2
		octave 1
		note C#, 2
		octave 2
		note C#, 2
		octave 1
		note C#, 2
		octave 2
		note C#, 2
		octave 1
		note D_, 2
		octave 2
		note D_, 2
Music_UnovaBattle2_branch_25:
		octave 1
		note D#, 3
		note __, 1
		note D#, 2
		octave 2
		note D#, 2
		octave 1
		note D#, 2
		octave 2
		note D#, 2
		octave 1
		note D#, 2
		octave 2
		note D#, 2
Music_UnovaBattle2_branch_26:
		octave 1
		note D#, 2
		octave 2
		note D#, 2
		octave 1
		note E_, 2
		octave 2
		note E_, 2
		note G_, 2
		note E_, 2
		note D#, 1
		note E_, 1
		note C#, 2
Music_UnovaBattle2_branch_27:
		octave 1
		note D#, 2
		note A#, 2
		note D#, 2
		note A#, 2
		octave 2
		note E_, 2
		note E_, 2
		octave 1
		note D#, 2
		note G#, 2
Music_UnovaBattle2_branch_28:
		octave 2
		note F#, 2
		octave 1
		note D#, 2
		octave 2
		note G_, 2
		note C#, 2
		octave 1
		note D#, 2
		note A#, 2
		note D#, 2
		note A#, 2
Music_UnovaBattle2_branch_29:
		note D#, 2
		note A#, 2
		note D#, 2
		note A#, 2
		octave 2
		note E_, 2
		note E_, 2
		octave 1
		note D#, 2
		note G#, 2
Music_UnovaBattle2_branch_30:
		octave 2
		note E_, 2
		octave 1
		note D#, 2
		octave 2
		note G_, 2
		note C#, 2
		octave 1
		note D#, 2
		octave 2
		note D#, 2
		octave 1
		note D#, 2
		octave 2
		note G_, 2
Music_UnovaBattle2_branch_31:
		octave 1
		note D#, 2
		octave 2
		note D#, 2
		octave 1
		note D#, 2
		octave 2
		note D#, 2
		octave 1
		note D#, 2
		octave 2
		note D#, 2
		octave 1
		note D#, 2
		octave 2
		note D#, 2
Music_UnovaBattle2_branch_32:
		octave 1
		note D#, 2
		octave 2
		note D#, 2
		octave 1
		note D#, 2
		octave 2
		note D#, 2
		octave 1
		note D#, 2
		octave 2
		note D#, 2
		octave 1
		note D#, 2
		octave 2
		note D#, 2
Music_UnovaBattle2_branch_33:
		octave 1
		note D#, 2
		octave 2
		note D#, 2
		octave 1
		note D#, 2
		octave 2
		note D#, 2
		octave 1
		note D#, 2
		octave 2
		note D#, 2
		octave 1
		note D#, 2
		octave 2
		note D#, 2
Music_UnovaBattle2_branch_34:
		octave 1
		note D#, 2
		octave 2
		note D#, 2
		octave 1
		note D#, 2
		octave 2
		note D#, 2
		octave 1
		note D#, 2
		octave 2
		note D#, 2
		octave 1
		note D#, 2
		octave 2
		note D#, 2
Music_UnovaBattle2_branch_35:
		octave 1
		note E_, 2
		octave 2
		note E_, 2
		octave 1
		note E_, 2
		octave 2
		note E_, 2
		octave 1
		note E_, 2
		octave 2
		note E_, 2
		octave 1
		note E_, 2
		octave 2
		note E_, 2
Music_UnovaBattle2_branch_36:
		octave 1
		note E_, 2
		octave 2
		note E_, 2
		octave 1
		note E_, 2
		octave 2
		note E_, 2
		octave 1
		note E_, 2
		octave 2
		note E_, 2
		octave 1
		note E_, 2
		octave 2
		note E_, 2
Music_UnovaBattle2_branch_37:
		octave 1
		note D#, 2
		octave 2
		note D#, 2
		octave 1
		note D#, 2
		octave 2
		note D#, 2
		octave 1
		note D#, 2
		octave 2
		note D#, 2
		octave 1
		note D#, 2
		octave 2
		note D#, 2
Music_UnovaBattle2_branch_38:
		octave 1
		note D#, 2
		octave 2
		note D#, 2
		octave 1
		note D#, 2
		octave 2
		note D#, 2
		octave 1
		note D#, 2
		octave 2
		note D#, 2
		octave 1
		note D#, 2
		octave 2
		note D#, 2
Music_UnovaBattle2_branch_39:
		octave 1
		note D#, 2
		octave 2
		note D#, 2
		octave 1
		note D#, 2
		octave 2
		note D#, 2
		octave 1
		note D#, 2
		octave 2
		note D#, 2
		octave 1
		note D#, 2
		octave 2
		note D#, 2
Music_UnovaBattle2_branch_40:
		octave 1
		note D#, 2
		octave 2
		note D#, 2
		octave 1
		note D#, 2
		octave 2
		note D#, 2
		octave 1
		note D#, 2
		octave 2
		note D#, 2
		octave 1
		note D#, 2
		octave 2
		note D#, 2
Music_UnovaBattle2_branch_41:
		octave 1
		note E_, 2
		octave 2
		note E_, 2
		octave 1
		note E_, 2
		octave 2
		note E_, 2
		octave 1
		note E_, 2
		octave 2
		note E_, 2
		octave 1
		note E_, 2
		octave 2
		note E_, 2
Music_UnovaBattle2_branch_42:
		octave 1
		note C#, 2
		octave 2
		note C#, 2
		octave 1
		note C#, 2
		octave 2
		note C#, 2
		octave 1
		note C#, 2
		octave 2
		note C#, 2
		octave 1
		note C#, 2
		note D_, 2
Music_UnovaBattle2_branch_43:
		note D#, 2
		octave 2
		note D#, 2
		octave 1
		note D#, 2
		octave 2
		note D#, 2
		octave 1
		note D#, 2
		octave 2
		note D#, 2
		octave 1
		note D#, 2
		octave 2
		note D#, 2
Music_UnovaBattle2_branch_44:
		octave 1
		note D#, 2
		octave 2
		note D#, 2
		octave 1
		note D#, 2
		octave 2
		note D#, 2
		octave 1
		note D#, 2
		octave 2
		note D#, 2
		octave 1
		note D#, 2
		octave 2
		note D#, 2
Music_UnovaBattle2_branch_45:
		octave 1
		note D#, 2
		octave 2
		note D#, 2
		octave 1
		note D#, 2
		octave 2
		note D#, 2
		octave 1
		note D#, 2
		octave 2
		note D#, 2
		octave 1
		note D#, 2
		octave 2
		note D#, 2
Music_UnovaBattle2_branch_46:
		octave 1
		note D#, 2
		octave 2
		note D#, 2
		note D_, 2
		note D#, 2
		octave 1
		note D#, 2
		note G#, 2
		octave 2
		note D_, 4
Music_UnovaBattle2_branch_47:
		octave 1
		note C#, 2
		octave 2
		note C#, 2
		octave 1
		note C#, 2
		octave 2
		note C#, 2
		octave 1
		note C#, 2
		octave 2
		note C#, 2
		octave 1
		note C#, 2
		octave 2
		note C#, 2
Music_UnovaBattle2_branch_48:
		octave 1
		note C#, 2
		octave 2
		note F_, 2
		octave 1
		note C#, 2
		octave 2
		note D#, 2
		octave 1
		note C#, 2
		octave 2
		note C#, 2
		octave 1
		note D_, 2
		octave 2
		note D_, 2
Music_UnovaBattle2_branch_49:
		octave 1
		note D#, 2
		octave 2
		note D#, 2
		octave 1
		note D#, 2
		octave 2
		note D#, 2
		note C#, 2
		note D#, 2
		octave 1
		note D#, 2
		octave 2
		note D#, 2
Music_UnovaBattle2_branch_50:
		octave 1
		note D#, 2
		octave 2
		note G_, 1
		note G_, 1
		octave 1
		note D#, 2
		octave 2
		note F_, 1
		note F_, 1
		note D#, 2
		note C#, 2
		note D#, 2
		octave 1
		note A#, 2
Music_UnovaBattle2_branch_51:
		note C#, 2
		octave 2
		note C#, 2
		octave 1
		note C#, 2
		octave 2
		note C#, 2
		octave 1
		note G#, 2
		octave 2
		note F_, 2
		note C_, 2
		note C#, 2
Music_UnovaBattle2_branch_52:
		octave 1
		note C#, 2
		octave 2
		note F_, 2
		octave 1
		note C#, 2
		octave 2
		note D#, 2
		octave 1
		note C#, 2
		octave 2
		note C#, 2
		octave 1
		note C#, 2
		octave 2
		note D_, 2
Music_UnovaBattle2_branch_53:
		octave 1
		note D#, 2
		octave 2
		note D#, 2
		octave 1
		note D#, 2
		octave 2
		note D#, 2
		note C#, 2
		note D#, 2
		octave 1
		note D#, 2
		octave 2
		note D#, 2
Music_UnovaBattle2_branch_54:
		octave 1
		note D#, 2
		octave 2
		note G_, 1
		note G_, 1
		octave 1
		note D#, 2
		octave 2
		note G_, 1
		note G_, 1
		octave 1
		note D#, 2
		octave 2
		note D#, 2
		octave 1
		note E_, 2
		octave 2
		note E_, 2
Music_UnovaBattle2_branch_55:
		octave 1
		note F_, 2
		octave 2
		note F_, 2
		octave 1
		note F_, 2
		octave 2
		note F_, 2
		octave 1
		note F_, 2
		octave 2
		note C_, 2
		note F_, 2
		note A_, 2
Music_UnovaBattle2_branch_56:
		note F_, 2
		note C_, 2
		note F_, 2
		octave 1
		note F_, 2
		note A_, 2
		note G#, 2
		octave 2
		note C_, 2
		octave 1
		note F_, 2
Music_UnovaBattle2_branch_57:
		note G_, 2
		octave 2
		note G_, 2
		octave 1
		note G_, 2
		octave 2
		note G_, 2
		octave 1
		note G_, 2
		octave 2
		note D_, 2
		note G_, 2
		note B_, 2
Music_UnovaBattle2_branch_58:
		note G_, 2
		note D_, 2
		note G_, 2
		octave 1
		note G_, 2
		octave 2
		note G_, 2
		note D_, 2
		octave 1
		note G_, 2
		note G#, 2
Music_UnovaBattle2_branch_59:
		note A_, 2
		octave 2
		note A_, 2
		octave 1
		note A_, 2
		octave 2
		note A_, 2
		octave 1
		note A_, 2
		octave 2
		note E_, 2
		note A_, 2
		octave 3
		note C#, 2
Music_UnovaBattle2_branch_60:
		octave 2
		note A_, 2
		note E_, 2
		note A_, 2
		octave 1
		note A_, 2
		octave 2
		note A_, 2
		note E_, 2
		octave 1
		note G_, 2
		note G#, 2
Music_UnovaBattle2_branch_61:
		note A_, 2
		octave 2
		note A_, 2
		note __, 2
		note A_, 2
		octave 1
		note A_, 2
		octave 2
		note E_, 2
		note A_, 2
		octave 3
		note C#, 2
Music_UnovaBattle2_branch_62:
		octave 2
		note A_, 2
		note G_, 2
		note A_, 2
		octave 1
		note A_, 2
		note A#, 2
		note A_, 2
		note G_, 2
		note A#, 2
Music_UnovaBattle2_branch_63:
		note A_, 2
		octave 2
		note A_, 1
		note __, 1
		note A_, 1
		note __, 1
		octave 1
		note A_, 2
		octave 2
		note A_, 1
		note __, 1
		note E_, 1
		note __, 1
		note E_, 2
		note A#, 2
Music_UnovaBattle2_branch_64:
		octave 1
		note A_, 2
		octave 2
		note E_, 1
		note __, 1
		note A_, 1
		note __, 1
		octave 1
		note C#, 2
		note A_, 1
		note __, 1
		note A#, 1
		note __, 1
		note A_, 2
		note E_, 2
Music_UnovaBattle2_branch_65:
		note C#, 2
		note A_, 2
		note D_, 2
		note A#, 2
		note C#, 2
		note A_, 2
		note E_, 2
		octave 2
		note C_, 2
Music_UnovaBattle2_branch_66:
		octave 1
		note C#, 2
		note A_, 2
		note F#, 2
		octave 2
		note D_, 2
		octave 1
		note C#, 2
		note A_, 2
		note G_, 2
		octave 2
		note D#, 2
Music_UnovaBattle2_branch_67:
		octave 1
		note D#, 2
		note B_, 2
		note E_, 2
		octave 2
		note C_, 2
		octave 1
		note D#, 2
		note B_, 2
		note F#, 2
		octave 2
		note D_, 2
Music_UnovaBattle2_branch_68:
		octave 1
		note D#, 2
		note B_, 2
		note G#, 2
		octave 2
		note E_, 2
		octave 1
		note D#, 2
		note B_, 2
		note G#, 2
		octave 2
		note D#, 2
Music_UnovaBattle2_branch_69:
		octave 1
		note D#, 1
		note F#, 1
		note __, 2
		note __, 1
		note __, 1
		note G#, 1
		note __, 2
		note __, 2
		note __, 1
		note __, 1
		note G#, 1
		note F#, 1
		note __, 2
Music_UnovaBattle2_branch_70:
		note __, 1
		note __, 1
		note G#, 1
		note __, 2
		note __, 2
		note __, 1
		note __, 1
		note C#, 1
		note E_, 1
		note __, 2
		note __, 1
		note __, 1
Music_UnovaBattle2_branch_71:
		note E_, 1
		note C#, 1
		note __, 2
		note __, 1
		note __, 1
		note A_, 1
		note G#, 1
		note __, 2
		note __, 1
		note __, 1
		note E_, 1
		note A_, 1
		octave 2
		note __, 2
Music_UnovaBattle2_branch_72:
		note __, 1
		note __, 1
		octave 1
		note B_, 1
		note A_, 1
		note __, 1
		note B_, 1
		note __, 1
		note __, 1
		note __, 2
		note B_, 1
		note __, 2
		note __, 1
		note __, 1
		note F#, 1
Music_UnovaBattle2_branch_73:
		note A_, 1
		note __, 2
		note __, 1
		note __, 1
		note __, 1
		note __, 1
		note __, 1
		note B_, 1
		note F#, 1
		note __, 1
		octave 2
		note C#, 1
		note __, 1
		note __, 2
		note __, 1
Music_UnovaBattle2_branch_74:
		note __, 1
		octave 1
		note C#, 1
		note __, 1
		note __, 2
		note __, 1
		note __, 1
		note F_, 1
		note G#, 1
		octave 2
		note __, 2
		note __, 1
		note __, 1
		octave 1
		note C#, 2
		note __, 1
Music_UnovaBattle2_branch_75:
		note __, 1
		note __, 1
		note __, 1
		note C#, 2
		octave 2
		note C_, 2
		note F_, 2
		note C_, 2
		note F#, 2
		note F#, 2
		octave 1
		note F_, 2
Music_UnovaBattle2_branch_76:
		note A#, 2
		octave 2
		note G#, 2
		octave 1
		note F_, 2
		octave 2
		note A_, 2
		note D#, 2
		octave 1
		note F_, 2
		octave 2
		note C_, 2
		note F_, 2
Music_UnovaBattle2_branch_77:
		note F#, 2
		octave 1
		note F_, 2
		octave 2
		note C_, 2
		note F_, 2
		note C_, 2
		note F#, 2
		note F#, 2
		octave 1
		note F_, 2
Music_UnovaBattle2_branch_78:
		note A#, 2
		octave 2
		note G#, 2
		octave 1
		note F_, 2
		octave 2
		note A_, 2
		note D#, 2
		octave 1
		note F_, 2
		octave 2
		note C_, 2
		note F_, 2
Music_UnovaBattle2_branch_79:
		note F#, 2
		note __, 16
Music_UnovaBattle2_branch_80:
		dutycycle 1
		octave 3
		note D_, 1
		octave 2
		octave 3
		octave 2
		octave 3
		note C#, 1
		octave 2
		octave 3
		octave 2
		octave 3
		note D_, 1
		octave 2
		octave 3
		octave 2
		octave 3
		note C#, 1
		octave 2
		octave 3
		octave 2
		octave 3
		note C_, 1
		octave 2
		octave 3
		octave 2
		octave 3
		note C#, 1
		octave 2
		octave 3
		octave 2
		octave 3
		note C_, 1
		octave 2
		octave 3
		octave 2
		note B_, 1
		octave 3
		note C_, 1
		octave 2
		octave 3
		octave 2
		note B_, 1
		note A#, 1
		note B_, 1
		note A#, 1
Music_UnovaBattle2_branch_81:
		note B_, 1
		note A#, 1
		note F_, 1
		octave 3
		note E_, 16
Music_UnovaBattle2_branch_82:
		octave 2
		note B_, 15
Music_UnovaBattle2_branch_83:
		note __, 1
		octave 3
		note __, 2
		octave 2
		note E_, 4
		note __, 2
		octave 3
		note E_, 2
		octave 2
		note E_, 4
Music_UnovaBattle2_branch_84:
		note E_, 2
		octave 3
		note E_, 4
		octave 2
		note E_, 4
		octave 3
		note E_, 4
		octave 2
		note E_, 4
Music_UnovaBattle2_branch_85:
		octave 3
		note F_, 15
Music_UnovaBattle2_branch_86:
		note __, 1
		note C_, 16
Music_UnovaBattle2_branch_87:
		note F_, 2
		octave 2
		note F_, 4
		note __, 2
		octave 3
		note F_, 2
		octave 2
		note F_, 4
Music_UnovaBattle2_branch_88:
		note F_, 2
		octave 3
		note F_, 4
		octave 2
		note F_, 4
		octave 3
		note F_, 4
		note C_, 1
Music_UnovaBattle2_branch_89:
		note C_, 1
		note C_, 1
		note C_, 1
		octave 2
		note F_, 10
		note __, 16
Music_UnovaBattle2_branch_90:
		note __, 16
Music_UnovaBattle2_branch_91:
		note __, 6
Music_UnovaBattle2_branch_92:
		note F_, 6
		octave 3
		note F#, 2
		note F#, 2
		note C#, 6
Music_UnovaBattle2_branch_93:
		octave 2
		note F_, 12
		note __, 16
Music_UnovaBattle2_branch_94:
		note __, 16
Music_UnovaBattle2_branch_95:
		note __, 4
Music_UnovaBattle2_branch_96:
		note A_, 5
		note __, 1
		octave 3
		note D#, 2
		note D#, 2
		octave 2
		note A#, 4
Music_UnovaBattle2_branch_97:
		octave 3
		note D#, 2
		octave 2
		note G#, 16
Music_UnovaBattle2_branch_98:
		note __, 16
Music_UnovaBattle2_branch_99:
		note __, 16
Music_UnovaBattle2_branch_100:
		note __, 16
Music_UnovaBattle2_branch_101:
		note __, 16
Music_UnovaBattle2_branch_102:
		note __, 16
Music_UnovaBattle2_branch_103:
		note __, 16
Music_UnovaBattle2_branch_104:
		note __, 16
Music_UnovaBattle2_branch_105:
		note D#, 2
		note A#, 2
		note D#, 2
		note A#, 2
		octave 3
		note E_, 2
		note E_, 2
		octave 2
		note D#, 2
Music_UnovaBattle2_branch_106:
		note G#, 2
		octave 3
		note F#, 2
		octave 2
		note D#, 2
		octave 3
		note G_, 2
		note C#, 2
		octave 2
		note D#, 2
		note A#, 2
		note D#, 2
Music_UnovaBattle2_branch_107:
		note A#, 2
		note D#, 2
		note A#, 2
		note D#, 2
		note A#, 2
		octave 3
		note E_, 2
		note E_, 2
		octave 2
		note D#, 2
Music_UnovaBattle2_branch_108:
		note G#, 2
		octave 3
		note E_, 2
		octave 2
		note D#, 2
		octave 3
		note G_, 2
		note C#, 2
		octave 2
		note D#, 2
		note G_, 2
		note D#, 2
Music_UnovaBattle2_branch_109:
		note G_, 2
		note __, 16
Music_UnovaBattle2_branch_110:
		note __, 16
Music_UnovaBattle2_branch_111:
		note __, 16
Music_UnovaBattle2_branch_112:
		note __, 16
Music_UnovaBattle2_branch_113:
		note __, 16
Music_UnovaBattle2_branch_114:
		note __, 16
Music_UnovaBattle2_branch_115:
		note __, 16
Music_UnovaBattle2_branch_116:
		note __, 16
Music_UnovaBattle2_branch_117:
		note __, 9
		octave 3
		note D#, 2
		note F_, 2
Music_UnovaBattle2_branch_118:
		note G#, 2
		note F_, 2
		note G_, 16
Music_UnovaBattle2_branch_119:
		note G#, 8
		octave 2
		note B_, 4
Music_UnovaBattle2_branch_120:
		octave 3
		note C_, 4
		note C#, 12
Music_UnovaBattle2_branch_121:
		note E_, 4
		note G_, 8
		note D#, 4
Music_UnovaBattle2_branch_122:
		note F_, 4
		note G_, 8
		note G_, 2
		note F_, 2
Music_UnovaBattle2_branch_123:
		note D#, 2
		note F_, 2
		note G_, 8
		note D#, 2
		note F_, 2
Music_UnovaBattle2_branch_124:
		note A#, 2
		note G#, 2
		note G_, 6
		note __, 9
Music_UnovaBattle2_branch_125:
		note F_, 2
		note D#, 2
		note F_, 2
		note G#, 6
		note F_, 4
Music_UnovaBattle2_branch_126:
		note E_, 1
		note F_, 7
		note C#, 2
		note F_, 2
		octave 4
		note C#, 2
Music_UnovaBattle2_branch_127:
		octave 3
		note G#, 2
		note G#, 6
		note G_, 10
Music_UnovaBattle2_branch_128:
		note A#, 2
		note A_, 2
		note A#, 2
		octave 4
		note D#, 6
		note __, 4
Music_UnovaBattle2_branch_129:
		octave 3
		note F_, 2
		note __, 4
		note G#, 6
		note F_, 4
Music_UnovaBattle2_branch_130:
		note F_, 8
		note C#, 2
		note F_, 2
		octave 4
		note C#, 2
Music_UnovaBattle2_branch_131:
		octave 3
		note G#, 2
		note A#, 6
		note D#, 6
		note A#, 4
Music_UnovaBattle2_branch_132:
		note A#, 2
		note A_, 2
		note A#, 6
		octave 4
		note D#, 2
		note __, 4
Music_UnovaBattle2_branch_133:
		octave 3
		note A_, 2
		note __, 4
		note F_, 6
		note A_, 4
Music_UnovaBattle2_branch_134:
		octave 4
		note C_, 16
Music_UnovaBattle2_branch_135:
		octave 3
		note B_, 2
		note __, 4
		note G_, 6
		note B_, 4
Music_UnovaBattle2_branch_136:
		octave 4
		note D_, 12
		note __, 4
Music_UnovaBattle2_branch_137:
		note C#, 2
		note __, 4
		octave 3
		note A_, 6
		octave 4
		note C#, 4
Music_UnovaBattle2_branch_138:
		note E_, 16
Music_UnovaBattle2_branch_139:
		octave 3
		note G_, 2
		note G_, 4
		note E_, 6
		note G_, 4
Music_UnovaBattle2_branch_140:
		note C#, 16
Music_UnovaBattle2_branch_141:
		note __, 16
Music_UnovaBattle2_branch_142:
		note __, 8
		octave 2
		note G_, 1
		note G_, 1
		note G_, 1
		note G_, 1
		note G_, 1
Music_UnovaBattle2_branch_143:
		note G_, 1
		note G_, 1
		note G_, 1
		octave 3
		note C#, 4
		note __, 2
		note C#, 4
		note __, 2
		note C#, 4
Music_UnovaBattle2_branch_144:
		note __, 2
		note C#, 4
		note __, 2
		octave 2
		note F#, 4
		note F#, 4
Music_UnovaBattle2_branch_145:
		octave 3
		note D#, 4
		note __, 2
		note D#, 4
		note __, 2
		note D#, 4
Music_UnovaBattle2_branch_146:
		note __, 2
		note D#, 4
		note __, 2
		octave 2
		note G#, 4
		note G#, 4
Music_UnovaBattle2_branch_147:
		note G#, 16
Music_UnovaBattle2_branch_148:
		note G#, 6
		note __, 16
Music_UnovaBattle2_branch_149:
		note __, 16
Music_UnovaBattle2_branch_150:
		note __, 16
Music_UnovaBattle2_branch_151:
		note __, 16
Music_UnovaBattle2_branch_152:
		note __, 16
Music_UnovaBattle2_branch_153:
		note __, 16
Music_UnovaBattle2_branch_154:
		note __, 16
Music_UnovaBattle2_branch_155:
		note __, 16
Music_UnovaBattle2_branch_156:
		note __, 16
Music_UnovaBattle2_branch_157:
		note __, 16
Music_UnovaBattle2_branch_158:
		note __, 6
		octave 3
		note C_, 1
Music_UnovaBattle2_branch_159:
		note C_, 1
		note C_, 1
		note C_, 1
		octave 5
		dutycycle 2
		note E_, 1
		octave 4
		note B_, 1
		octave 5
		note E_, 1
		note __, 1
		note E_, 1
		octave 4
		note B_, 1
		octave 5
		note E_, 1
		note __, 1
		note E_, 1
		octave 4
		note B_, 1
		octave 5
		note E_, 1
		note __, 1
		note E_, 1
Music_UnovaBattle2_branch_160:
		octave 4
		note B_, 1
		octave 5
		note E_, 1
		note __, 1
		note E_, 1
		octave 4
		note B_, 1
		octave 5
		note E_, 1
		note __, 1
		note E_, 1
		octave 4
		note B_, 1
		octave 5
		note E_, 1
		note __, 1
		note E_, 1
		octave 4
		note B_, 1
		octave 5
		note E_, 1
		note __, 1
		note E_, 1
Music_UnovaBattle2_branch_161:
		octave 4
		note B_, 1
		octave 5
		note E_, 1
		note __, 1
		note __, 16
Music_UnovaBattle2_branch_162:
		note __, 16
Music_UnovaBattle2_branch_163:
		octave 3
		octave 4
		note E_, 1
		octave 3
		octave 4
		note __, 1
		octave 3
		octave 4
		note E_, 1
		octave 3
		octave 4
		note __, 1
		note G_, 4
		octave 3
		octave 4
		note E_, 1
		octave 3
		octave 4
		note __, 1
		octave 3
		octave 4
		note E_, 1
		octave 3
		octave 4
		note __, 1
		note A_, 4
Music_UnovaBattle2_branch_164:
		octave 3
		octave 4
		note E_, 1
		octave 3
		octave 4
		note __, 1
		octave 3
		octave 4
		note E_, 1
		octave 3
		octave 4
		note __, 1
		note A#, 4
		octave 3
		octave 4
		note E_, 1
		octave 3
		octave 4
		note __, 1
		octave 3
		octave 4
		note E_, 1
		octave 3
		octave 4
		note __, 1
		note B_, 4
Music_UnovaBattle2_branch_165:
		note __, 16
Music_UnovaBattle2_branch_166:
		note __, 16
Music_UnovaBattle2_branch_167:
		note F_, 1
		note __, 1
		note F_, 1
		note __, 1
		note G#, 4
		note F_, 1
		note __, 1
		note F_, 1
		note __, 1
		note A#, 4
Music_UnovaBattle2_branch_168:
		note F_, 1
		note __, 1
		note F_, 1
		note __, 1
		note B_, 4
		note F_, 1
		note __, 1
		note F_, 1
		note __, 1
		octave 5
		note C_, 4
Music_UnovaBattle2_branch_169:
		octave 4
		octave 5
		note __, 16
Music_UnovaBattle2_branch_170:
		note __, 16
Music_UnovaBattle2_branch_171:
		note __, 16
Music_UnovaBattle2_branch_172:
		octave 4
		note F_, 1
		note __, 1
		note F#, 10
		octave 3
		octave 4
		octave 3
		octave 4
		octave 3
		octave 4
		octave 3
		octave 4
		octave 3
		octave 4
		octave 3
		octave 4
		octave 3
		note A_, 1
Music_UnovaBattle2_branch_173:
		note F_, 1
		octave 4
		note C_, 16
Music_UnovaBattle2_branch_174:
		note __, 16
Music_UnovaBattle2_branch_175:
		note __, 16
Music_UnovaBattle2_branch_176:
		octave 3
		octave 4
		note D_, 1
		octave 3
		octave 4
		note __, 1
		octave 3
		octave 4
		note D#, 10
		octave 3
		octave 4
		octave 3
		octave 4
		octave 3
		octave 4
		octave 3
		octave 4
		octave 3
		octave 4
		octave 3
		note F_, 1
		note G_, 1
		octave 4
		note C#, 6
Music_UnovaBattle2_branch_177:
		note C_, 2
		octave 3
		note G#, 6
		note G_, 2
		note F_, 6
Music_UnovaBattle2_branch_178:
		note G_, 2
		note G#, 6
		note A#, 2
		octave 4
		note C_, 14
Music_UnovaBattle2_branch_179:
		note C#, 2
		octave 3
		note A#, 2
Music_UnovaBattle2_branch_180:
		octave 4
		octave 3
		octave 4
		note __, 4
		octave 3
		octave 4
		octave 3
		octave 4
		note __, 2
		octave 3
		octave 4
		note D#, 1
		octave 3
		octave 4
		octave 3
		octave 4
		octave 3
		octave 4
		note __, 1
		octave 3
		octave 4
		octave 3
		octave 4
		note __, 4
		octave 3
		octave 4
		octave 3
		octave 4
		note __, 2
		note F_, 6
Music_UnovaBattle2_branch_181:
		note D#, 2
		note C#, 6
		note C_, 2
		octave 3
		note A#, 6
Music_UnovaBattle2_branch_182:
		note G#, 2
		note F_, 6
		note G#, 2
		octave 2
		octave 3
		note G_, 2
Music_UnovaBattle2_branch_183:
		octave 2
		octave 3
		octave 2
		octave 3
		note G_, 4
		octave 2
		octave 3
		note A#, 2
		octave 4
		note D#, 1
		octave 3
		octave 4
		octave 3
		octave 4
		octave 3
		octave 4
		octave 3
		octave 4
		octave 3
		octave 4
		octave 3
		note __, 6
		octave 4
		note D#, 1
		octave 3
		octave 4
		note __, 1
Music_UnovaBattle2_branch_184:
		octave 3
		octave 4
		octave 3
		octave 4
		note __, 4
		octave 3
		octave 4
		octave 3
		octave 4
		note __, 2
		octave 3
		octave 4
		note D#, 1
		octave 3
		octave 4
		octave 3
		octave 4
		octave 3
		octave 4
		note __, 1
		octave 3
		octave 4
		octave 3
		octave 4
		note __, 2
		octave 3
		octave 4
		note D#, 1
		octave 3
		octave 4
		note __, 1
		octave 3
		octave 4
		note C#, 1
		octave 3
		octave 4
		note __, 1
		octave 3
		note A#, 1
		note __, 1
Music_UnovaBattle2_branch_185:
		note A#, 1
		note __, 7
		note A#, 1
		note __, 1
		note A#, 1
		note __, 5
Music_UnovaBattle2_branch_186:
		octave 4
		note E_, 1
		octave 3
		octave 4
		note __, 1
		octave 3
		octave 4
		note E_, 1
		octave 3
		octave 4
		note __, 3
		octave 3
		octave 4
		note D#, 1
		octave 3
		octave 4
		note __, 1
		octave 3
		octave 4
		note D#, 1
		octave 3
		octave 4
		note __, 1
		octave 3
		octave 4
		note C#, 1
		octave 3
		octave 4
		octave 3
		octave 4
		octave 3
		octave 4
		note __, 1
		octave 3
		octave 4
		octave 3
		octave 4
		note __, 1
		octave 3
		octave 4
		octave 3
		octave 4
		note __, 1
		octave 2
		octave 3
		note C#, 16
Music_UnovaBattle2_branch_187:
		note C#, 8
Music_UnovaBattle2_branch_188:
		octave 2
		octave 3
		octave 4
		note C#, 8
		octave 3
		octave 4
		note __, 16
Music_UnovaBattle2_branch_189:
		note __, 16
Music_UnovaBattle2_branch_190:
		octave 3
		note D#, 1
		note __, 1
Music_UnovaBattle2_branch_191:
		octave 4
		note D#, 1
		octave 3
		octave 4
		note __, 1
		octave 3
		octave 4
		note D#, 1
		octave 3
		octave 4
		note __, 1
		octave 3
		note D#, 1
		note __, 1
		octave 4
		note E_, 1
		octave 3
		octave 4
		note __, 1
		octave 3
		octave 4
		note E_, 1
		octave 3
		octave 4
		note __, 1
		octave 3
		note D#, 1
		note __, 1
		octave 4
		note F#, 1
		note __, 1
		note F#, 1
		note __, 1
Music_UnovaBattle2_branch_192:
		octave 3
		note D#, 1
		note __, 1
		octave 4
		note G_, 1
		note __, 1
		note G_, 1
		note __, 16
Music_UnovaBattle2_branch_193:
		note __, 16
Music_UnovaBattle2_branch_194:
		note __, 16
Music_UnovaBattle2_branch_195:
		note __, 16
Music_UnovaBattle2_branch_196:
		note __, 9
		octave 3
		note G_, 8
Music_UnovaBattle2_branch_197:
		octave 2
		note G_, 4
		note G#, 4
		note A#, 8
Music_UnovaBattle2_branch_198:
		note G_, 8
		octave 3
		note E_, 8
Music_UnovaBattle2_branch_199:
		octave 2
		note G#, 4
		note A#, 4
		note B_, 8
Music_UnovaBattle2_branch_200:
		note G#, 4
		octave 3
		note E_, 4
		note D#, 8
Music_UnovaBattle2_branch_201:
		octave 2
		note A#, 12
Music_UnovaBattle2_branch_202:
		note G_, 12
		note D#, 8
Music_UnovaBattle2_branch_203:
		note C#, 4
		note D#, 4
		note A#, 8
Music_UnovaBattle2_branch_204:
		note A_, 4
		octave 3
		note D_, 4
		note __, 16
Music_UnovaBattle2_branch_205:
		note __, 16
Music_UnovaBattle2_branch_206:
		note __, 16
Music_UnovaBattle2_branch_207:
		note __, 16
Music_UnovaBattle2_branch_208:
		note __, 16
Music_UnovaBattle2_branch_209:
		note __, 16
Music_UnovaBattle2_branch_210:
		note __, 16
Music_UnovaBattle2_branch_211:
		note __, 16
Music_UnovaBattle2_branch_212:
		note __, 16
Music_UnovaBattle2_branch_213:
		note __, 16
Music_UnovaBattle2_branch_214:
		note __, 16
Music_UnovaBattle2_branch_215:
		note __, 16
Music_UnovaBattle2_branch_216:
		note __, 16
Music_UnovaBattle2_branch_217:
		note __, 16
Music_UnovaBattle2_branch_218:
		note __, 16
Music_UnovaBattle2_branch_219:
		note __, 16
Music_UnovaBattle2_branch_220:
		octave 2
		note E_, 2
Music_UnovaBattle2_branch_221:
		note __, 4
		note G_, 6
		note A_, 4
		octave 3
		note C_, 1
		note C#, 12
Music_UnovaBattle2_branch_222:
		note __, 1
		octave 1
		note G#, 1
		note G_, 1
		note F#, 1
		note __, 1
Music_UnovaBattle2_branch_223:
		note F#, 1
		note __, 1
		octave 2
		note C#, 4
		octave 1
		note F#, 1
		note __, 1
		note F#, 1
		note __, 1
		octave 2
		note D_, 4
		octave 1
		note F#, 1
		note __, 1
Music_UnovaBattle2_branch_224:
		note F#, 1
		note __, 1
		octave 2
		note C#, 4
		octave 1
		note F#, 1
		note __, 1
		note F#, 1
		note __, 1
		note F_, 4
		note F#, 1
		note __, 1
Music_UnovaBattle2_branch_225:
		note F#, 1
		note __, 1
		octave 2
		note D#, 4
		octave 1
		note F#, 1
		note __, 1
		note F#, 1
		note __, 1
		octave 2
		note E_, 4
		octave 1
		note F#, 1
		note __, 1
Music_UnovaBattle2_branch_226:
		note F#, 1
		note __, 1
		octave 2
		note D#, 4
		octave 1
		note F#, 1
		note __, 1
		note F#, 1
		note __, 1
		note G#, 1
		note __, 1
		note D#, 2
		note __, 16
Music_UnovaBattle2_branch_227:
		note __, 16
Music_UnovaBattle2_branch_228:
		note __, 16
Music_UnovaBattle2_branch_229:
		note __, 16
Music_UnovaBattle2_branch_230:
		note __, 16
Music_UnovaBattle2_branch_231:
		note __, 16
Music_UnovaBattle2_branch_232:
		note __, 16
Music_UnovaBattle2_branch_233:
		note __, 8
Music_UnovaBattle2_branch_234:
		octave 3
		note C#, 1
		note __, 1
		note C#, 1
		note C#, 1
		note C#, 1
		note C#, 1
		note C#, 16
Music_UnovaBattle2_branch_235:
		note __, 16
Music_UnovaBattle2_branch_236:
		note __, 16
Music_UnovaBattle2_branch_237:
		note __, 12
Music_UnovaBattle2_branch_238:
		note A#, 1
		octave 4
		note C_, 1
		octave 3
		octave 4
		octave 3
		octave 4
		note D_, 1
		octave 3
		octave 4
		octave 3
		octave 4
		note E_, 1
		octave 3
		octave 4
		octave 5
		dutycycle 3
		note E_, 1
		octave 4
		note B_, 1
		octave 5
		note E_, 1
		note B_, 1
Music_UnovaBattle2_branch_239:
		note E_, 1
		octave 4
		note B_, 1
		octave 5
		note E_, 1
		note B_, 1
		note E_, 1
		octave 4
		note B_, 1
		octave 5
		note E_, 1
		note B_, 1
		note E_, 1
		octave 4
		note B_, 1
		octave 5
		note E_, 1
		note B_, 1
		note E_, 1
		octave 4
		note B_, 1
		octave 5
		note E_, 1
		note B_, 1
Music_UnovaBattle2_branch_240:
		note E_, 1
		octave 4
		note B_, 1
		octave 5
		note E_, 1
		note B_, 1
		note E_, 1
		octave 4
		note B_, 1
		octave 5
		note E_, 1
		note B_, 1
		note E_, 1
		octave 4
		note B_, 1
		octave 5
		note E_, 1
		note B_, 1
		octave 4
		octave 5
		note E_, 12
Music_UnovaBattle2_branch_241:
		octave 4
		octave 5
		octave 4
		octave 3
		octave 4
		note E_, 16
Music_UnovaBattle2_branch_242:
		octave 3
		octave 4
		note __, 16
Music_UnovaBattle2_branch_243:
		note __, 16
Music_UnovaBattle2_branch_244:
		octave 5
		note F_, 12
Music_UnovaBattle2_branch_245:
		octave 4
		octave 5
		octave 4
		note F_, 16
Music_UnovaBattle2_branch_246:
		note __, 16
Music_UnovaBattle2_branch_247:
		note __, 12
Music_UnovaBattle2_branch_248:
		octave 3
		note A#, 1
		octave 4
		note C_, 1
		octave 3
		octave 4
		octave 3
		octave 4
		note D_, 1
		octave 3
		octave 4
		octave 3
		octave 4
		note E_, 1
		octave 3
		octave 4
		octave 3
		octave 4
		note F_, 16
Music_UnovaBattle2_branch_249:
		octave 3
		octave 4
		octave 3
		octave 4
		note F_, 1
		octave 3
		octave 4
		note __, 1
		octave 3
		octave 4
		note C_, 6
		octave 3
		octave 4
		octave 3
		octave 4
		note F_, 1
		octave 3
		octave 4
		note __, 3
Music_UnovaBattle2_branch_250:
		octave 5
		note C_, 1
		octave 4
		octave 5
		note __, 3
		octave 4
		octave 5
		note C_, 1
		octave 4
		octave 5
		note __, 1
		octave 4
		octave 5
		note C#, 16
Music_UnovaBattle2_branch_251:
		note C#, 12
Music_UnovaBattle2_branch_252:
		octave 4
		octave 5
		octave 4
		note __, 1
		note __, 1
		octave 3
		octave 4
		note F_, 16
Music_UnovaBattle2_branch_253:
		octave 3
		octave 4
		octave 3
		octave 4
		note F_, 1
		octave 3
		octave 4
		note __, 1
		octave 3
		octave 4
		note C_, 6
		octave 3
		octave 4
		octave 3
		octave 4
		note F_, 1
		octave 3
		octave 4
		note __, 3
Music_UnovaBattle2_branch_254:
		octave 5
		note C_, 1
		octave 4
		octave 5
		note __, 3
		octave 4
		octave 5
		note C_, 1
		octave 4
		octave 5
		note __, 1
		octave 3
		octave 4
		note A#, 16
Music_UnovaBattle2_branch_255:
		note A#, 10
Music_UnovaBattle2_branch_256:
		octave 3
		octave 4
		octave 3
		octave 4
		note C#, 1
		octave 3
		octave 4
		octave 3
		octave 4
		note D#, 1
		octave 3
		octave 4
		octave 3
		octave 4
		note F_, 1
		octave 3
		octave 4
		octave 3
		octave 4
		note G_, 1
		octave 3
		octave 4
		octave 3
		octave 4
		note G#, 16
Music_UnovaBattle2_branch_257:
		octave 3
		octave 4
		octave 3
		octave 4
		note F_, 8
		octave 3
		octave 4
		octave 5
		note C_, 4
Music_UnovaBattle2_branch_258:
		octave 4
		octave 5
		octave 3
		octave 4
		note G#, 4
		octave 3
		octave 4
		octave 3
		octave 4
		note G_, 6
		octave 3
		octave 4
		octave 3
		octave 4
		note A#, 16
Music_UnovaBattle2_branch_259:
		note A#, 10
Music_UnovaBattle2_branch_260:
		octave 3
		octave 4
		octave 3
		octave 4
		note G#, 16
Music_UnovaBattle2_branch_261:
		octave 3
		octave 4
		octave 3
		octave 4
		note F_, 8
		octave 3
		octave 4
		octave 5
		note C_, 4
Music_UnovaBattle2_branch_262:
		octave 4
		octave 5
		octave 3
		octave 4
		note G#, 4
		octave 3
		octave 4
		octave 3
		octave 4
		note A#, 6
		octave 3
		octave 4
		octave 5
		note D#, 16
Music_UnovaBattle2_branch_263:
		note D#, 10
Music_UnovaBattle2_branch_264:
		octave 4
		octave 5
		note __, 16
Music_UnovaBattle2_branch_265:
		note __, 16
Music_UnovaBattle2_branch_266:
		note __, 16
Music_UnovaBattle2_branch_267:
		note __, 16
Music_UnovaBattle2_branch_268:
		octave 3
		note D#, 1
		note __, 1
		octave 4
		note D#, 1
		octave 3
		octave 4
		note __, 1
		octave 3
		octave 4
		note D#, 1
		octave 3
		octave 4
		note __, 1
		octave 3
		note D#, 1
		note __, 1
		octave 4
		note E_, 1
		octave 3
		octave 4
		note __, 1
		octave 3
		octave 4
		note E_, 1
		octave 3
		octave 4
		note __, 1
Music_UnovaBattle2_branch_269:
		octave 3
		note D#, 1
		note __, 1
		octave 4
		note F#, 1
		note __, 1
		note F#, 1
		note __, 1
		octave 3
		note D#, 1
		note __, 1
		octave 4
		note G_, 1
		note __, 1
		note G_, 1
		note __, 3
		octave 3
		note D#, 1
		note __, 1
Music_UnovaBattle2_branch_270:
		note C#, 1
		note __, 1
		note D#, 1
		note __, 1
		note D#, 1
		note __, 1
		octave 4
		note D#, 1
		octave 3
		octave 4
		note __, 1
		octave 3
		octave 4
		note D#, 1
		octave 3
		octave 4
		note __, 1
		octave 3
		note D#, 1
		note __, 1
		octave 4
		note E_, 1
		octave 3
		octave 4
		note __, 1
		octave 3
		octave 4
		note E_, 1
		octave 3
		octave 4
		note __, 1
Music_UnovaBattle2_branch_271:
		octave 3
		note D#, 1
		note __, 1
		octave 4
		note F#, 1
		note __, 1
		note F#, 1
		note __, 1
		octave 3
		note D#, 1
		note __, 1
		octave 4
		note G_, 1
		note __, 1
		note G_, 1
		note __, 9
Music_UnovaBattle2_branch_272:
		octave 3
		note E_, 1
		note __, 1
		octave 4
		note E_, 1
		octave 3
		octave 4
		note __, 1
		octave 3
		octave 4
		note E_, 1
		octave 3
		octave 4
		note __, 1
		octave 3
		note E_, 1
		note __, 1
		octave 4
		note F_, 1
		note __, 1
		note F_, 1
		note __, 1
Music_UnovaBattle2_branch_273:
		octave 3
		note E_, 1
		note __, 1
		octave 4
		note G_, 1
		note __, 1
		note G_, 1
		note __, 1
		octave 3
		note E_, 1
		note __, 1
		octave 4
		note G#, 1
		note __, 1
		note G#, 1
		note __, 1
		note G#, 1
		note __, 1
		octave 3
		note E_, 1
		note __, 1
Music_UnovaBattle2_branch_274:
		note C#, 1
		note __, 1
		note E_, 1
		note __, 1
		note D#, 1
		note __, 1
		octave 4
		note D#, 1
		octave 3
		octave 4
		note __, 1
		octave 3
		octave 4
		note D_, 1
		octave 3
		octave 4
		note __, 1
		octave 3
		note D#, 1
		note __, 1
		octave 4
		note F_, 1
		note __, 1
		octave 3
		octave 4
		note E_, 1
		octave 3
		octave 4
		note __, 1
Music_UnovaBattle2_branch_275:
		octave 3
		note D#, 1
		note __, 1
		octave 4
		note F#, 1
		note __, 1
		note F_, 1
		note __, 1
		octave 3
		note A#, 1
		note __, 1
		octave 4
		note F#, 1
		note __, 1
		note G_, 1
		note __, 1
		octave 3
		note D#, 8
Music_UnovaBattle2_branch_276:
		octave 2
		note G_, 6
		note A#, 16
Music_UnovaBattle2_branch_277:
		note A#, 2
		octave 3
		note C#, 8
Music_UnovaBattle2_branch_278:
		octave 2
		note B_, 12
Music_UnovaBattle2_branch_279:
		note A#, 4
		note G#, 12
Music_UnovaBattle2_branch_280:
		note G_, 4
		note G#, 4
		note A#, 16
Music_UnovaBattle2_branch_281:
		note A#, 4
		octave 3
		note C#, 4
Music_UnovaBattle2_branch_282:
		note D_, 4
		note D#, 16
Music_UnovaBattle2_branch_283:
		note D#, 8
		note D_, 8
Music_UnovaBattle2_branch_284:
		octave 4
		note C#, 2
		octave 3
		octave 4
		octave 3
		octave 4
		note C_, 2
		octave 3
		octave 4
		octave 3
		octave 4
		note C#, 2
		octave 3
		octave 4
		octave 3
		octave 4
		note F_, 10
Music_UnovaBattle2_branch_285:
		octave 3
		octave 4
		octave 3
		octave 4
		note C#, 8
		octave 3
		octave 4
		octave 2
		octave 3
		note G#, 2
		octave 2
		octave 3
		octave 4
		note C#, 2
Music_UnovaBattle2_branch_286:
		octave 3
		octave 4
		octave 3
		octave 4
		note G#, 2
		octave 3
		octave 4
		octave 3
		octave 4
		note F_, 2
		octave 3
		octave 4
		octave 3
		octave 4
		note D#, 6
		octave 3
		octave 4
		octave 2
		octave 3
		note A#, 10
Music_UnovaBattle2_branch_287:
		octave 2
		octave 3
		octave 4
		note G_, 2
		octave 3
		octave 4
		octave 3
		octave 4
		note F_, 2
		octave 3
		octave 4
		octave 3
		octave 4
		note G_, 2
		octave 3
		octave 4
		octave 3
		octave 4
		note A#, 6
Music_UnovaBattle2_branch_288:
		octave 3
		octave 4
		note __, 4
		octave 3
		octave 4
		note C#, 2
		octave 3
		octave 4
		note __, 4
		octave 3
		octave 4
		note F_, 6
Music_UnovaBattle2_branch_289:
		octave 3
		octave 4
		octave 3
		octave 4
		note C#, 3
		octave 3
		octave 4
		note __, 1
		octave 2
		octave 3
		note G#, 6
		octave 2
		octave 3
		octave 2
		note C#, 2
		octave 3
		note G#, 2
		octave 2
		octave 3
		octave 4
		note C#, 2
Music_UnovaBattle2_branch_290:
		octave 3
		octave 4
		octave 3
		octave 4
		note G#, 2
		octave 3
		octave 4
		octave 3
		octave 4
		note F_, 2
		octave 3
		octave 4
		octave 3
		octave 4
		note D#, 6
		octave 3
		octave 4
		octave 2
		octave 3
		note A#, 6
Music_UnovaBattle2_branch_291:
		octave 2
		octave 3
		octave 4
		note D#, 4
		octave 3
		octave 4
		octave 3
		octave 4
		note G_, 2
		octave 3
		octave 4
		octave 3
		octave 4
		note F_, 2
		octave 3
		octave 4
		octave 3
		octave 4
		note G_, 6
		octave 3
		octave 4
		octave 3
		octave 4
		note A#, 2
Music_UnovaBattle2_branch_292:
		octave 3
		octave 4
		note __, 4
		octave 3
		octave 4
		note F_, 2
		octave 3
		octave 4
		note __, 4
		octave 3
		octave 4
		note C_, 6
Music_UnovaBattle2_branch_293:
		octave 3
		octave 4
		octave 3
		octave 4
		note F_, 4
		octave 3
		octave 4
		octave 3
		octave 4
		note A_, 16
Music_UnovaBattle2_branch_294:
		octave 3
		octave 4
		octave 3
		octave 4
		note G_, 2
		octave 3
		octave 4
		note __, 4
		octave 3
		octave 4
		note D_, 6
Music_UnovaBattle2_branch_295:
		octave 3
		octave 4
		octave 3
		octave 4
		note G_, 3
		octave 3
		octave 4
		note __, 1
		octave 3
		octave 4
		note G_, 2
		octave 3
		octave 4
		octave 3
		octave 4
		note B_, 14
Music_UnovaBattle2_branch_296:
		octave 3
		octave 4
		octave 3
		octave 4
		note A_, 2
		octave 3
		octave 4
		note __, 4
		octave 3
		octave 4
		note E_, 6
Music_UnovaBattle2_branch_297:
		octave 3
		octave 4
		octave 3
		octave 4
		note A_, 4
		octave 3
		octave 4
		octave 5
		note C#, 16
Music_UnovaBattle2_branch_298:
		octave 4
		octave 5
		octave 3
		octave 4
		note E_, 2
		octave 3
		octave 4
		octave 3
		octave 4
		note E_, 4
		octave 3
		octave 4
		octave 3
		octave 4
		note C#, 6
Music_UnovaBattle2_branch_299:
		octave 3
		octave 4
		octave 3
		octave 4
		note E_, 4
		octave 3
		octave 4
		octave 3
		octave 4
		note A_, 16
Music_UnovaBattle2_branch_300:
		octave 3
		octave 4
		octave 3
		note E_, 2
		note __, 4
		note G_, 6
Music_UnovaBattle2_branch_301:
		note A_, 4
		octave 4
		note C#, 6
		octave 3
		octave 4
		octave 3
		octave 4
		note A_, 6
Music_UnovaBattle2_branch_302:
		note A_, 1
		note A#, 1
		note B_, 1
		octave 5
		note C_, 1
		octave 3
		octave 4
		octave 5
		octave 4
		octave 5
		note C#, 1
		octave 4
		octave 5
		note __, 1
		octave 4
		octave 5
		note C#, 1
		octave 4
		octave 5
		note __, 1
		octave 4
		octave 5
		note D_, 4
		octave 4
		octave 5
		octave 4
		octave 5
		note C#, 1
		octave 4
		octave 5
		note __, 1
		octave 4
		octave 5
		note C#, 1
		octave 4
		octave 5
		note __, 1
Music_UnovaBattle2_branch_303:
		octave 4
		octave 5
		note E_, 4
		octave 4
		octave 5
		octave 4
		octave 5
		note C#, 1
		octave 4
		octave 5
		note __, 1
		octave 4
		octave 5
		note C#, 1
		octave 4
		octave 5
		note __, 1
		octave 4
		octave 5
		note F#, 4
		octave 4
		octave 5
		octave 4
		octave 5
		note C#, 1
		octave 4
		octave 5
		note __, 1
		octave 4
		octave 5
		note C#, 1
		octave 4
		octave 5
		note __, 1
Music_UnovaBattle2_branch_304:
		note G_, 4
		octave 4
		octave 5
		note D#, 1
		octave 4
		octave 5
		note __, 1
		octave 4
		octave 5
		note D#, 1
		octave 4
		octave 5
		note __, 1
		octave 4
		octave 5
		note E_, 4
		octave 4
		octave 5
		octave 4
		octave 5
		note D#, 1
		octave 4
		octave 5
		note __, 1
		octave 4
		octave 5
		note D#, 1
		octave 4
		octave 5
		note __, 1
Music_UnovaBattle2_branch_305:
		octave 4
		octave 5
		note F#, 4
		octave 4
		octave 5
		octave 4
		octave 5
		note D#, 1
		octave 4
		octave 5
		note __, 1
		octave 4
		octave 5
		note D#, 1
		octave 4
		octave 5
		note __, 1
		note G#, 4
		octave 4
		octave 5
		note D#, 1
		octave 4
		octave 5
		note __, 1
		octave 4
		octave 5
		note D#, 1
		octave 4
		octave 5
		note __, 1
Music_UnovaBattle2_branch_306:
		note G#, 1
		note __, 1
		note A_, 2
		octave 4
		note G#, 2
		octave 3
		octave 2
		note G#, 13
Music_UnovaBattle2_branch_307:
		octave 4
		octave 2
		octave 3
		octave 1
		octave 2
		octave 3
		note G#, 16
Music_UnovaBattle2_branch_308:
		octave 1
		octave 2
		octave 3
		octave 2
		octave 3
		octave 4
		note A_, 16
Music_UnovaBattle2_branch_309:
		octave 2
		octave 3
		octave 4
		octave 1
		octave 2
		octave 3
		octave 4
		octave 5
		note C#, 6
		octave 4
		octave 5
		octave 4
		note B_, 6
		note A_, 4
Music_UnovaBattle2_branch_310:
		octave 1
		octave 2
		octave 3
		octave 4
		octave 2
		octave 3
		octave 4
		note B_, 16
Music_UnovaBattle2_branch_311:
		octave 2
		octave 3
		octave 4
		octave 1
		octave 2
		octave 3
		note B_, 16
Music_UnovaBattle2_branch_312:
		octave 1
		octave 2
		octave 3
		octave 2
		octave 4
		note B_, 2
		octave 2
		octave 4
		octave 3
		octave 4
		octave 5
		note C#, 12
Music_UnovaBattle2_branch_313:
		note F_, 1
		note D#, 1
		octave 3
		octave 4
		octave 5
		octave 2
		octave 3
		octave 5
		note G#, 1
		note __, 1
		note G#, 1
		note __, 2
		note G#, 1
		note __, 1
		note G#, 1
		note __, 1
		octave 2
		octave 3
		octave 4
		octave 5
		note C#, 1
		octave 3
		octave 4
		octave 5
		note __, 1
		octave 3
		octave 4
		octave 5
		note C#, 1
		octave 3
		octave 4
		octave 5
		note __, 1
Music_UnovaBattle2_branch_314:
		octave 3
		octave 4
		octave 5
		note C#, 1
		octave 3
		octave 4
		octave 5
		note __, 1
		octave 3
		octave 4
		octave 5
		note C#, 1
		octave 3
		octave 4
		octave 5
		note __, 1
		octave 3
		octave 4
		octave 5
		note C#, 1
		octave 3
		octave 4
		octave 5
		note __, 1
		octave 3
		octave 4
		octave 5
		note C#, 1
		octave 3
		octave 4
		octave 5
		note __, 1
		octave 2
		note F_, 1
		note __, 1
		note F#, 4
		note F_, 1
		note __, 1
Music_UnovaBattle2_branch_315:
		note F_, 1
		note __, 1
		note G#, 4
		note F_, 1
		note __, 1
		note F_, 1
		note __, 1
		note A#, 4
		note F_, 1
		note __, 1
Music_UnovaBattle2_branch_316:
		note F_, 1
		note __, 1
		note B_, 4
		note F_, 1
		note __, 1
		note F_, 1
		note __, 1
		note F#, 4
		note F_, 1
		note __, 1
Music_UnovaBattle2_branch_317:
		note F_, 1
		note __, 1
		note G#, 4
		note F_, 1
		note __, 1
		note F_, 1
		note __, 1
		note A#, 4
		note F_, 1
		note __, 1
Music_UnovaBattle2_branch_318:
		note F_, 1
		note __, 1
		note B_, 4
		note __, 16
Music_UnovaBattle2_branch_319:
		dutycycle 4
		note __, 16
Music_UnovaBattle2_branch_320:
		note __, 16
Music_UnovaBattle2_branch_321:
		note __, 16
Music_UnovaBattle2_branch_322:
		octave 1
		note __, 2
		note E_, 1
		note __, 1
		note B_, 4
		note __, 2
Music_UnovaBattle2_branch_323:
		note E_, 1
		note __, 1
		octave 2
		note C_, 4
		octave 1
		note __, 2
		note E_, 1
		note __, 1
		note B_, 4
		note __, 2
Music_UnovaBattle2_branch_324:
		note E_, 1
		note __, 1
		note D#, 4
		note __, 16
Music_UnovaBattle2_branch_325:
		note __, 16
Music_UnovaBattle2_branch_326:
		note __, 2
		note F_, 1
		note __, 1
		octave 2
		note C_, 4
		octave 1
		note __, 2
Music_UnovaBattle2_branch_327:
		note F_, 1
		note __, 1
		octave 2
		note C#, 4
		octave 1
		note __, 2
		note F_, 1
		note __, 1
		octave 2
		note C_, 4
		octave 1
		note __, 2
Music_UnovaBattle2_branch_328:
		note F_, 1
		note __, 1
		note E_, 4
		note A_, 14
Music_UnovaBattle2_branch_329:
		note G_, 1
		note F#, 1
		note __, 2
		octave 2
		note C_, 6
		octave 1
		note A_, 1
		note __, 3
Music_UnovaBattle2_branch_330:
		note F_, 1
		note __, 3
		octave 2
		note C#, 1
		note __, 1
		octave 1
		note A#, 14
Music_UnovaBattle2_branch_331:
		note G#, 1
		note __, 1
		note F#, 14
Music_UnovaBattle2_branch_332:
		note A_, 14
Music_UnovaBattle2_branch_333:
		note F_, 1
		note G_, 1
		note __, 2
		octave 2
		note C_, 6
		octave 1
		note A_, 1
		note __, 3
Music_UnovaBattle2_branch_334:
		note F_, 1
		note __, 3
		note G_, 1
		note __, 1
		note A#, 14
Music_UnovaBattle2_branch_335:
		octave 2
		note C_, 1
		note __, 1
		octave 1
		note A#, 12
Music_UnovaBattle2_branch_336:
		note __, 2
		note G#, 2
		note __, 4
		note G#, 1
		note __, 9
Music_UnovaBattle2_branch_337:
		note C#, 2
		note __, 4
		note C#, 1
		note __, 9
Music_UnovaBattle2_branch_338:
		note D#, 2
		note __, 4
		note D#, 1
		note __, 9
Music_UnovaBattle2_branch_339:
		note G_, 2
		note __, 2
		note F_, 2
		note __, 2
		note D#, 2
Music_UnovaBattle2_branch_340:
		note __, 2
		note C#, 2
		note __, 2
		note G#, 2
		note __, 4
		note C#, 1
		note __, 9
Music_UnovaBattle2_branch_341:
		note F_, 2
		note __, 4
		note G#, 1
		note __, 9
Music_UnovaBattle2_branch_342:
		note D#, 2
		note __, 4
		note D#, 1
		note __, 9
Music_UnovaBattle2_branch_343:
		note D#, 2
		note __, 2
		note C#, 2
		note __, 2
		note G_, 2
Music_UnovaBattle2_branch_344:
		note F_, 2
		note __, 16
Music_UnovaBattle2_branch_345:
		note __, 16
Music_UnovaBattle2_branch_346:
		note __, 16
Music_UnovaBattle2_branch_347:
		note __, 16
Music_UnovaBattle2_branch_348:
		note __, 4
		octave 6
		note __, 4
		octave 5
		note __, 4
		octave 6
		note __, 4
Music_UnovaBattle2_branch_349:
		octave 5
		note __, 4
		octave 6
		note __, 4
		octave 5
		note __, 4
		octave 6
		note __, 4
Music_UnovaBattle2_branch_350:
		octave 5
		note __, 4
		octave 6
		note __, 4
		octave 5
		note __, 4
		octave 6
		note __, 4
Music_UnovaBattle2_branch_351:
		octave 5
		note __, 4
		octave 6
		note __, 4
		octave 5
		note __, 4
		octave 6
		note __, 4
Music_UnovaBattle2_branch_352:
		octave 5
		note __, 2
		octave 4
		octave 5
		note D_, 1
		octave 4
		octave 5
		octave 4
		octave 5
		note D#, 1
		octave 4
		octave 5
		octave 4
		octave 5
		note E_, 1
		octave 4
		octave 5
		note __, 1
		octave 4
		octave 5
		note E_, 1
		octave 4
		octave 5
		note __, 1
		octave 4
		octave 5
		note E_, 1
		octave 4
		octave 5
		note __, 3
		octave 4
		octave 5
		note F_, 1
		octave 4
		octave 5
		note __, 1
Music_UnovaBattle2_branch_353:
		octave 4
		octave 5
		note F_, 1
		octave 4
		octave 5
		note __, 3
		octave 4
		octave 5
		note G_, 1
		octave 4
		octave 5
		note __, 1
		octave 4
		octave 5
		note G_, 1
		octave 4
		octave 5
		note __, 3
		octave 4
		octave 5
		note G#, 1
		octave 4
		octave 5
		note __, 1
		octave 4
		octave 5
		note G#, 1
		octave 4
		octave 5
		note __, 1
		octave 4
		octave 5
		note G#, 1
		octave 4
		octave 5
		note __, 9
Music_UnovaBattle2_branch_354:
		note D#, 1
		note __, 1
		note D_, 1
		note __, 3
		note F_, 1
		note __, 1
Music_UnovaBattle2_branch_355:
		note E_, 1
		note __, 3
		note F#, 1
		note __, 1
		note F_, 1
		note __, 1
		octave 4
		note A#, 1
		note __, 1
		octave 5
		note F#, 1
		note __, 1
		note G_, 1
		note __, 16
Music_UnovaBattle2_branch_356:
		note __, 16
Music_UnovaBattle2_branch_357:
		note __, 16
Music_UnovaBattle2_branch_358:
		note __, 16
Music_UnovaBattle2_branch_359:
		note __, 16
Music_UnovaBattle2_branch_360:
		note __, 16
Music_UnovaBattle2_branch_361:
		note __, 16
Music_UnovaBattle2_branch_362:
		note __, 16
Music_UnovaBattle2_branch_363:
		note __, 16
Music_UnovaBattle2_branch_364:
		note __, 16
Music_UnovaBattle2_branch_365:
		note __, 16
Music_UnovaBattle2_branch_366:
		note __, 16
Music_UnovaBattle2_branch_367:
		note __, 16
Music_UnovaBattle2_branch_368:
		note __, 16
Music_UnovaBattle2_branch_369:
		note __, 16
Music_UnovaBattle2_branch_370:
		note __, 16
Music_UnovaBattle2_branch_371:
		note __, 16
Music_UnovaBattle2_branch_372:
		note __, 16
Music_UnovaBattle2_branch_373:
		note __, 9
Music_UnovaBattle2_branch_374:
		octave 3
		note B_, 16
Music_UnovaBattle2_branch_375:
		note G_, 8
		octave 4
		note D_, 4
Music_UnovaBattle2_branch_376:
		octave 3
		note B_, 4
		note A_, 6
		octave 4
		note C#, 16
Music_UnovaBattle2_branch_377:
		note C#, 10
Music_UnovaBattle2_branch_378:
		note __, 16
Music_UnovaBattle2_branch_379:
		note __, 16
Music_UnovaBattle2_branch_380:
		note __, 16
Music_UnovaBattle2_branch_381:
		note __, 16
Music_UnovaBattle2_branch_382:
		note __, 16
Music_UnovaBattle2_branch_383:
		note __, 16
Music_UnovaBattle2_branch_384:
		note __, 16
Music_UnovaBattle2_branch_385:
		note __, 16
Music_UnovaBattle2_branch_386:
		note __, 16
Music_UnovaBattle2_branch_387:
		note __, 16
Music_UnovaBattle2_branch_388:
		note __, 16
Music_UnovaBattle2_branch_389:
		note __, 16
Music_UnovaBattle2_branch_390:
		note __, 16
Music_UnovaBattle2_branch_391:
		note __, 16
Music_UnovaBattle2_branch_392:
		note __, 16
Music_UnovaBattle2_branch_393:
		note __, 16
Music_UnovaBattle2_branch_394:
		note __, 2
		octave 2
		note C_, 2
		note F_, 2
		note F#, 2
		note F_, 2
Music_UnovaBattle2_branch_395:
		note C_, 2
		octave 1
		note A_, 2
		note F_, 2
		note F#, 2
		note F_, 2
		octave 2
		note C_, 2
		note C#, 2
		note C_, 2
Music_UnovaBattle2_branch_396:
		octave 1
		note G#, 2
		note A_, 2
		note E_, 2
		note F_, 2
		note B_, 2
		octave 2
		note E_, 2
		note F_, 2
		note E_, 2
Music_UnovaBattle2_branch_397:
		octave 1
		note B_, 2
		note G#, 2
		note E_, 2
		note F_, 2
		note E_, 2
		note B_, 2
		octave 2
		note C_, 2
		octave 1
		note B_, 2
Music_UnovaBattle2_branch_398:
		note G_, 2
		note G#, 2
		note D#, 2
		note B_, 1
		dutycycle 5
		note __, 2
		octave 2
		note B_, 1
		note C_, 1
		note __, 2
		octave 3
		note C_, 1
		octave 2
		note C#, 1
		note __, 2
Music_UnovaBattle2_branch_399:
		octave 3
		note C#, 1
		octave 2
		note D_, 1
		note __, 2
		octave 3
		note D_, 1
		octave 2
		note D#, 1
		note __, 2
		octave 3
		note D#, 1
		octave 2
		note E_, 1
		note __, 2
		octave 3
		note E_, 1
		octave 2
		note F_, 1
		note __, 2
Music_UnovaBattle2_branch_400:
		octave 3
		note F_, 1
		octave 2
		note F#, 1
		note __, 2
		octave 3
		note F#, 1
		octave 2
		note E_, 1
		note __, 16
Music_UnovaBattle2_branch_401:
		note __, 15
Music_UnovaBattle2_branch_402:
		octave 3
		note E_, 1
		note __, 1
		note E_, 1
		note __, 1
		note G_, 4
		note E_, 1
		note __, 1
Music_UnovaBattle2_branch_403:
		note E_, 1
		note __, 1
		note A_, 4
		note E_, 1
		note __, 1
		note E_, 1
		note __, 1
		note A#, 4
		note E_, 1
		note __, 1
Music_UnovaBattle2_branch_404:
		note E_, 1
		note __, 1
		note B_, 4
		note __, 16
Music_UnovaBattle2_branch_405:
		note __, 16
Music_UnovaBattle2_branch_406:
		note F_, 1
		note __, 1
		note F_, 1
		note __, 1
		note G#, 4
		note F_, 1
		note __, 1
Music_UnovaBattle2_branch_407:
		note F_, 1
		note __, 1
		note A#, 4
		note F_, 1
		note __, 1
		note F_, 1
		note __, 1
		note B_, 4
		note F_, 1
		note __, 1
Music_UnovaBattle2_branch_408:
		note F_, 1
		note __, 1
		octave 4
		note C_, 4
		octave 2
		note A_, 15
Music_UnovaBattle2_branch_409:
		note __, 2
		note F_, 5
		note __, 1
		note __, 4
Music_UnovaBattle2_branch_410:
		note __, 4
		note __, 2
		note F#, 14
Music_UnovaBattle2_branch_411:
		octave 3
		note __, 2
		octave 2
		note A#, 10
Music_UnovaBattle2_branch_412:
		note __, 2
		note A_, 1
		note A#, 1
		octave 3
		note C_, 14
Music_UnovaBattle2_branch_413:
		octave 2
		note B_, 1
		note A#, 1
		note __, 2
		note F_, 6
		octave 3
		note __, 4
Music_UnovaBattle2_branch_414:
		note __, 4
		note D#, 1
		note __, 1
		note C#, 14
Music_UnovaBattle2_branch_415:
		octave 2
		note D#, 1
		note __, 1
		note G_, 11
Music_UnovaBattle2_branch_416:
		note __, 1
		note G#, 6
		note C#, 6
		note F_, 4
Music_UnovaBattle2_branch_417:
		note G#, 6
		note F_, 6
		note G#, 4
Music_UnovaBattle2_branch_418:
		note A#, 6
		note G_, 6
		note G#, 4
Music_UnovaBattle2_branch_419:
		octave 3
		note D#, 6
		octave 2
		note A#, 6
		octave 3
		note G_, 4
Music_UnovaBattle2_branch_420:
		note F_, 6
		note C#, 6
		note F_, 4
Music_UnovaBattle2_branch_421:
		note G#, 6
		note F_, 6
		note G#, 4
Music_UnovaBattle2_branch_422:
		note A#, 6
		note G_, 6
		note G#, 4
Music_UnovaBattle2_branch_423:
		note A#, 6
		note B_, 2
		note G_, 8
Music_UnovaBattle2_branch_424:
		note __, 16
Music_UnovaBattle2_branch_425:
		note __, 16
Music_UnovaBattle2_branch_426:
		note __, 16
Music_UnovaBattle2_branch_427:
		note __, 16
Music_UnovaBattle2_branch_428:
		octave 4
		note __, 2
		note __, 2
		octave 5
		note __, 2
		octave 4
		note __, 2
		octave 5
		note __, 2
		octave 4
		note __, 2
		octave 5
		note __, 2
Music_UnovaBattle2_branch_429:
		octave 4
		note __, 2
		octave 5
		note __, 2
		octave 4
		note __, 2
		octave 5
		note __, 2
		octave 4
		note __, 2
		note D#, 1
		note __, 1
		note D#, 1
		note __, 1
		note C#, 1
Music_UnovaBattle2_branch_430:
		note __, 1
		note D#, 1
		note __, 1
		octave 3
		note A#, 1
		note __, 1
		octave 4
		note __, 2
		octave 5
		note __, 2
		octave 4
		note __, 2
		octave 5
		note __, 2
		octave 4
		note __, 2
		octave 5
		note __, 2
Music_UnovaBattle2_branch_431:
		octave 4
		note __, 2
		octave 5
		note __, 2
		octave 4
		note __, 2
		octave 5
		note __, 2
		octave 4
		note __, 2
		octave 5
		note __, 2
		octave 4
		note __, 2
		note __, 2
Music_UnovaBattle2_branch_432:
		note __, 16
Music_UnovaBattle2_branch_433:
		note __, 12
		note E_, 1
		note __, 1
		note C#, 1
Music_UnovaBattle2_branch_434:
		note __, 1
		note E_, 1
		note __, 1
		note D#, 1
		note __, 16
Music_UnovaBattle2_branch_435:
		note __, 16
Music_UnovaBattle2_branch_436:
		note __, 7
		octave 3
		octave 4
		note D#, 1
		octave 3
		octave 4
		note F_, 1
		octave 3
		octave 4
		note G#, 1
		octave 3
		octave 4
		note F_, 1
		octave 3
		octave 4
		note G_, 15
Music_UnovaBattle2_branch_437:
		octave 3
		octave 4
		note G#, 7
Music_UnovaBattle2_branch_438:
		octave 3
		octave 2
		octave 4
		octave 3
		note B_, 3
		octave 2
		octave 3
		octave 4
		note C_, 3
		octave 3
		octave 4
		note C#, 11
Music_UnovaBattle2_branch_439:
		octave 3
		octave 4
		note E_, 3
		octave 3
		octave 4
		note G_, 7
Music_UnovaBattle2_branch_440:
		octave 3
		octave 4
		note D#, 3
		octave 3
		octave 4
		note F_, 3
		octave 3
		octave 4
		note G_, 7
		octave 3
		octave 4
		note G_, 1
		octave 3
		octave 4
		note F_, 1
		octave 3
		octave 4
		note D#, 1
Music_UnovaBattle2_branch_441:
		octave 3
		octave 4
		note F_, 1
		octave 3
		octave 4
		note G_, 7
		octave 3
		octave 4
		note D#, 1
		octave 3
		octave 4
		note F_, 1
		octave 3
		octave 4
		note A#, 1
		octave 3
		octave 4
		note G#, 1
		octave 3
		octave 4
		note G_, 11
Music_UnovaBattle2_branch_442:
		octave 3
		octave 4
		octave 3
		note A_, 4
		octave 4
		note C#, 2
		note C_, 2
		note C#, 2
Music_UnovaBattle2_branch_443:
		note F_, 10
		note C#, 8
Music_UnovaBattle2_branch_444:
		octave 3
		note G#, 2
		octave 4
		note C#, 2
		note G#, 2
		note F_, 2
		note D#, 6
Music_UnovaBattle2_branch_445:
		octave 3
		note A#, 10
		octave 4
		note G_, 2
		note F_, 2
		note G_, 2
Music_UnovaBattle2_branch_446:
		note A#, 4
		octave 3
		note G_, 2
		note A#, 2
		note D#, 2
		octave 4
		note C#, 2
		note __, 4
Music_UnovaBattle2_branch_447:
		note F_, 6
		note C#, 4
		octave 3
		note G#, 6
Music_UnovaBattle2_branch_448:
		note __, 2
		note G#, 2
		octave 4
		note C#, 2
		note G#, 2
		note F_, 2
		note D#, 6
Music_UnovaBattle2_branch_449:
		octave 3
		note A#, 6
		octave 4
		note D#, 4
		note G_, 2
		note F_, 2
		note G_, 6
Music_UnovaBattle2_branch_450:
		note A#, 2
		note __, 4
		note F_, 2
		note __, 4
Music_UnovaBattle2_branch_451:
		note C_, 6
		note F_, 4
		note A_, 6
Music_UnovaBattle2_branch_452:
		octave 5
		note C_, 1
		note C_, 1
		octave 4
		note A_, 2
		note F_, 2
		note C_, 2
		octave 3
		note A_, 2
		octave 4
		note G_, 2
		note __, 4
Music_UnovaBattle2_branch_453:
		note D_, 6
		note G_, 3
		note __, 1
		note G_, 2
		note B_, 4
Music_UnovaBattle2_branch_454:
		octave 5
		note D_, 1
		note D_, 1
		octave 4
		note B_, 2
		note G_, 2
		note D_, 2
		octave 3
		note B_, 2
		octave 4
		note A_, 2
		note __, 4
Music_UnovaBattle2_branch_455:
		note E_, 6
		note A_, 4
		octave 5
		note C#, 8
Music_UnovaBattle2_branch_456:
		octave 4
		note C#, 2
		note E_, 6
		note __, 6
Music_UnovaBattle2_branch_457:
		octave 3
		note C#, 1
		note __, 5
		note E_, 1
		note __, 3
		note A_, 15
Music_UnovaBattle2_branch_458:
		note __, 1
		note E_, 2
		note __, 4
Music_UnovaBattle2_branch_459:
		note G_, 6
		note A_, 4
		note A#, 14
Music_UnovaBattle2_branch_460:
		note B_, 1
		octave 4
		note C_, 1
		octave 3
		octave 4
		note C#, 1
		octave 3
		octave 4
		note __, 1
		octave 3
		octave 4
		note C#, 1
		octave 3
		octave 4
		note __, 1
		octave 3
		octave 4
		note D_, 4
Music_UnovaBattle2_branch_461:
		octave 3
		octave 4
		octave 3
		octave 4
		note C#, 1
		octave 3
		octave 4
		note __, 1
		octave 3
		octave 4
		note C#, 1
		octave 3
		octave 4
		note __, 1
		octave 3
		octave 4
		note E_, 4
		octave 3
		octave 4
		octave 3
		octave 4
		note C#, 1
		octave 3
		octave 4
		note __, 1
		octave 3
		octave 4
		note C#, 1
		octave 3
		octave 4
		note __, 1
		octave 3
		octave 4
		note F#, 4
Music_UnovaBattle2_branch_462:
		octave 3
		octave 4
		octave 3
		octave 4
		note C#, 1
		octave 3
		octave 4
		note __, 1
		octave 3
		octave 4
		note C#, 1
		octave 3
		octave 4
		note __, 1
		note G_, 4
		octave 3
		octave 4
		note D#, 1
		octave 3
		octave 4
		note __, 1
		octave 3
		octave 4
		note D#, 1
		octave 3
		octave 4
		note __, 1
		octave 3
		octave 4
		note E_, 4
Music_UnovaBattle2_branch_463:
		octave 3
		octave 4
		octave 3
		octave 4
		note D#, 1
		octave 3
		octave 4
		note __, 1
		octave 3
		octave 4
		note D#, 1
		octave 3
		octave 4
		note __, 1
		octave 3
		octave 4
		note F#, 4
		octave 3
		octave 4
		octave 3
		octave 4
		note D#, 1
		octave 3
		octave 4
		note __, 1
		octave 3
		octave 4
		note D#, 1
		octave 3
		octave 4
		note __, 1
		note G#, 4
Music_UnovaBattle2_branch_464:
		octave 3
		octave 4
		note D#, 1
		octave 3
		octave 4
		note __, 1
		octave 3
		octave 4
		note D#, 1
		octave 3
		octave 4
		note __, 1
		note G#, 1
		note __, 1
		note A_, 2
		octave 2
		octave 3
		octave 4
		note G#, 2
		note G#, 8
Music_UnovaBattle2_branch_465:
		note __, 5
		octave 2
		octave 3
		octave 1
		octave 2
		note G#, 16
Music_UnovaBattle2_branch_466:
		octave 1
		octave 2
		octave 3
		note A_, 16
Music_UnovaBattle2_branch_467:
		octave 2
		octave 3
		octave 4
		note C#, 6
Music_UnovaBattle2_branch_468:
		octave 3
		octave 4
		octave 2
		octave 3
		note B_, 6
		octave 2
		octave 3
		octave 2
		octave 3
		note A_, 4
		octave 2
		octave 3
		octave 2
		octave 3
		note B_, 16
Music_UnovaBattle2_branch_469:
		octave 2
		octave 3
		octave 1
		octave 2
		note B_, 15
Music_UnovaBattle2_branch_470:
		octave 1
		octave 2
		note __, 1
		octave 3
		note F#, 1
		octave 2
		octave 3
		note __, 1
		octave 2
		octave 3
		note F_, 13
Music_UnovaBattle2_branch_471:
		octave 2
		octave 3
		note __, 1
		note C#, 1
		note __, 2
		note __, 1
		note __, 1
		note __, 1
Music_UnovaBattle2_branch_472:
		note __, 1
		octave 2
		note G#, 1
		note __, 2
		note __, 1
		note __, 1
		note __, 1
		note __, 1
		note G#, 2
		note __, 16
Music_UnovaBattle2_branch_473:
		dutycycle 6
		note __, 16
Music_UnovaBattle2_branch_474:
		note __, 16
Music_UnovaBattle2_branch_475:
		note __, 14
Music_UnovaBattle2_branch_476:
		octave 4
		note G#, 1
		note G_, 1
		note F#, 1
		note G_, 1
		note F#, 1
		note F_, 1
		note F#, 1
		note F_, 1
Music_UnovaBattle2_branch_477:
		note E_, 1
		note F_, 1
		note E_, 1
		octave 3
		octave 4
		note D#, 1
		octave 3
		octave 4
		note E_, 1
		octave 3
		octave 4
		note D#, 1
		octave 3
		octave 4
		octave 3
		octave 4
		note D_, 1
		octave 3
		octave 4
		octave 3
		octave 4
		note D#, 1
		octave 3
		octave 4
		octave 3
		octave 4
		note D_, 1
		octave 3
		octave 4
		octave 3
		octave 4
		note C#, 1
		octave 3
		octave 4
		octave 3
		octave 4
		note D_, 1
		octave 3
		octave 4
		octave 3
		octave 4
		note C#, 1
		octave 3
		octave 4
		octave 3
		octave 4
		note C_, 1
		octave 3
		octave 4
		octave 3
		octave 4
		note C#, 1
		octave 3
		octave 4
		octave 3
		octave 4
		note C_, 1
		octave 3
		octave 4
		octave 3
		note B_, 1
Music_UnovaBattle2_branch_478:
		octave 4
		note C_, 1
		octave 3
		octave 4
		octave 3
		note B_, 1
		note A#, 1
		note B_, 1
		note A#, 1
		note B_, 1
		note A#, 1
		note A_, 1
		octave 4
		note G#, 12
Music_UnovaBattle2_branch_479:
		octave 3
		octave 4
		octave 3
		note G#, 16
Music_UnovaBattle2_branch_480:
		octave 2
		octave 3
		note B_, 1
		note __, 1
		note B_, 1
		note __, 1
		octave 4
		note D_, 4
		octave 3
		note B_, 1
		note __, 1
		note B_, 1
		note __, 1
Music_UnovaBattle2_branch_481:
		octave 4
		note E_, 4
		octave 3
		note B_, 1
		note __, 1
		note B_, 1
		note __, 1
		octave 4
		note F_, 4
		octave 3
		note B_, 1
		note __, 1
		note B_, 1
		note __, 1
Music_UnovaBattle2_branch_482:
		octave 4
		note E_, 1
		octave 3
		octave 4
		octave 3
		octave 4
		note F_, 1
		octave 3
		octave 4
		octave 3
		octave 4
		note G_, 1
		octave 3
		octave 4
		octave 3
		octave 4
		note G#, 1
		octave 2
		octave 3
		octave 4
		note A_, 12
Music_UnovaBattle2_branch_483:
		octave 3
		octave 4
		octave 3
		note A_, 16
Music_UnovaBattle2_branch_484:
		octave 4
		note C_, 1
		note __, 1
		note C_, 1
		note __, 1
		note D#, 4
		note C_, 1
		note __, 1
		note C_, 1
		note __, 1
		note F_, 4
Music_UnovaBattle2_branch_485:
		note C_, 1
		note __, 1
		note C_, 1
		note __, 1
		note F#, 4
		note C_, 1
		note __, 1
		note C_, 1
		note __, 1
		note F_, 4
Music_UnovaBattle2_branch_486:
		note C_, 16
Music_UnovaBattle2_branch_487:
		note C_, 1
		note __, 1
		octave 3
		note F_, 6
		octave 4
		note C_, 1
		note __, 3
		note F_, 1
		note __, 3
Music_UnovaBattle2_branch_488:
		note F_, 1
		note __, 1
		note F#, 4
		note A#, 1
		note G#, 1
		note F#, 6
		note F#, 1
		note F_, 1
Music_UnovaBattle2_branch_489:
		note D#, 8
		octave 3
		note A#, 2
		octave 4
		octave 3
		note __, 2
		octave 4
		note __, 2
		note G#, 1
		note __, 1
Music_UnovaBattle2_branch_490:
		note C_, 16
Music_UnovaBattle2_branch_491:
		note C_, 1
		note __, 1
		octave 3
		note F_, 6
		octave 4
		note C_, 1
		note __, 3
		note F_, 1
		note __, 3
Music_UnovaBattle2_branch_492:
		note F_, 1
		note __, 1
		note D#, 4
		note G_, 1
		note F_, 1
		note D#, 6
		note D#, 1
		note D_, 1
Music_UnovaBattle2_branch_493:
		note C_, 8
		octave 3
		note A#, 2
		octave 4
		note C_, 2
		note __, 4
Music_UnovaBattle2_branch_494:
		note C#, 6
		octave 3
		note G#, 1
		octave 4
		note C_, 1
		note F_, 6
		note F_, 1
		note D#, 1
Music_UnovaBattle2_branch_495:
		note C#, 8
		note F_, 4
		note C#, 4
Music_UnovaBattle2_branch_496:
		note D#, 2
		note F_, 2
		note C#, 2
		note D#, 2
		note F_, 2
		note G_, 2
		note G#, 2
		note F_, 2
Music_UnovaBattle2_branch_497:
		note D#, 6
		note D_, 2
		note G_, 6
		note D#, 2
Music_UnovaBattle2_branch_498:
		note C#, 6
		octave 3
		note G#, 1
		octave 4
		note C#, 1
		note F_, 6
		note F_, 1
		note D#, 1
Music_UnovaBattle2_branch_499:
		note C#, 8
		note F_, 4
		note C#, 4
Music_UnovaBattle2_branch_500:
		note D#, 2
		note G_, 2
		note D_, 2
		note D#, 2
		note F_, 6
		note G#, 2
Music_UnovaBattle2_branch_501:
		note G_, 6
		note A#, 2
		note G_, 1
		note F_, 1
		note D#, 1
		note C#, 1
		octave 3
		note B_, 1
		note A#, 1
		note __, 1
		octave 4
		octave 5
		octave 4
		octave 5
		octave 4
		octave 5
		octave 4
		octave 5
		octave 4
		octave 5
		note D#, 5
Music_UnovaBattle2_branch_502:
		octave 3
		octave 4
		octave 5
		octave 3
		octave 4
		octave 5
		note E_, 10
		octave 3
		octave 4
		octave 5
		octave 3
		octave 4
		octave 5
		note C#, 8
Music_UnovaBattle2_branch_503:
		octave 3
		octave 4
		octave 5
		octave 2
		octave 3
		octave 4
		note A#, 2
		octave 2
		octave 3
		octave 4
		octave 3
		octave 4
		octave 5
		note C#, 2
		octave 3
		octave 4
		octave 5
		octave 3
		octave 4
		octave 5
		octave 3
		octave 4
		octave 5
		octave 3
		octave 4
		octave 5
		octave 3
		octave 4
		octave 5
		octave 3
		octave 4
		octave 5
		note G#, 1
		octave 3
		octave 4
		octave 5
		octave 3
		octave 4
		octave 5
		note E_, 2
		octave 3
		octave 4
		octave 5
		octave 3
		octave 4
		octave 5
		note D#, 6
Music_UnovaBattle2_branch_504:
		octave 3
		octave 4
		octave 5
		octave 2
		octave 3
		octave 4
		note A#, 10
		octave 2
		octave 3
		octave 4
		octave 2
		octave 3
		octave 4
		note G_, 8
Music_UnovaBattle2_branch_505:
		octave 2
		octave 3
		octave 4
		octave 2
		octave 3
		octave 4
		octave 5
		note D#, 2
		octave 2
		octave 3
		octave 4
		octave 5
		octave 2
		octave 3
		octave 4
		octave 5
		note A#, 2
		octave 2
		octave 3
		octave 4
		octave 5
		octave 3
		octave 4
		octave 5
		note G_, 1
		octave 3
		octave 4
		octave 5
		octave 3
		octave 4
		octave 5
		note G#, 1
		octave 3
		octave 4
		octave 5
		octave 3
		octave 4
		octave 5
		note E_, 2
		octave 3
		octave 4
		octave 5
		octave 3
		octave 4
		octave 5
		note D#, 2
		octave 3
		octave 4
		octave 5
		note __, 16
Music_UnovaBattle2_branch_506:
		note __, 16
Music_UnovaBattle2_branch_507:
		note __, 16
Music_UnovaBattle2_branch_508:
		note __, 6
Music_UnovaBattle2_branch_509:
		octave 2
		octave 3
		octave 4
		note D#, 2
		octave 2
		octave 3
		octave 4
		octave 2
		octave 3
		octave 4
		note B_, 2
		octave 2
		octave 3
		octave 4
		octave 3
		octave 4
		octave 5
		octave 3
		octave 4
		octave 5
		octave 3
		octave 4
		octave 5
		octave 3
		octave 4
		octave 5
		octave 3
		octave 4
		octave 5
		note G#, 1
		octave 3
		octave 4
		octave 5
		octave 3
		octave 4
		octave 5
		note F_, 2
		octave 3
		octave 4
		octave 5
		octave 3
		octave 4
		octave 5
		note E_, 16
Music_UnovaBattle2_branch_510:
		note E_, 4
Music_UnovaBattle2_branch_511:
		note __, 4
		octave 3
		octave 4
		octave 2
		octave 3
		note G#, 2
		octave 2
		octave 3
		octave 4
		note C#, 2
		octave 3
		octave 4
		octave 3
		octave 4
		note G#, 2
		octave 3
		octave 4
		octave 3
		octave 4
		note E_, 2
		octave 3
		octave 4
		octave 3
		octave 4
		note D#, 6
Music_UnovaBattle2_branch_512:
		octave 3
		octave 4
		octave 2
		octave 3
		note A#, 10
		octave 2
		octave 3
		octave 2
		octave 3
		note G_, 8
Music_UnovaBattle2_branch_513:
		octave 2
		octave 3
		octave 2
		octave 3
		note D#, 2
		octave 2
		octave 3
		octave 2
		octave 3
		note A#, 2
		octave 2
		octave 3
		octave 4
		note G_, 2
		octave 3
		octave 4
		octave 3
		octave 4
		note F_, 2
		octave 3
		octave 4
		octave 3
		octave 4
		note D#, 16
Music_UnovaBattle2_branch_514:
		note D#, 8
Music_UnovaBattle2_branch_515:
		octave 3
		octave 4
		octave 2
		octave 3
		note G_, 2
		octave 2
		octave 3
		octave 2
		octave 3
		note A#, 2
		octave 2
		octave 3
		octave 4
		note G_, 2
		octave 3
		octave 4
		octave 3
		octave 4
		note D#, 2
		octave 3
		octave 4
		octave 3
		octave 4
		note E_, 14
Music_UnovaBattle2_branch_516:
		octave 3
		octave 4
		octave 3
		octave 4
		note D#, 1
		octave 3
		octave 4
		octave 3
		octave 4
		note D_, 1
		octave 3
		octave 4
		octave 3
		octave 4
		note C#, 12
Music_UnovaBattle2_branch_517:
		octave 3
		octave 4
		octave 3
		octave 4
		note E_, 4
		octave 3
		octave 4
		octave 3
		octave 4
		note D#, 16
Music_UnovaBattle2_branch_518:
		note D#, 8
Music_UnovaBattle2_branch_519:
		octave 2
		octave 3
		note __, 1
		octave 2
		octave 3
		octave 4
		note D#, 2
		octave 3
		octave 4
		octave 3
		octave 4
		note G#, 2
		octave 3
		octave 4
		octave 3
		octave 4
		note F_, 2
		octave 3
		octave 4
		octave 3
		octave 4
		note G_, 14
Music_UnovaBattle2_branch_520:
		octave 3
		octave 4
		octave 3
		octave 4
		note G#, 2
		octave 3
		octave 4
		octave 3
		octave 4
		note A#, 12
Music_UnovaBattle2_branch_521:
		octave 3
		octave 4
		note D_, 4
		octave 3
		octave 4
		note C#, 16
Music_UnovaBattle2_branch_522:
		octave 3
		octave 4
		octave 3
		octave 4
		note C#, 1
		octave 3
		octave 4
		note __, 1
		octave 2
		octave 3
		note G#, 6
Music_UnovaBattle2_branch_523:
		octave 2
		octave 3
		octave 4
		note C#, 1
		octave 3
		octave 4
		note __, 3
		octave 3
		octave 4
		note G#, 1
		octave 3
		octave 4
		note __, 3
		octave 3
		octave 4
		note G#, 1
		octave 3
		octave 4
		note __, 1
		octave 3
		octave 4
		note G_, 14
Music_UnovaBattle2_branch_524:
		octave 3
		octave 4
		octave 3
		octave 4
		note F_, 1
		octave 3
		octave 4
		note __, 1
		octave 3
		octave 4
		note G_, 14
Music_UnovaBattle2_branch_525:
		octave 3
		octave 4
		octave 3
		octave 4
		note C#, 16
Music_UnovaBattle2_branch_526:
		octave 3
		octave 4
		octave 3
		octave 4
		note C#, 1
		octave 3
		octave 4
		note __, 1
		octave 2
		octave 3
		note G#, 6
Music_UnovaBattle2_branch_527:
		octave 2
		octave 3
		octave 4
		note C#, 1
		octave 3
		octave 4
		note __, 3
		octave 3
		octave 4
		note G#, 1
		octave 3
		octave 4
		note __, 3
		octave 3
		octave 4
		note G#, 1
		octave 3
		octave 4
		note __, 1
		octave 3
		octave 4
		note A#, 14
Music_UnovaBattle2_branch_528:
		octave 3
		octave 4
		octave 3
		octave 4
		note A#, 1
		octave 3
		octave 4
		note __, 1
		octave 3
		octave 4
		note G_, 14
Music_UnovaBattle2_branch_529:
		octave 3
		octave 4
		octave 3
		octave 4
		note D#, 1
		octave 3
		octave 4
		note __, 1
		octave 3
		octave 4
		note F_, 14
Music_UnovaBattle2_branch_530:
		octave 3
		octave 4
		octave 3
		octave 4
		note F_, 1
		octave 3
		octave 4
		note __, 1
		octave 3
		octave 4
		note C_, 14
Music_UnovaBattle2_branch_531:
		octave 3
		octave 4
		octave 3
		octave 4
		note F_, 1
		octave 3
		octave 4
		note __, 1
		octave 3
		octave 4
		note G_, 14
Music_UnovaBattle2_branch_532:
		octave 3
		octave 4
		octave 3
		octave 4
		note D_, 8
Music_UnovaBattle2_branch_533:
		octave 3
		octave 4
		octave 3
		octave 4
		note G_, 8
		octave 3
		octave 4
		octave 3
		octave 4
		note D_, 1
		octave 3
		octave 4
		note __, 1
		octave 3
		octave 4
		note E_, 14
Music_UnovaBattle2_branch_534:
		octave 3
		octave 4
		octave 3
		octave 4
		note G_, 1
		octave 3
		octave 4
		note __, 1
		octave 3
		octave 4
		note A_, 14
Music_UnovaBattle2_branch_535:
		octave 3
		octave 4
		octave 2
		octave 3
		note C#, 2
		octave 2
		octave 3
		octave 2
		octave 3
		note C#, 4
Music_UnovaBattle2_branch_536:
		octave 2
		octave 3
		octave 2
		note A_, 6
		octave 3
		note C#, 4
		octave 2
		note A_, 16
Music_UnovaBattle2_branch_537:
		octave 3
		octave 4
		note G_, 2
		octave 3
		octave 4
		note __, 4
Music_UnovaBattle2_branch_538:
		octave 3
		octave 4
		note A#, 6
		octave 3
		octave 4
		octave 5
		note C_, 4
		octave 4
		octave 5
		octave 4
		octave 5
		note C#, 16
Music_UnovaBattle2_branch_539:
		octave 4
		octave 5
		octave 2
		note F#, 1
		note __, 1
		note F#, 1
		note __, 1
		note G_, 4
Music_UnovaBattle2_branch_540:
		note F#, 1
		note __, 1
		note F#, 1
		note __, 1
		note A_, 4
		note F#, 1
		note __, 1
		note F#, 1
		note __, 1
		note B_, 4
Music_UnovaBattle2_branch_541:
		note F#, 1
		note __, 1
		note F#, 1
		note __, 1
		octave 3
		note C_, 4
		octave 2
		note G#, 1
		note __, 1
		note G#, 1
		note __, 1
		note A_, 4
Music_UnovaBattle2_branch_542:
		note G#, 1
		note __, 1
		note G#, 1
		note __, 1
		note B_, 4
		note G#, 1
		note __, 1
		note G#, 1
		note __, 1
		octave 3
		note C#, 4
Music_UnovaBattle2_branch_543:
		octave 2
		note G#, 1
		note __, 1
		note G#, 1
		note __, 1
		octave 3
		note C#, 1
		note __, 1
		note D_, 2
		note __, 16
Music_UnovaBattle2_branch_544:
		note __, 16
Music_UnovaBattle2_branch_545:
		note __, 16
Music_UnovaBattle2_branch_546:
		note __, 16
Music_UnovaBattle2_branch_547:
		note B_, 16
Music_UnovaBattle2_branch_548:
		note F#, 16
Music_UnovaBattle2_branch_549:
		note B_, 2
		octave 4
		note C#, 14
Music_UnovaBattle2_branch_550:
		octave 2
		octave 3
		note G#, 1
		octave 2
		octave 3
		note __, 2
		octave 2
		octave 3
		note G#, 1
		octave 2
		octave 3
		note __, 1
Music_UnovaBattle2_branch_551:
		octave 2
		octave 3
		note G#, 1
		octave 2
		octave 3
		note __, 1
		octave 2
		octave 3
		note G#, 1
		octave 2
		octave 3
		note __, 1
		octave 2
		octave 3
		note G#, 1
		octave 2
		octave 3
		note __, 1
		octave 4
		note C#, 1
		note __, 2
		note C#, 1
		note __, 1
		note C#, 1
		note __, 1
		note C#, 1
		note __, 1
		note C#, 1
Music_UnovaBattle2_branch_552:
		note __, 1
		note C#, 2
		note __, 2
		octave 2
		note C#, 4
		note C_, 1
		note __, 1
		note C_, 1
		note __, 1
		note D#, 4
Music_UnovaBattle2_branch_553:
		note C_, 1
		note __, 1
		note C_, 1
		note __, 1
		note F_, 4
		note C_, 1
		note __, 1
		note C_, 1
		note __, 1
		note F_, 4
Music_UnovaBattle2_branch_554:
		note C_, 1
		note __, 1
		note C_, 1
		note __, 1
		note C#, 4
		note C_, 1
		note __, 1
		note C_, 1
		note __, 1
		note D#, 4
Music_UnovaBattle2_branch_555:
		note C_, 1
		note __, 1
		note C_, 1
		note __, 1
		note F_, 4
		note C_, 1
		note __, 1
		note C_, 1
		note __, 1
		note F_, 4
Music_UnovaBattle2_branch_556:
		note __, 16
Music_UnovaBattle2_branch_557:
		dutycycle 7
		note __, 16
Music_UnovaBattle2_branch_558:
		note __, 16
Music_UnovaBattle2_branch_559:
		note __, 16
Music_UnovaBattle2_branch_560:
		note __, 16
Music_UnovaBattle2_branch_561:
		note __, 16
Music_UnovaBattle2_branch_562:
		note __, 16
Music_UnovaBattle2_branch_563:
		note __, 16
Music_UnovaBattle2_branch_564:
		note __, 16
Music_UnovaBattle2_branch_565:
		note __, 16
Music_UnovaBattle2_branch_566:
		note __, 16
Music_UnovaBattle2_branch_567:
		note __, 16
Music_UnovaBattle2_branch_568:
		note __, 16
Music_UnovaBattle2_branch_569:
		note __, 16
Music_UnovaBattle2_branch_570:
		note __, 16
Music_UnovaBattle2_branch_571:
		note __, 16
Music_UnovaBattle2_branch_572:
		note __, 16
Music_UnovaBattle2_branch_573:
		note __, 16
Music_UnovaBattle2_branch_574:
		note __, 16
Music_UnovaBattle2_branch_575:
		note __, 16
Music_UnovaBattle2_branch_576:
		note __, 16
Music_UnovaBattle2_branch_577:
		note __, 16
Music_UnovaBattle2_branch_578:
		note __, 16
Music_UnovaBattle2_branch_579:
		note __, 16
Music_UnovaBattle2_branch_580:
		note __, 16
Music_UnovaBattle2_branch_581:
		note __, 16
Music_UnovaBattle2_branch_582:
		note __, 16
Music_UnovaBattle2_branch_583:
		note __, 16
Music_UnovaBattle2_branch_584:
		note __, 16
Music_UnovaBattle2_branch_585:
		note __, 16
Music_UnovaBattle2_branch_586:
		note __, 16
Music_UnovaBattle2_branch_587:
		note __, 16
Music_UnovaBattle2_branch_588:
		note __, 16
Music_UnovaBattle2_branch_589:
		note __, 16
Music_UnovaBattle2_branch_590:
		note __, 16
Music_UnovaBattle2_branch_591:
		note __, 16
Music_UnovaBattle2_branch_592:
		note __, 16
Music_UnovaBattle2_branch_593:
		note __, 16
Music_UnovaBattle2_branch_594:
		note __, 16
Music_UnovaBattle2_branch_595:
		note __, 16
Music_UnovaBattle2_branch_596:
		note __, 16
Music_UnovaBattle2_branch_597:
		note __, 16
Music_UnovaBattle2_branch_598:
		note __, 16
Music_UnovaBattle2_branch_599:
		note __, 16
Music_UnovaBattle2_branch_600:
		note __, 16
Music_UnovaBattle2_branch_601:
		note __, 16
Music_UnovaBattle2_branch_602:
		note __, 2
		octave 4
		note C#, 16
Music_UnovaBattle2_branch_603:
		note C#, 1
		note __, 1
		octave 3
		note G#, 6
		octave 4
		note C#, 1
		note __, 3
		note G#, 1
Music_UnovaBattle2_branch_604:
		note __, 3
		note G#, 1
		note __, 1
		note G_, 14
Music_UnovaBattle2_branch_605:
		note F_, 1
		note __, 1
		octave 3
		octave 4
		note G_, 14
Music_UnovaBattle2_branch_606:
		octave 3
		octave 4
		note C#, 16
Music_UnovaBattle2_branch_607:
		note C#, 1
		note __, 1
		octave 3
		note G#, 6
		octave 4
		note C#, 1
		note __, 3
		note G#, 1
Music_UnovaBattle2_branch_608:
		note __, 3
		note G#, 1
		note __, 1
		note A#, 14
Music_UnovaBattle2_branch_609:
		note A#, 1
		note __, 1
		note G_, 14
Music_UnovaBattle2_branch_610:
		note D#, 1
		note __, 1
		note F_, 14
Music_UnovaBattle2_branch_611:
		note F_, 1
		note __, 1
		note C_, 14
Music_UnovaBattle2_branch_612:
		note F_, 1
		note __, 1
		note G_, 14
Music_UnovaBattle2_branch_613:
		note D_, 8
		note G_, 8
Music_UnovaBattle2_branch_614:
		note D_, 1
		note __, 1
		note E_, 14
Music_UnovaBattle2_branch_615:
		note G_, 1
		note __, 1
		note A_, 14
Music_UnovaBattle2_branch_616:
		note __, 16
Music_UnovaBattle2_branch_617:
		note __, 16
Music_UnovaBattle2_branch_618:
		note __, 16
Music_UnovaBattle2_branch_619:
		note __, 14
Music_UnovaBattle2_branch_620:
		octave 3
		note C#, 1
		note __, 1
		note C#, 1
		note __, 1
		note D_, 4
		note C#, 1
		note __, 1
		note C#, 1
		note __, 1
		note E_, 4
Music_UnovaBattle2_branch_621:
		note C#, 1
		note __, 1
		note C#, 1
		note __, 1
		note F#, 4
		note C#, 1
		note __, 1
		note C#, 1
		note __, 1
		note G_, 4
Music_UnovaBattle2_branch_622:
		note D#, 1
		note __, 1
		note D#, 1
		note __, 1
		note E_, 4
		note D#, 1
		note __, 1
		note D#, 1
		note __, 1
		note F#, 4
Music_UnovaBattle2_branch_623:
		note D#, 1
		note __, 1
		note D#, 1
		note __, 1
		note G#, 4
		note D#, 1
		note __, 1
		note D#, 1
		note __, 1
		note G#, 1
		note __, 1
		note A_, 2
Music_UnovaBattle2_branch_624:
		note __, 16
Music_UnovaBattle2_branch_625:
		dutycycle 9
		note __, 16
Music_UnovaBattle2_branch_626:
		note __, 16
Music_UnovaBattle2_branch_627:
		note __, 16
Music_UnovaBattle2_branch_628:
		note __, 16
Music_UnovaBattle2_branch_629:
		note __, 16
Music_UnovaBattle2_branch_630:
		note __, 16
Music_UnovaBattle2_branch_631:
		note __, 16
Music_UnovaBattle2_branch_632:
		note __, 16
Music_UnovaBattle2_branch_633:
		note __, 16
Music_UnovaBattle2_branch_634:
		note __, 16
Music_UnovaBattle2_branch_635:
		note __, 16
Music_UnovaBattle2_branch_636:
		octave 1
		note __, 1
		note __, 1
		note A#, 2
		note __, 1
		note __, 1
		note A#, 2
		note __, 1
		note __, 1
		note A#, 2
		note __, 1
		note __, 1
		note A#, 2
Music_UnovaBattle2_branch_637:
		note __, 1
		note __, 1
		note A#, 2
		note __, 1
		note __, 1
		note A#, 2
		note __, 1
		note __, 1
		note __, 1
		note __, 1
		note __, 1
		note A#, 2
Music_UnovaBattle2_branch_638:
		note F#, 1
		note __, 1
		note __, 2
		note __, 2
		note __, 2
		note __, 1
		note F#, 1
		note __, 2
		note __, 2
		note __, 2
Music_UnovaBattle2_branch_639:
		note F#, 1
		note __, 1
		note __, 2
		note __, 2
		note __, 2
		note F#, 1
		note __, 1
		note __, 2
		note __, 2
		note __, 2
Music_UnovaBattle2_branch_640:
		note F#, 1
		note __, 1
		note __, 2
		note __, 2
		note __, 2
		note A#, 2
		note __, 2
		note __, 2
		note A#, 2
Music_UnovaBattle2_branch_641:
		note __, 2
		note A#, 2
		note __, 2
		note __, 2
		note __, 1
		note __, 1
		note __, 2
		note __, 2
		note A#, 2
Music_UnovaBattle2_branch_642:
		note __, 2
		note __, 2
		note __, 2
		note __, 2
		note __, 1
		note __, 2
		note __, 2
		note __, 2
		note __, 2
Music_UnovaBattle2_branch_643:
		note __, 2
		note __, 2
		note __, 2
		note F#, 1
		note __, 1
		note __, 2
		note __, 2
		note A#, 2
		note F#, 1
Music_UnovaBattle2_branch_644:
		note __, 1
		note __, 2
		note __, 2
		note __, 2
		note A#, 2
		note __, 2
		note __, 2
		note A#, 2
		note F#, 1
Music_UnovaBattle2_branch_645:
		note __, 1
		note A#, 2
		note __, 2
		note A#, 2
		note __, 2
		note __, 2
		note __, 2
		note __, 2
		octave 3
		octave 1
		note __, 2
Music_UnovaBattle2_branch_646:
		note __, 2
		note __, 2
		note A#, 2
		note __, 2
		note __, 2
		octave 3
		octave 1
		note __, 2
		note __, 2
		note __, 1
Music_UnovaBattle2_branch_647:
		note __, 1
		note __, 2
		note __, 2
		note __, 2
		note __, 2
		note __, 2
		note __, 2
		note A#, 2
		note __, 2
Music_UnovaBattle2_branch_648:
		note __, 2
		note __, 2
		note A#, 2
		note __, 2
		note __, 2
		note __, 2
		note __, 2
		note __, 1
Music_UnovaBattle2_branch_649:
		note __, 1
		note __, 2
		note __, 2
		note __, 2
		note __, 2
		note __, 2
		note A#, 2
		note __, 2
		note __, 2
Music_UnovaBattle2_branch_650:
		note __, 2
		note __, 2
		note A#, 2
		note __, 2
		note __, 2
		note __, 2
		note __, 2
		note __, 1
Music_UnovaBattle2_branch_651:
		note __, 1
		note __, 2
		note __, 2
		note __, 2
		note __, 2
		note __, 2
		note __, 2
		note A#, 2
		note __, 2
Music_UnovaBattle2_branch_652:
		note __, 2
		note __, 2
		note A#, 2
		note __, 2
		note __, 2
		note __, 2
		note __, 2
		note __, 1
Music_UnovaBattle2_branch_653:
		note __, 1
		note __, 2
		note __, 2
		note __, 2
		note __, 2
		note __, 2
		note A#, 2
		note __, 2
		note __, 2
Music_UnovaBattle2_branch_654:
		note __, 2
		note __, 2
		note A#, 2
		note __, 2
		note __, 2
		note __, 2
		note __, 2
		note __, 1
Music_UnovaBattle2_branch_655:
		note __, 1
		note __, 2
		note __, 2
		note __, 2
		note __, 2
		note __, 2
		note __, 2
		note A#, 2
		note __, 2
Music_UnovaBattle2_branch_656:
		note __, 2
		note __, 2
		note A#, 2
		note __, 2
		note __, 2
		note __, 2
		note __, 2
		note __, 1
Music_UnovaBattle2_branch_657:
		note __, 1
		note __, 2
		note __, 2
		note __, 2
		note __, 2
		note __, 2
		note __, 2
		note A#, 2
		note __, 2
Music_UnovaBattle2_branch_658:
		note __, 2
		note __, 2
		note A#, 2
		note __, 2
		note __, 2
		note __, 2
		note __, 2
		note __, 1
Music_UnovaBattle2_branch_659:
		note __, 1
		note __, 2
		note __, 2
		note __, 2
		note __, 2
		note __, 2
		note __, 2
		note A#, 2
		note __, 2
Music_UnovaBattle2_branch_660:
		note __, 2
		note __, 2
		note A#, 2
		note __, 2
		note __, 2
		note __, 2
		note __, 2
		note __, 1
Music_UnovaBattle2_branch_661:
		note __, 1
		note __, 2
		note __, 2
		note __, 2
		note __, 2
		note __, 2
		note __, 2
		note A#, 2
		octave 3
		note G_, 2
Music_UnovaBattle2_branch_662:
		octave 1
		note __, 2
		note __, 2
		note A#, 2
		note __, 2
		note __, 2
		octave 3
		octave 1
		note __, 2
		note __, 2
		note __, 1
Music_UnovaBattle2_branch_663:
		note __, 1
		note __, 2
		note __, 2
		note __, 2
		note __, 2
		note __, 2
		note __, 2
		note A#, 2
		octave 3
		octave 1
		note __, 2
Music_UnovaBattle2_branch_664:
		note __, 2
		note __, 1
		octave 3
		note __, 1
		octave 1
		octave 3
		note G_, 2
		octave 1
		note __, 2
		note __, 2
		note __, 2
		octave 3
		octave 1
		note __, 2
		note __, 1
Music_UnovaBattle2_branch_665:
		note __, 1
		note __, 2
		note __, 2
		note __, 2
		note __, 2
		note __, 2
		note __, 2
		note A#, 2
		note __, 2
Music_UnovaBattle2_branch_666:
		note __, 2
		note __, 2
		note A#, 2
		note __, 2
		note __, 2
		note __, 2
		note __, 2
		note __, 1
Music_UnovaBattle2_branch_667:
		note __, 1
		note __, 2
		note __, 2
		note __, 2
		note __, 2
		note __, 2
		note __, 2
		note A#, 2
		note __, 2
Music_UnovaBattle2_branch_668:
		note __, 2
		note __, 2
		note A#, 2
		note __, 2
		note __, 2
		note __, 2
		note __, 2
		note __, 1
Music_UnovaBattle2_branch_669:
		note __, 1
		note __, 2
		note __, 2
		note __, 2
		note __, 2
		note __, 2
		note __, 4
		note __, 2
Music_UnovaBattle2_branch_670:
		note __, 2
		note __, 2
		note A#, 2
		note __, 2
		note __, 2
		note __, 2
		note __, 2
		note __, 1
Music_UnovaBattle2_branch_671:
		note __, 1
		note __, 2
		note __, 2
		note __, 2
		note __, 2
		note __, 2
		note __, 2
		note A#, 2
		note __, 2
Music_UnovaBattle2_branch_672:
		note __, 2
		note __, 2
		note A#, 2
		note __, 2
		note __, 2
		note __, 2
		note __, 2
		note __, 1
Music_UnovaBattle2_branch_673:
		note __, 1
		note __, 2
		note __, 2
		note __, 2
		note __, 2
		note __, 2
		note __, 4
		note __, 2
Music_UnovaBattle2_branch_674:
		note __, 2
		note __, 2
		note A#, 2
		note __, 2
		note __, 2
		note __, 2
		note __, 2
		note __, 1
Music_UnovaBattle2_branch_675:
		note __, 1
		note __, 2
		note __, 2
		note __, 2
		note __, 2
		note __, 2
		note __, 2
		note A#, 2
		note __, 2
Music_UnovaBattle2_branch_676:
		note __, 2
		note __, 2
		note A#, 2
		note __, 2
		note __, 2
		note __, 2
		note __, 2
		note __, 1
Music_UnovaBattle2_branch_677:
		note __, 1
		note __, 2
		note __, 2
		note __, 2
		note __, 2
		note __, 2
		note __, 2
		note A#, 2
		note __, 2
Music_UnovaBattle2_branch_678:
		note __, 2
		note __, 2
		note A#, 2
		note __, 2
		note __, 2
		note __, 2
		note __, 2
		note __, 1
Music_UnovaBattle2_branch_679:
		note __, 1
		note __, 2
		note __, 2
		note __, 2
		note __, 2
		note __, 2
		note __, 2
		note A#, 2
		note __, 2
Music_UnovaBattle2_branch_680:
		note __, 2
		note __, 2
		note A#, 2
		note __, 2
		note __, 2
		note __, 2
		note __, 2
		note __, 1
Music_UnovaBattle2_branch_681:
		note __, 1
		note __, 2
		note __, 2
		note __, 2
		note __, 2
		note __, 2
		note __, 2
		note A#, 2
		note __, 2
Music_UnovaBattle2_branch_682:
		note __, 2
		note __, 2
		note A#, 2
		note __, 2
		note __, 2
		note __, 2
		note __, 2
		note __, 1
Music_UnovaBattle2_branch_683:
		note __, 1
		note __, 2
		note __, 2
		note __, 2
		note __, 2
		note __, 2
		note __, 2
		note A#, 2
		note __, 2
Music_UnovaBattle2_branch_684:
		note __, 2
		note __, 2
		note A#, 2
		note __, 2
		note __, 2
		note __, 2
		note __, 2
		note __, 1
Music_UnovaBattle2_branch_685:
		note __, 1
		note __, 2
		note __, 2
		note __, 2
		note __, 2
		note __, 2
		note __, 2
		note A#, 2
		note __, 2
Music_UnovaBattle2_branch_686:
		note __, 2
		note __, 2
		note A#, 2
		note __, 2
		note __, 2
		note __, 2
		note __, 2
		note __, 1
Music_UnovaBattle2_branch_687:
		note __, 1
		note __, 2
		note __, 2
		note __, 2
		note __, 2
		note __, 2
		note __, 2
		note A#, 2
		note __, 2
Music_UnovaBattle2_branch_688:
		note __, 2
		note __, 2
		note A#, 2
		note __, 2
		note __, 2
		note __, 2
		note __, 2
		note __, 1
Music_UnovaBattle2_branch_689:
		note __, 1
		note __, 2
		note __, 2
		note __, 2
		note __, 2
		note __, 2
		note __, 2
		note A#, 2
		note __, 2
Music_UnovaBattle2_branch_690:
		note __, 2
		note __, 2
		note A#, 2
		note __, 2
		note __, 2
		note __, 2
		note __, 2
		note __, 1
Music_UnovaBattle2_branch_691:
		note __, 1
		note __, 2
		note __, 2
		note __, 2
		note __, 2
		note __, 2
		note __, 2
		note A#, 2
		note __, 2
Music_UnovaBattle2_branch_692:
		note __, 2
		note __, 2
		note A#, 2
		note __, 2
		note __, 2
		note __, 2
		note __, 2
		note __, 1
Music_UnovaBattle2_branch_693:
		note __, 1
		note __, 2
		note __, 2
		note __, 2
		note __, 2
		note __, 2
		note __, 2
		note A#, 2
		note __, 2
Music_UnovaBattle2_branch_694:
		note __, 2
		note __, 2
		note A#, 2
		note __, 2
		note __, 2
		note __, 2
		note __, 2
		note __, 1
Music_UnovaBattle2_branch_695:
		note __, 1
		note __, 2
		note __, 2
		note __, 2
		note __, 2
		note __, 2
		note __, 2
		note A#, 2
		note __, 2
Music_UnovaBattle2_branch_696:
		note __, 2
		note __, 2
		note A#, 2
		note __, 2
		note __, 2
		note __, 2
		note __, 2
		note __, 1
Music_UnovaBattle2_branch_697:
		note __, 1
		note __, 2
		note __, 2
		note __, 2
		note __, 2
		note __, 2
		note __, 2
		note A#, 2
		note __, 2
Music_UnovaBattle2_branch_698:
		note __, 2
		note __, 4
		note __, 2
		note __, 2
		note __, 2
		note __, 2
		note __, 1
Music_UnovaBattle2_branch_699:
		note __, 1
		note __, 2
		note __, 2
		note __, 2
		note __, 2
		note __, 2
		note __, 2
		note A#, 2
		note __, 4
Music_UnovaBattle2_branch_700:
		octave 2
		note E_, 1
		note C#, 1
		octave 1
		note F_, 2
		note __, 4
		octave 2
		note F#, 1
		note __, 1
		octave 1
		note F_, 2
		note __, 16
Music_UnovaBattle2_branch_701:
		note __, 16
Music_UnovaBattle2_branch_702:
		note __, 16
Music_UnovaBattle2_branch_703:
		note __, 16
Music_UnovaBattle2_branch_704:
		note __, 16
Music_UnovaBattle2_branch_705:
		note __, 16
Music_UnovaBattle2_branch_706:
		octave 3
		note G#, 8
Music_UnovaBattle2_branch_707:
		note __, 8
		note F_, 1
Music_UnovaBattle2_branch_708:
		note __, 1
		note F_, 1
		note __, 1
		note F_, 1
		note __, 9
		note D_, 1
		note __, 3
Music_UnovaBattle2_branch_709:
		note D_, 1
		note __, 1
		note D_, 1
		note __, 8
		note G#, 11
Music_UnovaBattle2_branch_710:
		note __, 16
Music_UnovaBattle2_branch_711:
		dutycycle 10
		note __, 16
Music_UnovaBattle2_branch_712:
		note __, 16
Music_UnovaBattle2_branch_713:
		note __, 16
Music_UnovaBattle2_branch_714:
		note __, 16
Music_UnovaBattle2_branch_715:
		note __, 5
		octave 1
		octave 3
		note A_, 2
		octave 1
		note E_, 2
Music_UnovaBattle2_branch_716:
		note C_, 4
		octave 3
		octave 1
		octave 3
		note __, 4
		octave 1
		note C_, 4
		note C_, 2
		note E_, 2
Music_UnovaBattle2_branch_717:
		note C_, 2
		note E_, 2
		octave 2
		octave 1
		octave 2
		note __, 1
		octave 1
		octave 2
		note __, 1
		octave 1
		note __, 1
		note __, 1
		note __, 1
		octave 3
		octave 1
		note C_, 4
		note C_, 4
Music_UnovaBattle2_branch_718:
		octave 3
		octave 1
		note C_, 4
		note C_, 4
		note C_, 4
		note C_, 4
Music_UnovaBattle2_branch_719:
		note C_, 4
		note C_, 4
		octave 3
		note D_, 4
		octave 1
		note C_, 4
Music_UnovaBattle2_branch_720:
		octave 3
		octave 1
		note E_, 2
		note C_, 2
		note __, 2
		note C_, 2
		note C_, 2
		note E_, 2
		note C_, 2
		note __, 2
Music_UnovaBattle2_branch_721:
		octave 3
		note F_, 2
		octave 1
		note C_, 2
		octave 3
		note D_, 1
		octave 1
		note __, 1
		note E_, 1
		octave 3
		octave 1
		note C_, 2
		note __, 2
		note C_, 4
Music_UnovaBattle2_branch_722:
		octave 3
		octave 1
		note C_, 4
		note C_, 4
		note C_, 4
		note C_, 4
Music_UnovaBattle2_branch_723:
		note C_, 4
		note C_, 4
		octave 3
		note C#, 4
		octave 1
		note C_, 4
Music_UnovaBattle2_branch_724:
		octave 3
		octave 1
		note E_, 2
		note C_, 2
		note __, 2
		note C_, 2
		note E_, 2
		note C_, 2
		note C_, 2
		note E_, 2
Music_UnovaBattle2_branch_725:
		octave 3
		octave 1
		note C_, 2
		note E_, 2
		octave 3
		octave 1
		octave 3
		octave 1
		octave 3
		octave 1
		note C_, 4
		note E_, 3
		octave 3
		note __, 1
		octave 1
		note C_, 2
		note C_, 2
Music_UnovaBattle2_branch_726:
		note E_, 4
		note C_, 4
		note E_, 4
		note C_, 2
		note C_, 2
Music_UnovaBattle2_branch_727:
		note E_, 4
		note C_, 4
		note E_, 2
		note C_, 2
		note __, 2
		note E_, 2
Music_UnovaBattle2_branch_728:
		note E_, 2
		note C_, 2
		note C_, 4
		note E_, 2
		note C_, 2
		note __, 2
		note C_, 2
Music_UnovaBattle2_branch_729:
		note E_, 2
		note E_, 1
		note E_, 1
		note C_, 4
		note E_, 4
		note C_, 2
		note C_, 2
Music_UnovaBattle2_branch_730:
		note E_, 4
		note C_, 4
		note E_, 4
		note C_, 2
		note C_, 2
Music_UnovaBattle2_branch_731:
		note E_, 4
		note C_, 4
		note E_, 2
		note C_, 2
		note __, 2
		note E_, 2
Music_UnovaBattle2_branch_732:
		note E_, 2
		note C_, 2
		note C_, 4
		note E_, 2
		note C_, 2
		note __, 2
		note C_, 2
Music_UnovaBattle2_branch_733:
		note E_, 2
		note E_, 1
		note E_, 1
		octave 3
		octave 1
		note C_, 4
		note E_, 4
		octave 3
		octave 1
		note C_, 2
		note C_, 2
Music_UnovaBattle2_branch_734:
		note E_, 4
		note C_, 4
		note E_, 4
		note C_, 2
		note C_, 2
Music_UnovaBattle2_branch_735:
		note E_, 4
		note C_, 4
		note E_, 4
		note C_, 2
		note C_, 2
Music_UnovaBattle2_branch_736:
		note E_, 4
		note C_, 4
		note E_, 4
		note C_, 2
		note C_, 2
Music_UnovaBattle2_branch_737:
		note E_, 4
		note C_, 4
		note E_, 4
		note C_, 2
		note C_, 2
Music_UnovaBattle2_branch_738:
		note E_, 4
		note C_, 4
		note E_, 4
		note C_, 2
		note C_, 2
Music_UnovaBattle2_branch_739:
		note E_, 4
		note E_, 2
		note B_, 2
		note G_, 1
		note E_, 2
		note __, 2
		note C_, 1
		note __, 3
Music_UnovaBattle2_branch_740:
		note E_, 2
		octave 2
		note D#, 1
		note D_, 1
		octave 1
		octave 2
		note C_, 1
		octave 1
		note B_, 1
		note A_, 1
		note __, 1
		note G#, 1
		note __, 1
		octave 2
		note B_, 1
		note C_, 1
		octave 1
		note A_, 1
		note G_, 1
		octave 2
		octave 1
		octave 2
		octave 1
		note F_, 1
Music_UnovaBattle2_branch_741:
		octave 3
		octave 1
		note C_, 2
		note __, 1
		note __, 1
		note E_, 1
		octave 3
		note __, 1
		octave 1
		note E_, 2
		note C_, 2
		note E_, 2
		note __, 1
		note __, 1
		note E_, 2
Music_UnovaBattle2_branch_742:
		note E_, 2
		note __, 1
		note __, 1
		note E_, 2
		note __, 1
		note __, 1
		note C_, 2
		note E_, 2
		note __, 1
		note __, 1
		note E_, 2
Music_UnovaBattle2_branch_743:
		octave 3
		note E_, 4
		octave 1
		note E_, 1
		octave 3
		note __, 1
		octave 1
		octave 3
		note E_, 2
		octave 1
		note E_, 2
		note E_, 2
		octave 3
		octave 1
		note C_, 2
		note E_, 2
Music_UnovaBattle2_branch_744:
		note E_, 2
		note __, 1
		note __, 1
		note E_, 2
		note __, 1
		note C_, 2
		note E_, 1
		note E_, 1
		note E_, 2
		note E_, 1
		note E_, 1
		octave 3
		note E_, 4
Music_UnovaBattle2_branch_745:
		octave 1
		note E_, 4
		octave 3
		octave 1
		note C_, 2
		note C_, 2
		note E_, 4
		note C_, 4
Music_UnovaBattle2_branch_746:
		note E_, 4
		note C_, 2
		note C_, 2
		note E_, 4
		note C_, 4
Music_UnovaBattle2_branch_747:
		note E_, 4
		note C_, 2
		note C_, 2
		note E_, 4
		note C_, 4
Music_UnovaBattle2_branch_748:
		note E_, 4
		note C_, 2
		note C_, 2
		note E_, 2
		note E_, 1
		note E_, 1
		note C_, 4
Music_UnovaBattle2_branch_749:
		note E_, 4
		note C_, 2
		note C_, 2
		note E_, 4
		note C_, 4
Music_UnovaBattle2_branch_750:
		note E_, 4
		note C_, 2
		note C_, 2
		note E_, 4
		note C_, 4
Music_UnovaBattle2_branch_751:
		note E_, 4
		note C_, 2
		note C_, 2
		note E_, 4
		note C_, 4
Music_UnovaBattle2_branch_752:
		note E_, 4
		note C_, 2
		note C_, 2
		note E_, 2
		note E_, 1
		note E_, 1
		note C_, 4
Music_UnovaBattle2_branch_753:
		note E_, 4
		note C_, 2
		note C_, 2
		note E_, 4
		note C_, 4
Music_UnovaBattle2_branch_754:
		note E_, 4
		note C_, 2
		note C_, 2
		note E_, 4
		note C_, 4
Music_UnovaBattle2_branch_755:
		note E_, 4
		note C_, 2
		note C_, 2
		note E_, 4
		note C_, 4
Music_UnovaBattle2_branch_756:
		note E_, 4
		note C_, 2
		note C_, 2
		note E_, 4
		note C_, 4
Music_UnovaBattle2_branch_757:
		note E_, 4
		note C_, 2
		note C_, 2
		note E_, 4
		note C_, 4
Music_UnovaBattle2_branch_758:
		note E_, 4
		note C_, 2
		note C_, 2
		note E_, 4
		note C_, 4
Music_UnovaBattle2_branch_759:
		note E_, 4
		note C_, 2
		note C_, 2
		note E_, 4
		note C_, 2
Music_UnovaBattle2_branch_760:
		note E_, 4
		note C_, 2
		note E_, 2
		octave 3
		note F#, 2
		octave 1
		note E_, 1
		note E_, 1
		octave 3
		octave 1
		note C_, 3
Music_UnovaBattle2_branch_761:
		note __, 1
		note E_, 4
		octave 3
		octave 1
		note C_, 2
		note C_, 2
		note E_, 4
		note C_, 4
Music_UnovaBattle2_branch_762:
		note E_, 4
		note C_, 2
		note C_, 2
		note E_, 4
		note C_, 4
Music_UnovaBattle2_branch_763:
		note E_, 4
		note C_, 2
		note C_, 2
		note E_, 4
		note C_, 4
Music_UnovaBattle2_branch_764:
		note E_, 1
		note __, 3
		note C_, 2
		note C_, 2
		octave 3
		note F_, 4
		octave 1
		octave 3
		octave 1
		note C_, 4
Music_UnovaBattle2_branch_765:
		note E_, 4
		octave 3
		octave 1
		note C_, 2
		note C_, 2
		note E_, 4
		note C_, 4
Music_UnovaBattle2_branch_766:
		note E_, 4
		note C_, 2
		note C_, 2
		note E_, 4
		note C_, 4
Music_UnovaBattle2_branch_767:
		note E_, 4
		note C_, 2
		note C_, 2
		note E_, 4
		note C_, 4
Music_UnovaBattle2_branch_768:
		note E_, 4
		note E_, 2
		note C_, 2
		note __, 1
		note E_, 1
		note C_, 2
		octave 3
		octave 1
		note C_, 4
Music_UnovaBattle2_branch_769:
		note E_, 4
		note C_, 2
		note C_, 2
		octave 3
		octave 1
		note E_, 4
		note C_, 2
		note E_, 2
Music_UnovaBattle2_branch_770:
		note E_, 2
		note __, 2
		note E_, 2
		note E_, 2
		note C_, 2
		note E_, 2
		octave 3
		octave 1
		note C_, 4
Music_UnovaBattle2_branch_771:
		note E_, 4
		note C_, 2
		note C_, 2
		octave 3
		octave 1
		note E_, 4
		note C_, 3
Music_UnovaBattle2_branch_772:
		note __, 1
		note E_, 4
		note C_, 2
		note C_, 2
		note E_, 2
		note E_, 2
		note C_, 3
Music_UnovaBattle2_branch_773:
		note __, 1
		note E_, 4
		note C_, 2
		note C_, 2
		note E_, 4
		note E_, 2
		note C_, 2
Music_UnovaBattle2_branch_774:
		note E_, 4
		note E_, 1
		note E_, 1
		note C_, 2
		note C_, 2
		note E_, 2
		note C_, 2
		note E_, 1
Music_UnovaBattle2_branch_775:
		note __, 3
		note __, 2
		note C_, 2
		note C_, 2
		note E_, 4
		note C_, 4
Music_UnovaBattle2_branch_776:
		note E_, 4
		note C_, 2
		note E_, 2
		note E_, 2
		note E_, 1
		note E_, 1
		octave 3
		octave 1
		note C_, 2
		note E_, 2
Music_UnovaBattle2_branch_777:
		note E_, 4
		note C_, 1
		octave 3
		note __, 1
		octave 1
		note E_, 2
		note E_, 2
		note E_, 2
		octave 2
		note __, 1
		octave 1
		octave 2
		octave 1
		octave 2
		note __, 1
		octave 1
		note __, 1
Music_UnovaBattle2_branch_778:
		note F_, 2
		note C_, 2
		note F_, 2
		note F_, 1
		note E_, 1
		note F_, 1
		note E_, 1
		note C_, 2
		note C_, 2
		octave 3
		note D#, 2
Music_UnovaBattle2_branch_779:
		octave 1
		note E_, 2
		note C_, 2
		note C_, 2
		octave 3
		octave 1
		octave 3
		note G_, 4
		octave 1
		note C_, 2
		note C_, 2
		octave 3
		octave 1
		octave 3
		note C#, 4
Music_UnovaBattle2_branch_780:
		octave 1
		note C_, 2
		note C_, 2
		octave 3
		octave 1
		octave 3
		note A_, 2
		octave 1
		note E_, 2
		note C_, 2
		note C_, 2
		octave 3
		octave 1
		octave 3
		note E_, 2
Music_UnovaBattle2_branch_781:
		octave 1
		note E_, 2
		note C_, 2
		note C_, 2
		octave 3
		octave 1
		octave 3
		note E_, 2
		octave 1
		note E_, 2
		note C_, 2
		note C_, 2
		octave 3
		octave 1
		octave 3
		note G_, 2
Music_UnovaBattle2_branch_782:
		octave 1
		note E_, 2
		note C_, 2
		note C_, 2
		octave 3
		octave 1
		note E_, 2
		octave 3
		note A_, 2
		octave 1
		octave 2
		octave 3
		note E_, 1
		octave 2
		note E_, 1
		octave 1
		note B_, 1
		note G#, 1
		note __, 1
		note G_, 1
Music_UnovaBattle2_branch_783:
		octave 3
		octave 1
		note E_, 2
		note E_, 1
		note C_, 1
		note C_, 1
		note C_, 1
		octave 2
		octave 3
		note F#, 1
		octave 2
		note E_, 1
		octave 1
		note G#, 1
		note F_, 1
		note C_, 1
		note C_, 1
		octave 3
		octave 1
		octave 2
		note A#, 1
		note C_, 1
		octave 1
		octave 2
		octave 1
		note A_, 1
		note F_, 1
Music_UnovaBattle2_branch_784:
		note C_, 1
		octave 2
		octave 1
		note C_, 1
		octave 2
		octave 1
		octave 2
		note F#, 1
		note C_, 1
		octave 1
		note B_, 1
		note G#, 1
		note C_, 1
		note F_, 1
		octave 3
		note C#, 2
		octave 1
		note E_, 1
		octave 3
		octave 1
		octave 3
		note E_, 1
		octave 1
		note C_, 1
		note C_, 1
		octave 3
		octave 1
		octave 2
		note E_, 1
		note E_, 1
Music_UnovaBattle2_branch_785:
		octave 1
		note G#, 1
		note F_, 1
		note C_, 1
		note C_, 1
		note E_, 2
		note E_, 1
		note C_, 1
		note C_, 1
		octave 2
		note E_, 1
		note E_, 1
		octave 1
		note B_, 1
		note G#, 1
		note C_, 1
		note G_, 1
		octave 3
		note F#, 1
Music_UnovaBattle2_branch_786:
		note __, 1
		octave 1
		octave 3
		note F#, 1
		octave 1
		octave 3
		octave 1
		note C_, 1
		octave 3
		note F#, 1
		octave 1
		octave 3
		octave 1
		note C_, 1
		octave 2
		note E_, 1
		note E_, 1
		octave 1
		note G#, 1
		note F_, 1
		note C_, 1
		note A_, 1
		octave 3
		note G#, 1
		note __, 1
		note G#, 1
		note __, 1
		octave 1
		octave 3
		note G#, 1
Music_UnovaBattle2_branch_787:
		note __, 1
		octave 1
		octave 3
		note G#, 1
		octave 1
		octave 3
		note G#, 1
		octave 1
		octave 3
		note G#, 1
		octave 1
		octave 2
		octave 3
		note F#, 1
		octave 2
		note E_, 1
		octave 1
		note B_, 1
		note G#, 1
		note C_, 1
		note G_, 1
		octave 3
		octave 1
		octave 3
		note E_, 1
		note __, 1
		note E_, 1
		note __, 1
		octave 1
		octave 3
		note E_, 1
		note __, 1
Music_UnovaBattle2_branch_788:
		octave 1
		octave 3
		note E_, 1
		octave 1
		octave 3
		note E_, 1
		octave 1
		octave 3
		note E_, 1
		octave 1
		octave 2
		octave 3
		note G_, 1
		octave 1
		octave 2
		note __, 1
		octave 1
		note G#, 1
		octave 3
		note __, 1
		octave 1
		note C_, 1
		note G_, 1
		note E_, 2
		note E_, 1
		octave 3
		note G#, 1
		octave 1
		note B_, 1
		note F_, 1
		octave 3
		octave 1
		octave 3
		note F#, 4
Music_UnovaBattle2_branch_789:
		octave 1
		note B_, 4
		note B_, 4
		octave 3
		octave 1
		note B_, 4
		note B_, 4
Music_UnovaBattle2_branch_790:
		note B_, 4
		note B_, 4
		note B_, 4
		note B_, 4
Music_UnovaBattle2_branch_791:
		note B_, 4
		note B_, 4
		note B_, 4
		note B_, 4
Music_UnovaBattle2_branch_792:
		note B_, 4
		note B_, 2
		note B_, 2
		note E_, 2
		note E_, 1
		note E_, 1
		note __, 16
Music_UnovaBattle2_branch_793:
		dutycycle 11
		note __, 16
Music_UnovaBattle2_branch_794:
		note __, 2
Music_UnovaBattle2_branch_795:
		octave 4
		note B_, 12
		note E_, 16
Music_UnovaBattle2_branch_796:
		octave 3
		note E_, 1
		note __, 1
		note E_, 1
Music_UnovaBattle2_branch_797:
		note __, 1
		note G_, 4
		note E_, 1
		note __, 1
		note E_, 1
		note __, 1
		note A_, 4
		note E_, 1
		note __, 1
		note E_, 1
Music_UnovaBattle2_branch_798:
		note __, 1
		note A#, 4
		note E_, 1
		note __, 1
		note E_, 1
		note __, 3
		note B_, 2
		octave 5
		note C_, 2
		octave 3
		note __, 10
Music_UnovaBattle2_branch_799:
		octave 5
		octave 4
		note F_, 16
Music_UnovaBattle2_branch_800:
		octave 3
		note F_, 1
		note __, 1
		note F_, 1
		note __, 1
		note G#, 4
Music_UnovaBattle2_branch_801:
		note F_, 1
		note __, 1
		note F_, 1
		note __, 1
		note A#, 4
		note F_, 1
		note __, 1
		note F_, 1
		note __, 1
		note B_, 4
Music_UnovaBattle2_branch_802:
		note F_, 1
		note __, 1
		note F_, 1
		note __, 1
		octave 4
		note C_, 4
		note F_, 16
Music_UnovaBattle2_branch_803:
		note F_, 1
		note __, 1
		note C_, 6
Music_UnovaBattle2_branch_804:
		note F_, 1
		note __, 3
		octave 5
		note C_, 1
		note __, 3
		note C_, 1
		note __, 1
		note C#, 16
Music_UnovaBattle2_branch_805:
		note C#, 12
Music_UnovaBattle2_branch_806:
		octave 4
		note __, 1
		note __, 1
		note F_, 16
Music_UnovaBattle2_branch_807:
		note F_, 1
		note __, 1
		note C_, 6
Music_UnovaBattle2_branch_808:
		note F_, 1
		note __, 3
		octave 5
		note C_, 1
		note __, 3
		note C_, 1
		note __, 1
		octave 4
		note A#, 16
Music_UnovaBattle2_branch_809:
		note A#, 10
Music_UnovaBattle2_branch_810:
		note __, 4
		note G#, 16
Music_UnovaBattle2_branch_811:
		note F_, 8
Music_UnovaBattle2_branch_812:
		octave 5
		note C_, 4
		octave 4
		note G#, 4
		note G_, 6
		note A#, 16
Music_UnovaBattle2_branch_813:
		note A#, 10
Music_UnovaBattle2_branch_814:
		note G#, 16
Music_UnovaBattle2_branch_815:
		note F_, 8
Music_UnovaBattle2_branch_816:
		octave 5
		note C_, 4
		octave 4
		note G#, 4
		note A#, 6
		octave 5
		note D#, 16
Music_UnovaBattle2_branch_817:
		note D#, 10
Music_UnovaBattle2_branch_818:
		octave 4
		note D#, 5
		note E_, 10
Music_UnovaBattle2_branch_819:
		note C#, 8
Music_UnovaBattle2_branch_820:
		octave 3
		note A#, 2
		octave 4
		note C#, 2
		note G#, 1
		note E_, 2
		note D#, 6
		octave 3
		note A#, 10
Music_UnovaBattle2_branch_821:
		note G_, 8
		octave 4
		note D#, 2
Music_UnovaBattle2_branch_822:
		note A#, 2
		note G_, 1
		note G#, 1
		note E_, 2
		note D#, 2
		note __, 16
Music_UnovaBattle2_branch_823:
		note __, 16
Music_UnovaBattle2_branch_824:
		note __, 16
Music_UnovaBattle2_branch_825:
		note __, 16
Music_UnovaBattle2_branch_826:
		note __, 16
Music_UnovaBattle2_branch_827:
		note __, 16
Music_UnovaBattle2_branch_828:
		note __, 16
Music_UnovaBattle2_branch_829:
		note __, 7
Music_UnovaBattle2_branch_830:
		octave 3
		note D#, 2
		note A#, 2
		octave 4
		note G_, 2
		note F_, 2
		note D#, 16
Music_UnovaBattle2_branch_831:
		note D#, 8
Music_UnovaBattle2_branch_832:
		octave 3
		note G_, 2
		note A#, 2
		octave 4
		note G_, 2
		note D#, 2
		note E_, 14
Music_UnovaBattle2_branch_833:
		note D#, 1
		note D_, 1
		note C#, 12
Music_UnovaBattle2_branch_834:
		note E_, 4
		note D#, 16
Music_UnovaBattle2_branch_835:
		note D#, 8
Music_UnovaBattle2_branch_836:
		octave 3
		note A#, 2
		octave 4
		note D#, 2
		note G#, 2
		note F_, 2
		note G_, 14
Music_UnovaBattle2_branch_837:
		note G#, 2
		note A#, 15
Music_UnovaBattle2_branch_838:
		note C#, 1
		note __, 1
		note C_, 2
		note C#, 2
		note F_, 6
Music_UnovaBattle2_branch_839:
		note C#, 4
		note C_, 1
		note C#, 7
		octave 3
		note G#, 2
Music_UnovaBattle2_branch_840:
		octave 4
		note C#, 2
		note G#, 2
		note F_, 2
		note D#, 6
		octave 3
		note A#, 10
Music_UnovaBattle2_branch_841:
		octave 4
		note G_, 2
		note F_, 2
		note G_, 2
		note A#, 4
Music_UnovaBattle2_branch_842:
		octave 3
		note G_, 2
		note A#, 2
		note D#, 2
		octave 4
		note C#, 2
		note __, 4
		note F_, 6
Music_UnovaBattle2_branch_843:
		note C#, 4
		note C_, 1
		note C#, 5
		note __, 2
		octave 3
		note G#, 2
Music_UnovaBattle2_branch_844:
		octave 4
		note C#, 2
		note G#, 2
		note F_, 2
		note D#, 6
		octave 3
		note A#, 6
Music_UnovaBattle2_branch_845:
		octave 4
		note D#, 4
		note G_, 2
		note F_, 2
		note G_, 6
Music_UnovaBattle2_branch_846:
		note A#, 2
		note __, 4
		note F_, 2
		note __, 4
		note C_, 6
Music_UnovaBattle2_branch_847:
		note F_, 4
		note A_, 6
		octave 5
		note C_, 1
		note C_, 1
		octave 4
		note A_, 2
Music_UnovaBattle2_branch_848:
		note F_, 2
		note __, 2
		octave 3
		note A_, 2
		octave 4
		note G_, 2
		note __, 4
		note D_, 6
Music_UnovaBattle2_branch_849:
		note G_, 3
		note __, 1
		note G_, 2
		note B_, 4
		octave 5
		note D_, 1
		note D_, 1
		octave 4
		note B_, 2
Music_UnovaBattle2_branch_850:
		note G_, 2
		note __, 2
		octave 3
		note B_, 2
		octave 4
		note A_, 2
		note __, 4
		note E_, 6
Music_UnovaBattle2_branch_851:
		note A_, 4
		octave 5
		note C#, 8
		octave 4
		note C#, 2
Music_UnovaBattle2_branch_852:
		note E_, 6
		note __, 16
Music_UnovaBattle2_branch_853:
		note __, 16
Music_UnovaBattle2_branch_854:
		note __, 16
Music_UnovaBattle2_branch_855:
		note __, 16
Music_UnovaBattle2_branch_856:
		note __, 16
Music_UnovaBattle2_branch_857:
		note __, 16
Music_UnovaBattle2_branch_858:
		note __, 16
Music_UnovaBattle2_branch_859:
		note __, 16
Music_UnovaBattle2_branch_860:
		note G#, 15
Music_UnovaBattle2_branch_861:
		note __, 1
		octave 3
		note G#, 16
Music_UnovaBattle2_branch_862:
		octave 4
		note A_, 16
Music_UnovaBattle2_branch_863:
		octave 5
		note C#, 6
		octave 4
		note B_, 6
Music_UnovaBattle2_branch_864:
		note A_, 4
		note B_, 16
Music_UnovaBattle2_branch_865:
		octave 3
		note B_, 16
Music_UnovaBattle2_branch_866:
		octave 4
		note B_, 2
		octave 5
		note C#, 12
		endchannel

; ===========================================================================
Music_UnovaBattle_Ch3:
		notetype 12, $15
Music_UnovaBattle3_branch_1:
		octave 2
		intensity $10
		note E_, 3
		note __, 1
		note E_, 3
		note __, 1
		note E_, 3
		note __, 1
		note E_, 3
		note __, 1
Music_UnovaBattle3_branch_2:
		note E_, 3
		note __, 1
		note E_, 3
		note __, 1
		note E_, 3
		note __, 1
		note E_, 3
		note __, 1
Music_UnovaBattle3_branch_3:
		note E_, 2
		note B_, 2
		octave 3
		note E_, 2
		octave 2
		note B_, 2
		octave 3
		note F_, 2
		note F_, 2
		octave 2
		note E_, 2
		note A_, 2
Music_UnovaBattle3_branch_4:
		octave 3
		note G_, 2
		octave 2
		note E_, 2
		octave 3
		note G#, 2
		note D_, 2
		octave 2
		note E_, 1
		note G#, 1
		note B_, 2
		octave 3
		note E_, 2
		note F_, 2
Music_UnovaBattle3_branch_5:
		octave 2
		note E_, 2
		note B_, 2
		octave 3
		note E_, 2
		octave 2
		note B_, 2
		octave 3
		note F_, 2
		note F_, 2
		octave 2
		note E_, 2
		note A#, 2
Music_UnovaBattle3_branch_6:
		octave 3
		note G_, 2
		octave 2
		note E_, 2
		octave 3
		note G#, 2
		note D_, 2
		octave 2
		note E_, 2
		note B_, 2
		octave 3
		note E_, 2
		note F_, 1
		note G_, 1
Music_UnovaBattle3_branch_7:
		octave 2
		note F_, 2
		octave 3
		note C_, 2
		note F_, 2
		note C_, 2
		note F#, 2
		note F#, 2
		octave 2
		note F_, 2
		note A#, 2
Music_UnovaBattle3_branch_8:
		octave 3
		note G#, 2
		octave 2
		note F_, 2
		octave 3
		note A_, 2
		note D#, 2
		octave 2
		note F_, 1
		note B_, 1
		octave 3
		note C_, 2
		note F_, 2
		note F#, 2
Music_UnovaBattle3_branch_9:
		octave 2
		note F_, 2
		octave 3
		note C_, 2
		note F_, 2
		note C_, 2
		note F#, 2
		note F#, 2
		octave 2
		note F_, 2
		note A#, 2
Music_UnovaBattle3_branch_10:
		octave 3
		note G#, 2
		octave 2
		note F_, 2
		octave 3
		note A_, 2
		note D#, 2
		octave 2
		note F_, 2
		octave 3
		note D_, 2
		note D#, 2
		note E_, 2
Music_UnovaBattle3_branch_11:
		octave 2
		note F_, 2
		octave 3
		note F_, 2
		octave 2
		note F_, 2
		octave 3
		note F_, 2
		octave 2
		note F_, 2
		octave 3
		note F_, 2
		octave 2
		note F_, 2
		octave 3
		note F_, 2
Music_UnovaBattle3_branch_12:
		octave 2
		note F_, 2
		octave 3
		note F_, 2
		octave 2
		note F_, 2
		octave 3
		note F_, 2
		octave 2
		note F_, 2
		octave 3
		note F_, 2
		octave 2
		note F_, 2
		octave 3
		note F_, 2
Music_UnovaBattle3_branch_13:
		octave 2
		note F#, 2
		octave 3
		note F#, 2
		note A#, 2
		octave 2
		note F#, 2
		octave 4
		note C_, 2
		octave 3
		note A#, 2
		octave 2
		note F#, 2
		octave 3
		note F#, 2
Music_UnovaBattle3_branch_14:
		octave 2
		note F#, 2
		octave 3
		note C#, 2
		note F#, 2
		octave 2
		note F#, 2
		octave 3
		note A#, 2
		octave 4
		note C_, 2
		octave 2
		note C#, 2
		note D#, 2
Music_UnovaBattle3_branch_15:
		note F_, 2
		octave 3
		note F_, 2
		octave 2
		note F_, 2
		octave 3
		note F_, 2
		octave 2
		note F_, 2
		octave 3
		note F_, 2
		octave 2
		note F_, 2
		octave 3
		note F_, 2
Music_UnovaBattle3_branch_16:
		octave 2
		note F_, 2
		octave 3
		note F_, 2
		octave 2
		note F_, 2
		octave 3
		note F_, 2
		octave 2
		note F_, 2
		octave 3
		note F_, 2
		octave 2
		note F_, 2
		octave 3
		note F_, 2
Music_UnovaBattle3_branch_17:
		octave 2
		note D#, 2
		octave 3
		note D#, 2
		note D#, 2
		octave 2
		note D#, 2
		octave 3
		note D#, 2
		note D#, 2
		octave 2
		note D#, 2
		octave 3
		note D#, 2
Music_UnovaBattle3_branch_18:
		octave 2
		note D#, 2
		note A#, 2
		octave 3
		note D#, 2
		octave 2
		note D#, 2
		octave 3
		note A#, 2
		octave 4
		note C_, 2
		octave 3
		note D#, 2
		note D_, 2
Music_UnovaBattle3_branch_19:
		octave 2
		note C#, 2
		octave 3
		note C#, 2
		octave 2
		note C#, 2
		octave 3
		note C#, 2
		octave 2
		note C#, 2
		octave 3
		note C#, 2
		octave 2
		note C#, 2
		octave 3
		note C#, 2
Music_UnovaBattle3_branch_20:
		octave 2
		note C#, 2
		octave 3
		note C#, 2
		octave 2
		note C#, 2
		octave 3
		note C#, 2
		octave 2
		note C#, 2
		octave 3
		note C#, 2
		octave 2
		note D_, 2
		octave 3
		note D_, 2
Music_UnovaBattle3_branch_21:
		octave 2
		note D#, 2
		octave 3
		note D#, 2
		octave 2
		note D#, 2
		octave 3
		note D#, 2
		octave 2
		note D#, 2
		octave 3
		note D#, 2
		octave 2
		note E_, 2
		note F_, 2
Music_UnovaBattle3_branch_22:
		note G_, 2
		octave 3
		note G_, 2
		octave 2
		note F_, 2
		octave 3
		note F_, 2
		octave 2
		note D#, 2
		octave 3
		note D#, 2
		octave 2
		note C#, 2
		octave 3
		note C#, 2
Music_UnovaBattle3_branch_23:
		octave 2
		note C#, 2
		octave 3
		note C#, 2
		octave 2
		note C#, 2
		octave 3
		note C#, 2
		octave 2
		note C#, 2
		octave 3
		note C#, 2
		octave 2
		note C#, 2
		octave 3
		note C#, 2
Music_UnovaBattle3_branch_24:
		octave 2
		note C#, 2
		octave 3
		note C#, 2
		octave 2
		note C#, 2
		octave 3
		note C#, 2
		octave 2
		note C#, 2
		octave 3
		note C#, 2
		octave 2
		note D_, 2
		octave 3
		note D_, 2
Music_UnovaBattle3_branch_25:
		octave 2
		note D#, 3
		note __, 1
		note D#, 2
		octave 3
		note D#, 2
		octave 2
		note D#, 2
		octave 3
		note D#, 2
		octave 2
		note D#, 2
		octave 3
		note D#, 2
Music_UnovaBattle3_branch_26:
		octave 2
		note D#, 2
		octave 3
		note D#, 2
		octave 2
		note E_, 2
		octave 3
		note E_, 2
		note G_, 2
		note E_, 2
		note D#, 1
		note E_, 1
		note C#, 2
Music_UnovaBattle3_branch_27:
		octave 2
		note D#, 2
		note A#, 2
		note D#, 2
		note A#, 2
		octave 3
		note E_, 2
		note E_, 2
		octave 2
		note D#, 2
		note G#, 2
Music_UnovaBattle3_branch_28:
		octave 3
		note F#, 2
		octave 2
		note D#, 2
		octave 3
		note G_, 2
		note C#, 2
		octave 2
		note D#, 2
		note A#, 2
		note D#, 2
		note A#, 2
Music_UnovaBattle3_branch_29:
		note D#, 2
		note A#, 2
		note D#, 2
		note A#, 2
		octave 3
		note E_, 2
		note E_, 2
		octave 2
		note D#, 2
		note G#, 2
Music_UnovaBattle3_branch_30:
		octave 3
		note E_, 2
		octave 2
		note D#, 2
		octave 3
		note G_, 2
		note C#, 2
		octave 2
		note D#, 2
		octave 3
		note D#, 2
		octave 2
		note D#, 2
		octave 3
		note G_, 2
Music_UnovaBattle3_branch_31:
		octave 2
		note D#, 2
		octave 3
		note D#, 2
		octave 2
		note D#, 2
		octave 3
		note D#, 2
		octave 2
		note D#, 2
		octave 3
		note D#, 2
		octave 2
		note D#, 2
		octave 3
		note D#, 2
Music_UnovaBattle3_branch_32:
		octave 2
		note D#, 2
		octave 3
		note D#, 2
		octave 2
		note D#, 2
		octave 3
		note D#, 2
		octave 2
		note D#, 2
		octave 3
		note D#, 2
		octave 2
		note D#, 2
		octave 3
		note D#, 2
Music_UnovaBattle3_branch_33:
		octave 2
		note D#, 2
		octave 3
		note D#, 2
		octave 2
		note D#, 2
		octave 3
		note D#, 2
		octave 2
		note D#, 2
		octave 3
		note D#, 2
		octave 2
		note D#, 2
		octave 3
		note D#, 2
Music_UnovaBattle3_branch_34:
		octave 2
		note D#, 2
		octave 3
		note D#, 2
		octave 2
		note D#, 2
		octave 3
		note D#, 2
		octave 2
		note D#, 2
		octave 3
		note D#, 2
		octave 2
		note D#, 2
		octave 3
		note D#, 2
Music_UnovaBattle3_branch_35:
		octave 2
		note E_, 2
		octave 3
		note E_, 2
		octave 2
		note E_, 2
		octave 3
		note E_, 2
		octave 2
		note E_, 2
		octave 3
		note E_, 2
		octave 2
		note E_, 2
		octave 3
		note E_, 2
Music_UnovaBattle3_branch_36:
		octave 2
		note E_, 2
		octave 3
		note E_, 2
		octave 2
		note E_, 2
		octave 3
		note E_, 2
		octave 2
		note E_, 2
		octave 3
		note E_, 2
		octave 2
		note E_, 2
		octave 3
		note E_, 2
Music_UnovaBattle3_branch_37:
		octave 2
		note D#, 2
		octave 3
		note D#, 2
		octave 2
		note D#, 2
		octave 3
		note D#, 2
		octave 2
		note D#, 2
		octave 3
		note D#, 2
		octave 2
		note D#, 2
		octave 3
		note D#, 2
Music_UnovaBattle3_branch_38:
		octave 2
		note D#, 2
		octave 3
		note D#, 2
		octave 2
		note D#, 2
		octave 3
		note D#, 2
		octave 2
		note D#, 2
		octave 3
		note D#, 2
		octave 2
		note D#, 2
		octave 3
		note D#, 2
Music_UnovaBattle3_branch_39:
		octave 2
		note D#, 2
		octave 3
		note D#, 2
		octave 2
		note D#, 2
		octave 3
		note D#, 2
		octave 2
		note D#, 2
		octave 3
		note D#, 2
		octave 2
		note D#, 2
		octave 3
		note D#, 2
Music_UnovaBattle3_branch_40:
		octave 2
		note D#, 2
		octave 3
		note D#, 2
		octave 2
		note D#, 2
		octave 3
		note D#, 2
		octave 2
		note D#, 2
		octave 3
		note D#, 2
		octave 2
		note D#, 2
		octave 3
		note D#, 2
Music_UnovaBattle3_branch_41:
		octave 2
		note E_, 2
		octave 3
		note E_, 2
		octave 2
		note E_, 2
		octave 3
		note E_, 2
		octave 2
		note E_, 2
		octave 3
		note E_, 2
		octave 2
		note E_, 2
		octave 3
		note E_, 2
Music_UnovaBattle3_branch_42:
		octave 2
		note C#, 2
		octave 3
		note C#, 2
		octave 2
		note C#, 2
		octave 3
		note C#, 2
		octave 2
		note C#, 2
		octave 3
		note C#, 2
		octave 2
		note C#, 2
		note D_, 2
Music_UnovaBattle3_branch_43:
		note D#, 2
		octave 3
		note D#, 2
		octave 2
		note D#, 2
		octave 3
		note D#, 2
		octave 2
		note D#, 2
		octave 3
		note D#, 2
		octave 2
		note D#, 2
		octave 3
		note D#, 2
Music_UnovaBattle3_branch_44:
		octave 2
		note D#, 2
		octave 3
		note D#, 2
		octave 2
		note D#, 2
		octave 3
		note D#, 2
		octave 2
		note D#, 2
		octave 3
		note D#, 2
		octave 2
		note D#, 2
		octave 3
		note D#, 2
Music_UnovaBattle3_branch_45:
		octave 2
		note D#, 2
		octave 3
		note D#, 2
		octave 2
		note D#, 2
		octave 3
		note D#, 2
		octave 2
		note D#, 2
		octave 3
		note D#, 2
		octave 2
		note D#, 2
		octave 3
		note D#, 2
Music_UnovaBattle3_branch_46:
		octave 2
		note D#, 2
		octave 3
		note D#, 2
		note D_, 2
		note D#, 2
		octave 2
		note D#, 2
		note G#, 2
		octave 3
		note D_, 4
Music_UnovaBattle3_branch_47:
		octave 2
		note C#, 2
		octave 3
		note C#, 2
		octave 2
		note C#, 2
		octave 3
		note C#, 2
		octave 2
		note C#, 2
		octave 3
		note C#, 2
		octave 2
		note C#, 2
		octave 3
		note C#, 2
Music_UnovaBattle3_branch_48:
		octave 2
		note C#, 2
		octave 3
		note F_, 2
		octave 2
		note C#, 2
		octave 3
		note D#, 2
		octave 2
		note C#, 2
		octave 3
		note C#, 2
		octave 2
		note D_, 2
		octave 3
		note D_, 2
Music_UnovaBattle3_branch_49:
		octave 2
		note D#, 2
		octave 3
		note D#, 2
		octave 2
		note D#, 2
		octave 3
		note D#, 2
		note C#, 2
		note D#, 2
		octave 2
		note D#, 2
		octave 3
		note D#, 2
Music_UnovaBattle3_branch_50:
		octave 2
		note D#, 2
		octave 3
		note G_, 1
		note G_, 1
		octave 2
		note D#, 2
		octave 3
		note F_, 1
		note F_, 1
		note D#, 2
		note C#, 2
		note D#, 2
		octave 2
		note A#, 2
Music_UnovaBattle3_branch_51:
		note C#, 2
		octave 3
		note C#, 2
		octave 2
		note C#, 2
		octave 3
		note C#, 2
		octave 2
		note G#, 2
		octave 3
		note F_, 2
		note C_, 2
		note C#, 2
Music_UnovaBattle3_branch_52:
		octave 2
		note C#, 2
		octave 3
		note F_, 2
		octave 2
		note C#, 2
		octave 3
		note D#, 2
		octave 2
		note C#, 2
		octave 3
		note C#, 2
		octave 2
		note C#, 2
		octave 3
		note D_, 2
Music_UnovaBattle3_branch_53:
		octave 2
		note D#, 2
		octave 3
		note D#, 2
		octave 2
		note D#, 2
		octave 3
		note D#, 2
		note C#, 2
		note D#, 2
		octave 2
		note D#, 2
		octave 3
		note D#, 2
Music_UnovaBattle3_branch_54:
		octave 2
		note D#, 2
		octave 3
		note G_, 1
		note G_, 1
		octave 2
		note D#, 2
		octave 3
		note G_, 1
		note G_, 1
		octave 2
		note D#, 2
		octave 3
		note D#, 2
		octave 2
		note E_, 2
		octave 3
		note E_, 2
Music_UnovaBattle3_branch_55:
		octave 2
		note F_, 2
		octave 3
		note F_, 2
		octave 2
		note F_, 2
		octave 3
		note F_, 2
		octave 2
		note F_, 2
		octave 3
		note C_, 2
		note F_, 2
		note A_, 2
Music_UnovaBattle3_branch_56:
		note F_, 2
		note C_, 2
		note F_, 2
		octave 2
		note F_, 2
		note A_, 2
		note G#, 2
		octave 3
		note C_, 2
		octave 2
		note F_, 2
Music_UnovaBattle3_branch_57:
		note G_, 2
		octave 3
		note G_, 2
		octave 2
		note G_, 2
		octave 3
		note G_, 2
		octave 2
		note G_, 2
		octave 3
		note D_, 2
		note G_, 2
		note B_, 2
Music_UnovaBattle3_branch_58:
		note G_, 2
		note D_, 2
		note G_, 2
		octave 2
		note G_, 2
		octave 3
		note G_, 2
		note D_, 2
		octave 2
		note G_, 2
		note G#, 2
Music_UnovaBattle3_branch_59:
		note A_, 2
		octave 3
		note A_, 2
		octave 2
		note A_, 2
		octave 3
		note A_, 2
		octave 2
		note A_, 2
		octave 3
		note E_, 2
		note A_, 2
		octave 4
		note C#, 2
Music_UnovaBattle3_branch_60:
		octave 3
		note A_, 2
		note E_, 2
		note A_, 2
		octave 2
		note A_, 2
		octave 3
		note A_, 2
		note E_, 2
		octave 2
		note G_, 2
		note G#, 2
Music_UnovaBattle3_branch_61:
		note A_, 2
		octave 3
		note A_, 2
		note __, 2
		note A_, 2
		octave 2
		note A_, 2
		octave 3
		note E_, 2
		note A_, 2
		octave 4
		note C#, 2
Music_UnovaBattle3_branch_62:
		octave 3
		note A_, 2
		note G_, 2
		note A_, 2
		octave 2
		note A_, 2
		note A#, 2
		note A_, 2
		note G_, 2
		note A#, 2
Music_UnovaBattle3_branch_63:
		note A_, 2
		octave 3
		note A_, 1
		note __, 1
		note A_, 1
		note __, 1
		octave 2
		note A_, 2
		octave 3
		note A_, 1
		note __, 1
		note E_, 1
		note __, 1
		note E_, 2
		note A#, 2
Music_UnovaBattle3_branch_64:
		octave 2
		note A_, 2
		octave 3
		note E_, 1
		note __, 1
		note A_, 1
		note __, 1
		octave 2
		note C#, 2
		note A_, 1
		note __, 1
		note A#, 1
		note __, 1
		note A_, 2
		note E_, 2
Music_UnovaBattle3_branch_65:
		note C#, 2
		note A_, 2
		note D_, 2
		note A#, 2
		note C#, 2
		note A_, 2
		note E_, 2
		octave 3
		note C_, 2
Music_UnovaBattle3_branch_66:
		octave 2
		note C#, 2
		note A_, 2
		note F#, 2
		octave 3
		note D_, 2
		octave 2
		note C#, 2
		note A_, 2
		note G_, 2
		octave 3
		note D#, 2
Music_UnovaBattle3_branch_67:
		octave 2
		note D#, 2
		note B_, 2
		note E_, 2
		octave 3
		note C_, 2
		octave 2
		note D#, 2
		note B_, 2
		note F#, 2
		octave 3
		note D_, 2
Music_UnovaBattle3_branch_68:
		octave 2
		note D#, 2
		note B_, 2
		note G#, 2
		octave 3
		note E_, 2
		octave 2
		note D#, 2
		note B_, 2
		note G#, 2
		octave 3
		note D#, 2
Music_UnovaBattle3_branch_69:
		octave 2
		note D#, 1
		note F#, 1
		note __, 2
		note __, 1
		note __, 1
		octave 1
		note G#, 1
		note __, 2
		note __, 2
		note __, 1
		note __, 1
		octave 2
		note G#, 1
		note F#, 1
		note __, 2
Music_UnovaBattle3_branch_70:
		note __, 1
		note __, 1
		octave 1
		note G#, 1
		note __, 2
		note __, 2
		note __, 1
		note __, 1
		octave 2
		note C#, 1
		note E_, 1
		note __, 2
		note __, 1
		note __, 1
Music_UnovaBattle3_branch_71:
		note E_, 1
		note C#, 1
		octave 1
		note __, 2
		note __, 1
		note __, 1
		octave 2
		note A_, 1
		note G#, 1
		note __, 2
		note __, 1
		note __, 1
		note E_, 1
		note A_, 1
		octave 3
		note __, 2
Music_UnovaBattle3_branch_72:
		note __, 1
		note __, 1
		octave 2
		note B_, 1
		note A_, 1
		note __, 1
		octave 1
		note B_, 1
		octave 2
		note __, 1
		octave 1
		note __, 1
		note __, 2
		note B_, 1
		note __, 2
		note __, 1
		note __, 1
		octave 2
		note F#, 1
Music_UnovaBattle3_branch_73:
		note A_, 1
		note __, 2
		note __, 1
		note __, 1
		octave 1
		note __, 1
		note __, 1
		note __, 1
		note B_, 1
		octave 2
		note F#, 1
		note __, 1
		octave 3
		note C#, 1
		note __, 1
		note __, 2
		note __, 1
Music_UnovaBattle3_branch_74:
		note __, 1
		octave 2
		note C#, 1
		note __, 1
		note __, 2
		note __, 1
		note __, 1
		note F_, 1
		note G#, 1
		octave 3
		note __, 2
		note __, 1
		note __, 1
		octave 2
		note C#, 2
		note __, 1
Music_UnovaBattle3_branch_75:
		note __, 1
		note __, 1
		note __, 1
		note C#, 2
		octave 3
		note C_, 2
		note F_, 2
		note C_, 2
		note F#, 2
		note F#, 2
		octave 2
		note F_, 2
Music_UnovaBattle3_branch_76:
		note A#, 2
		octave 3
		note G#, 2
		octave 2
		note F_, 2
		octave 3
		note A_, 2
		note D#, 2
		octave 2
		note F_, 2
		octave 3
		note C_, 2
		note F_, 2
Music_UnovaBattle3_branch_77:
		note F#, 2
		octave 2
		note F_, 2
		octave 3
		note C_, 2
		note F_, 2
		note C_, 2
		note F#, 2
		note F#, 2
		octave 2
		note F_, 2
Music_UnovaBattle3_branch_78:
		note A#, 2
		octave 3
		note G#, 2
		octave 2
		note F_, 2
		octave 3
		note A_, 2
		note D#, 2
		octave 2
		note F_, 2
		octave 3
		note C_, 2
		note F_, 2
Music_UnovaBattle3_branch_79:
		note F#, 2
		note __, 16
Music_UnovaBattle3_branch_80:
		intensity $11
		octave 4
		note D_, 1
		octave 3
		octave 4
		octave 3
		octave 4
		note C#, 1
		octave 3
		octave 4
		octave 3
		octave 4
		note D_, 1
		octave 3
		octave 4
		octave 3
		octave 4
		note C#, 1
		octave 3
		octave 4
		octave 3
		octave 4
		note C_, 1
		octave 3
		octave 4
		octave 3
		octave 4
		note C#, 1
		octave 3
		octave 4
		octave 3
		octave 4
		note C_, 1
		octave 3
		octave 4
		octave 3
		note B_, 1
		octave 4
		note C_, 1
		octave 3
		octave 4
		octave 3
		note B_, 1
		note A#, 1
		note B_, 1
		note A#, 1
Music_UnovaBattle3_branch_81:
		note B_, 1
		note A#, 1
		note F_, 1
		octave 4
		note E_, 16
Music_UnovaBattle3_branch_82:
		octave 3
		note B_, 15
Music_UnovaBattle3_branch_83:
		note __, 1
		octave 4
		note __, 2
		octave 3
		note E_, 4
		note __, 2
		octave 4
		note E_, 2
		octave 3
		note E_, 4
Music_UnovaBattle3_branch_84:
		note E_, 2
		octave 4
		note E_, 4
		octave 3
		note E_, 4
		octave 4
		note E_, 4
		octave 3
		note E_, 4
Music_UnovaBattle3_branch_85:
		octave 4
		note F_, 15
Music_UnovaBattle3_branch_86:
		note __, 1
		note C_, 16
Music_UnovaBattle3_branch_87:
		note F_, 2
		octave 3
		note F_, 4
		note __, 2
		octave 4
		note F_, 2
		octave 3
		note F_, 4
Music_UnovaBattle3_branch_88:
		note F_, 2
		octave 4
		note F_, 4
		octave 3
		note F_, 4
		octave 4
		note F_, 4
		note C_, 1
Music_UnovaBattle3_branch_89:
		note C_, 1
		note C_, 1
		note C_, 1
		octave 3
		note F_, 10
		note __, 16
Music_UnovaBattle3_branch_90:
		note __, 16
Music_UnovaBattle3_branch_91:
		note __, 6
Music_UnovaBattle3_branch_92:
		note F_, 6
		octave 4
		note F#, 2
		note F#, 2
		note C#, 6
Music_UnovaBattle3_branch_93:
		octave 3
		note F_, 12
		note __, 16
Music_UnovaBattle3_branch_94:
		note __, 16
Music_UnovaBattle3_branch_95:
		note __, 4
Music_UnovaBattle3_branch_96:
		note A_, 5
		note __, 1
		octave 4
		note D#, 2
		note D#, 2
		octave 3
		note A#, 4
Music_UnovaBattle3_branch_97:
		octave 4
		note D#, 2
		octave 3
		note G#, 16
Music_UnovaBattle3_branch_98:
		note __, 16
Music_UnovaBattle3_branch_99:
		note __, 16
Music_UnovaBattle3_branch_100:
		note __, 16
Music_UnovaBattle3_branch_101:
		note __, 16
Music_UnovaBattle3_branch_102:
		note __, 16
Music_UnovaBattle3_branch_103:
		note __, 16
Music_UnovaBattle3_branch_104:
		note __, 16
Music_UnovaBattle3_branch_105:
		note D#, 2
		note A#, 2
		note D#, 2
		note A#, 2
		octave 4
		note E_, 2
		note E_, 2
		octave 3
		note D#, 2
Music_UnovaBattle3_branch_106:
		note G#, 2
		octave 4
		note F#, 2
		octave 3
		note D#, 2
		octave 4
		note G_, 2
		note C#, 2
		octave 3
		note D#, 2
		note A#, 2
		note D#, 2
Music_UnovaBattle3_branch_107:
		note A#, 2
		note D#, 2
		note A#, 2
		note D#, 2
		note A#, 2
		octave 4
		note E_, 2
		note E_, 2
		octave 3
		note D#, 2
Music_UnovaBattle3_branch_108:
		note G#, 2
		octave 4
		note E_, 2
		octave 3
		note D#, 2
		octave 4
		note G_, 2
		note C#, 2
		octave 3
		note D#, 2
		note G_, 2
		note D#, 2
Music_UnovaBattle3_branch_109:
		note G_, 2
		note __, 16
Music_UnovaBattle3_branch_110:
		note __, 16
Music_UnovaBattle3_branch_111:
		note __, 16
Music_UnovaBattle3_branch_112:
		note __, 16
Music_UnovaBattle3_branch_113:
		note __, 16
Music_UnovaBattle3_branch_114:
		note __, 16
Music_UnovaBattle3_branch_115:
		note __, 16
Music_UnovaBattle3_branch_116:
		note __, 16
Music_UnovaBattle3_branch_117:
		note __, 9
		octave 4
		note D#, 2
		note F_, 2
Music_UnovaBattle3_branch_118:
		note G#, 2
		note F_, 2
		note G_, 16
Music_UnovaBattle3_branch_119:
		note G#, 8
		octave 3
		note B_, 4
Music_UnovaBattle3_branch_120:
		octave 4
		note C_, 4
		note C#, 12
Music_UnovaBattle3_branch_121:
		note E_, 4
		note G_, 8
		note D#, 4
Music_UnovaBattle3_branch_122:
		note F_, 4
		note G_, 8
		note G_, 2
		note F_, 2
Music_UnovaBattle3_branch_123:
		note D#, 2
		note F_, 2
		note G_, 8
		note D#, 2
		note F_, 2
Music_UnovaBattle3_branch_124:
		note A#, 2
		note G#, 2
		note G_, 6
		note __, 9
Music_UnovaBattle3_branch_125:
		note F_, 2
		note D#, 2
		note F_, 2
		note G#, 6
		note F_, 4
Music_UnovaBattle3_branch_126:
		note E_, 1
		note F_, 7
		note C#, 2
		note F_, 2
		octave 5
		note C#, 2
Music_UnovaBattle3_branch_127:
		octave 4
		note G#, 2
		note G#, 6
		note G_, 10
Music_UnovaBattle3_branch_128:
		note A#, 2
		note A_, 2
		note A#, 2
		octave 5
		note D#, 6
		note __, 4
Music_UnovaBattle3_branch_129:
		octave 4
		note F_, 2
		note __, 4
		note G#, 6
		note F_, 4
Music_UnovaBattle3_branch_130:
		note F_, 8
		note C#, 2
		note F_, 2
		octave 5
		note C#, 2
Music_UnovaBattle3_branch_131:
		octave 4
		note G#, 2
		note A#, 6
		note D#, 6
		note A#, 4
Music_UnovaBattle3_branch_132:
		note A#, 2
		note A_, 2
		note A#, 6
		octave 5
		note D#, 2
		note __, 4
Music_UnovaBattle3_branch_133:
		octave 4
		note A_, 2
		note __, 4
		note F_, 6
		note A_, 4
Music_UnovaBattle3_branch_134:
		octave 5
		note C_, 16
Music_UnovaBattle3_branch_135:
		octave 4
		note B_, 2
		note __, 4
		note G_, 6
		note B_, 4
Music_UnovaBattle3_branch_136:
		octave 5
		note D_, 12
		note __, 4
Music_UnovaBattle3_branch_137:
		note C#, 2
		note __, 4
		octave 4
		note A_, 6
		octave 5
		note C#, 4
Music_UnovaBattle3_branch_138:
		note E_, 16
Music_UnovaBattle3_branch_139:
		octave 4
		note G_, 2
		note G_, 4
		note E_, 6
		note G_, 4
Music_UnovaBattle3_branch_140:
		note C#, 16
Music_UnovaBattle3_branch_141:
		note __, 16
Music_UnovaBattle3_branch_142:
		note __, 8
		octave 3
		note G_, 1
		note G_, 1
		note G_, 1
		note G_, 1
		note G_, 1
Music_UnovaBattle3_branch_143:
		note G_, 1
		note G_, 1
		note G_, 1
		octave 4
		note C#, 4
		note __, 2
		note C#, 4
		note __, 2
		note C#, 4
Music_UnovaBattle3_branch_144:
		note __, 2
		note C#, 4
		note __, 2
		octave 3
		note F#, 4
		note F#, 4
Music_UnovaBattle3_branch_145:
		octave 4
		note D#, 4
		note __, 2
		note D#, 4
		note __, 2
		note D#, 4
Music_UnovaBattle3_branch_146:
		note __, 2
		note D#, 4
		note __, 2
		octave 3
		note G#, 4
		note G#, 4
Music_UnovaBattle3_branch_147:
		note G#, 16
Music_UnovaBattle3_branch_148:
		note G#, 6
		note __, 16
Music_UnovaBattle3_branch_149:
		note __, 16
Music_UnovaBattle3_branch_150:
		note __, 16
Music_UnovaBattle3_branch_151:
		note __, 16
Music_UnovaBattle3_branch_152:
		note __, 16
Music_UnovaBattle3_branch_153:
		note __, 16
Music_UnovaBattle3_branch_154:
		note __, 16
Music_UnovaBattle3_branch_155:
		note __, 16
Music_UnovaBattle3_branch_156:
		note __, 16
Music_UnovaBattle3_branch_157:
		note __, 16
Music_UnovaBattle3_branch_158:
		note __, 6
		octave 4
		note C_, 1
Music_UnovaBattle3_branch_159:
		note C_, 1
		note C_, 1
		note C_, 1
		octave 6
		intensity $12
		note E_, 1
		octave 5
		note B_, 1
		octave 6
		note E_, 1
		note __, 1
		note E_, 1
		octave 5
		note B_, 1
		octave 6
		note E_, 1
		note __, 1
		note E_, 1
		octave 5
		note B_, 1
		octave 6
		note E_, 1
		note __, 1
		note E_, 1
Music_UnovaBattle3_branch_160:
		octave 5
		note B_, 1
		octave 6
		note E_, 1
		note __, 1
		note E_, 1
		octave 5
		note B_, 1
		octave 6
		note E_, 1
		note __, 1
		note E_, 1
		octave 5
		note B_, 1
		octave 6
		note E_, 1
		note __, 1
		note E_, 1
		octave 5
		note B_, 1
		octave 6
		note E_, 1
		note __, 1
		note E_, 1
Music_UnovaBattle3_branch_161:
		octave 5
		note B_, 1
		octave 6
		note E_, 1
		note __, 1
		note __, 16
Music_UnovaBattle3_branch_162:
		note __, 16
Music_UnovaBattle3_branch_163:
		octave 4
		octave 5
		note E_, 1
		octave 4
		octave 5
		note __, 1
		octave 4
		octave 5
		note E_, 1
		octave 4
		octave 5
		note __, 1
		note G_, 4
		octave 4
		octave 5
		note E_, 1
		octave 4
		octave 5
		note __, 1
		octave 4
		octave 5
		note E_, 1
		octave 4
		octave 5
		note __, 1
		note A_, 4
Music_UnovaBattle3_branch_164:
		octave 4
		octave 5
		note E_, 1
		octave 4
		octave 5
		note __, 1
		octave 4
		octave 5
		note E_, 1
		octave 4
		octave 5
		note __, 1
		note A#, 4
		octave 4
		octave 5
		note E_, 1
		octave 4
		octave 5
		note __, 1
		octave 4
		octave 5
		note E_, 1
		octave 4
		octave 5
		note __, 1
		note B_, 4
Music_UnovaBattle3_branch_165:
		note __, 16
Music_UnovaBattle3_branch_166:
		note __, 16
Music_UnovaBattle3_branch_167:
		note F_, 1
		note __, 1
		note F_, 1
		note __, 1
		note G#, 4
		note F_, 1
		note __, 1
		note F_, 1
		note __, 1
		note A#, 4
Music_UnovaBattle3_branch_168:
		note F_, 1
		note __, 1
		note F_, 1
		note __, 1
		note B_, 4
		note F_, 1
		note __, 1
		note F_, 1
		note __, 1
		octave 6
		note C_, 4
Music_UnovaBattle3_branch_169:
		octave 5
		octave 6
		note __, 16
Music_UnovaBattle3_branch_170:
		note __, 16
Music_UnovaBattle3_branch_171:
		note __, 16
Music_UnovaBattle3_branch_172:
		octave 5
		note F_, 1
		note __, 1
		note F#, 10
		octave 4
		octave 5
		octave 4
		octave 5
		octave 4
		octave 5
		octave 4
		octave 5
		octave 4
		octave 5
		octave 4
		octave 5
		octave 4
		note A_, 1
Music_UnovaBattle3_branch_173:
		note F_, 1
		octave 5
		note C_, 16
Music_UnovaBattle3_branch_174:
		note __, 16
Music_UnovaBattle3_branch_175:
		note __, 16
Music_UnovaBattle3_branch_176:
		octave 4
		octave 5
		note D_, 1
		octave 4
		octave 5
		note __, 1
		octave 4
		octave 5
		note D#, 10
		octave 4
		octave 5
		octave 4
		octave 5
		octave 4
		octave 5
		octave 4
		octave 5
		octave 4
		octave 5
		octave 4
		note F_, 1
		note G_, 1
		octave 5
		note C#, 6
Music_UnovaBattle3_branch_177:
		note C_, 2
		octave 4
		note G#, 6
		note G_, 2
		note F_, 6
Music_UnovaBattle3_branch_178:
		note G_, 2
		note G#, 6
		note A#, 2
		octave 5
		note C_, 14
Music_UnovaBattle3_branch_179:
		note C#, 2
		octave 4
		note A#, 2
Music_UnovaBattle3_branch_180:
		octave 5
		octave 4
		octave 5
		note __, 4
		octave 4
		octave 5
		octave 4
		octave 5
		note __, 2
		octave 4
		octave 5
		note D#, 1
		octave 4
		octave 5
		octave 4
		octave 5
		octave 4
		octave 5
		note __, 1
		octave 4
		octave 5
		octave 4
		octave 5
		note __, 4
		octave 4
		octave 5
		octave 4
		octave 5
		note __, 2
		note F_, 6
Music_UnovaBattle3_branch_181:
		note D#, 2
		note C#, 6
		note C_, 2
		octave 4
		note A#, 6
Music_UnovaBattle3_branch_182:
		note G#, 2
		note F_, 6
		note G#, 2
		octave 3
		octave 4
		note G_, 2
Music_UnovaBattle3_branch_183:
		octave 3
		octave 4
		octave 3
		octave 4
		note G_, 4
		octave 3
		octave 4
		note A#, 2
		octave 5
		note D#, 1
		octave 4
		octave 5
		octave 4
		octave 5
		octave 4
		octave 5
		octave 4
		octave 5
		octave 4
		octave 5
		octave 4
		note __, 6
		octave 5
		note D#, 1
		octave 4
		octave 5
		note __, 1
Music_UnovaBattle3_branch_184:
		octave 4
		octave 5
		octave 4
		octave 5
		note __, 4
		octave 4
		octave 5
		octave 4
		octave 5
		note __, 2
		octave 4
		octave 5
		note D#, 1
		octave 4
		octave 5
		octave 4
		octave 5
		octave 4
		octave 5
		note __, 1
		octave 4
		octave 5
		octave 4
		octave 5
		note __, 2
		octave 4
		octave 5
		note D#, 1
		octave 4
		octave 5
		note __, 1
		octave 4
		octave 5
		note C#, 1
		octave 4
		octave 5
		note __, 1
		octave 4
		note A#, 1
		note __, 1
Music_UnovaBattle3_branch_185:
		note A#, 1
		note __, 7
		note A#, 1
		note __, 1
		note A#, 1
		note __, 5
Music_UnovaBattle3_branch_186:
		octave 5
		note E_, 1
		octave 4
		octave 5
		note __, 1
		octave 4
		octave 5
		note E_, 1
		octave 4
		octave 5
		note __, 3
		octave 4
		octave 5
		note D#, 1
		octave 4
		octave 5
		note __, 1
		octave 4
		octave 5
		note D#, 1
		octave 4
		octave 5
		note __, 1
		octave 4
		octave 5
		note C#, 1
		octave 4
		octave 5
		octave 4
		octave 5
		octave 4
		octave 5
		note __, 1
		octave 4
		octave 5
		octave 4
		octave 5
		note __, 1
		octave 4
		octave 5
		octave 4
		octave 5
		note __, 1
		octave 3
		octave 4
		note C#, 16
Music_UnovaBattle3_branch_187:
		note C#, 8
Music_UnovaBattle3_branch_188:
		octave 3
		octave 4
		octave 5
		note C#, 8
		octave 4
		octave 5
		note __, 16
Music_UnovaBattle3_branch_189:
		note __, 16
Music_UnovaBattle3_branch_190:
		octave 4
		note D#, 1
		note __, 1
Music_UnovaBattle3_branch_191:
		octave 5
		note D#, 1
		octave 4
		octave 5
		note __, 1
		octave 4
		octave 5
		note D#, 1
		octave 4
		octave 5
		note __, 1
		octave 4
		note D#, 1
		note __, 1
		octave 5
		note E_, 1
		octave 4
		octave 5
		note __, 1
		octave 4
		octave 5
		note E_, 1
		octave 4
		octave 5
		note __, 1
		octave 4
		note D#, 1
		note __, 1
		octave 5
		note F#, 1
		note __, 1
		note F#, 1
		note __, 1
Music_UnovaBattle3_branch_192:
		octave 4
		note D#, 1
		note __, 1
		octave 5
		note G_, 1
		note __, 1
		note G_, 1
		note __, 16
Music_UnovaBattle3_branch_193:
		note __, 16
Music_UnovaBattle3_branch_194:
		note __, 16
Music_UnovaBattle3_branch_195:
		note __, 16
Music_UnovaBattle3_branch_196:
		note __, 9
		octave 4
		note G_, 8
Music_UnovaBattle3_branch_197:
		octave 3
		note G_, 4
		note G#, 4
		note A#, 8
Music_UnovaBattle3_branch_198:
		note G_, 8
		octave 4
		note E_, 8
Music_UnovaBattle3_branch_199:
		octave 3
		note G#, 4
		note A#, 4
		note B_, 8
Music_UnovaBattle3_branch_200:
		note G#, 4
		octave 4
		note E_, 4
		note D#, 8
Music_UnovaBattle3_branch_201:
		octave 3
		note A#, 12
Music_UnovaBattle3_branch_202:
		note G_, 12
		note D#, 8
Music_UnovaBattle3_branch_203:
		note C#, 4
		note D#, 4
		note A#, 8
Music_UnovaBattle3_branch_204:
		note A_, 4
		octave 4
		note D_, 4
		note __, 16
Music_UnovaBattle3_branch_205:
		note __, 16
Music_UnovaBattle3_branch_206:
		note __, 16
Music_UnovaBattle3_branch_207:
		note __, 16
Music_UnovaBattle3_branch_208:
		note __, 16
Music_UnovaBattle3_branch_209:
		note __, 16
Music_UnovaBattle3_branch_210:
		note __, 16
Music_UnovaBattle3_branch_211:
		note __, 16
Music_UnovaBattle3_branch_212:
		note __, 16
Music_UnovaBattle3_branch_213:
		note __, 16
Music_UnovaBattle3_branch_214:
		note __, 16
Music_UnovaBattle3_branch_215:
		note __, 16
Music_UnovaBattle3_branch_216:
		note __, 16
Music_UnovaBattle3_branch_217:
		note __, 16
Music_UnovaBattle3_branch_218:
		note __, 16
Music_UnovaBattle3_branch_219:
		note __, 16
Music_UnovaBattle3_branch_220:
		octave 3
		note E_, 2
Music_UnovaBattle3_branch_221:
		note __, 4
		note G_, 6
		note A_, 4
		octave 4
		note C_, 1
		note C#, 12
Music_UnovaBattle3_branch_222:
		note __, 1
		octave 2
		note G#, 1
		note G_, 1
		note F#, 1
		note __, 1
Music_UnovaBattle3_branch_223:
		note F#, 1
		note __, 1
		octave 3
		note C#, 4
		octave 2
		note F#, 1
		note __, 1
		note F#, 1
		note __, 1
		octave 3
		note D_, 4
		octave 2
		note F#, 1
		note __, 1
Music_UnovaBattle3_branch_224:
		note F#, 1
		note __, 1
		octave 3
		note C#, 4
		octave 2
		note F#, 1
		note __, 1
		note F#, 1
		note __, 1
		note F_, 4
		note F#, 1
		note __, 1
Music_UnovaBattle3_branch_225:
		note F#, 1
		note __, 1
		octave 3
		note D#, 4
		octave 2
		note F#, 1
		note __, 1
		note F#, 1
		note __, 1
		octave 3
		note E_, 4
		octave 2
		note F#, 1
		note __, 1
Music_UnovaBattle3_branch_226:
		note F#, 1
		note __, 1
		octave 3
		note D#, 4
		octave 2
		note F#, 1
		note __, 1
		note F#, 1
		note __, 1
		note G#, 1
		note __, 1
		note D#, 2
		note __, 16
Music_UnovaBattle3_branch_227:
		note __, 16
Music_UnovaBattle3_branch_228:
		note __, 16
Music_UnovaBattle3_branch_229:
		note __, 16
Music_UnovaBattle3_branch_230:
		note __, 16
Music_UnovaBattle3_branch_231:
		note __, 16
Music_UnovaBattle3_branch_232:
		note __, 16
Music_UnovaBattle3_branch_233:
		note __, 8
Music_UnovaBattle3_branch_234:
		octave 4
		note C#, 1
		note __, 1
		note C#, 1
		note C#, 1
		note C#, 1
		note C#, 1
		note C#, 16
Music_UnovaBattle3_branch_235:
		note __, 16
Music_UnovaBattle3_branch_236:
		note __, 16
Music_UnovaBattle3_branch_237:
		note __, 12
Music_UnovaBattle3_branch_238:
		note A#, 1
		octave 5
		note C_, 1
		octave 4
		octave 5
		octave 4
		octave 5
		note D_, 1
		octave 4
		octave 5
		octave 4
		octave 5
		note E_, 1
		octave 4
		octave 5
		octave 6
		intensity $13
		note E_, 1
		octave 5
		note B_, 1
		octave 6
		note E_, 1
		note B_, 1
Music_UnovaBattle3_branch_239:
		note E_, 1
		octave 5
		note B_, 1
		octave 6
		note E_, 1
		note B_, 1
		note E_, 1
		octave 5
		note B_, 1
		octave 6
		note E_, 1
		note B_, 1
		note E_, 1
		octave 5
		note B_, 1
		octave 6
		note E_, 1
		note B_, 1
		note E_, 1
		octave 5
		note B_, 1
		octave 6
		note E_, 1
		note B_, 1
Music_UnovaBattle3_branch_240:
		note E_, 1
		octave 5
		note B_, 1
		octave 6
		note E_, 1
		note B_, 1
		note E_, 1
		octave 5
		note B_, 1
		octave 6
		note E_, 1
		note B_, 1
		note E_, 1
		octave 5
		note B_, 1
		octave 6
		note E_, 1
		note B_, 1
		octave 5
		octave 6
		note E_, 12
Music_UnovaBattle3_branch_241:
		octave 5
		octave 6
		octave 5
		octave 4
		octave 5
		note E_, 16
Music_UnovaBattle3_branch_242:
		octave 4
		octave 5
		note __, 16
Music_UnovaBattle3_branch_243:
		note __, 16
Music_UnovaBattle3_branch_244:
		octave 6
		note F_, 12
Music_UnovaBattle3_branch_245:
		octave 5
		octave 6
		octave 5
		note F_, 16
Music_UnovaBattle3_branch_246:
		note __, 16
Music_UnovaBattle3_branch_247:
		note __, 12
Music_UnovaBattle3_branch_248:
		octave 4
		note A#, 1
		octave 5
		note C_, 1
		octave 4
		octave 5
		octave 4
		octave 5
		note D_, 1
		octave 4
		octave 5
		octave 4
		octave 5
		note E_, 1
		octave 4
		octave 5
		octave 4
		octave 5
		note F_, 16
Music_UnovaBattle3_branch_249:
		octave 4
		octave 5
		octave 4
		octave 5
		note F_, 1
		octave 4
		octave 5
		note __, 1
		octave 4
		octave 5
		note C_, 6
		octave 4
		octave 5
		octave 4
		octave 5
		note F_, 1
		octave 4
		octave 5
		note __, 3
Music_UnovaBattle3_branch_250:
		octave 6
		note C_, 1
		octave 5
		octave 6
		note __, 3
		octave 5
		octave 6
		note C_, 1
		octave 5
		octave 6
		note __, 1
		octave 5
		octave 6
		note C#, 16
Music_UnovaBattle3_branch_251:
		note C#, 12
Music_UnovaBattle3_branch_252:
		octave 5
		octave 6
		octave 5
		note __, 1
		note __, 1
		octave 4
		octave 5
		note F_, 16
Music_UnovaBattle3_branch_253:
		octave 4
		octave 5
		octave 4
		octave 5
		note F_, 1
		octave 4
		octave 5
		note __, 1
		octave 4
		octave 5
		note C_, 6
		octave 4
		octave 5
		octave 4
		octave 5
		note F_, 1
		octave 4
		octave 5
		note __, 3
Music_UnovaBattle3_branch_254:
		octave 6
		note C_, 1
		octave 5
		octave 6
		note __, 3
		octave 5
		octave 6
		note C_, 1
		octave 5
		octave 6
		note __, 1
		octave 4
		octave 5
		note A#, 16
Music_UnovaBattle3_branch_255:
		note A#, 10
Music_UnovaBattle3_branch_256:
		octave 4
		octave 5
		octave 4
		octave 5
		note C#, 1
		octave 4
		octave 5
		octave 4
		octave 5
		note D#, 1
		octave 4
		octave 5
		octave 4
		octave 5
		note F_, 1
		octave 4
		octave 5
		octave 4
		octave 5
		note G_, 1
		octave 4
		octave 5
		octave 4
		octave 5
		note G#, 16
Music_UnovaBattle3_branch_257:
		octave 4
		octave 5
		octave 4
		octave 5
		note F_, 8
		octave 4
		octave 5
		octave 6
		note C_, 4
Music_UnovaBattle3_branch_258:
		octave 5
		octave 6
		octave 4
		octave 5
		note G#, 4
		octave 4
		octave 5
		octave 4
		octave 5
		note G_, 6
		octave 4
		octave 5
		octave 4
		octave 5
		note A#, 16
Music_UnovaBattle3_branch_259:
		note A#, 10
Music_UnovaBattle3_branch_260:
		octave 4
		octave 5
		octave 4
		octave 5
		note G#, 16
Music_UnovaBattle3_branch_261:
		octave 4
		octave 5
		octave 4
		octave 5
		note F_, 8
		octave 4
		octave 5
		octave 6
		note C_, 4
Music_UnovaBattle3_branch_262:
		octave 5
		octave 6
		octave 4
		octave 5
		note G#, 4
		octave 4
		octave 5
		octave 4
		octave 5
		note A#, 6
		octave 4
		octave 5
		octave 6
		note D#, 16
Music_UnovaBattle3_branch_263:
		note D#, 10
Music_UnovaBattle3_branch_264:
		octave 5
		octave 6
		note __, 16
Music_UnovaBattle3_branch_265:
		note __, 16
Music_UnovaBattle3_branch_266:
		note __, 16
Music_UnovaBattle3_branch_267:
		note __, 16
Music_UnovaBattle3_branch_268:
		octave 4
		note D#, 1
		note __, 1
		octave 5
		note D#, 1
		octave 4
		octave 5
		note __, 1
		octave 4
		octave 5
		note D#, 1
		octave 4
		octave 5
		note __, 1
		octave 4
		note D#, 1
		note __, 1
		octave 5
		note E_, 1
		octave 4
		octave 5
		note __, 1
		octave 4
		octave 5
		note E_, 1
		octave 4
		octave 5
		note __, 1
Music_UnovaBattle3_branch_269:
		octave 4
		note D#, 1
		note __, 1
		octave 5
		note F#, 1
		note __, 1
		note F#, 1
		note __, 1
		octave 4
		note D#, 1
		note __, 1
		octave 5
		note G_, 1
		note __, 1
		note G_, 1
		note __, 3
		octave 4
		note D#, 1
		note __, 1
Music_UnovaBattle3_branch_270:
		note C#, 1
		note __, 1
		note D#, 1
		note __, 1
		note D#, 1
		note __, 1
		octave 5
		note D#, 1
		octave 4
		octave 5
		note __, 1
		octave 4
		octave 5
		note D#, 1
		octave 4
		octave 5
		note __, 1
		octave 4
		note D#, 1
		note __, 1
		octave 5
		note E_, 1
		octave 4
		octave 5
		note __, 1
		octave 4
		octave 5
		note E_, 1
		octave 4
		octave 5
		note __, 1
Music_UnovaBattle3_branch_271:
		octave 4
		note D#, 1
		note __, 1
		octave 5
		note F#, 1
		note __, 1
		note F#, 1
		note __, 1
		octave 4
		note D#, 1
		note __, 1
		octave 5
		note G_, 1
		note __, 1
		note G_, 1
		note __, 9
Music_UnovaBattle3_branch_272:
		octave 4
		note E_, 1
		note __, 1
		octave 5
		note E_, 1
		octave 4
		octave 5
		note __, 1
		octave 4
		octave 5
		note E_, 1
		octave 4
		octave 5
		note __, 1
		octave 4
		note E_, 1
		note __, 1
		octave 5
		note F_, 1
		note __, 1
		note F_, 1
		note __, 1
Music_UnovaBattle3_branch_273:
		octave 4
		note E_, 1
		note __, 1
		octave 5
		note G_, 1
		note __, 1
		note G_, 1
		note __, 1
		octave 4
		note E_, 1
		note __, 1
		octave 5
		note G#, 1
		note __, 1
		note G#, 1
		note __, 1
		note G#, 1
		note __, 1
		octave 4
		note E_, 1
		note __, 1
Music_UnovaBattle3_branch_274:
		note C#, 1
		note __, 1
		note E_, 1
		note __, 1
		note D#, 1
		note __, 1
		octave 5
		note D#, 1
		octave 4
		octave 5
		note __, 1
		octave 4
		octave 5
		note D_, 1
		octave 4
		octave 5
		note __, 1
		octave 4
		note D#, 1
		note __, 1
		octave 5
		note F_, 1
		note __, 1
		octave 4
		octave 5
		note E_, 1
		octave 4
		octave 5
		note __, 1
Music_UnovaBattle3_branch_275:
		octave 4
		note D#, 1
		note __, 1
		octave 5
		note F#, 1
		note __, 1
		note F_, 1
		note __, 1
		octave 4
		note A#, 1
		note __, 1
		octave 5
		note F#, 1
		note __, 1
		note G_, 1
		note __, 1
		octave 4
		note D#, 8
Music_UnovaBattle3_branch_276:
		octave 3
		note G_, 6
		note A#, 16
Music_UnovaBattle3_branch_277:
		note A#, 2
		octave 4
		note C#, 8
Music_UnovaBattle3_branch_278:
		octave 3
		note B_, 12
Music_UnovaBattle3_branch_279:
		note A#, 4
		note G#, 12
Music_UnovaBattle3_branch_280:
		note G_, 4
		note G#, 4
		note A#, 16
Music_UnovaBattle3_branch_281:
		note A#, 4
		octave 4
		note C#, 4
Music_UnovaBattle3_branch_282:
		note D_, 4
		note D#, 16
Music_UnovaBattle3_branch_283:
		note D#, 8
		note D_, 8
Music_UnovaBattle3_branch_284:
		octave 5
		note C#, 2
		octave 4
		octave 5
		octave 4
		octave 5
		note C_, 2
		octave 4
		octave 5
		octave 4
		octave 5
		note C#, 2
		octave 4
		octave 5
		octave 4
		octave 5
		note F_, 10
Music_UnovaBattle3_branch_285:
		octave 4
		octave 5
		octave 4
		octave 5
		note C#, 8
		octave 4
		octave 5
		octave 3
		octave 4
		note G#, 2
		octave 3
		octave 4
		octave 5
		note C#, 2
Music_UnovaBattle3_branch_286:
		octave 4
		octave 5
		octave 4
		octave 5
		note G#, 2
		octave 4
		octave 5
		octave 4
		octave 5
		note F_, 2
		octave 4
		octave 5
		octave 4
		octave 5
		note D#, 6
		octave 4
		octave 5
		octave 3
		octave 4
		note A#, 10
Music_UnovaBattle3_branch_287:
		octave 3
		octave 4
		octave 5
		note G_, 2
		octave 4
		octave 5
		octave 4
		octave 5
		note F_, 2
		octave 4
		octave 5
		octave 4
		octave 5
		note G_, 2
		octave 4
		octave 5
		octave 4
		octave 5
		note A#, 6
Music_UnovaBattle3_branch_288:
		octave 4
		octave 5
		note __, 4
		octave 4
		octave 5
		note C#, 2
		octave 4
		octave 5
		note __, 4
		octave 4
		octave 5
		note F_, 6
Music_UnovaBattle3_branch_289:
		octave 4
		octave 5
		octave 4
		octave 5
		note C#, 3
		octave 4
		octave 5
		note __, 1
		octave 3
		octave 4
		note G#, 6
		octave 3
		octave 4
		octave 3
		note C#, 2
		octave 4
		note G#, 2
		octave 3
		octave 4
		octave 5
		note C#, 2
Music_UnovaBattle3_branch_290:
		octave 4
		octave 5
		octave 4
		octave 5
		note G#, 2
		octave 4
		octave 5
		octave 4
		octave 5
		note F_, 2
		octave 4
		octave 5
		octave 4
		octave 5
		note D#, 6
		octave 4
		octave 5
		octave 3
		octave 4
		note A#, 6
Music_UnovaBattle3_branch_291:
		octave 3
		octave 4
		octave 5
		note D#, 4
		octave 4
		octave 5
		octave 4
		octave 5
		note G_, 2
		octave 4
		octave 5
		octave 4
		octave 5
		note F_, 2
		octave 4
		octave 5
		octave 4
		octave 5
		note G_, 6
		octave 4
		octave 5
		octave 4
		octave 5
		note A#, 2
Music_UnovaBattle3_branch_292:
		octave 4
		octave 5
		note __, 4
		octave 4
		octave 5
		note F_, 2
		octave 4
		octave 5
		note __, 4
		octave 4
		octave 5
		note C_, 6
Music_UnovaBattle3_branch_293:
		octave 4
		octave 5
		octave 4
		octave 5
		note F_, 4
		octave 4
		octave 5
		octave 4
		octave 5
		note A_, 16
Music_UnovaBattle3_branch_294:
		octave 4
		octave 5
		octave 4
		octave 5
		note G_, 2
		octave 4
		octave 5
		note __, 4
		octave 4
		octave 5
		note D_, 6
Music_UnovaBattle3_branch_295:
		octave 4
		octave 5
		octave 4
		octave 5
		note G_, 3
		octave 4
		octave 5
		note __, 1
		octave 4
		octave 5
		note G_, 2
		octave 4
		octave 5
		octave 4
		octave 5
		note B_, 14
Music_UnovaBattle3_branch_296:
		octave 4
		octave 5
		octave 4
		octave 5
		note A_, 2
		octave 4
		octave 5
		note __, 4
		octave 4
		octave 5
		note E_, 6
Music_UnovaBattle3_branch_297:
		octave 4
		octave 5
		octave 4
		octave 5
		note A_, 4
		octave 4
		octave 5
		octave 6
		note C#, 16
Music_UnovaBattle3_branch_298:
		octave 5
		octave 6
		octave 4
		octave 5
		note E_, 2
		octave 4
		octave 5
		octave 4
		octave 5
		note E_, 4
		octave 4
		octave 5
		octave 4
		octave 5
		note C#, 6
Music_UnovaBattle3_branch_299:
		octave 4
		octave 5
		octave 4
		octave 5
		note E_, 4
		octave 4
		octave 5
		octave 4
		octave 5
		note A_, 16
Music_UnovaBattle3_branch_300:
		octave 4
		octave 5
		octave 4
		note E_, 2
		note __, 4
		note G_, 6
Music_UnovaBattle3_branch_301:
		note A_, 4
		octave 5
		note C#, 6
		octave 4
		octave 5
		octave 4
		octave 5
		note A_, 6
Music_UnovaBattle3_branch_302:
		note A_, 1
		note A#, 1
		note B_, 1
		octave 6
		note C_, 1
		octave 4
		octave 5
		octave 6
		octave 5
		octave 6
		note C#, 1
		octave 5
		octave 6
		note __, 1
		octave 5
		octave 6
		note C#, 1
		octave 5
		octave 6
		note __, 1
		octave 5
		octave 6
		note D_, 4
		octave 5
		octave 6
		octave 5
		octave 6
		note C#, 1
		octave 5
		octave 6
		note __, 1
		octave 5
		octave 6
		note C#, 1
		octave 5
		octave 6
		note __, 1
Music_UnovaBattle3_branch_303:
		octave 5
		octave 6
		note E_, 4
		octave 5
		octave 6
		octave 5
		octave 6
		note C#, 1
		octave 5
		octave 6
		note __, 1
		octave 5
		octave 6
		note C#, 1
		octave 5
		octave 6
		note __, 1
		octave 5
		octave 6
		note F#, 4
		octave 5
		octave 6
		octave 5
		octave 6
		note C#, 1
		octave 5
		octave 6
		note __, 1
		octave 5
		octave 6
		note C#, 1
		octave 5
		octave 6
		note __, 1
Music_UnovaBattle3_branch_304:
		note G_, 4
		octave 5
		octave 6
		note D#, 1
		octave 5
		octave 6
		note __, 1
		octave 5
		octave 6
		note D#, 1
		octave 5
		octave 6
		note __, 1
		octave 5
		octave 6
		note E_, 4
		octave 5
		octave 6
		octave 5
		octave 6
		note D#, 1
		octave 5
		octave 6
		note __, 1
		octave 5
		octave 6
		note D#, 1
		octave 5
		octave 6
		note __, 1
Music_UnovaBattle3_branch_305:
		octave 5
		octave 6
		note F#, 4
		octave 5
		octave 6
		octave 5
		octave 6
		note D#, 1
		octave 5
		octave 6
		note __, 1
		octave 5
		octave 6
		note D#, 1
		octave 5
		octave 6
		note __, 1
		note G#, 4
		octave 5
		octave 6
		note D#, 1
		octave 5
		octave 6
		note __, 1
		octave 5
		octave 6
		note D#, 1
		octave 5
		octave 6
		note __, 1
Music_UnovaBattle3_branch_306:
		note G#, 1
		note __, 1
		note A_, 2
		octave 5
		note G#, 2
		octave 4
		octave 3
		note G#, 13
Music_UnovaBattle3_branch_307:
		octave 5
		octave 3
		octave 4
		octave 2
		octave 3
		octave 4
		note G#, 16
Music_UnovaBattle3_branch_308:
		octave 2
		octave 3
		octave 4
		octave 3
		octave 4
		octave 5
		note A_, 16
Music_UnovaBattle3_branch_309:
		octave 3
		octave 4
		octave 5
		octave 2
		octave 3
		octave 4
		octave 5
		octave 6
		note C#, 6
		octave 5
		octave 6
		octave 5
		note B_, 6
		note A_, 4
Music_UnovaBattle3_branch_310:
		octave 2
		octave 3
		octave 4
		octave 5
		octave 3
		octave 4
		octave 5
		note B_, 16
Music_UnovaBattle3_branch_311:
		octave 3
		octave 4
		octave 5
		octave 2
		octave 3
		octave 4
		note B_, 16
Music_UnovaBattle3_branch_312:
		octave 2
		octave 3
		octave 4
		octave 3
		octave 5
		note B_, 2
		octave 3
		octave 5
		octave 4
		octave 5
		octave 6
		note C#, 12
Music_UnovaBattle3_branch_313:
		note F_, 1
		note D#, 1
		octave 4
		octave 5
		octave 6
		octave 3
		octave 4
		octave 6
		note G#, 1
		note __, 1
		note G#, 1
		note __, 2
		note G#, 1
		note __, 1
		note G#, 1
		note __, 1
		octave 3
		octave 4
		octave 5
		octave 6
		note C#, 1
		octave 4
		octave 5
		octave 6
		note __, 1
		octave 4
		octave 5
		octave 6
		note C#, 1
		octave 4
		octave 5
		octave 6
		note __, 1
Music_UnovaBattle3_branch_314:
		octave 4
		octave 5
		octave 6
		note C#, 1
		octave 4
		octave 5
		octave 6
		note __, 1
		octave 4
		octave 5
		octave 6
		note C#, 1
		octave 4
		octave 5
		octave 6
		note __, 1
		octave 4
		octave 5
		octave 6
		note C#, 1
		octave 4
		octave 5
		octave 6
		note __, 1
		octave 4
		octave 5
		octave 6
		note C#, 1
		octave 4
		octave 5
		octave 6
		note __, 1
		octave 3
		note F_, 1
		note __, 1
		note F#, 4
		note F_, 1
		note __, 1
Music_UnovaBattle3_branch_315:
		note F_, 1
		note __, 1
		note G#, 4
		note F_, 1
		note __, 1
		note F_, 1
		note __, 1
		note A#, 4
		note F_, 1
		note __, 1
Music_UnovaBattle3_branch_316:
		note F_, 1
		note __, 1
		note B_, 4
		note F_, 1
		note __, 1
		note F_, 1
		note __, 1
		note F#, 4
		note F_, 1
		note __, 1
Music_UnovaBattle3_branch_317:
		note F_, 1
		note __, 1
		note G#, 4
		note F_, 1
		note __, 1
		note F_, 1
		note __, 1
		note A#, 4
		note F_, 1
		note __, 1
Music_UnovaBattle3_branch_318:
		note F_, 1
		note __, 1
		note B_, 4
		note __, 16
Music_UnovaBattle3_branch_319:
		intensity $14
		note __, 16
Music_UnovaBattle3_branch_320:
		note __, 16
Music_UnovaBattle3_branch_321:
		note __, 16
Music_UnovaBattle3_branch_322:
		octave 2
		note __, 2
		note E_, 1
		note __, 1
		note B_, 4
		note __, 2
Music_UnovaBattle3_branch_323:
		note E_, 1
		note __, 1
		octave 3
		note C_, 4
		octave 2
		note __, 2
		note E_, 1
		note __, 1
		note B_, 4
		note __, 2
Music_UnovaBattle3_branch_324:
		note E_, 1
		note __, 1
		note D#, 4
		note __, 16
Music_UnovaBattle3_branch_325:
		note __, 16
Music_UnovaBattle3_branch_326:
		note __, 2
		note F_, 1
		note __, 1
		octave 3
		note C_, 4
		octave 2
		note __, 2
Music_UnovaBattle3_branch_327:
		note F_, 1
		note __, 1
		octave 3
		note C#, 4
		octave 2
		note __, 2
		note F_, 1
		note __, 1
		octave 3
		note C_, 4
		octave 2
		note __, 2
Music_UnovaBattle3_branch_328:
		note F_, 1
		note __, 1
		note E_, 4
		note A_, 14
Music_UnovaBattle3_branch_329:
		note G_, 1
		note F#, 1
		note __, 2
		octave 3
		note C_, 6
		octave 2
		note A_, 1
		note __, 3
Music_UnovaBattle3_branch_330:
		note F_, 1
		note __, 3
		octave 3
		note C#, 1
		note __, 1
		octave 2
		note A#, 14
Music_UnovaBattle3_branch_331:
		note G#, 1
		note __, 1
		note F#, 14
Music_UnovaBattle3_branch_332:
		note A_, 14
Music_UnovaBattle3_branch_333:
		note F_, 1
		note G_, 1
		note __, 2
		octave 3
		note C_, 6
		octave 2
		note A_, 1
		note __, 3
Music_UnovaBattle3_branch_334:
		note F_, 1
		note __, 3
		note G_, 1
		note __, 1
		note A#, 14
Music_UnovaBattle3_branch_335:
		octave 3
		note C_, 1
		note __, 1
		octave 2
		note A#, 12
Music_UnovaBattle3_branch_336:
		note __, 2
		note G#, 2
		note __, 4
		note G#, 1
		note __, 9
Music_UnovaBattle3_branch_337:
		note C#, 2
		note __, 4
		note C#, 1
		note __, 9
Music_UnovaBattle3_branch_338:
		note D#, 2
		note __, 4
		note D#, 1
		note __, 9
Music_UnovaBattle3_branch_339:
		note G_, 2
		note __, 2
		note F_, 2
		note __, 2
		note D#, 2
Music_UnovaBattle3_branch_340:
		note __, 2
		note C#, 2
		note __, 2
		note G#, 2
		note __, 4
		note C#, 1
		note __, 9
Music_UnovaBattle3_branch_341:
		note F_, 2
		note __, 4
		note G#, 1
		note __, 9
Music_UnovaBattle3_branch_342:
		note D#, 2
		note __, 4
		note D#, 1
		note __, 9
Music_UnovaBattle3_branch_343:
		note D#, 2
		note __, 2
		note C#, 2
		note __, 2
		note G_, 2
Music_UnovaBattle3_branch_344:
		note F_, 2
		note __, 16
Music_UnovaBattle3_branch_345:
		note __, 16
Music_UnovaBattle3_branch_346:
		note __, 16
Music_UnovaBattle3_branch_347:
		note __, 16
Music_UnovaBattle3_branch_348:
		note __, 4
		octave 7
		note __, 4
		octave 6
		note __, 4
		octave 7
		note __, 4
Music_UnovaBattle3_branch_349:
		octave 6
		note __, 4
		octave 7
		note __, 4
		octave 6
		note __, 4
		octave 7
		note __, 4
Music_UnovaBattle3_branch_350:
		octave 6
		note __, 4
		octave 7
		note __, 4
		octave 6
		note __, 4
		octave 7
		note __, 4
Music_UnovaBattle3_branch_351:
		octave 6
		note __, 4
		octave 7
		note __, 4
		octave 6
		note __, 4
		octave 7
		note __, 4
Music_UnovaBattle3_branch_352:
		octave 6
		note __, 2
		octave 5
		octave 6
		note D_, 1
		octave 5
		octave 6
		octave 5
		octave 6
		note D#, 1
		octave 5
		octave 6
		octave 5
		octave 6
		note E_, 1
		octave 5
		octave 6
		note __, 1
		octave 5
		octave 6
		note E_, 1
		octave 5
		octave 6
		note __, 1
		octave 5
		octave 6
		note E_, 1
		octave 5
		octave 6
		note __, 3
		octave 5
		octave 6
		note F_, 1
		octave 5
		octave 6
		note __, 1
Music_UnovaBattle3_branch_353:
		octave 5
		octave 6
		note F_, 1
		octave 5
		octave 6
		note __, 3
		octave 5
		octave 6
		note G_, 1
		octave 5
		octave 6
		note __, 1
		octave 5
		octave 6
		note G_, 1
		octave 5
		octave 6
		note __, 3
		octave 5
		octave 6
		note G#, 1
		octave 5
		octave 6
		note __, 1
		octave 5
		octave 6
		note G#, 1
		octave 5
		octave 6
		note __, 1
		octave 5
		octave 6
		note G#, 1
		octave 5
		octave 6
		note __, 9
Music_UnovaBattle3_branch_354:
		note D#, 1
		note __, 1
		note D_, 1
		note __, 3
		note F_, 1
		note __, 1
Music_UnovaBattle3_branch_355:
		note E_, 1
		note __, 3
		note F#, 1
		note __, 1
		note F_, 1
		note __, 1
		octave 5
		note A#, 1
		note __, 1
		octave 6
		note F#, 1
		note __, 1
		note G_, 1
		note __, 16
Music_UnovaBattle3_branch_356:
		note __, 16
Music_UnovaBattle3_branch_357:
		note __, 16
Music_UnovaBattle3_branch_358:
		note __, 16
Music_UnovaBattle3_branch_359:
		note __, 16
Music_UnovaBattle3_branch_360:
		note __, 16
Music_UnovaBattle3_branch_361:
		note __, 16
Music_UnovaBattle3_branch_362:
		note __, 16
Music_UnovaBattle3_branch_363:
		note __, 16
Music_UnovaBattle3_branch_364:
		note __, 16
Music_UnovaBattle3_branch_365:
		note __, 16
Music_UnovaBattle3_branch_366:
		note __, 16
Music_UnovaBattle3_branch_367:
		note __, 16
Music_UnovaBattle3_branch_368:
		note __, 16
Music_UnovaBattle3_branch_369:
		note __, 16
Music_UnovaBattle3_branch_370:
		note __, 16
Music_UnovaBattle3_branch_371:
		note __, 16
Music_UnovaBattle3_branch_372:
		note __, 16
Music_UnovaBattle3_branch_373:
		note __, 9
Music_UnovaBattle3_branch_374:
		octave 4
		note B_, 16
Music_UnovaBattle3_branch_375:
		note G_, 8
		octave 5
		note D_, 4
Music_UnovaBattle3_branch_376:
		octave 4
		note B_, 4
		note A_, 6
		octave 5
		note C#, 16
Music_UnovaBattle3_branch_377:
		note C#, 10
Music_UnovaBattle3_branch_378:
		note __, 16
Music_UnovaBattle3_branch_379:
		note __, 16
Music_UnovaBattle3_branch_380:
		note __, 16
Music_UnovaBattle3_branch_381:
		note __, 16
Music_UnovaBattle3_branch_382:
		note __, 16
Music_UnovaBattle3_branch_383:
		note __, 16
Music_UnovaBattle3_branch_384:
		note __, 16
Music_UnovaBattle3_branch_385:
		note __, 16
Music_UnovaBattle3_branch_386:
		note __, 16
Music_UnovaBattle3_branch_387:
		note __, 16
Music_UnovaBattle3_branch_388:
		note __, 16
Music_UnovaBattle3_branch_389:
		note __, 16
Music_UnovaBattle3_branch_390:
		note __, 16
Music_UnovaBattle3_branch_391:
		note __, 16
Music_UnovaBattle3_branch_392:
		note __, 16
Music_UnovaBattle3_branch_393:
		note __, 16
Music_UnovaBattle3_branch_394:
		note __, 2
		octave 3
		note C_, 2
		note F_, 2
		note F#, 2
		note F_, 2
Music_UnovaBattle3_branch_395:
		note C_, 2
		octave 2
		note A_, 2
		note F_, 2
		note F#, 2
		note F_, 2
		octave 3
		note C_, 2
		note C#, 2
		note C_, 2
Music_UnovaBattle3_branch_396:
		octave 2
		note G#, 2
		note A_, 2
		note E_, 2
		note F_, 2
		note B_, 2
		octave 3
		note E_, 2
		note F_, 2
		note E_, 2
Music_UnovaBattle3_branch_397:
		octave 2
		note B_, 2
		note G#, 2
		note E_, 2
		note F_, 2
		note E_, 2
		note B_, 2
		octave 3
		note C_, 2
		octave 2
		note B_, 2
Music_UnovaBattle3_branch_398:
		note G_, 2
		note G#, 2
		note D#, 2
		note B_, 1
		intensity $15
		note __, 2
		octave 3
		note B_, 1
		note C_, 1
		note __, 2
		octave 4
		note C_, 1
		octave 3
		note C#, 1
		note __, 2
Music_UnovaBattle3_branch_399:
		octave 4
		note C#, 1
		octave 3
		note D_, 1
		note __, 2
		octave 4
		note D_, 1
		octave 3
		note D#, 1
		note __, 2
		octave 4
		note D#, 1
		octave 3
		note E_, 1
		note __, 2
		octave 4
		note E_, 1
		octave 3
		note F_, 1
		note __, 2
Music_UnovaBattle3_branch_400:
		octave 4
		note F_, 1
		octave 3
		note F#, 1
		note __, 2
		octave 4
		note F#, 1
		octave 3
		note E_, 1
		note __, 16
Music_UnovaBattle3_branch_401:
		note __, 15
Music_UnovaBattle3_branch_402:
		octave 4
		note E_, 1
		note __, 1
		note E_, 1
		note __, 1
		note G_, 4
		note E_, 1
		note __, 1
Music_UnovaBattle3_branch_403:
		note E_, 1
		note __, 1
		note A_, 4
		note E_, 1
		note __, 1
		note E_, 1
		note __, 1
		note A#, 4
		note E_, 1
		note __, 1
Music_UnovaBattle3_branch_404:
		note E_, 1
		note __, 1
		note B_, 4
		note __, 16
Music_UnovaBattle3_branch_405:
		note __, 16
Music_UnovaBattle3_branch_406:
		note F_, 1
		note __, 1
		note F_, 1
		note __, 1
		note G#, 4
		note F_, 1
		note __, 1
Music_UnovaBattle3_branch_407:
		note F_, 1
		note __, 1
		note A#, 4
		note F_, 1
		note __, 1
		note F_, 1
		note __, 1
		note B_, 4
		note F_, 1
		note __, 1
Music_UnovaBattle3_branch_408:
		note F_, 1
		note __, 1
		octave 5
		note C_, 4
		octave 3
		note A_, 15
Music_UnovaBattle3_branch_409:
		note __, 2
		note F_, 5
		note __, 1
		note __, 4
Music_UnovaBattle3_branch_410:
		note __, 4
		note __, 2
		note F#, 14
Music_UnovaBattle3_branch_411:
		octave 4
		note __, 2
		octave 3
		note A#, 10
Music_UnovaBattle3_branch_412:
		note __, 2
		note A_, 1
		note A#, 1
		octave 4
		note C_, 14
Music_UnovaBattle3_branch_413:
		octave 3
		note B_, 1
		note A#, 1
		note __, 2
		note F_, 6
		octave 4
		note __, 4
Music_UnovaBattle3_branch_414:
		note __, 4
		note D#, 1
		note __, 1
		note C#, 14
Music_UnovaBattle3_branch_415:
		octave 3
		note D#, 1
		note __, 1
		note G_, 11
Music_UnovaBattle3_branch_416:
		note __, 1
		note G#, 6
		note C#, 6
		note F_, 4
Music_UnovaBattle3_branch_417:
		note G#, 6
		note F_, 6
		note G#, 4
Music_UnovaBattle3_branch_418:
		note A#, 6
		note G_, 6
		note G#, 4
Music_UnovaBattle3_branch_419:
		octave 4
		note D#, 6
		octave 3
		note A#, 6
		octave 4
		note G_, 4
Music_UnovaBattle3_branch_420:
		note F_, 6
		note C#, 6
		note F_, 4
Music_UnovaBattle3_branch_421:
		note G#, 6
		note F_, 6
		note G#, 4
Music_UnovaBattle3_branch_422:
		note A#, 6
		note G_, 6
		note G#, 4
Music_UnovaBattle3_branch_423:
		note A#, 6
		note B_, 2
		note G_, 8
Music_UnovaBattle3_branch_424:
		note __, 16
Music_UnovaBattle3_branch_425:
		note __, 16
Music_UnovaBattle3_branch_426:
		note __, 16
Music_UnovaBattle3_branch_427:
		note __, 16
Music_UnovaBattle3_branch_428:
		octave 5
		note __, 2
		note __, 2
		octave 6
		note __, 2
		octave 5
		note __, 2
		octave 6
		note __, 2
		octave 5
		note __, 2
		octave 6
		note __, 2
Music_UnovaBattle3_branch_429:
		octave 5
		note __, 2
		octave 6
		note __, 2
		octave 5
		note __, 2
		octave 6
		note __, 2
		octave 5
		note __, 2
		note D#, 1
		note __, 1
		note D#, 1
		note __, 1
		note C#, 1
Music_UnovaBattle3_branch_430:
		note __, 1
		note D#, 1
		note __, 1
		octave 4
		note A#, 1
		note __, 1
		octave 5
		note __, 2
		octave 6
		note __, 2
		octave 5
		note __, 2
		octave 6
		note __, 2
		octave 5
		note __, 2
		octave 6
		note __, 2
Music_UnovaBattle3_branch_431:
		octave 5
		note __, 2
		octave 6
		note __, 2
		octave 5
		note __, 2
		octave 6
		note __, 2
		octave 5
		note __, 2
		octave 6
		note __, 2
		octave 5
		note __, 2
		note __, 2
Music_UnovaBattle3_branch_432:
		note __, 16
Music_UnovaBattle3_branch_433:
		note __, 12
		note E_, 1
		note __, 1
		note C#, 1
Music_UnovaBattle3_branch_434:
		note __, 1
		note E_, 1
		note __, 1
		note D#, 1
		note __, 16
Music_UnovaBattle3_branch_435:
		note __, 16
Music_UnovaBattle3_branch_436:
		note __, 7
		octave 4
		octave 5
		note D#, 1
		octave 4
		octave 5
		note F_, 1
		octave 4
		octave 5
		note G#, 1
		octave 4
		octave 5
		note F_, 1
		octave 4
		octave 5
		note G_, 15
Music_UnovaBattle3_branch_437:
		octave 4
		octave 5
		note G#, 7
Music_UnovaBattle3_branch_438:
		octave 4
		octave 3
		octave 5
		octave 4
		note B_, 3
		octave 3
		octave 4
		octave 5
		note C_, 3
		octave 4
		octave 5
		note C#, 11
Music_UnovaBattle3_branch_439:
		octave 4
		octave 5
		note E_, 3
		octave 4
		octave 5
		note G_, 7
Music_UnovaBattle3_branch_440:
		octave 4
		octave 5
		note D#, 3
		octave 4
		octave 5
		note F_, 3
		octave 4
		octave 5
		note G_, 7
		octave 4
		octave 5
		note G_, 1
		octave 4
		octave 5
		note F_, 1
		octave 4
		octave 5
		note D#, 1
Music_UnovaBattle3_branch_441:
		octave 4
		octave 5
		note F_, 1
		octave 4
		octave 5
		note G_, 7
		octave 4
		octave 5
		note D#, 1
		octave 4
		octave 5
		note F_, 1
		octave 4
		octave 5
		note A#, 1
		octave 4
		octave 5
		note G#, 1
		octave 4
		octave 5
		note G_, 11
Music_UnovaBattle3_branch_442:
		octave 4
		octave 5
		octave 4
		note A_, 4
		octave 5
		note C#, 2
		note C_, 2
		note C#, 2
Music_UnovaBattle3_branch_443:
		note F_, 10
		note C#, 8
Music_UnovaBattle3_branch_444:
		octave 4
		note G#, 2
		octave 5
		note C#, 2
		note G#, 2
		note F_, 2
		note D#, 6
Music_UnovaBattle3_branch_445:
		octave 4
		note A#, 10
		octave 5
		note G_, 2
		note F_, 2
		note G_, 2
Music_UnovaBattle3_branch_446:
		note A#, 4
		octave 4
		note G_, 2
		note A#, 2
		note D#, 2
		octave 5
		note C#, 2
		note __, 4
Music_UnovaBattle3_branch_447:
		note F_, 6
		note C#, 4
		octave 4
		note G#, 6
Music_UnovaBattle3_branch_448:
		note __, 2
		note G#, 2
		octave 5
		note C#, 2
		note G#, 2
		note F_, 2
		note D#, 6
Music_UnovaBattle3_branch_449:
		octave 4
		note A#, 6
		octave 5
		note D#, 4
		note G_, 2
		note F_, 2
		note G_, 6
Music_UnovaBattle3_branch_450:
		note A#, 2
		note __, 4
		note F_, 2
		note __, 4
Music_UnovaBattle3_branch_451:
		note C_, 6
		note F_, 4
		note A_, 6
Music_UnovaBattle3_branch_452:
		octave 6
		note C_, 1
		note C_, 1
		octave 5
		note A_, 2
		note F_, 2
		note C_, 2
		octave 4
		note A_, 2
		octave 5
		note G_, 2
		note __, 4
Music_UnovaBattle3_branch_453:
		note D_, 6
		note G_, 3
		note __, 1
		note G_, 2
		note B_, 4
Music_UnovaBattle3_branch_454:
		octave 6
		note D_, 1
		note D_, 1
		octave 5
		note B_, 2
		note G_, 2
		note D_, 2
		octave 4
		note B_, 2
		octave 5
		note A_, 2
		note __, 4
Music_UnovaBattle3_branch_455:
		note E_, 6
		note A_, 4
		octave 6
		note C#, 8
Music_UnovaBattle3_branch_456:
		octave 5
		note C#, 2
		note E_, 6
		note __, 6
Music_UnovaBattle3_branch_457:
		octave 4
		note C#, 1
		note __, 5
		note E_, 1
		note __, 3
		note A_, 15
Music_UnovaBattle3_branch_458:
		note __, 1
		note E_, 2
		note __, 4
Music_UnovaBattle3_branch_459:
		note G_, 6
		note A_, 4
		note A#, 14
Music_UnovaBattle3_branch_460:
		note B_, 1
		octave 5
		note C_, 1
		octave 4
		octave 5
		note C#, 1
		octave 4
		octave 5
		note __, 1
		octave 4
		octave 5
		note C#, 1
		octave 4
		octave 5
		note __, 1
		octave 4
		octave 5
		note D_, 4
Music_UnovaBattle3_branch_461:
		octave 4
		octave 5
		octave 4
		octave 5
		note C#, 1
		octave 4
		octave 5
		note __, 1
		octave 4
		octave 5
		note C#, 1
		octave 4
		octave 5
		note __, 1
		octave 4
		octave 5
		note E_, 4
		octave 4
		octave 5
		octave 4
		octave 5
		note C#, 1
		octave 4
		octave 5
		note __, 1
		octave 4
		octave 5
		note C#, 1
		octave 4
		octave 5
		note __, 1
		octave 4
		octave 5
		note F#, 4
Music_UnovaBattle3_branch_462:
		octave 4
		octave 5
		octave 4
		octave 5
		note C#, 1
		octave 4
		octave 5
		note __, 1
		octave 4
		octave 5
		note C#, 1
		octave 4
		octave 5
		note __, 1
		note G_, 4
		octave 4
		octave 5
		note D#, 1
		octave 4
		octave 5
		note __, 1
		octave 4
		octave 5
		note D#, 1
		octave 4
		octave 5
		note __, 1
		octave 4
		octave 5
		note E_, 4
Music_UnovaBattle3_branch_463:
		octave 4
		octave 5
		octave 4
		octave 5
		note D#, 1
		octave 4
		octave 5
		note __, 1
		octave 4
		octave 5
		note D#, 1
		octave 4
		octave 5
		note __, 1
		octave 4
		octave 5
		note F#, 4
		octave 4
		octave 5
		octave 4
		octave 5
		note D#, 1
		octave 4
		octave 5
		note __, 1
		octave 4
		octave 5
		note D#, 1
		octave 4
		octave 5
		note __, 1
		note G#, 4
Music_UnovaBattle3_branch_464:
		octave 4
		octave 5
		note D#, 1
		octave 4
		octave 5
		note __, 1
		octave 4
		octave 5
		note D#, 1
		octave 4
		octave 5
		note __, 1
		note G#, 1
		note __, 1
		note A_, 2
		octave 3
		octave 4
		octave 5
		note G#, 2
		note G#, 8
Music_UnovaBattle3_branch_465:
		note __, 5
		octave 3
		octave 4
		octave 2
		octave 3
		note G#, 16
Music_UnovaBattle3_branch_466:
		octave 2
		octave 3
		octave 4
		note A_, 16
Music_UnovaBattle3_branch_467:
		octave 3
		octave 4
		octave 5
		note C#, 6
Music_UnovaBattle3_branch_468:
		octave 4
		octave 5
		octave 3
		octave 4
		note B_, 6
		octave 3
		octave 4
		octave 3
		octave 4
		note A_, 4
		octave 3
		octave 4
		octave 3
		octave 4
		note B_, 16
Music_UnovaBattle3_branch_469:
		octave 3
		octave 4
		octave 2
		octave 3
		note B_, 15
Music_UnovaBattle3_branch_470:
		octave 2
		octave 3
		note __, 1
		octave 4
		note F#, 1
		octave 3
		octave 4
		note __, 1
		octave 3
		octave 4
		note F_, 13
Music_UnovaBattle3_branch_471:
		octave 3
		octave 4
		note __, 1
		note C#, 1
		note __, 2
		note __, 1
		note __, 1
		note __, 1
Music_UnovaBattle3_branch_472:
		note __, 1
		octave 3
		note G#, 1
		note __, 2
		note __, 1
		note __, 1
		note __, 1
		note __, 1
		note G#, 2
		note __, 16
Music_UnovaBattle3_branch_473:
		intensity $16
		note __, 16
Music_UnovaBattle3_branch_474:
		note __, 16
Music_UnovaBattle3_branch_475:
		note __, 14
Music_UnovaBattle3_branch_476:
		octave 5
		note G#, 1
		note G_, 1
		note F#, 1
		note G_, 1
		note F#, 1
		note F_, 1
		note F#, 1
		note F_, 1
Music_UnovaBattle3_branch_477:
		note E_, 1
		note F_, 1
		note E_, 1
		octave 4
		octave 5
		note D#, 1
		octave 4
		octave 5
		note E_, 1
		octave 4
		octave 5
		note D#, 1
		octave 4
		octave 5
		octave 4
		octave 5
		note D_, 1
		octave 4
		octave 5
		octave 4
		octave 5
		note D#, 1
		octave 4
		octave 5
		octave 4
		octave 5
		note D_, 1
		octave 4
		octave 5
		octave 4
		octave 5
		note C#, 1
		octave 4
		octave 5
		octave 4
		octave 5
		note D_, 1
		octave 4
		octave 5
		octave 4
		octave 5
		note C#, 1
		octave 4
		octave 5
		octave 4
		octave 5
		note C_, 1
		octave 4
		octave 5
		octave 4
		octave 5
		note C#, 1
		octave 4
		octave 5
		octave 4
		octave 5
		note C_, 1
		octave 4
		octave 5
		octave 4
		note B_, 1
Music_UnovaBattle3_branch_478:
		octave 5
		note C_, 1
		octave 4
		octave 5
		octave 4
		note B_, 1
		note A#, 1
		note B_, 1
		note A#, 1
		note B_, 1
		note A#, 1
		note A_, 1
		octave 5
		note G#, 12
Music_UnovaBattle3_branch_479:
		octave 4
		octave 5
		octave 4
		note G#, 16
Music_UnovaBattle3_branch_480:
		octave 3
		octave 4
		note B_, 1
		note __, 1
		note B_, 1
		note __, 1
		octave 5
		note D_, 4
		octave 4
		note B_, 1
		note __, 1
		note B_, 1
		note __, 1
Music_UnovaBattle3_branch_481:
		octave 5
		note E_, 4
		octave 4
		note B_, 1
		note __, 1
		note B_, 1
		note __, 1
		octave 5
		note F_, 4
		octave 4
		note B_, 1
		note __, 1
		note B_, 1
		note __, 1
Music_UnovaBattle3_branch_482:
		octave 5
		note E_, 1
		octave 4
		octave 5
		octave 4
		octave 5
		note F_, 1
		octave 4
		octave 5
		octave 4
		octave 5
		note G_, 1
		octave 4
		octave 5
		octave 4
		octave 5
		note G#, 1
		octave 3
		octave 4
		octave 5
		note A_, 12
Music_UnovaBattle3_branch_483:
		octave 4
		octave 5
		octave 4
		note A_, 16
Music_UnovaBattle3_branch_484:
		octave 5
		note C_, 1
		note __, 1
		note C_, 1
		note __, 1
		note D#, 4
		note C_, 1
		note __, 1
		note C_, 1
		note __, 1
		note F_, 4
Music_UnovaBattle3_branch_485:
		note C_, 1
		note __, 1
		note C_, 1
		note __, 1
		note F#, 4
		note C_, 1
		note __, 1
		note C_, 1
		note __, 1
		note F_, 4
Music_UnovaBattle3_branch_486:
		note C_, 16
Music_UnovaBattle3_branch_487:
		note C_, 1
		note __, 1
		octave 4
		note F_, 6
		octave 5
		note C_, 1
		note __, 3
		note F_, 1
		note __, 3
Music_UnovaBattle3_branch_488:
		note F_, 1
		note __, 1
		note F#, 4
		note A#, 1
		note G#, 1
		note F#, 6
		note F#, 1
		note F_, 1
Music_UnovaBattle3_branch_489:
		note D#, 8
		octave 4
		note A#, 2
		octave 5
		octave 4
		note __, 2
		octave 5
		note __, 2
		note G#, 1
		note __, 1
Music_UnovaBattle3_branch_490:
		note C_, 16
Music_UnovaBattle3_branch_491:
		note C_, 1
		note __, 1
		octave 4
		note F_, 6
		octave 5
		note C_, 1
		note __, 3
		note F_, 1
		note __, 3
Music_UnovaBattle3_branch_492:
		note F_, 1
		note __, 1
		note D#, 4
		note G_, 1
		note F_, 1
		note D#, 6
		note D#, 1
		note D_, 1
Music_UnovaBattle3_branch_493:
		note C_, 8
		octave 4
		note A#, 2
		octave 5
		note C_, 2
		note __, 4
Music_UnovaBattle3_branch_494:
		note C#, 6
		octave 4
		note G#, 1
		octave 5
		note C_, 1
		note F_, 6
		note F_, 1
		note D#, 1
Music_UnovaBattle3_branch_495:
		note C#, 8
		note F_, 4
		note C#, 4
Music_UnovaBattle3_branch_496:
		note D#, 2
		note F_, 2
		note C#, 2
		note D#, 2
		note F_, 2
		note G_, 2
		note G#, 2
		note F_, 2
Music_UnovaBattle3_branch_497:
		note D#, 6
		note D_, 2
		note G_, 6
		note D#, 2
Music_UnovaBattle3_branch_498:
		note C#, 6
		octave 4
		note G#, 1
		octave 5
		note C#, 1
		note F_, 6
		note F_, 1
		note D#, 1
Music_UnovaBattle3_branch_499:
		note C#, 8
		note F_, 4
		note C#, 4
Music_UnovaBattle3_branch_500:
		note D#, 2
		note G_, 2
		note D_, 2
		note D#, 2
		note F_, 6
		note G#, 2
Music_UnovaBattle3_branch_501:
		note G_, 6
		note A#, 2
		note G_, 1
		note F_, 1
		note D#, 1
		note C#, 1
		octave 4
		note B_, 1
		note A#, 1
		note __, 1
		octave 5
		octave 6
		octave 5
		octave 6
		octave 5
		octave 6
		octave 5
		octave 6
		octave 5
		octave 6
		note D#, 5
Music_UnovaBattle3_branch_502:
		octave 4
		octave 5
		octave 6
		octave 4
		octave 5
		octave 6
		note E_, 10
		octave 4
		octave 5
		octave 6
		octave 4
		octave 5
		octave 6
		note C#, 8
Music_UnovaBattle3_branch_503:
		octave 4
		octave 5
		octave 6
		octave 3
		octave 4
		octave 5
		note A#, 2
		octave 3
		octave 4
		octave 5
		octave 4
		octave 5
		octave 6
		note C#, 2
		octave 4
		octave 5
		octave 6
		octave 4
		octave 5
		octave 6
		octave 4
		octave 5
		octave 6
		octave 4
		octave 5
		octave 6
		octave 4
		octave 5
		octave 6
		octave 4
		octave 5
		octave 6
		note G#, 1
		octave 4
		octave 5
		octave 6
		octave 4
		octave 5
		octave 6
		note E_, 2
		octave 4
		octave 5
		octave 6
		octave 4
		octave 5
		octave 6
		note D#, 6
Music_UnovaBattle3_branch_504:
		octave 4
		octave 5
		octave 6
		octave 3
		octave 4
		octave 5
		note A#, 10
		octave 3
		octave 4
		octave 5
		octave 3
		octave 4
		octave 5
		note G_, 8
Music_UnovaBattle3_branch_505:
		octave 3
		octave 4
		octave 5
		octave 3
		octave 4
		octave 5
		octave 6
		note D#, 2
		octave 3
		octave 4
		octave 5
		octave 6
		octave 3
		octave 4
		octave 5
		octave 6
		note A#, 2
		octave 3
		octave 4
		octave 5
		octave 6
		octave 4
		octave 5
		octave 6
		note G_, 1
		octave 4
		octave 5
		octave 6
		octave 4
		octave 5
		octave 6
		note G#, 1
		octave 4
		octave 5
		octave 6
		octave 4
		octave 5
		octave 6
		note E_, 2
		octave 4
		octave 5
		octave 6
		octave 4
		octave 5
		octave 6
		note D#, 2
		octave 4
		octave 5
		octave 6
		note __, 16
Music_UnovaBattle3_branch_506:
		note __, 16
Music_UnovaBattle3_branch_507:
		note __, 16
Music_UnovaBattle3_branch_508:
		note __, 6
Music_UnovaBattle3_branch_509:
		octave 3
		octave 4
		octave 5
		note D#, 2
		octave 3
		octave 4
		octave 5
		octave 3
		octave 4
		octave 5
		note B_, 2
		octave 3
		octave 4
		octave 5
		octave 4
		octave 5
		octave 6
		octave 4
		octave 5
		octave 6
		octave 4
		octave 5
		octave 6
		octave 4
		octave 5
		octave 6
		octave 4
		octave 5
		octave 6
		note G#, 1
		octave 4
		octave 5
		octave 6
		octave 4
		octave 5
		octave 6
		note F_, 2
		octave 4
		octave 5
		octave 6
		octave 4
		octave 5
		octave 6
		note E_, 16
Music_UnovaBattle3_branch_510:
		note E_, 4
Music_UnovaBattle3_branch_511:
		note __, 4
		octave 4
		octave 5
		octave 3
		octave 4
		note G#, 2
		octave 3
		octave 4
		octave 5
		note C#, 2
		octave 4
		octave 5
		octave 4
		octave 5
		note G#, 2
		octave 4
		octave 5
		octave 4
		octave 5
		note E_, 2
		octave 4
		octave 5
		octave 4
		octave 5
		note D#, 6
Music_UnovaBattle3_branch_512:
		octave 4
		octave 5
		octave 3
		octave 4
		note A#, 10
		octave 3
		octave 4
		octave 3
		octave 4
		note G_, 8
Music_UnovaBattle3_branch_513:
		octave 3
		octave 4
		octave 3
		octave 4
		note D#, 2
		octave 3
		octave 4
		octave 3
		octave 4
		note A#, 2
		octave 3
		octave 4
		octave 5
		note G_, 2
		octave 4
		octave 5
		octave 4
		octave 5
		note F_, 2
		octave 4
		octave 5
		octave 4
		octave 5
		note D#, 16
Music_UnovaBattle3_branch_514:
		note D#, 8
Music_UnovaBattle3_branch_515:
		octave 4
		octave 5
		octave 3
		octave 4
		note G_, 2
		octave 3
		octave 4
		octave 3
		octave 4
		note A#, 2
		octave 3
		octave 4
		octave 5
		note G_, 2
		octave 4
		octave 5
		octave 4
		octave 5
		note D#, 2
		octave 4
		octave 5
		octave 4
		octave 5
		note E_, 14
Music_UnovaBattle3_branch_516:
		octave 4
		octave 5
		octave 4
		octave 5
		note D#, 1
		octave 4
		octave 5
		octave 4
		octave 5
		note D_, 1
		octave 4
		octave 5
		octave 4
		octave 5
		note C#, 12
Music_UnovaBattle3_branch_517:
		octave 4
		octave 5
		octave 4
		octave 5
		note E_, 4
		octave 4
		octave 5
		octave 4
		octave 5
		note D#, 16
Music_UnovaBattle3_branch_518:
		note D#, 8
Music_UnovaBattle3_branch_519:
		octave 3
		octave 4
		note __, 1
		octave 3
		octave 4
		octave 5
		note D#, 2
		octave 4
		octave 5
		octave 4
		octave 5
		note G#, 2
		octave 4
		octave 5
		octave 4
		octave 5
		note F_, 2
		octave 4
		octave 5
		octave 4
		octave 5
		note G_, 14
Music_UnovaBattle3_branch_520:
		octave 4
		octave 5
		octave 4
		octave 5
		note G#, 2
		octave 4
		octave 5
		octave 4
		octave 5
		note A#, 12
Music_UnovaBattle3_branch_521:
		octave 4
		octave 5
		note D_, 4
		octave 4
		octave 5
		note C#, 16
Music_UnovaBattle3_branch_522:
		octave 4
		octave 5
		octave 4
		octave 5
		note C#, 1
		octave 4
		octave 5
		note __, 1
		octave 3
		octave 4
		note G#, 6
Music_UnovaBattle3_branch_523:
		octave 3
		octave 4
		octave 5
		note C#, 1
		octave 4
		octave 5
		note __, 3
		octave 4
		octave 5
		note G#, 1
		octave 4
		octave 5
		note __, 3
		octave 4
		octave 5
		note G#, 1
		octave 4
		octave 5
		note __, 1
		octave 4
		octave 5
		note G_, 14
Music_UnovaBattle3_branch_524:
		octave 4
		octave 5
		octave 4
		octave 5
		note F_, 1
		octave 4
		octave 5
		note __, 1
		octave 4
		octave 5
		note G_, 14
Music_UnovaBattle3_branch_525:
		octave 4
		octave 5
		octave 4
		octave 5
		note C#, 16
Music_UnovaBattle3_branch_526:
		octave 4
		octave 5
		octave 4
		octave 5
		note C#, 1
		octave 4
		octave 5
		note __, 1
		octave 3
		octave 4
		note G#, 6
Music_UnovaBattle3_branch_527:
		octave 3
		octave 4
		octave 5
		note C#, 1
		octave 4
		octave 5
		note __, 3
		octave 4
		octave 5
		note G#, 1
		octave 4
		octave 5
		note __, 3
		octave 4
		octave 5
		note G#, 1
		octave 4
		octave 5
		note __, 1
		octave 4
		octave 5
		note A#, 14
Music_UnovaBattle3_branch_528:
		octave 4
		octave 5
		octave 4
		octave 5
		note A#, 1
		octave 4
		octave 5
		note __, 1
		octave 4
		octave 5
		note G_, 14
Music_UnovaBattle3_branch_529:
		octave 4
		octave 5
		octave 4
		octave 5
		note D#, 1
		octave 4
		octave 5
		note __, 1
		octave 4
		octave 5
		note F_, 14
Music_UnovaBattle3_branch_530:
		octave 4
		octave 5
		octave 4
		octave 5
		note F_, 1
		octave 4
		octave 5
		note __, 1
		octave 4
		octave 5
		note C_, 14
Music_UnovaBattle3_branch_531:
		octave 4
		octave 5
		octave 4
		octave 5
		note F_, 1
		octave 4
		octave 5
		note __, 1
		octave 4
		octave 5
		note G_, 14
Music_UnovaBattle3_branch_532:
		octave 4
		octave 5
		octave 4
		octave 5
		note D_, 8
Music_UnovaBattle3_branch_533:
		octave 4
		octave 5
		octave 4
		octave 5
		note G_, 8
		octave 4
		octave 5
		octave 4
		octave 5
		note D_, 1
		octave 4
		octave 5
		note __, 1
		octave 4
		octave 5
		note E_, 14
Music_UnovaBattle3_branch_534:
		octave 4
		octave 5
		octave 4
		octave 5
		note G_, 1
		octave 4
		octave 5
		note __, 1
		octave 4
		octave 5
		note A_, 14
Music_UnovaBattle3_branch_535:
		octave 4
		octave 5
		octave 3
		octave 4
		note C#, 2
		octave 3
		octave 4
		octave 3
		octave 4
		note C#, 4
Music_UnovaBattle3_branch_536:
		octave 3
		octave 4
		octave 3
		note A_, 6
		octave 4
		note C#, 4
		octave 3
		note A_, 16
Music_UnovaBattle3_branch_537:
		octave 4
		octave 5
		note G_, 2
		octave 4
		octave 5
		note __, 4
Music_UnovaBattle3_branch_538:
		octave 4
		octave 5
		note A#, 6
		octave 4
		octave 5
		octave 6
		note C_, 4
		octave 5
		octave 6
		octave 5
		octave 6
		note C#, 16
Music_UnovaBattle3_branch_539:
		octave 5
		octave 6
		octave 3
		note F#, 1
		note __, 1
		note F#, 1
		note __, 1
		note G_, 4
Music_UnovaBattle3_branch_540:
		note F#, 1
		note __, 1
		note F#, 1
		note __, 1
		note A_, 4
		note F#, 1
		note __, 1
		note F#, 1
		note __, 1
		note B_, 4
Music_UnovaBattle3_branch_541:
		note F#, 1
		note __, 1
		note F#, 1
		note __, 1
		octave 4
		note C_, 4
		octave 3
		note G#, 1
		note __, 1
		note G#, 1
		note __, 1
		note A_, 4
Music_UnovaBattle3_branch_542:
		note G#, 1
		note __, 1
		note G#, 1
		note __, 1
		note B_, 4
		note G#, 1
		note __, 1
		note G#, 1
		note __, 1
		octave 4
		note C#, 4
Music_UnovaBattle3_branch_543:
		octave 3
		note G#, 1
		note __, 1
		note G#, 1
		note __, 1
		octave 4
		note C#, 1
		note __, 1
		note D_, 2
		note __, 16
Music_UnovaBattle3_branch_544:
		note __, 16
Music_UnovaBattle3_branch_545:
		note __, 16
Music_UnovaBattle3_branch_546:
		note __, 16
Music_UnovaBattle3_branch_547:
		note B_, 16
Music_UnovaBattle3_branch_548:
		note F#, 16
Music_UnovaBattle3_branch_549:
		note B_, 2
		octave 5
		note C#, 14
Music_UnovaBattle3_branch_550:
		octave 3
		octave 4
		note G#, 1
		octave 3
		octave 4
		note __, 2
		octave 3
		octave 4
		note G#, 1
		octave 3
		octave 4
		note __, 1
Music_UnovaBattle3_branch_551:
		octave 3
		octave 4
		note G#, 1
		octave 3
		octave 4
		note __, 1
		octave 3
		octave 4
		note G#, 1
		octave 3
		octave 4
		note __, 1
		octave 3
		octave 4
		note G#, 1
		octave 3
		octave 4
		note __, 1
		octave 5
		note C#, 1
		note __, 2
		note C#, 1
		note __, 1
		note C#, 1
		note __, 1
		note C#, 1
		note __, 1
		note C#, 1
Music_UnovaBattle3_branch_552:
		note __, 1
		note C#, 2
		note __, 2
		octave 3
		note C#, 4
		note C_, 1
		note __, 1
		note C_, 1
		note __, 1
		note D#, 4
Music_UnovaBattle3_branch_553:
		note C_, 1
		note __, 1
		note C_, 1
		note __, 1
		note F_, 4
		note C_, 1
		note __, 1
		note C_, 1
		note __, 1
		note F_, 4
Music_UnovaBattle3_branch_554:
		note C_, 1
		note __, 1
		note C_, 1
		note __, 1
		note C#, 4
		note C_, 1
		note __, 1
		note C_, 1
		note __, 1
		note D#, 4
Music_UnovaBattle3_branch_555:
		note C_, 1
		note __, 1
		note C_, 1
		note __, 1
		note F_, 4
		note C_, 1
		note __, 1
		note C_, 1
		note __, 1
		note F_, 4
Music_UnovaBattle3_branch_556:
		note __, 16
Music_UnovaBattle3_branch_557:
		intensity $17
		note __, 16
Music_UnovaBattle3_branch_558:
		note __, 16
Music_UnovaBattle3_branch_559:
		note __, 16
Music_UnovaBattle3_branch_560:
		note __, 16
Music_UnovaBattle3_branch_561:
		note __, 16
Music_UnovaBattle3_branch_562:
		note __, 16
Music_UnovaBattle3_branch_563:
		note __, 16
Music_UnovaBattle3_branch_564:
		note __, 16
Music_UnovaBattle3_branch_565:
		note __, 16
Music_UnovaBattle3_branch_566:
		note __, 16
Music_UnovaBattle3_branch_567:
		note __, 16
Music_UnovaBattle3_branch_568:
		note __, 16
Music_UnovaBattle3_branch_569:
		note __, 16
Music_UnovaBattle3_branch_570:
		note __, 16
Music_UnovaBattle3_branch_571:
		note __, 16
Music_UnovaBattle3_branch_572:
		note __, 16
Music_UnovaBattle3_branch_573:
		note __, 16
Music_UnovaBattle3_branch_574:
		note __, 16
Music_UnovaBattle3_branch_575:
		note __, 16
Music_UnovaBattle3_branch_576:
		note __, 16
Music_UnovaBattle3_branch_577:
		note __, 16
Music_UnovaBattle3_branch_578:
		note __, 16
Music_UnovaBattle3_branch_579:
		note __, 16
Music_UnovaBattle3_branch_580:
		note __, 16
Music_UnovaBattle3_branch_581:
		note __, 16
Music_UnovaBattle3_branch_582:
		note __, 16
Music_UnovaBattle3_branch_583:
		note __, 16
Music_UnovaBattle3_branch_584:
		note __, 16
Music_UnovaBattle3_branch_585:
		note __, 16
Music_UnovaBattle3_branch_586:
		note __, 16
Music_UnovaBattle3_branch_587:
		note __, 16
Music_UnovaBattle3_branch_588:
		note __, 16
Music_UnovaBattle3_branch_589:
		note __, 16
Music_UnovaBattle3_branch_590:
		note __, 16
Music_UnovaBattle3_branch_591:
		note __, 16
Music_UnovaBattle3_branch_592:
		note __, 16
Music_UnovaBattle3_branch_593:
		note __, 16
Music_UnovaBattle3_branch_594:
		note __, 16
Music_UnovaBattle3_branch_595:
		note __, 16
Music_UnovaBattle3_branch_596:
		note __, 16
Music_UnovaBattle3_branch_597:
		note __, 16
Music_UnovaBattle3_branch_598:
		note __, 16
Music_UnovaBattle3_branch_599:
		note __, 16
Music_UnovaBattle3_branch_600:
		note __, 16
Music_UnovaBattle3_branch_601:
		note __, 16
Music_UnovaBattle3_branch_602:
		note __, 2
		octave 5
		note C#, 16
Music_UnovaBattle3_branch_603:
		note C#, 1
		note __, 1
		octave 4
		note G#, 6
		octave 5
		note C#, 1
		note __, 3
		note G#, 1
Music_UnovaBattle3_branch_604:
		note __, 3
		note G#, 1
		note __, 1
		note G_, 14
Music_UnovaBattle3_branch_605:
		note F_, 1
		note __, 1
		octave 4
		octave 5
		note G_, 14
Music_UnovaBattle3_branch_606:
		octave 4
		octave 5
		note C#, 16
Music_UnovaBattle3_branch_607:
		note C#, 1
		note __, 1
		octave 4
		note G#, 6
		octave 5
		note C#, 1
		note __, 3
		note G#, 1
Music_UnovaBattle3_branch_608:
		note __, 3
		note G#, 1
		note __, 1
		note A#, 14
Music_UnovaBattle3_branch_609:
		note A#, 1
		note __, 1
		note G_, 14
Music_UnovaBattle3_branch_610:
		note D#, 1
		note __, 1
		note F_, 14
Music_UnovaBattle3_branch_611:
		note F_, 1
		note __, 1
		note C_, 14
Music_UnovaBattle3_branch_612:
		note F_, 1
		note __, 1
		note G_, 14
Music_UnovaBattle3_branch_613:
		note D_, 8
		note G_, 8
Music_UnovaBattle3_branch_614:
		note D_, 1
		note __, 1
		note E_, 14
Music_UnovaBattle3_branch_615:
		note G_, 1
		note __, 1
		note A_, 14
Music_UnovaBattle3_branch_616:
		note __, 16
Music_UnovaBattle3_branch_617:
		note __, 16
Music_UnovaBattle3_branch_618:
		note __, 16
Music_UnovaBattle3_branch_619:
		note __, 14
Music_UnovaBattle3_branch_620:
		octave 4
		note C#, 1
		note __, 1
		note C#, 1
		note __, 1
		note D_, 4
		note C#, 1
		note __, 1
		note C#, 1
		note __, 1
		note E_, 4
Music_UnovaBattle3_branch_621:
		note C#, 1
		note __, 1
		note C#, 1
		note __, 1
		note F#, 4
		note C#, 1
		note __, 1
		note C#, 1
		note __, 1
		note G_, 4
Music_UnovaBattle3_branch_622:
		note D#, 1
		note __, 1
		note D#, 1
		note __, 1
		note E_, 4
		note D#, 1
		note __, 1
		note D#, 1
		note __, 1
		note F#, 4
Music_UnovaBattle3_branch_623:
		note D#, 1
		note __, 1
		note D#, 1
		note __, 1
		note G#, 4
		note D#, 1
		note __, 1
		note D#, 1
		note __, 1
		note G#, 1
		note __, 1
		note A_, 2
Music_UnovaBattle3_branch_624:
		note __, 16
Music_UnovaBattle3_branch_625:
		intensity $19
		note __, 16
Music_UnovaBattle3_branch_626:
		note __, 16
Music_UnovaBattle3_branch_627:
		note __, 16
Music_UnovaBattle3_branch_628:
		note __, 16
Music_UnovaBattle3_branch_629:
		note __, 16
Music_UnovaBattle3_branch_630:
		note __, 16
Music_UnovaBattle3_branch_631:
		note __, 16
Music_UnovaBattle3_branch_632:
		note __, 16
Music_UnovaBattle3_branch_633:
		note __, 16
Music_UnovaBattle3_branch_634:
		note __, 16
Music_UnovaBattle3_branch_635:
		note __, 16
Music_UnovaBattle3_branch_636:
		octave 2
		note __, 1
		note __, 1
		note A#, 2
		note __, 1
		note __, 1
		note A#, 2
		note __, 1
		note __, 1
		note A#, 2
		note __, 1
		note __, 1
		note A#, 2
Music_UnovaBattle3_branch_637:
		note __, 1
		note __, 1
		note A#, 2
		note __, 1
		note __, 1
		note A#, 2
		note __, 1
		note __, 1
		note __, 1
		note __, 1
		note __, 1
		note A#, 2
Music_UnovaBattle3_branch_638:
		note F#, 1
		note __, 1
		note __, 2
		note __, 2
		note __, 2
		note __, 1
		note F#, 1
		note __, 2
		note __, 2
		note __, 2
Music_UnovaBattle3_branch_639:
		note F#, 1
		note __, 1
		note __, 2
		note __, 2
		note __, 2
		note F#, 1
		note __, 1
		note __, 2
		note __, 2
		note __, 2
Music_UnovaBattle3_branch_640:
		note F#, 1
		note __, 1
		note __, 2
		note __, 2
		note __, 2
		note A#, 2
		note __, 2
		note __, 2
		note A#, 2
Music_UnovaBattle3_branch_641:
		note __, 2
		note A#, 2
		note __, 2
		note __, 2
		note __, 1
		note __, 1
		note __, 2
		note __, 2
		note A#, 2
Music_UnovaBattle3_branch_642:
		note __, 2
		note __, 2
		note __, 2
		note __, 2
		note __, 1
		note __, 2
		note __, 2
		note __, 2
		note __, 2
Music_UnovaBattle3_branch_643:
		note __, 2
		note __, 2
		note __, 2
		note F#, 1
		note __, 1
		note __, 2
		note __, 2
		note A#, 2
		note F#, 1
Music_UnovaBattle3_branch_644:
		note __, 1
		note __, 2
		note __, 2
		note __, 2
		note A#, 2
		note __, 2
		note __, 2
		note A#, 2
		note F#, 1
Music_UnovaBattle3_branch_645:
		note __, 1
		note A#, 2
		note __, 2
		note A#, 2
		note __, 2
		note __, 2
		note __, 2
		note __, 2
		octave 4
		octave 2
		note __, 2
Music_UnovaBattle3_branch_646:
		note __, 2
		note __, 2
		note A#, 2
		note __, 2
		note __, 2
		octave 4
		octave 2
		note __, 2
		note __, 2
		note __, 1
Music_UnovaBattle3_branch_647:
		note __, 1
		note __, 2
		note __, 2
		note __, 2
		note __, 2
		note __, 2
		note __, 2
		note A#, 2
		note __, 2
Music_UnovaBattle3_branch_648:
		note __, 2
		note __, 2
		note A#, 2
		note __, 2
		note __, 2
		note __, 2
		note __, 2
		note __, 1
Music_UnovaBattle3_branch_649:
		note __, 1
		note __, 2
		note __, 2
		note __, 2
		note __, 2
		note __, 2
		note A#, 2
		note __, 2
		note __, 2
Music_UnovaBattle3_branch_650:
		note __, 2
		note __, 2
		note A#, 2
		note __, 2
		note __, 2
		note __, 2
		note __, 2
		note __, 1
Music_UnovaBattle3_branch_651:
		note __, 1
		note __, 2
		note __, 2
		note __, 2
		note __, 2
		note __, 2
		note __, 2
		note A#, 2
		note __, 2
Music_UnovaBattle3_branch_652:
		note __, 2
		note __, 2
		note A#, 2
		note __, 2
		note __, 2
		note __, 2
		note __, 2
		note __, 1
Music_UnovaBattle3_branch_653:
		note __, 1
		note __, 2
		note __, 2
		note __, 2
		note __, 2
		note __, 2
		note A#, 2
		note __, 2
		note __, 2
Music_UnovaBattle3_branch_654:
		note __, 2
		note __, 2
		note A#, 2
		note __, 2
		note __, 2
		note __, 2
		note __, 2
		note __, 1
Music_UnovaBattle3_branch_655:
		note __, 1
		note __, 2
		note __, 2
		note __, 2
		note __, 2
		note __, 2
		note __, 2
		note A#, 2
		note __, 2
Music_UnovaBattle3_branch_656:
		note __, 2
		note __, 2
		note A#, 2
		note __, 2
		note __, 2
		note __, 2
		note __, 2
		note __, 1
Music_UnovaBattle3_branch_657:
		note __, 1
		note __, 2
		note __, 2
		note __, 2
		note __, 2
		note __, 2
		note __, 2
		note A#, 2
		note __, 2
Music_UnovaBattle3_branch_658:
		note __, 2
		note __, 2
		note A#, 2
		note __, 2
		note __, 2
		note __, 2
		note __, 2
		note __, 1
Music_UnovaBattle3_branch_659:
		note __, 1
		note __, 2
		note __, 2
		note __, 2
		note __, 2
		note __, 2
		note __, 2
		note A#, 2
		note __, 2
Music_UnovaBattle3_branch_660:
		note __, 2
		note __, 2
		note A#, 2
		note __, 2
		note __, 2
		note __, 2
		note __, 2
		note __, 1
Music_UnovaBattle3_branch_661:
		note __, 1
		note __, 2
		note __, 2
		note __, 2
		note __, 2
		note __, 2
		note __, 2
		note A#, 2
		octave 4
		note G_, 2
Music_UnovaBattle3_branch_662:
		octave 2
		note __, 2
		note __, 2
		note A#, 2
		note __, 2
		note __, 2
		octave 4
		octave 2
		note __, 2
		note __, 2
		note __, 1
Music_UnovaBattle3_branch_663:
		note __, 1
		note __, 2
		note __, 2
		note __, 2
		note __, 2
		note __, 2
		note __, 2
		note A#, 2
		octave 4
		octave 2
		note __, 2
Music_UnovaBattle3_branch_664:
		note __, 2
		note __, 1
		octave 4
		note __, 1
		octave 2
		octave 4
		note G_, 2
		octave 2
		note __, 2
		note __, 2
		note __, 2
		octave 4
		octave 2
		note __, 2
		note __, 1
Music_UnovaBattle3_branch_665:
		note __, 1
		note __, 2
		note __, 2
		note __, 2
		note __, 2
		note __, 2
		note __, 2
		note A#, 2
		note __, 2
Music_UnovaBattle3_branch_666:
		note __, 2
		note __, 2
		note A#, 2
		note __, 2
		note __, 2
		note __, 2
		note __, 2
		note __, 1
Music_UnovaBattle3_branch_667:
		note __, 1
		note __, 2
		note __, 2
		note __, 2
		note __, 2
		note __, 2
		note __, 2
		note A#, 2
		note __, 2
Music_UnovaBattle3_branch_668:
		note __, 2
		note __, 2
		note A#, 2
		note __, 2
		note __, 2
		note __, 2
		note __, 2
		note __, 1
Music_UnovaBattle3_branch_669:
		note __, 1
		note __, 2
		note __, 2
		note __, 2
		note __, 2
		note __, 2
		note __, 4
		note __, 2
Music_UnovaBattle3_branch_670:
		note __, 2
		note __, 2
		note A#, 2
		note __, 2
		note __, 2
		note __, 2
		note __, 2
		note __, 1
Music_UnovaBattle3_branch_671:
		note __, 1
		note __, 2
		note __, 2
		note __, 2
		note __, 2
		note __, 2
		note __, 2
		note A#, 2
		note __, 2
Music_UnovaBattle3_branch_672:
		note __, 2
		note __, 2
		note A#, 2
		note __, 2
		note __, 2
		note __, 2
		note __, 2
		note __, 1
Music_UnovaBattle3_branch_673:
		note __, 1
		note __, 2
		note __, 2
		note __, 2
		note __, 2
		note __, 2
		note __, 4
		note __, 2
Music_UnovaBattle3_branch_674:
		note __, 2
		note __, 2
		note A#, 2
		note __, 2
		note __, 2
		note __, 2
		note __, 2
		note __, 1
Music_UnovaBattle3_branch_675:
		note __, 1
		note __, 2
		note __, 2
		note __, 2
		note __, 2
		note __, 2
		note __, 2
		note A#, 2
		note __, 2
Music_UnovaBattle3_branch_676:
		note __, 2
		note __, 2
		note A#, 2
		note __, 2
		note __, 2
		note __, 2
		note __, 2
		note __, 1
Music_UnovaBattle3_branch_677:
		note __, 1
		note __, 2
		note __, 2
		note __, 2
		note __, 2
		note __, 2
		note __, 2
		note A#, 2
		note __, 2
Music_UnovaBattle3_branch_678:
		note __, 2
		note __, 2
		note A#, 2
		note __, 2
		note __, 2
		note __, 2
		note __, 2
		note __, 1
Music_UnovaBattle3_branch_679:
		note __, 1
		note __, 2
		note __, 2
		note __, 2
		note __, 2
		note __, 2
		note __, 2
		note A#, 2
		note __, 2
Music_UnovaBattle3_branch_680:
		note __, 2
		note __, 2
		note A#, 2
		note __, 2
		note __, 2
		note __, 2
		note __, 2
		note __, 1
Music_UnovaBattle3_branch_681:
		note __, 1
		note __, 2
		note __, 2
		note __, 2
		note __, 2
		note __, 2
		note __, 2
		note A#, 2
		note __, 2
Music_UnovaBattle3_branch_682:
		note __, 2
		note __, 2
		note A#, 2
		note __, 2
		note __, 2
		note __, 2
		note __, 2
		note __, 1
Music_UnovaBattle3_branch_683:
		note __, 1
		note __, 2
		note __, 2
		note __, 2
		note __, 2
		note __, 2
		note __, 2
		note A#, 2
		note __, 2
Music_UnovaBattle3_branch_684:
		note __, 2
		note __, 2
		note A#, 2
		note __, 2
		note __, 2
		note __, 2
		note __, 2
		note __, 1
Music_UnovaBattle3_branch_685:
		note __, 1
		note __, 2
		note __, 2
		note __, 2
		note __, 2
		note __, 2
		note __, 2
		note A#, 2
		note __, 2
Music_UnovaBattle3_branch_686:
		note __, 2
		note __, 2
		note A#, 2
		note __, 2
		note __, 2
		note __, 2
		note __, 2
		note __, 1
Music_UnovaBattle3_branch_687:
		note __, 1
		note __, 2
		note __, 2
		note __, 2
		note __, 2
		note __, 2
		note __, 2
		note A#, 2
		note __, 2
Music_UnovaBattle3_branch_688:
		note __, 2
		note __, 2
		note A#, 2
		note __, 2
		note __, 2
		note __, 2
		note __, 2
		note __, 1
Music_UnovaBattle3_branch_689:
		note __, 1
		note __, 2
		note __, 2
		note __, 2
		note __, 2
		note __, 2
		note __, 2
		note A#, 2
		note __, 2
Music_UnovaBattle3_branch_690:
		note __, 2
		note __, 2
		note A#, 2
		note __, 2
		note __, 2
		note __, 2
		note __, 2
		note __, 1
Music_UnovaBattle3_branch_691:
		note __, 1
		note __, 2
		note __, 2
		note __, 2
		note __, 2
		note __, 2
		note __, 2
		note A#, 2
		note __, 2
Music_UnovaBattle3_branch_692:
		note __, 2
		note __, 2
		note A#, 2
		note __, 2
		note __, 2
		note __, 2
		note __, 2
		note __, 1
Music_UnovaBattle3_branch_693:
		note __, 1
		note __, 2
		note __, 2
		note __, 2
		note __, 2
		note __, 2
		note __, 2
		note A#, 2
		note __, 2
Music_UnovaBattle3_branch_694:
		note __, 2
		note __, 2
		note A#, 2
		note __, 2
		note __, 2
		note __, 2
		note __, 2
		note __, 1
Music_UnovaBattle3_branch_695:
		note __, 1
		note __, 2
		note __, 2
		note __, 2
		note __, 2
		note __, 2
		note __, 2
		note A#, 2
		note __, 2
Music_UnovaBattle3_branch_696:
		note __, 2
		note __, 2
		note A#, 2
		note __, 2
		note __, 2
		note __, 2
		note __, 2
		note __, 1
Music_UnovaBattle3_branch_697:
		note __, 1
		note __, 2
		note __, 2
		note __, 2
		note __, 2
		note __, 2
		note __, 2
		note A#, 2
		note __, 2
Music_UnovaBattle3_branch_698:
		note __, 2
		note __, 4
		note __, 2
		note __, 2
		note __, 2
		note __, 2
		note __, 1
Music_UnovaBattle3_branch_699:
		note __, 1
		note __, 2
		note __, 2
		note __, 2
		note __, 2
		note __, 2
		note __, 2
		note A#, 2
		note __, 4
Music_UnovaBattle3_branch_700:
		octave 3
		note E_, 1
		note C#, 1
		octave 2
		note F_, 2
		note __, 4
		octave 3
		note F#, 1
		note __, 1
		octave 2
		note F_, 2
		note __, 16
Music_UnovaBattle3_branch_701:
		note __, 16
Music_UnovaBattle3_branch_702:
		note __, 16
Music_UnovaBattle3_branch_703:
		note __, 16
Music_UnovaBattle3_branch_704:
		note __, 16
Music_UnovaBattle3_branch_705:
		note __, 16
Music_UnovaBattle3_branch_706:
		octave 4
		note G#, 8
Music_UnovaBattle3_branch_707:
		note __, 8
		note F_, 1
Music_UnovaBattle3_branch_708:
		note __, 1
		note F_, 1
		note __, 1
		note F_, 1
		note __, 9
		note D_, 1
		note __, 3
Music_UnovaBattle3_branch_709:
		note D_, 1
		note __, 1
		note D_, 1
		note __, 8
		note G#, 11
Music_UnovaBattle3_branch_710:
		note __, 16
Music_UnovaBattle3_branch_711:
		intensity $1A
		note __, 16
Music_UnovaBattle3_branch_712:
		note __, 16
Music_UnovaBattle3_branch_713:
		note __, 16
Music_UnovaBattle3_branch_714:
		note __, 16
Music_UnovaBattle3_branch_715:
		note __, 5
		octave 2
		octave 4
		note A_, 2
		octave 2
		note E_, 2
Music_UnovaBattle3_branch_716:
		note C_, 4
		octave 4
		octave 2
		octave 4
		note __, 4
		octave 2
		note C_, 4
		note C_, 2
		note E_, 2
Music_UnovaBattle3_branch_717:
		note C_, 2
		note E_, 2
		octave 3
		octave 2
		octave 3
		note __, 1
		octave 2
		octave 3
		note __, 1
		octave 2
		note __, 1
		note __, 1
		note __, 1
		octave 4
		octave 2
		note C_, 4
		note C_, 4
Music_UnovaBattle3_branch_718:
		octave 4
		octave 2
		note C_, 4
		note C_, 4
		note C_, 4
		note C_, 4
Music_UnovaBattle3_branch_719:
		note C_, 4
		note C_, 4
		octave 4
		note D_, 4
		octave 2
		note C_, 4
Music_UnovaBattle3_branch_720:
		octave 4
		octave 2
		note E_, 2
		note C_, 2
		note __, 2
		note C_, 2
		note C_, 2
		note E_, 2
		note C_, 2
		note __, 2
Music_UnovaBattle3_branch_721:
		octave 4
		note F_, 2
		octave 2
		note C_, 2
		octave 4
		note D_, 1
		octave 2
		note __, 1
		note E_, 1
		octave 4
		octave 2
		note C_, 2
		note __, 2
		note C_, 4
Music_UnovaBattle3_branch_722:
		octave 4
		octave 2
		note C_, 4
		note C_, 4
		note C_, 4
		note C_, 4
Music_UnovaBattle3_branch_723:
		note C_, 4
		note C_, 4
		octave 4
		note C#, 4
		octave 2
		note C_, 4
Music_UnovaBattle3_branch_724:
		octave 4
		octave 2
		note E_, 2
		note C_, 2
		note __, 2
		note C_, 2
		note E_, 2
		note C_, 2
		note C_, 2
		note E_, 2
Music_UnovaBattle3_branch_725:
		octave 4
		octave 2
		note C_, 2
		note E_, 2
		octave 4
		octave 2
		octave 4
		octave 2
		octave 4
		octave 2
		note C_, 4
		note E_, 3
		octave 4
		note __, 1
		octave 2
		note C_, 2
		note C_, 2
Music_UnovaBattle3_branch_726:
		note E_, 4
		note C_, 4
		note E_, 4
		note C_, 2
		note C_, 2
Music_UnovaBattle3_branch_727:
		note E_, 4
		note C_, 4
		note E_, 2
		note C_, 2
		note __, 2
		note E_, 2
Music_UnovaBattle3_branch_728:
		note E_, 2
		note C_, 2
		note C_, 4
		note E_, 2
		note C_, 2
		note __, 2
		note C_, 2
Music_UnovaBattle3_branch_729:
		note E_, 2
		note E_, 1
		note E_, 1
		note C_, 4
		note E_, 4
		note C_, 2
		note C_, 2
Music_UnovaBattle3_branch_730:
		note E_, 4
		note C_, 4
		note E_, 4
		note C_, 2
		note C_, 2
Music_UnovaBattle3_branch_731:
		note E_, 4
		note C_, 4
		note E_, 2
		note C_, 2
		note __, 2
		note E_, 2
Music_UnovaBattle3_branch_732:
		note E_, 2
		note C_, 2
		note C_, 4
		note E_, 2
		note C_, 2
		note __, 2
		note C_, 2
Music_UnovaBattle3_branch_733:
		note E_, 2
		note E_, 1
		note E_, 1
		octave 4
		octave 2
		note C_, 4
		note E_, 4
		octave 4
		octave 2
		note C_, 2
		note C_, 2
Music_UnovaBattle3_branch_734:
		note E_, 4
		note C_, 4
		note E_, 4
		note C_, 2
		note C_, 2
Music_UnovaBattle3_branch_735:
		note E_, 4
		note C_, 4
		note E_, 4
		note C_, 2
		note C_, 2
Music_UnovaBattle3_branch_736:
		note E_, 4
		note C_, 4
		note E_, 4
		note C_, 2
		note C_, 2
Music_UnovaBattle3_branch_737:
		note E_, 4
		note C_, 4
		note E_, 4
		note C_, 2
		note C_, 2
Music_UnovaBattle3_branch_738:
		note E_, 4
		note C_, 4
		note E_, 4
		note C_, 2
		note C_, 2
Music_UnovaBattle3_branch_739:
		note E_, 4
		note E_, 2
		note B_, 2
		note G_, 1
		note E_, 2
		note __, 2
		note C_, 1
		note __, 3
Music_UnovaBattle3_branch_740:
		note E_, 2
		octave 3
		note D#, 1
		note D_, 1
		octave 2
		octave 3
		note C_, 1
		octave 2
		note B_, 1
		note A_, 1
		note __, 1
		note G#, 1
		note __, 1
		octave 3
		note B_, 1
		note C_, 1
		octave 2
		note A_, 1
		note G_, 1
		octave 3
		octave 2
		octave 3
		octave 2
		note F_, 1
Music_UnovaBattle3_branch_741:
		octave 4
		octave 2
		note C_, 2
		note __, 1
		note __, 1
		note E_, 1
		octave 4
		note __, 1
		octave 2
		note E_, 2
		note C_, 2
		note E_, 2
		note __, 1
		note __, 1
		note E_, 2
Music_UnovaBattle3_branch_742:
		note E_, 2
		note __, 1
		note __, 1
		note E_, 2
		note __, 1
		note __, 1
		note C_, 2
		note E_, 2
		note __, 1
		note __, 1
		note E_, 2
Music_UnovaBattle3_branch_743:
		octave 4
		note E_, 4
		octave 2
		note E_, 1
		octave 4
		note __, 1
		octave 2
		octave 4
		note E_, 2
		octave 2
		note E_, 2
		note E_, 2
		octave 4
		octave 2
		note C_, 2
		note E_, 2
Music_UnovaBattle3_branch_744:
		note E_, 2
		note __, 1
		note __, 1
		note E_, 2
		note __, 1
		note C_, 2
		note E_, 1
		note E_, 1
		note E_, 2
		note E_, 1
		note E_, 1
		octave 4
		note E_, 4
Music_UnovaBattle3_branch_745:
		octave 2
		note E_, 4
		octave 4
		octave 2
		note C_, 2
		note C_, 2
		note E_, 4
		note C_, 4
Music_UnovaBattle3_branch_746:
		note E_, 4
		note C_, 2
		note C_, 2
		note E_, 4
		note C_, 4
Music_UnovaBattle3_branch_747:
		note E_, 4
		note C_, 2
		note C_, 2
		note E_, 4
		note C_, 4
Music_UnovaBattle3_branch_748:
		note E_, 4
		note C_, 2
		note C_, 2
		note E_, 2
		note E_, 1
		note E_, 1
		note C_, 4
Music_UnovaBattle3_branch_749:
		note E_, 4
		note C_, 2
		note C_, 2
		note E_, 4
		note C_, 4
Music_UnovaBattle3_branch_750:
		note E_, 4
		note C_, 2
		note C_, 2
		note E_, 4
		note C_, 4
Music_UnovaBattle3_branch_751:
		note E_, 4
		note C_, 2
		note C_, 2
		note E_, 4
		note C_, 4
Music_UnovaBattle3_branch_752:
		note E_, 4
		note C_, 2
		note C_, 2
		note E_, 2
		note E_, 1
		note E_, 1
		note C_, 4
Music_UnovaBattle3_branch_753:
		note E_, 4
		note C_, 2
		note C_, 2
		note E_, 4
		note C_, 4
Music_UnovaBattle3_branch_754:
		note E_, 4
		note C_, 2
		note C_, 2
		note E_, 4
		note C_, 4
Music_UnovaBattle3_branch_755:
		note E_, 4
		note C_, 2
		note C_, 2
		note E_, 4
		note C_, 4
Music_UnovaBattle3_branch_756:
		note E_, 4
		note C_, 2
		note C_, 2
		note E_, 4
		note C_, 4
Music_UnovaBattle3_branch_757:
		note E_, 4
		note C_, 2
		note C_, 2
		note E_, 4
		note C_, 4
Music_UnovaBattle3_branch_758:
		note E_, 4
		note C_, 2
		note C_, 2
		note E_, 4
		note C_, 4
Music_UnovaBattle3_branch_759:
		note E_, 4
		note C_, 2
		note C_, 2
		note E_, 4
		note C_, 2
Music_UnovaBattle3_branch_760:
		note E_, 4
		note C_, 2
		note E_, 2
		octave 4
		note F#, 2
		octave 2
		note E_, 1
		note E_, 1
		octave 4
		octave 2
		note C_, 3
Music_UnovaBattle3_branch_761:
		note __, 1
		note E_, 4
		octave 4
		octave 2
		note C_, 2
		note C_, 2
		note E_, 4
		note C_, 4
Music_UnovaBattle3_branch_762:
		note E_, 4
		note C_, 2
		note C_, 2
		note E_, 4
		note C_, 4
Music_UnovaBattle3_branch_763:
		note E_, 4
		note C_, 2
		note C_, 2
		note E_, 4
		note C_, 4
Music_UnovaBattle3_branch_764:
		note E_, 1
		note __, 3
		note C_, 2
		note C_, 2
		octave 4
		note F_, 4
		octave 2
		octave 4
		octave 2
		note C_, 4
Music_UnovaBattle3_branch_765:
		note E_, 4
		octave 4
		octave 2
		note C_, 2
		note C_, 2
		note E_, 4
		note C_, 4
Music_UnovaBattle3_branch_766:
		note E_, 4
		note C_, 2
		note C_, 2
		note E_, 4
		note C_, 4
Music_UnovaBattle3_branch_767:
		note E_, 4
		note C_, 2
		note C_, 2
		note E_, 4
		note C_, 4
Music_UnovaBattle3_branch_768:
		note E_, 4
		note E_, 2
		note C_, 2
		note __, 1
		note E_, 1
		note C_, 2
		octave 4
		octave 2
		note C_, 4
Music_UnovaBattle3_branch_769:
		note E_, 4
		note C_, 2
		note C_, 2
		octave 4
		octave 2
		note E_, 4
		note C_, 2
		note E_, 2
Music_UnovaBattle3_branch_770:
		note E_, 2
		note __, 2
		note E_, 2
		note E_, 2
		note C_, 2
		note E_, 2
		octave 4
		octave 2
		note C_, 4
Music_UnovaBattle3_branch_771:
		note E_, 4
		note C_, 2
		note C_, 2
		octave 4
		octave 2
		note E_, 4
		note C_, 3
Music_UnovaBattle3_branch_772:
		note __, 1
		note E_, 4
		note C_, 2
		note C_, 2
		note E_, 2
		note E_, 2
		note C_, 3
Music_UnovaBattle3_branch_773:
		note __, 1
		note E_, 4
		note C_, 2
		note C_, 2
		note E_, 4
		note E_, 2
		note C_, 2
Music_UnovaBattle3_branch_774:
		note E_, 4
		note E_, 1
		note E_, 1
		note C_, 2
		note C_, 2
		note E_, 2
		note C_, 2
		note E_, 1
Music_UnovaBattle3_branch_775:
		note __, 3
		note __, 2
		note C_, 2
		note C_, 2
		note E_, 4
		note C_, 4
Music_UnovaBattle3_branch_776:
		note E_, 4
		note C_, 2
		note E_, 2
		note E_, 2
		note E_, 1
		note E_, 1
		octave 4
		octave 2
		note C_, 2
		note E_, 2
Music_UnovaBattle3_branch_777:
		note E_, 4
		note C_, 1
		octave 4
		note __, 1
		octave 2
		note E_, 2
		note E_, 2
		note E_, 2
		octave 3
		note __, 1
		octave 2
		octave 3
		octave 2
		octave 3
		note __, 1
		octave 2
		note __, 1
Music_UnovaBattle3_branch_778:
		note F_, 2
		note C_, 2
		note F_, 2
		note F_, 1
		note E_, 1
		note F_, 1
		note E_, 1
		note C_, 2
		note C_, 2
		octave 4
		note D#, 2
Music_UnovaBattle3_branch_779:
		octave 2
		note E_, 2
		note C_, 2
		note C_, 2
		octave 4
		octave 2
		octave 4
		note G_, 4
		octave 2
		note C_, 2
		note C_, 2
		octave 4
		octave 2
		octave 4
		note C#, 4
Music_UnovaBattle3_branch_780:
		octave 2
		note C_, 2
		note C_, 2
		octave 4
		octave 2
		octave 4
		note A_, 2
		octave 2
		note E_, 2
		note C_, 2
		note C_, 2
		octave 4
		octave 2
		octave 4
		note E_, 2
Music_UnovaBattle3_branch_781:
		octave 2
		note E_, 2
		note C_, 2
		note C_, 2
		octave 4
		octave 2
		octave 4
		note E_, 2
		octave 2
		note E_, 2
		note C_, 2
		note C_, 2
		octave 4
		octave 2
		octave 4
		note G_, 2
Music_UnovaBattle3_branch_782:
		octave 2
		note E_, 2
		note C_, 2
		note C_, 2
		octave 4
		octave 2
		note E_, 2
		octave 4
		note A_, 2
		octave 2
		octave 3
		octave 4
		note E_, 1
		octave 3
		note E_, 1
		octave 2
		note B_, 1
		note G#, 1
		note __, 1
		note G_, 1
Music_UnovaBattle3_branch_783:
		octave 4
		octave 2
		note E_, 2
		note E_, 1
		note C_, 1
		note C_, 1
		note C_, 1
		octave 3
		octave 4
		note F#, 1
		octave 3
		note E_, 1
		octave 2
		note G#, 1
		note F_, 1
		note C_, 1
		note C_, 1
		octave 4
		octave 2
		octave 3
		note A#, 1
		note C_, 1
		octave 2
		octave 3
		octave 2
		note A_, 1
		note F_, 1
Music_UnovaBattle3_branch_784:
		note C_, 1
		octave 3
		octave 2
		note C_, 1
		octave 3
		octave 2
		octave 3
		note F#, 1
		note C_, 1
		octave 2
		note B_, 1
		note G#, 1
		note C_, 1
		note F_, 1
		octave 4
		note C#, 2
		octave 2
		note E_, 1
		octave 4
		octave 2
		octave 4
		note E_, 1
		octave 2
		note C_, 1
		note C_, 1
		octave 4
		octave 2
		octave 3
		note E_, 1
		note E_, 1
Music_UnovaBattle3_branch_785:
		octave 2
		note G#, 1
		note F_, 1
		note C_, 1
		note C_, 1
		note E_, 2
		note E_, 1
		note C_, 1
		note C_, 1
		octave 3
		note E_, 1
		note E_, 1
		octave 2
		note B_, 1
		note G#, 1
		note C_, 1
		note G_, 1
		octave 4
		note F#, 1
Music_UnovaBattle3_branch_786:
		note __, 1
		octave 2
		octave 4
		note F#, 1
		octave 2
		octave 4
		octave 2
		note C_, 1
		octave 4
		note F#, 1
		octave 2
		octave 4
		octave 2
		note C_, 1
		octave 3
		note E_, 1
		note E_, 1
		octave 2
		note G#, 1
		note F_, 1
		note C_, 1
		note A_, 1
		octave 4
		note G#, 1
		note __, 1
		note G#, 1
		note __, 1
		octave 2
		octave 4
		note G#, 1
Music_UnovaBattle3_branch_787:
		note __, 1
		octave 2
		octave 4
		note G#, 1
		octave 2
		octave 4
		note G#, 1
		octave 2
		octave 4
		note G#, 1
		octave 2
		octave 3
		octave 4
		note F#, 1
		octave 3
		note E_, 1
		octave 2
		note B_, 1
		note G#, 1
		note C_, 1
		note G_, 1
		octave 4
		octave 2
		octave 4
		note E_, 1
		note __, 1
		note E_, 1
		note __, 1
		octave 2
		octave 4
		note E_, 1
		note __, 1
Music_UnovaBattle3_branch_788:
		octave 2
		octave 4
		note E_, 1
		octave 2
		octave 4
		note E_, 1
		octave 2
		octave 4
		note E_, 1
		octave 2
		octave 3
		octave 4
		note G_, 1
		octave 2
		octave 3
		note __, 1
		octave 2
		note G#, 1
		octave 4
		note __, 1
		octave 2
		note C_, 1
		note G_, 1
		note E_, 2
		note E_, 1
		octave 4
		note G#, 1
		octave 2
		note B_, 1
		note F_, 1
		octave 4
		octave 2
		octave 1
		octave 4
		note F#, 4
Music_UnovaBattle3_branch_789:
		octave 1
		note B_, 4
		note B_, 4
		octave 4
		octave 1
		note B_, 4
		note B_, 4
Music_UnovaBattle3_branch_790:
		note B_, 4
		note B_, 4
		note B_, 4
		note B_, 4
Music_UnovaBattle3_branch_791:
		note B_, 4
		note B_, 4
		note B_, 4
		note B_, 4
Music_UnovaBattle3_branch_792:
		note B_, 4
		note B_, 2
		note B_, 2
		octave 2
		note E_, 2
		note E_, 1
		note E_, 1
		note __, 16
Music_UnovaBattle3_branch_793:
		intensity $1B
		note __, 16
Music_UnovaBattle3_branch_794:
		note __, 2
Music_UnovaBattle3_branch_795:
		octave 5
		note B_, 12
		note E_, 16
Music_UnovaBattle3_branch_796:
		octave 4
		note E_, 1
		note __, 1
		note E_, 1
Music_UnovaBattle3_branch_797:
		note __, 1
		note G_, 4
		note E_, 1
		note __, 1
		note E_, 1
		note __, 1
		note A_, 4
		note E_, 1
		note __, 1
		note E_, 1
Music_UnovaBattle3_branch_798:
		note __, 1
		note A#, 4
		note E_, 1
		note __, 1
		note E_, 1
		note __, 3
		note B_, 2
		octave 6
		note C_, 2
		octave 4
		note __, 10
Music_UnovaBattle3_branch_799:
		octave 6
		octave 5
		note F_, 16
Music_UnovaBattle3_branch_800:
		octave 4
		note F_, 1
		note __, 1
		note F_, 1
		note __, 1
		note G#, 4
Music_UnovaBattle3_branch_801:
		note F_, 1
		note __, 1
		note F_, 1
		note __, 1
		note A#, 4
		note F_, 1
		note __, 1
		note F_, 1
		note __, 1
		note B_, 4
Music_UnovaBattle3_branch_802:
		note F_, 1
		note __, 1
		note F_, 1
		note __, 1
		octave 5
		note C_, 4
		note F_, 16
Music_UnovaBattle3_branch_803:
		note F_, 1
		note __, 1
		note C_, 6
Music_UnovaBattle3_branch_804:
		note F_, 1
		note __, 3
		octave 6
		note C_, 1
		note __, 3
		note C_, 1
		note __, 1
		note C#, 16
Music_UnovaBattle3_branch_805:
		note C#, 12
Music_UnovaBattle3_branch_806:
		octave 5
		note __, 1
		note __, 1
		note F_, 16
Music_UnovaBattle3_branch_807:
		note F_, 1
		note __, 1
		note C_, 6
Music_UnovaBattle3_branch_808:
		note F_, 1
		note __, 3
		octave 6
		note C_, 1
		note __, 3
		note C_, 1
		note __, 1
		octave 5
		note A#, 16
Music_UnovaBattle3_branch_809:
		note A#, 10
Music_UnovaBattle3_branch_810:
		note __, 4
		note G#, 16
Music_UnovaBattle3_branch_811:
		note F_, 8
Music_UnovaBattle3_branch_812:
		octave 6
		note C_, 4
		octave 5
		note G#, 4
		note G_, 6
		note A#, 16
Music_UnovaBattle3_branch_813:
		note A#, 10
Music_UnovaBattle3_branch_814:
		note G#, 16
Music_UnovaBattle3_branch_815:
		note F_, 8
Music_UnovaBattle3_branch_816:
		octave 6
		note C_, 4
		octave 5
		note G#, 4
		note A#, 6
		octave 6
		note D#, 16
Music_UnovaBattle3_branch_817:
		note D#, 10
Music_UnovaBattle3_branch_818:
		octave 5
		note D#, 5
		note E_, 10
Music_UnovaBattle3_branch_819:
		note C#, 8
Music_UnovaBattle3_branch_820:
		octave 4
		note A#, 2
		octave 5
		note C#, 2
		note G#, 1
		note E_, 2
		note D#, 6
		octave 4
		note A#, 10
Music_UnovaBattle3_branch_821:
		note G_, 8
		octave 5
		note D#, 2
Music_UnovaBattle3_branch_822:
		note A#, 2
		note G_, 1
		note G#, 1
		note E_, 2
		note D#, 2
		note __, 16
Music_UnovaBattle3_branch_823:
		note __, 16
Music_UnovaBattle3_branch_824:
		note __, 16
Music_UnovaBattle3_branch_825:
		note __, 16
Music_UnovaBattle3_branch_826:
		note __, 16
Music_UnovaBattle3_branch_827:
		note __, 16
Music_UnovaBattle3_branch_828:
		note __, 16
Music_UnovaBattle3_branch_829:
		note __, 7
Music_UnovaBattle3_branch_830:
		octave 4
		note D#, 2
		note A#, 2
		octave 5
		note G_, 2
		note F_, 2
		note D#, 16
Music_UnovaBattle3_branch_831:
		note D#, 8
Music_UnovaBattle3_branch_832:
		octave 4
		note G_, 2
		note A#, 2
		octave 5
		note G_, 2
		note D#, 2
		note E_, 14
Music_UnovaBattle3_branch_833:
		note D#, 1
		note D_, 1
		note C#, 12
Music_UnovaBattle3_branch_834:
		note E_, 4
		note D#, 16
Music_UnovaBattle3_branch_835:
		note D#, 8
Music_UnovaBattle3_branch_836:
		octave 4
		note A#, 2
		octave 5
		note D#, 2
		note G#, 2
		note F_, 2
		note G_, 14
Music_UnovaBattle3_branch_837:
		note G#, 2
		note A#, 15
Music_UnovaBattle3_branch_838:
		note C#, 1
		note __, 1
		note C_, 2
		note C#, 2
		note F_, 6
Music_UnovaBattle3_branch_839:
		note C#, 4
		note C_, 1
		note C#, 7
		octave 4
		note G#, 2
Music_UnovaBattle3_branch_840:
		octave 5
		note C#, 2
		note G#, 2
		note F_, 2
		note D#, 6
		octave 4
		note A#, 10
Music_UnovaBattle3_branch_841:
		octave 5
		note G_, 2
		note F_, 2
		note G_, 2
		note A#, 4
Music_UnovaBattle3_branch_842:
		octave 4
		note G_, 2
		note A#, 2
		note D#, 2
		octave 5
		note C#, 2
		note __, 4
		note F_, 6
Music_UnovaBattle3_branch_843:
		note C#, 4
		note C_, 1
		note C#, 5
		note __, 2
		octave 4
		note G#, 2
Music_UnovaBattle3_branch_844:
		octave 5
		note C#, 2
		note G#, 2
		note F_, 2
		note D#, 6
		octave 4
		note A#, 6
Music_UnovaBattle3_branch_845:
		octave 5
		note D#, 4
		note G_, 2
		note F_, 2
		note G_, 6
Music_UnovaBattle3_branch_846:
		note A#, 2
		note __, 4
		note F_, 2
		note __, 4
		note C_, 6
Music_UnovaBattle3_branch_847:
		note F_, 4
		note A_, 6
		octave 6
		note C_, 1
		note C_, 1
		octave 5
		note A_, 2
Music_UnovaBattle3_branch_848:
		note F_, 2
		note __, 2
		octave 4
		note A_, 2
		octave 5
		note G_, 2
		note __, 4
		note D_, 6
Music_UnovaBattle3_branch_849:
		note G_, 3
		note __, 1
		note G_, 2
		note B_, 4
		octave 6
		note D_, 1
		note D_, 1
		octave 5
		note B_, 2
Music_UnovaBattle3_branch_850:
		note G_, 2
		note __, 2
		octave 4
		note B_, 2
		octave 5
		note A_, 2
		note __, 4
		note E_, 6
Music_UnovaBattle3_branch_851:
		note A_, 4
		octave 6
		note C#, 8
		octave 5
		note C#, 2
Music_UnovaBattle3_branch_852:
		note E_, 6
		note __, 16
Music_UnovaBattle3_branch_853:
		note __, 16
Music_UnovaBattle3_branch_854:
		note __, 16
Music_UnovaBattle3_branch_855:
		note __, 16
Music_UnovaBattle3_branch_856:
		note __, 16
Music_UnovaBattle3_branch_857:
		note __, 16
Music_UnovaBattle3_branch_858:
		note __, 16
Music_UnovaBattle3_branch_859:
		note __, 16
Music_UnovaBattle3_branch_860:
		note G#, 15
Music_UnovaBattle3_branch_861:
		note __, 1
		octave 4
		note G#, 16
Music_UnovaBattle3_branch_862:
		octave 5
		note A_, 16
Music_UnovaBattle3_branch_863:
		octave 6
		note C#, 6
		octave 5
		note B_, 6
Music_UnovaBattle3_branch_864:
		note A_, 4
		note B_, 16
Music_UnovaBattle3_branch_865:
		octave 4
		note B_, 16
Music_UnovaBattle3_branch_866:
		octave 5
		note B_, 2
		octave 6
		note C#, 12
		endchannel

; ===========================================================================
Music_UnovaBattle_Ch4:
		notetype $C
		togglenoise 0
Music_UnovaBattle4_branch_1:
		note E_, 3
		note __, 1
		note E_, 3
		note __, 1
		note E_, 3
		note __, 1
		note E_, 3
		note __, 1
Music_UnovaBattle4_branch_2:
		note E_, 3
		note __, 1
		note E_, 3
		note __, 1
		note E_, 3
		note __, 1
		note E_, 3
		note __, 1
Music_UnovaBattle4_branch_3:
		note E_, 2
		note B_, 2
		note E_, 2
		note B_, 2
		note F_, 2
		note F_, 2
		note E_, 2
		note A_, 2
Music_UnovaBattle4_branch_4:
		note G_, 2
		note E_, 2
		note G#, 2
		note D_, 2
		note E_, 1
		note G#, 1
		note B_, 2
		note E_, 2
		note F_, 2
Music_UnovaBattle4_branch_5:
		note E_, 2
		note B_, 2
		note E_, 2
		note B_, 2
		note F_, 2
		note F_, 2
		note E_, 2
		note A#, 2
Music_UnovaBattle4_branch_6:
		note G_, 2
		note E_, 2
		note G#, 2
		note D_, 2
		note E_, 2
		note B_, 2
		note E_, 2
		note F_, 1
		note G_, 1
Music_UnovaBattle4_branch_7:
		note F_, 2
		note C_, 2
		note F_, 2
		note C_, 2
		note F#, 2
		note F#, 2
		note F_, 2
		note A#, 2
Music_UnovaBattle4_branch_8:
		note G#, 2
		note F_, 2
		note A_, 2
		note D#, 2
		note F_, 1
		note B_, 1
		note C_, 2
		note F_, 2
		note F#, 2
Music_UnovaBattle4_branch_9:
		note F_, 2
		note C_, 2
		note F_, 2
		note C_, 2
		note F#, 2
		note F#, 2
		note F_, 2
		note A#, 2
Music_UnovaBattle4_branch_10:
		note G#, 2
		note F_, 2
		note A_, 2
		note D#, 2
		note F_, 2
		note D_, 2
		note D#, 2
		note E_, 2
Music_UnovaBattle4_branch_11:
		note F_, 2
		note F_, 2
		note F_, 2
		note F_, 2
		note F_, 2
		note F_, 2
		note F_, 2
		note F_, 2
Music_UnovaBattle4_branch_12:
		note F_, 2
		note F_, 2
		note F_, 2
		note F_, 2
		note F_, 2
		note F_, 2
		note F_, 2
		note F_, 2
Music_UnovaBattle4_branch_13:
		note F#, 2
		note F#, 2
		note A#, 2
		note F#, 2
		note C_, 2
		note A#, 2
		note F#, 2
		note F#, 2
Music_UnovaBattle4_branch_14:
		note F#, 2
		note C#, 2
		note F#, 2
		note F#, 2
		note A#, 2
		note C_, 2
		note C#, 2
		note D#, 2
Music_UnovaBattle4_branch_15:
		note F_, 2
		note F_, 2
		note F_, 2
		note F_, 2
		note F_, 2
		note F_, 2
		note F_, 2
		note F_, 2
Music_UnovaBattle4_branch_16:
		note F_, 2
		note F_, 2
		note F_, 2
		note F_, 2
		note F_, 2
		note F_, 2
		note F_, 2
		note F_, 2
Music_UnovaBattle4_branch_17:
		note D#, 2
		note D#, 2
		note D#, 2
		note D#, 2
		note D#, 2
		note D#, 2
		note D#, 2
		note D#, 2
Music_UnovaBattle4_branch_18:
		note D#, 2
		note A#, 2
		note D#, 2
		note D#, 2
		note A#, 2
		note C_, 2
		note D#, 2
		note D_, 2
Music_UnovaBattle4_branch_19:
		note C#, 2
		note C#, 2
		note C#, 2
		note C#, 2
		note C#, 2
		note C#, 2
		note C#, 2
		note C#, 2
Music_UnovaBattle4_branch_20:
		note C#, 2
		note C#, 2
		note C#, 2
		note C#, 2
		note C#, 2
		note C#, 2
		note D_, 2
		note D_, 2
Music_UnovaBattle4_branch_21:
		note D#, 2
		note D#, 2
		note D#, 2
		note D#, 2
		note D#, 2
		note D#, 2
		note E_, 2
		note F_, 2
Music_UnovaBattle4_branch_22:
		note G_, 2
		note G_, 2
		note F_, 2
		note F_, 2
		note D#, 2
		note D#, 2
		note C#, 2
		note C#, 2
Music_UnovaBattle4_branch_23:
		note C#, 2
		note C#, 2
		note C#, 2
		note C#, 2
		note C#, 2
		note C#, 2
		note C#, 2
		note C#, 2
Music_UnovaBattle4_branch_24:
		note C#, 2
		note C#, 2
		note C#, 2
		note C#, 2
		note C#, 2
		note C#, 2
		note D_, 2
		note D_, 2
Music_UnovaBattle4_branch_25:
		note D#, 3
		note __, 1
		note D#, 2
		note D#, 2
		note D#, 2
		note D#, 2
		note D#, 2
		note D#, 2
Music_UnovaBattle4_branch_26:
		note D#, 2
		note D#, 2
		note E_, 2
		note E_, 2
		note G_, 2
		note E_, 2
		note D#, 1
		note E_, 1
		note C#, 2
Music_UnovaBattle4_branch_27:
		note D#, 2
		note A#, 2
		note D#, 2
		note A#, 2
		note E_, 2
		note E_, 2
		note D#, 2
		note G#, 2
Music_UnovaBattle4_branch_28:
		note F#, 2
		note D#, 2
		note G_, 2
		note C#, 2
		note D#, 2
		note A#, 2
		note D#, 2
		note A#, 2
Music_UnovaBattle4_branch_29:
		note D#, 2
		note A#, 2
		note D#, 2
		note A#, 2
		note E_, 2
		note E_, 2
		note D#, 2
		note G#, 2
Music_UnovaBattle4_branch_30:
		note E_, 2
		note D#, 2
		note G_, 2
		note C#, 2
		note D#, 2
		note D#, 2
		note D#, 2
		note G_, 2
Music_UnovaBattle4_branch_31:
		note D#, 2
		note D#, 2
		note D#, 2
		note D#, 2
		note D#, 2
		note D#, 2
		note D#, 2
		note D#, 2
Music_UnovaBattle4_branch_32:
		note D#, 2
		note D#, 2
		note D#, 2
		note D#, 2
		note D#, 2
		note D#, 2
		note D#, 2
		note D#, 2
Music_UnovaBattle4_branch_33:
		note D#, 2
		note D#, 2
		note D#, 2
		note D#, 2
		note D#, 2
		note D#, 2
		note D#, 2
		note D#, 2
Music_UnovaBattle4_branch_34:
		note D#, 2
		note D#, 2
		note D#, 2
		note D#, 2
		note D#, 2
		note D#, 2
		note D#, 2
		note D#, 2
Music_UnovaBattle4_branch_35:
		note E_, 2
		note E_, 2
		note E_, 2
		note E_, 2
		note E_, 2
		note E_, 2
		note E_, 2
		note E_, 2
Music_UnovaBattle4_branch_36:
		note E_, 2
		note E_, 2
		note E_, 2
		note E_, 2
		note E_, 2
		note E_, 2
		note E_, 2
		note E_, 2
Music_UnovaBattle4_branch_37:
		note D#, 2
		note D#, 2
		note D#, 2
		note D#, 2
		note D#, 2
		note D#, 2
		note D#, 2
		note D#, 2
Music_UnovaBattle4_branch_38:
		note D#, 2
		note D#, 2
		note D#, 2
		note D#, 2
		note D#, 2
		note D#, 2
		note D#, 2
		note D#, 2
Music_UnovaBattle4_branch_39:
		note D#, 2
		note D#, 2
		note D#, 2
		note D#, 2
		note D#, 2
		note D#, 2
		note D#, 2
		note D#, 2
Music_UnovaBattle4_branch_40:
		note D#, 2
		note D#, 2
		note D#, 2
		note D#, 2
		note D#, 2
		note D#, 2
		note D#, 2
		note D#, 2
Music_UnovaBattle4_branch_41:
		note E_, 2
		note E_, 2
		note E_, 2
		note E_, 2
		note E_, 2
		note E_, 2
		note E_, 2
		note E_, 2
Music_UnovaBattle4_branch_42:
		note C#, 2
		note C#, 2
		note C#, 2
		note C#, 2
		note C#, 2
		note C#, 2
		note C#, 2
		note D_, 2
Music_UnovaBattle4_branch_43:
		note D#, 2
		note D#, 2
		note D#, 2
		note D#, 2
		note D#, 2
		note D#, 2
		note D#, 2
		note D#, 2
Music_UnovaBattle4_branch_44:
		note D#, 2
		note D#, 2
		note D#, 2
		note D#, 2
		note D#, 2
		note D#, 2
		note D#, 2
		note D#, 2
Music_UnovaBattle4_branch_45:
		note D#, 2
		note D#, 2
		note D#, 2
		note D#, 2
		note D#, 2
		note D#, 2
		note D#, 2
		note D#, 2
Music_UnovaBattle4_branch_46:
		note D#, 2
		note D#, 2
		note D_, 2
		note D#, 2
		note D#, 2
		note G#, 2
		note D_, 4
Music_UnovaBattle4_branch_47:
		note C#, 2
		note C#, 2
		note C#, 2
		note C#, 2
		note C#, 2
		note C#, 2
		note C#, 2
		note C#, 2
Music_UnovaBattle4_branch_48:
		note C#, 2
		note F_, 2
		note C#, 2
		note D#, 2
		note C#, 2
		note C#, 2
		note D_, 2
		note D_, 2
Music_UnovaBattle4_branch_49:
		note D#, 2
		note D#, 2
		note D#, 2
		note D#, 2
		note C#, 2
		note D#, 2
		note D#, 2
		note D#, 2
Music_UnovaBattle4_branch_50:
		note D#, 2
		note G_, 1
		note G_, 1
		note D#, 2
		note F_, 1
		note F_, 1
		note D#, 2
		note C#, 2
		note D#, 2
		note A#, 2
Music_UnovaBattle4_branch_51:
		note C#, 2
		note C#, 2
		note C#, 2
		note C#, 2
		note G#, 2
		note F_, 2
		note C_, 2
		note C#, 2
Music_UnovaBattle4_branch_52:
		note C#, 2
		note F_, 2
		note C#, 2
		note D#, 2
		note C#, 2
		note C#, 2
		note C#, 2
		note D_, 2
Music_UnovaBattle4_branch_53:
		note D#, 2
		note D#, 2
		note D#, 2
		note D#, 2
		note C#, 2
		note D#, 2
		note D#, 2
		note D#, 2
Music_UnovaBattle4_branch_54:
		note D#, 2
		note G_, 1
		note G_, 1
		note D#, 2
		note G_, 1
		note G_, 1
		note D#, 2
		note D#, 2
		note E_, 2
		note E_, 2
Music_UnovaBattle4_branch_55:
		note F_, 2
		note F_, 2
		note F_, 2
		note F_, 2
		note F_, 2
		note C_, 2
		note F_, 2
		note A_, 2
Music_UnovaBattle4_branch_56:
		note F_, 2
		note C_, 2
		note F_, 2
		note F_, 2
		note A_, 2
		note G#, 2
		note C_, 2
		note F_, 2
Music_UnovaBattle4_branch_57:
		note G_, 2
		note G_, 2
		note G_, 2
		note G_, 2
		note G_, 2
		note D_, 2
		note G_, 2
		note B_, 2
Music_UnovaBattle4_branch_58:
		note G_, 2
		note D_, 2
		note G_, 2
		note G_, 2
		note G_, 2
		note D_, 2
		note G_, 2
		note G#, 2
Music_UnovaBattle4_branch_59:
		note A_, 2
		note A_, 2
		note A_, 2
		note A_, 2
		note A_, 2
		note E_, 2
		note A_, 2
		note C#, 2
Music_UnovaBattle4_branch_60:
		note A_, 2
		note E_, 2
		note A_, 2
		note A_, 2
		note A_, 2
		note E_, 2
		note G_, 2
		note G#, 2
Music_UnovaBattle4_branch_61:
		note A_, 2
		note A_, 2
		note __, 2
		note A_, 2
		note A_, 2
		note E_, 2
		note A_, 2
		note C#, 2
Music_UnovaBattle4_branch_62:
		note A_, 2
		note G_, 2
		note A_, 2
		note A_, 2
		note A#, 2
		note A_, 2
		note G_, 2
		note A#, 2
Music_UnovaBattle4_branch_63:
		note A_, 2
		note A_, 1
		note __, 1
		note A_, 1
		note __, 1
		note A_, 2
		note A_, 1
		note __, 1
		note E_, 1
		note __, 1
		note E_, 2
		note A#, 2
Music_UnovaBattle4_branch_64:
		note A_, 2
		note E_, 1
		note __, 1
		note A_, 1
		note __, 1
		note C#, 2
		note A_, 1
		note __, 1
		note A#, 1
		note __, 1
		note A_, 2
		note E_, 2
Music_UnovaBattle4_branch_65:
		note C#, 2
		note A_, 2
		note D_, 2
		note A#, 2
		note C#, 2
		note A_, 2
		note E_, 2
		note C_, 2
Music_UnovaBattle4_branch_66:
		note C#, 2
		note A_, 2
		note F#, 2
		note D_, 2
		note C#, 2
		note A_, 2
		note G_, 2
		note D#, 2
Music_UnovaBattle4_branch_67:
		note D#, 2
		note B_, 2
		note E_, 2
		note C_, 2
		note D#, 2
		note B_, 2
		note F#, 2
		note D_, 2
Music_UnovaBattle4_branch_68:
		note D#, 2
		note B_, 2
		note G#, 2
		note E_, 2
		note D#, 2
		note B_, 2
		note G#, 2
		note D#, 2
Music_UnovaBattle4_branch_69:
		note D#, 1
		note F#, 1
		note __, 2
		note __, 1
		note __, 1
		note G#, 1
		note __, 2
		note __, 2
		note __, 1
		note __, 1
		note G#, 1
		note F#, 1
		note __, 2
Music_UnovaBattle4_branch_70:
		note __, 1
		note __, 1
		note G#, 1
		note __, 2
		note __, 2
		note __, 1
		note __, 1
		note C#, 1
		note E_, 1
		note __, 2
		note __, 1
		note __, 1
Music_UnovaBattle4_branch_71:
		note E_, 1
		note C#, 1
		note __, 2
		note __, 1
		note __, 1
		note A_, 1
		note G#, 1
		note __, 2
		note __, 1
		note __, 1
		note E_, 1
		note A_, 1
		note __, 2
Music_UnovaBattle4_branch_72:
		note __, 1
		note __, 1
		note B_, 1
		note A_, 1
		note __, 1
		note B_, 1
		note __, 1
		note __, 1
		note __, 2
		note B_, 1
		note __, 2
		note __, 1
		note __, 1
		note F#, 1
Music_UnovaBattle4_branch_73:
		note A_, 1
		note __, 2
		note __, 1
		note __, 1
		note __, 1
		note __, 1
		note __, 1
		note B_, 1
		note F#, 1
		note __, 1
		note C#, 1
		note __, 1
		note __, 2
		note __, 1
Music_UnovaBattle4_branch_74:
		note __, 1
		note C#, 1
		note __, 1
		note __, 2
		note __, 1
		note __, 1
		note F_, 1
		note G#, 1
		note __, 2
		note __, 1
		note __, 1
		note C#, 2
		note __, 1
Music_UnovaBattle4_branch_75:
		note __, 1
		note __, 1
		note __, 1
		note C#, 2
		note C_, 2
		note F_, 2
		note C_, 2
		note F#, 2
		note F#, 2
		note F_, 2
Music_UnovaBattle4_branch_76:
		note A#, 2
		note G#, 2
		note F_, 2
		note A_, 2
		note D#, 2
		note F_, 2
		note C_, 2
		note F_, 2
Music_UnovaBattle4_branch_77:
		note F#, 2
		note F_, 2
		note C_, 2
		note F_, 2
		note C_, 2
		note F#, 2
		note F#, 2
		note F_, 2
Music_UnovaBattle4_branch_78:
		note A#, 2
		note G#, 2
		note F_, 2
		note A_, 2
		note D#, 2
		note F_, 2
		note C_, 2
		note F_, 2
Music_UnovaBattle4_branch_79:
		note F#, 2
		note __, 16
Music_UnovaBattle4_branch_80:
		note D_, 1
		note C#, 1
		note D_, 1
		note C#, 1
		note C_, 1
		note C#, 1
		note C_, 1
		note B_, 1
		note C_, 1
		note B_, 1
		note A#, 1
		note B_, 1
		note A#, 1
Music_UnovaBattle4_branch_81:
		note B_, 1
		note A#, 1
		note F_, 1
		note E_, 16
Music_UnovaBattle4_branch_82:
		note B_, 15
Music_UnovaBattle4_branch_83:
		note __, 1
		note __, 2
		note E_, 4
		note __, 2
		note E_, 2
		note E_, 4
Music_UnovaBattle4_branch_84:
		note E_, 2
		note E_, 4
		note E_, 4
		note E_, 4
		note E_, 4
Music_UnovaBattle4_branch_85:
		note F_, 15
Music_UnovaBattle4_branch_86:
		note __, 1
		note C_, 16
Music_UnovaBattle4_branch_87:
		note F_, 2
		note F_, 4
		note __, 2
		note F_, 2
		note F_, 4
Music_UnovaBattle4_branch_88:
		note F_, 2
		note F_, 4
		note F_, 4
		note F_, 4
		note C_, 1
Music_UnovaBattle4_branch_89:
		note C_, 1
		note C_, 1
		note C_, 1
		note F_, 10
		note __, 16
Music_UnovaBattle4_branch_90:
		note __, 16
Music_UnovaBattle4_branch_91:
		note __, 6
Music_UnovaBattle4_branch_92:
		note F_, 6
		note F#, 2
		note F#, 2
		note C#, 6
Music_UnovaBattle4_branch_93:
		note F_, 12
		note __, 16
Music_UnovaBattle4_branch_94:
		note __, 16
Music_UnovaBattle4_branch_95:
		note __, 4
Music_UnovaBattle4_branch_96:
		note A_, 5
		note __, 1
		note D#, 2
		note D#, 2
		note A#, 4
Music_UnovaBattle4_branch_97:
		note D#, 2
		note G#, 16
Music_UnovaBattle4_branch_98:
		note __, 16
Music_UnovaBattle4_branch_99:
		note __, 16
Music_UnovaBattle4_branch_100:
		note __, 16
Music_UnovaBattle4_branch_101:
		note __, 16
Music_UnovaBattle4_branch_102:
		note __, 16
Music_UnovaBattle4_branch_103:
		note __, 16
Music_UnovaBattle4_branch_104:
		note __, 16
Music_UnovaBattle4_branch_105:
		note D#, 2
		note A#, 2
		note D#, 2
		note A#, 2
		note E_, 2
		note E_, 2
		note D#, 2
Music_UnovaBattle4_branch_106:
		note G#, 2
		note F#, 2
		note D#, 2
		note G_, 2
		note C#, 2
		note D#, 2
		note A#, 2
		note D#, 2
Music_UnovaBattle4_branch_107:
		note A#, 2
		note D#, 2
		note A#, 2
		note D#, 2
		note A#, 2
		note E_, 2
		note E_, 2
		note D#, 2
Music_UnovaBattle4_branch_108:
		note G#, 2
		note E_, 2
		note D#, 2
		note G_, 2
		note C#, 2
		note D#, 2
		note G_, 2
		note D#, 2
Music_UnovaBattle4_branch_109:
		note G_, 2
		note __, 16
Music_UnovaBattle4_branch_110:
		note __, 16
Music_UnovaBattle4_branch_111:
		note __, 16
Music_UnovaBattle4_branch_112:
		note __, 16
Music_UnovaBattle4_branch_113:
		note __, 16
Music_UnovaBattle4_branch_114:
		note __, 16
Music_UnovaBattle4_branch_115:
		note __, 16
Music_UnovaBattle4_branch_116:
		note __, 16
Music_UnovaBattle4_branch_117:
		note __, 9
		note D#, 2
		note F_, 2
Music_UnovaBattle4_branch_118:
		note G#, 2
		note F_, 2
		note G_, 16
Music_UnovaBattle4_branch_119:
		note G#, 8
		note B_, 4
Music_UnovaBattle4_branch_120:
		note C_, 4
		note C#, 12
Music_UnovaBattle4_branch_121:
		note E_, 4
		note G_, 8
		note D#, 4
Music_UnovaBattle4_branch_122:
		note F_, 4
		note G_, 8
		note G_, 2
		note F_, 2
Music_UnovaBattle4_branch_123:
		note D#, 2
		note F_, 2
		note G_, 8
		note D#, 2
		note F_, 2
Music_UnovaBattle4_branch_124:
		note A#, 2
		note G#, 2
		note G_, 6
		note __, 9
Music_UnovaBattle4_branch_125:
		note F_, 2
		note D#, 2
		note F_, 2
		note G#, 6
		note F_, 4
Music_UnovaBattle4_branch_126:
		note E_, 1
		note F_, 7
		note C#, 2
		note F_, 2
		note C#, 2
Music_UnovaBattle4_branch_127:
		note G#, 2
		note G#, 6
		note G_, 10
Music_UnovaBattle4_branch_128:
		note A#, 2
		note A_, 2
		note A#, 2
		note D#, 6
		note __, 4
Music_UnovaBattle4_branch_129:
		note F_, 2
		note __, 4
		note G#, 6
		note F_, 4
Music_UnovaBattle4_branch_130:
		note F_, 8
		note C#, 2
		note F_, 2
		note C#, 2
Music_UnovaBattle4_branch_131:
		note G#, 2
		note A#, 6
		note D#, 6
		note A#, 4
Music_UnovaBattle4_branch_132:
		note A#, 2
		note A_, 2
		note A#, 6
		note D#, 2
		note __, 4
Music_UnovaBattle4_branch_133:
		note A_, 2
		note __, 4
		note F_, 6
		note A_, 4
Music_UnovaBattle4_branch_134:
		note C_, 16
Music_UnovaBattle4_branch_135:
		note B_, 2
		note __, 4
		note G_, 6
		note B_, 4
Music_UnovaBattle4_branch_136:
		note D_, 12
		note __, 4
Music_UnovaBattle4_branch_137:
		note C#, 2
		note __, 4
		note A_, 6
		note C#, 4
Music_UnovaBattle4_branch_138:
		note E_, 16
Music_UnovaBattle4_branch_139:
		note G_, 2
		note G_, 4
		note E_, 6
		note G_, 4
Music_UnovaBattle4_branch_140:
		note C#, 16
Music_UnovaBattle4_branch_141:
		note __, 16
Music_UnovaBattle4_branch_142:
		note __, 8
		note G_, 1
		note G_, 1
		note G_, 1
		note G_, 1
		note G_, 1
Music_UnovaBattle4_branch_143:
		note G_, 1
		note G_, 1
		note G_, 1
		note C#, 4
		note __, 2
		note C#, 4
		note __, 2
		note C#, 4
Music_UnovaBattle4_branch_144:
		note __, 2
		note C#, 4
		note __, 2
		note F#, 4
		note F#, 4
Music_UnovaBattle4_branch_145:
		note D#, 4
		note __, 2
		note D#, 4
		note __, 2
		note D#, 4
Music_UnovaBattle4_branch_146:
		note __, 2
		note D#, 4
		note __, 2
		note G#, 4
		note G#, 4
Music_UnovaBattle4_branch_147:
		note G#, 16
Music_UnovaBattle4_branch_148:
		note G#, 6
		note __, 16
Music_UnovaBattle4_branch_149:
		note __, 16
Music_UnovaBattle4_branch_150:
		note __, 16
Music_UnovaBattle4_branch_151:
		note __, 16
Music_UnovaBattle4_branch_152:
		note __, 16
Music_UnovaBattle4_branch_153:
		note __, 16
Music_UnovaBattle4_branch_154:
		note __, 16
Music_UnovaBattle4_branch_155:
		note __, 16
Music_UnovaBattle4_branch_156:
		note __, 16
Music_UnovaBattle4_branch_157:
		note __, 16
Music_UnovaBattle4_branch_158:
		note __, 6
		note C_, 1
Music_UnovaBattle4_branch_159:
		note C_, 1
		note C_, 1
		note C_, 1
		note E_, 1
		note B_, 1
		note E_, 1
		note __, 1
		note E_, 1
		note B_, 1
		note E_, 1
		note __, 1
		note E_, 1
		note B_, 1
		note E_, 1
		note __, 1
		note E_, 1
Music_UnovaBattle4_branch_160:
		note B_, 1
		note E_, 1
		note __, 1
		note E_, 1
		note B_, 1
		note E_, 1
		note __, 1
		note E_, 1
		note B_, 1
		note E_, 1
		note __, 1
		note E_, 1
		note B_, 1
		note E_, 1
		note __, 1
		note E_, 1
Music_UnovaBattle4_branch_161:
		note B_, 1
		note E_, 1
		note __, 1
		note __, 16
Music_UnovaBattle4_branch_162:
		note __, 16
Music_UnovaBattle4_branch_163:
		note E_, 1
		note __, 1
		note E_, 1
		note __, 1
		note G_, 4
		note E_, 1
		note __, 1
		note E_, 1
		note __, 1
		note A_, 4
Music_UnovaBattle4_branch_164:
		note E_, 1
		note __, 1
		note E_, 1
		note __, 1
		note A#, 4
		note E_, 1
		note __, 1
		note E_, 1
		note __, 1
		note B_, 4
Music_UnovaBattle4_branch_165:
		note __, 16
Music_UnovaBattle4_branch_166:
		note __, 16
Music_UnovaBattle4_branch_167:
		note F_, 1
		note __, 1
		note F_, 1
		note __, 1
		note G#, 4
		note F_, 1
		note __, 1
		note F_, 1
		note __, 1
		note A#, 4
Music_UnovaBattle4_branch_168:
		note F_, 1
		note __, 1
		note F_, 1
		note __, 1
		note B_, 4
		note F_, 1
		note __, 1
		note F_, 1
		note __, 1
		note C_, 4
Music_UnovaBattle4_branch_169:
		note __, 16
Music_UnovaBattle4_branch_170:
		note __, 16
Music_UnovaBattle4_branch_171:
		note __, 16
Music_UnovaBattle4_branch_172:
		note F_, 1
		note __, 1
		note F#, 10
		note A_, 1
Music_UnovaBattle4_branch_173:
		note F_, 1
		note C_, 16
Music_UnovaBattle4_branch_174:
		note __, 16
Music_UnovaBattle4_branch_175:
		note __, 16
Music_UnovaBattle4_branch_176:
		note D_, 1
		note __, 1
		note D#, 10
		note F_, 1
		note G_, 1
		note C#, 6
Music_UnovaBattle4_branch_177:
		note C_, 2
		note G#, 6
		note G_, 2
		note F_, 6
Music_UnovaBattle4_branch_178:
		note G_, 2
		note G#, 6
		note A#, 2
		note C_, 14
Music_UnovaBattle4_branch_179:
		note C#, 2
		note A#, 2
Music_UnovaBattle4_branch_180:
		note __, 4
		note __, 2
		note D#, 1
		note __, 1
		note __, 4
		note __, 2
		note F_, 6
Music_UnovaBattle4_branch_181:
		note D#, 2
		note C#, 6
		note C_, 2
		note A#, 6
Music_UnovaBattle4_branch_182:
		note G#, 2
		note F_, 6
		note G#, 2
		note G_, 2
Music_UnovaBattle4_branch_183:
		note G_, 4
		note A#, 2
		note D#, 1
		note __, 6
		note D#, 1
		note __, 1
Music_UnovaBattle4_branch_184:
		note __, 4
		note __, 2
		note D#, 1
		note __, 1
		note __, 2
		note D#, 1
		note __, 1
		note C#, 1
		note __, 1
		note A#, 1
		note __, 1
Music_UnovaBattle4_branch_185:
		note A#, 1
		note __, 7
		note A#, 1
		note __, 1
		note A#, 1
		note __, 5
Music_UnovaBattle4_branch_186:
		note E_, 1
		note __, 1
		note E_, 1
		note __, 3
		note D#, 1
		note __, 1
		note D#, 1
		note __, 1
		note C#, 1
		note __, 1
		note __, 1
		note __, 1
		note C#, 16
Music_UnovaBattle4_branch_187:
		note C#, 8
Music_UnovaBattle4_branch_188:
		note C#, 8
		note __, 16
Music_UnovaBattle4_branch_189:
		note __, 16
Music_UnovaBattle4_branch_190:
		note D#, 1
		note __, 1
Music_UnovaBattle4_branch_191:
		note D#, 1
		note __, 1
		note D#, 1
		note __, 1
		note D#, 1
		note __, 1
		note E_, 1
		note __, 1
		note E_, 1
		note __, 1
		note D#, 1
		note __, 1
		note F#, 1
		note __, 1
		note F#, 1
		note __, 1
Music_UnovaBattle4_branch_192:
		note D#, 1
		note __, 1
		note G_, 1
		note __, 1
		note G_, 1
		note __, 16
Music_UnovaBattle4_branch_193:
		note __, 16
Music_UnovaBattle4_branch_194:
		note __, 16
Music_UnovaBattle4_branch_195:
		note __, 16
Music_UnovaBattle4_branch_196:
		note __, 9
		note G_, 8
Music_UnovaBattle4_branch_197:
		note G_, 4
		note G#, 4
		note A#, 8
Music_UnovaBattle4_branch_198:
		note G_, 8
		note E_, 8
Music_UnovaBattle4_branch_199:
		note G#, 4
		note A#, 4
		note B_, 8
Music_UnovaBattle4_branch_200:
		note G#, 4
		note E_, 4
		note D#, 8
Music_UnovaBattle4_branch_201:
		note A#, 12
Music_UnovaBattle4_branch_202:
		note G_, 12
		note D#, 8
Music_UnovaBattle4_branch_203:
		note C#, 4
		note D#, 4
		note A#, 8
Music_UnovaBattle4_branch_204:
		note A_, 4
		note D_, 4
		note __, 16
Music_UnovaBattle4_branch_205:
		note __, 16
Music_UnovaBattle4_branch_206:
		note __, 16
Music_UnovaBattle4_branch_207:
		note __, 16
Music_UnovaBattle4_branch_208:
		note __, 16
Music_UnovaBattle4_branch_209:
		note __, 16
Music_UnovaBattle4_branch_210:
		note __, 16
Music_UnovaBattle4_branch_211:
		note __, 16
Music_UnovaBattle4_branch_212:
		note __, 16
Music_UnovaBattle4_branch_213:
		note __, 16
Music_UnovaBattle4_branch_214:
		note __, 16
Music_UnovaBattle4_branch_215:
		note __, 16
Music_UnovaBattle4_branch_216:
		note __, 16
Music_UnovaBattle4_branch_217:
		note __, 16
Music_UnovaBattle4_branch_218:
		note __, 16
Music_UnovaBattle4_branch_219:
		note __, 16
Music_UnovaBattle4_branch_220:
		note E_, 2
Music_UnovaBattle4_branch_221:
		note __, 4
		note G_, 6
		note A_, 4
		note C_, 1
		note C#, 12
Music_UnovaBattle4_branch_222:
		note __, 1
		note G#, 1
		note G_, 1
		note F#, 1
		note __, 1
Music_UnovaBattle4_branch_223:
		note F#, 1
		note __, 1
		note C#, 4
		note F#, 1
		note __, 1
		note F#, 1
		note __, 1
		note D_, 4
		note F#, 1
		note __, 1
Music_UnovaBattle4_branch_224:
		note F#, 1
		note __, 1
		note C#, 4
		note F#, 1
		note __, 1
		note F#, 1
		note __, 1
		note F_, 4
		note F#, 1
		note __, 1
Music_UnovaBattle4_branch_225:
		note F#, 1
		note __, 1
		note D#, 4
		note F#, 1
		note __, 1
		note F#, 1
		note __, 1
		note E_, 4
		note F#, 1
		note __, 1
Music_UnovaBattle4_branch_226:
		note F#, 1
		note __, 1
		note D#, 4
		note F#, 1
		note __, 1
		note F#, 1
		note __, 1
		note G#, 1
		note __, 1
		note D#, 2
		note __, 16
Music_UnovaBattle4_branch_227:
		note __, 16
Music_UnovaBattle4_branch_228:
		note __, 16
Music_UnovaBattle4_branch_229:
		note __, 16
Music_UnovaBattle4_branch_230:
		note __, 16
Music_UnovaBattle4_branch_231:
		note __, 16
Music_UnovaBattle4_branch_232:
		note __, 16
Music_UnovaBattle4_branch_233:
		note __, 8
Music_UnovaBattle4_branch_234:
		note C#, 1
		note __, 1
		note C#, 1
		note C#, 1
		note C#, 1
		note C#, 1
		note C#, 16
Music_UnovaBattle4_branch_235:
		note __, 16
Music_UnovaBattle4_branch_236:
		note __, 16
Music_UnovaBattle4_branch_237:
		note __, 12
Music_UnovaBattle4_branch_238:
		note A#, 1
		note C_, 1
		note D_, 1
		note E_, 1
		note E_, 1
		note B_, 1
		note E_, 1
		note B_, 1
Music_UnovaBattle4_branch_239:
		note E_, 1
		note B_, 1
		note E_, 1
		note B_, 1
		note E_, 1
		note B_, 1
		note E_, 1
		note B_, 1
		note E_, 1
		note B_, 1
		note E_, 1
		note B_, 1
		note E_, 1
		note B_, 1
		note E_, 1
		note B_, 1
Music_UnovaBattle4_branch_240:
		note E_, 1
		note B_, 1
		note E_, 1
		note B_, 1
		note E_, 1
		note B_, 1
		note E_, 1
		note B_, 1
		note E_, 1
		note B_, 1
		note E_, 1
		note B_, 1
		note E_, 12
Music_UnovaBattle4_branch_241:
		note E_, 16
Music_UnovaBattle4_branch_242:
		note __, 16
Music_UnovaBattle4_branch_243:
		note __, 16
Music_UnovaBattle4_branch_244:
		note F_, 12
Music_UnovaBattle4_branch_245:
		note F_, 16
Music_UnovaBattle4_branch_246:
		note __, 16
Music_UnovaBattle4_branch_247:
		note __, 12
Music_UnovaBattle4_branch_248:
		note A#, 1
		note C_, 1
		note D_, 1
		note E_, 1
		note F_, 16
Music_UnovaBattle4_branch_249:
		note F_, 1
		note __, 1
		note C_, 6
		note F_, 1
		note __, 3
Music_UnovaBattle4_branch_250:
		note C_, 1
		note __, 3
		note C_, 1
		note __, 1
		note C#, 16
Music_UnovaBattle4_branch_251:
		note C#, 12
Music_UnovaBattle4_branch_252:
		note __, 1
		note __, 1
		note F_, 16
Music_UnovaBattle4_branch_253:
		note F_, 1
		note __, 1
		note C_, 6
		note F_, 1
		note __, 3
Music_UnovaBattle4_branch_254:
		note C_, 1
		note __, 3
		note C_, 1
		note __, 1
		note A#, 16
Music_UnovaBattle4_branch_255:
		note A#, 10
Music_UnovaBattle4_branch_256:
		note C#, 1
		note D#, 1
		note F_, 1
		note G_, 1
		note G#, 16
Music_UnovaBattle4_branch_257:
		note F_, 8
		note C_, 4
Music_UnovaBattle4_branch_258:
		note G#, 4
		note G_, 6
		note A#, 16
Music_UnovaBattle4_branch_259:
		note A#, 10
Music_UnovaBattle4_branch_260:
		note G#, 16
Music_UnovaBattle4_branch_261:
		note F_, 8
		note C_, 4
Music_UnovaBattle4_branch_262:
		note G#, 4
		note A#, 6
		note D#, 16
Music_UnovaBattle4_branch_263:
		note D#, 10
Music_UnovaBattle4_branch_264:
		note __, 16
Music_UnovaBattle4_branch_265:
		note __, 16
Music_UnovaBattle4_branch_266:
		note __, 16
Music_UnovaBattle4_branch_267:
		note __, 16
Music_UnovaBattle4_branch_268:
		note D#, 1
		note __, 1
		note D#, 1
		note __, 1
		note D#, 1
		note __, 1
		note D#, 1
		note __, 1
		note E_, 1
		note __, 1
		note E_, 1
		note __, 1
Music_UnovaBattle4_branch_269:
		note D#, 1
		note __, 1
		note F#, 1
		note __, 1
		note F#, 1
		note __, 1
		note D#, 1
		note __, 1
		note G_, 1
		note __, 1
		note G_, 1
		note __, 3
		note D#, 1
		note __, 1
Music_UnovaBattle4_branch_270:
		note C#, 1
		note __, 1
		note D#, 1
		note __, 1
		note D#, 1
		note __, 1
		note D#, 1
		note __, 1
		note D#, 1
		note __, 1
		note D#, 1
		note __, 1
		note E_, 1
		note __, 1
		note E_, 1
		note __, 1
Music_UnovaBattle4_branch_271:
		note D#, 1
		note __, 1
		note F#, 1
		note __, 1
		note F#, 1
		note __, 1
		note D#, 1
		note __, 1
		note G_, 1
		note __, 1
		note G_, 1
		note __, 9
Music_UnovaBattle4_branch_272:
		note E_, 1
		note __, 1
		note E_, 1
		note __, 1
		note E_, 1
		note __, 1
		note E_, 1
		note __, 1
		note F_, 1
		note __, 1
		note F_, 1
		note __, 1
Music_UnovaBattle4_branch_273:
		note E_, 1
		note __, 1
		note G_, 1
		note __, 1
		note G_, 1
		note __, 1
		note E_, 1
		note __, 1
		note G#, 1
		note __, 1
		note G#, 1
		note __, 1
		note G#, 1
		note __, 1
		note E_, 1
		note __, 1
Music_UnovaBattle4_branch_274:
		note C#, 1
		note __, 1
		note E_, 1
		note __, 1
		note D#, 1
		note __, 1
		note D#, 1
		note __, 1
		note D_, 1
		note __, 1
		note D#, 1
		note __, 1
		note F_, 1
		note __, 1
		note E_, 1
		note __, 1
Music_UnovaBattle4_branch_275:
		note D#, 1
		note __, 1
		note F#, 1
		note __, 1
		note F_, 1
		note __, 1
		note A#, 1
		note __, 1
		note F#, 1
		note __, 1
		note G_, 1
		note __, 1
		note D#, 8
Music_UnovaBattle4_branch_276:
		note G_, 6
		note A#, 16
Music_UnovaBattle4_branch_277:
		note A#, 2
		note C#, 8
Music_UnovaBattle4_branch_278:
		note B_, 12
Music_UnovaBattle4_branch_279:
		note A#, 4
		note G#, 12
Music_UnovaBattle4_branch_280:
		note G_, 4
		note G#, 4
		note A#, 16
Music_UnovaBattle4_branch_281:
		note A#, 4
		note C#, 4
Music_UnovaBattle4_branch_282:
		note D_, 4
		note D#, 16
Music_UnovaBattle4_branch_283:
		note D#, 8
		note D_, 8
Music_UnovaBattle4_branch_284:
		note C#, 2
		note C_, 2
		note C#, 2
		note F_, 10
Music_UnovaBattle4_branch_285:
		note C#, 8
		note G#, 2
		note C#, 2
Music_UnovaBattle4_branch_286:
		note G#, 2
		note F_, 2
		note D#, 6
		note A#, 10
Music_UnovaBattle4_branch_287:
		note G_, 2
		note F_, 2
		note G_, 2
		note A#, 6
Music_UnovaBattle4_branch_288:
		note __, 4
		note C#, 2
		note __, 4
		note F_, 6
Music_UnovaBattle4_branch_289:
		note C#, 3
		note __, 1
		note G#, 6
		note C#, 2
		note G#, 2
		note C#, 2
Music_UnovaBattle4_branch_290:
		note G#, 2
		note F_, 2
		note D#, 6
		note A#, 6
Music_UnovaBattle4_branch_291:
		note D#, 4
		note G_, 2
		note F_, 2
		note G_, 6
		note A#, 2
Music_UnovaBattle4_branch_292:
		note __, 4
		note F_, 2
		note __, 4
		note C_, 6
Music_UnovaBattle4_branch_293:
		note F_, 4
		note A_, 16
Music_UnovaBattle4_branch_294:
		note G_, 2
		note __, 4
		note D_, 6
Music_UnovaBattle4_branch_295:
		note G_, 3
		note __, 1
		note G_, 2
		note B_, 14
Music_UnovaBattle4_branch_296:
		note A_, 2
		note __, 4
		note E_, 6
Music_UnovaBattle4_branch_297:
		note A_, 4
		note C#, 16
Music_UnovaBattle4_branch_298:
		note E_, 2
		note E_, 4
		note C#, 6
Music_UnovaBattle4_branch_299:
		note E_, 4
		note A_, 16
Music_UnovaBattle4_branch_300:
		note E_, 2
		note __, 4
		note G_, 6
Music_UnovaBattle4_branch_301:
		note A_, 4
		note C#, 6
		note A_, 6
Music_UnovaBattle4_branch_302:
		note A_, 1
		note A#, 1
		note B_, 1
		note C_, 1
		note C#, 1
		note __, 1
		note C#, 1
		note __, 1
		note D_, 4
		note C#, 1
		note __, 1
		note C#, 1
		note __, 1
Music_UnovaBattle4_branch_303:
		note E_, 4
		note C#, 1
		note __, 1
		note C#, 1
		note __, 1
		note F#, 4
		note C#, 1
		note __, 1
		note C#, 1
		note __, 1
Music_UnovaBattle4_branch_304:
		note G_, 4
		note D#, 1
		note __, 1
		note D#, 1
		note __, 1
		note E_, 4
		note D#, 1
		note __, 1
		note D#, 1
		note __, 1
Music_UnovaBattle4_branch_305:
		note F#, 4
		note D#, 1
		note __, 1
		note D#, 1
		note __, 1
		note G#, 4
		note D#, 1
		note __, 1
		note D#, 1
		note __, 1
Music_UnovaBattle4_branch_306:
		note G#, 1
		note __, 1
		note A_, 2
		note G#, 2
		note G#, 13
Music_UnovaBattle4_branch_307:
		note G#, 16
Music_UnovaBattle4_branch_308:
		note A_, 16
Music_UnovaBattle4_branch_309:
		note C#, 6
		note B_, 6
		note A_, 4
Music_UnovaBattle4_branch_310:
		note B_, 16
Music_UnovaBattle4_branch_311:
		note B_, 16
Music_UnovaBattle4_branch_312:
		note B_, 2
		note C#, 12
Music_UnovaBattle4_branch_313:
		note F_, 1
		note D#, 1
		note G#, 1
		note __, 1
		note G#, 1
		note __, 2
		note G#, 1
		note __, 1
		note G#, 1
		note __, 1
		note C#, 1
		note __, 1
		note C#, 1
		note __, 1
Music_UnovaBattle4_branch_314:
		note C#, 1
		note __, 1
		note C#, 1
		note __, 1
		note C#, 1
		note __, 1
		note C#, 1
		note __, 1
		note F_, 1
		note __, 1
		note F#, 4
		note F_, 1
		note __, 1
Music_UnovaBattle4_branch_315:
		note F_, 1
		note __, 1
		note G#, 4
		note F_, 1
		note __, 1
		note F_, 1
		note __, 1
		note A#, 4
		note F_, 1
		note __, 1
Music_UnovaBattle4_branch_316:
		note F_, 1
		note __, 1
		note B_, 4
		note F_, 1
		note __, 1
		note F_, 1
		note __, 1
		note F#, 4
		note F_, 1
		note __, 1
Music_UnovaBattle4_branch_317:
		note F_, 1
		note __, 1
		note G#, 4
		note F_, 1
		note __, 1
		note F_, 1
		note __, 1
		note A#, 4
		note F_, 1
		note __, 1
Music_UnovaBattle4_branch_318:
		note F_, 1
		note __, 1
		note B_, 4
		note __, 16
Music_UnovaBattle4_branch_319:
		note __, 16
Music_UnovaBattle4_branch_320:
		note __, 16
Music_UnovaBattle4_branch_321:
		note __, 16
Music_UnovaBattle4_branch_322:
		note __, 2
		note E_, 1
		note __, 1
		note B_, 4
		note __, 2
Music_UnovaBattle4_branch_323:
		note E_, 1
		note __, 1
		note C_, 4
		note __, 2
		note E_, 1
		note __, 1
		note B_, 4
		note __, 2
Music_UnovaBattle4_branch_324:
		note E_, 1
		note __, 1
		note D#, 4
		note __, 16
Music_UnovaBattle4_branch_325:
		note __, 16
Music_UnovaBattle4_branch_326:
		note __, 2
		note F_, 1
		note __, 1
		note C_, 4
		note __, 2
Music_UnovaBattle4_branch_327:
		note F_, 1
		note __, 1
		note C#, 4
		note __, 2
		note F_, 1
		note __, 1
		note C_, 4
		note __, 2
Music_UnovaBattle4_branch_328:
		note F_, 1
		note __, 1
		note E_, 4
		note A_, 14
Music_UnovaBattle4_branch_329:
		note G_, 1
		note F#, 1
		note __, 2
		note C_, 6
		note A_, 1
		note __, 3
Music_UnovaBattle4_branch_330:
		note F_, 1
		note __, 3
		note C#, 1
		note __, 1
		note A#, 14
Music_UnovaBattle4_branch_331:
		note G#, 1
		note __, 1
		note F#, 14
Music_UnovaBattle4_branch_332:
		note A_, 14
Music_UnovaBattle4_branch_333:
		note F_, 1
		note G_, 1
		note __, 2
		note C_, 6
		note A_, 1
		note __, 3
Music_UnovaBattle4_branch_334:
		note F_, 1
		note __, 3
		note G_, 1
		note __, 1
		note A#, 14
Music_UnovaBattle4_branch_335:
		note C_, 1
		note __, 1
		note A#, 12
Music_UnovaBattle4_branch_336:
		note __, 2
		note G#, 2
		note __, 4
		note G#, 1
		note __, 9
Music_UnovaBattle4_branch_337:
		note C#, 2
		note __, 4
		note C#, 1
		note __, 9
Music_UnovaBattle4_branch_338:
		note D#, 2
		note __, 4
		note D#, 1
		note __, 9
Music_UnovaBattle4_branch_339:
		note G_, 2
		note __, 2
		note F_, 2
		note __, 2
		note D#, 2
Music_UnovaBattle4_branch_340:
		note __, 2
		note C#, 2
		note __, 2
		note G#, 2
		note __, 4
		note C#, 1
		note __, 9
Music_UnovaBattle4_branch_341:
		note F_, 2
		note __, 4
		note G#, 1
		note __, 9
Music_UnovaBattle4_branch_342:
		note D#, 2
		note __, 4
		note D#, 1
		note __, 9
Music_UnovaBattle4_branch_343:
		note D#, 2
		note __, 2
		note C#, 2
		note __, 2
		note G_, 2
Music_UnovaBattle4_branch_344:
		note F_, 2
		note __, 16
Music_UnovaBattle4_branch_345:
		note __, 16
Music_UnovaBattle4_branch_346:
		note __, 16
Music_UnovaBattle4_branch_347:
		note __, 16
Music_UnovaBattle4_branch_348:
		note __, 4
		note __, 4
		note __, 4
		note __, 4
Music_UnovaBattle4_branch_349:
		note __, 4
		note __, 4
		note __, 4
		note __, 4
Music_UnovaBattle4_branch_350:
		note __, 4
		note __, 4
		note __, 4
		note __, 4
Music_UnovaBattle4_branch_351:
		note __, 4
		note __, 4
		note __, 4
		note __, 4
Music_UnovaBattle4_branch_352:
		note __, 2
		note D_, 1
		note D#, 1
		note E_, 1
		note __, 1
		note E_, 1
		note __, 1
		note E_, 1
		note __, 3
		note F_, 1
		note __, 1
Music_UnovaBattle4_branch_353:
		note F_, 1
		note __, 3
		note G_, 1
		note __, 1
		note G_, 1
		note __, 3
		note G#, 1
		note __, 1
		note G#, 1
		note __, 1
		note G#, 1
		note __, 9
Music_UnovaBattle4_branch_354:
		note D#, 1
		note __, 1
		note D_, 1
		note __, 3
		note F_, 1
		note __, 1
Music_UnovaBattle4_branch_355:
		note E_, 1
		note __, 3
		note F#, 1
		note __, 1
		note F_, 1
		note __, 1
		note A#, 1
		note __, 1
		note F#, 1
		note __, 1
		note G_, 1
		note __, 16
Music_UnovaBattle4_branch_356:
		note __, 16
Music_UnovaBattle4_branch_357:
		note __, 16
Music_UnovaBattle4_branch_358:
		note __, 16
Music_UnovaBattle4_branch_359:
		note __, 16
Music_UnovaBattle4_branch_360:
		note __, 16
Music_UnovaBattle4_branch_361:
		note __, 16
Music_UnovaBattle4_branch_362:
		note __, 16
Music_UnovaBattle4_branch_363:
		note __, 16
Music_UnovaBattle4_branch_364:
		note __, 16
Music_UnovaBattle4_branch_365:
		note __, 16
Music_UnovaBattle4_branch_366:
		note __, 16
Music_UnovaBattle4_branch_367:
		note __, 16
Music_UnovaBattle4_branch_368:
		note __, 16
Music_UnovaBattle4_branch_369:
		note __, 16
Music_UnovaBattle4_branch_370:
		note __, 16
Music_UnovaBattle4_branch_371:
		note __, 16
Music_UnovaBattle4_branch_372:
		note __, 16
Music_UnovaBattle4_branch_373:
		note __, 9
Music_UnovaBattle4_branch_374:
		note B_, 16
Music_UnovaBattle4_branch_375:
		note G_, 8
		note D_, 4
Music_UnovaBattle4_branch_376:
		note B_, 4
		note A_, 6
		note C#, 16
Music_UnovaBattle4_branch_377:
		note C#, 10
Music_UnovaBattle4_branch_378:
		note __, 16
Music_UnovaBattle4_branch_379:
		note __, 16
Music_UnovaBattle4_branch_380:
		note __, 16
Music_UnovaBattle4_branch_381:
		note __, 16
Music_UnovaBattle4_branch_382:
		note __, 16
Music_UnovaBattle4_branch_383:
		note __, 16
Music_UnovaBattle4_branch_384:
		note __, 16
Music_UnovaBattle4_branch_385:
		note __, 16
Music_UnovaBattle4_branch_386:
		note __, 16
Music_UnovaBattle4_branch_387:
		note __, 16
Music_UnovaBattle4_branch_388:
		note __, 16
Music_UnovaBattle4_branch_389:
		note __, 16
Music_UnovaBattle4_branch_390:
		note __, 16
Music_UnovaBattle4_branch_391:
		note __, 16
Music_UnovaBattle4_branch_392:
		note __, 16
Music_UnovaBattle4_branch_393:
		note __, 16
Music_UnovaBattle4_branch_394:
		note __, 2
		note C_, 2
		note F_, 2
		note F#, 2
		note F_, 2
Music_UnovaBattle4_branch_395:
		note C_, 2
		note A_, 2
		note F_, 2
		note F#, 2
		note F_, 2
		note C_, 2
		note C#, 2
		note C_, 2
Music_UnovaBattle4_branch_396:
		note G#, 2
		note A_, 2
		note E_, 2
		note F_, 2
		note B_, 2
		note E_, 2
		note F_, 2
		note E_, 2
Music_UnovaBattle4_branch_397:
		note B_, 2
		note G#, 2
		note E_, 2
		note F_, 2
		note E_, 2
		note B_, 2
		note C_, 2
		note B_, 2
Music_UnovaBattle4_branch_398:
		note G_, 2
		note G#, 2
		note D#, 2
		note B_, 1
		note __, 2
		note B_, 1
		note C_, 1
		note __, 2
		note C_, 1
		note C#, 1
		note __, 2
Music_UnovaBattle4_branch_399:
		note C#, 1
		note D_, 1
		note __, 2
		note D_, 1
		note D#, 1
		note __, 2
		note D#, 1
		note E_, 1
		note __, 2
		note E_, 1
		note F_, 1
		note __, 2
Music_UnovaBattle4_branch_400:
		note F_, 1
		note F#, 1
		note __, 2
		note F#, 1
		note E_, 1
		note __, 16
Music_UnovaBattle4_branch_401:
		note __, 15
Music_UnovaBattle4_branch_402:
		note E_, 1
		note __, 1
		note E_, 1
		note __, 1
		note G_, 4
		note E_, 1
		note __, 1
Music_UnovaBattle4_branch_403:
		note E_, 1
		note __, 1
		note A_, 4
		note E_, 1
		note __, 1
		note E_, 1
		note __, 1
		note A#, 4
		note E_, 1
		note __, 1
Music_UnovaBattle4_branch_404:
		note E_, 1
		note __, 1
		note B_, 4
		note __, 16
Music_UnovaBattle4_branch_405:
		note __, 16
Music_UnovaBattle4_branch_406:
		note F_, 1
		note __, 1
		note F_, 1
		note __, 1
		note G#, 4
		note F_, 1
		note __, 1
Music_UnovaBattle4_branch_407:
		note F_, 1
		note __, 1
		note A#, 4
		note F_, 1
		note __, 1
		note F_, 1
		note __, 1
		note B_, 4
		note F_, 1
		note __, 1
Music_UnovaBattle4_branch_408:
		note F_, 1
		note __, 1
		note C_, 4
		note A_, 15
Music_UnovaBattle4_branch_409:
		note __, 2
		note F_, 5
		note __, 1
		note __, 4
Music_UnovaBattle4_branch_410:
		note __, 4
		note __, 2
		note F#, 14
Music_UnovaBattle4_branch_411:
		note __, 2
		note A#, 10
Music_UnovaBattle4_branch_412:
		note __, 2
		note A_, 1
		note A#, 1
		note C_, 14
Music_UnovaBattle4_branch_413:
		note B_, 1
		note A#, 1
		note __, 2
		note F_, 6
		note __, 4
Music_UnovaBattle4_branch_414:
		note __, 4
		note D#, 1
		note __, 1
		note C#, 14
Music_UnovaBattle4_branch_415:
		note D#, 1
		note __, 1
		note G_, 11
Music_UnovaBattle4_branch_416:
		note __, 1
		note G#, 6
		note C#, 6
		note F_, 4
Music_UnovaBattle4_branch_417:
		note G#, 6
		note F_, 6
		note G#, 4
Music_UnovaBattle4_branch_418:
		note A#, 6
		note G_, 6
		note G#, 4
Music_UnovaBattle4_branch_419:
		note D#, 6
		note A#, 6
		note G_, 4
Music_UnovaBattle4_branch_420:
		note F_, 6
		note C#, 6
		note F_, 4
Music_UnovaBattle4_branch_421:
		note G#, 6
		note F_, 6
		note G#, 4
Music_UnovaBattle4_branch_422:
		note A#, 6
		note G_, 6
		note G#, 4
Music_UnovaBattle4_branch_423:
		note A#, 6
		note B_, 2
		note G_, 8
Music_UnovaBattle4_branch_424:
		note __, 16
Music_UnovaBattle4_branch_425:
		note __, 16
Music_UnovaBattle4_branch_426:
		note __, 16
Music_UnovaBattle4_branch_427:
		note __, 16
Music_UnovaBattle4_branch_428:
		note __, 2
		note __, 2
		note __, 2
		note __, 2
		note __, 2
		note __, 2
		note __, 2
Music_UnovaBattle4_branch_429:
		note __, 2
		note __, 2
		note __, 2
		note __, 2
		note __, 2
		note D#, 1
		note __, 1
		note D#, 1
		note __, 1
		note C#, 1
Music_UnovaBattle4_branch_430:
		note __, 1
		note D#, 1
		note __, 1
		note A#, 1
		note __, 1
		note __, 2
		note __, 2
		note __, 2
		note __, 2
		note __, 2
		note __, 2
Music_UnovaBattle4_branch_431:
		note __, 2
		note __, 2
		note __, 2
		note __, 2
		note __, 2
		note __, 2
		note __, 2
		note __, 2
Music_UnovaBattle4_branch_432:
		note __, 16
Music_UnovaBattle4_branch_433:
		note __, 12
		note E_, 1
		note __, 1
		note C#, 1
Music_UnovaBattle4_branch_434:
		note __, 1
		note E_, 1
		note __, 1
		note D#, 1
		note __, 16
Music_UnovaBattle4_branch_435:
		note __, 16
Music_UnovaBattle4_branch_436:
		note __, 7
		note D#, 1
		note F_, 1
		note G#, 1
		note F_, 1
		note G_, 15
Music_UnovaBattle4_branch_437:
		note G#, 7
Music_UnovaBattle4_branch_438:
		note B_, 3
		note C_, 3
		note C#, 11
Music_UnovaBattle4_branch_439:
		note E_, 3
		note G_, 7
Music_UnovaBattle4_branch_440:
		note D#, 3
		note F_, 3
		note G_, 7
		note G_, 1
		note F_, 1
		note D#, 1
Music_UnovaBattle4_branch_441:
		note F_, 1
		note G_, 7
		note D#, 1
		note F_, 1
		note A#, 1
		note G#, 1
		note G_, 11
Music_UnovaBattle4_branch_442:
		note A_, 4
		note C#, 2
		note C_, 2
		note C#, 2
Music_UnovaBattle4_branch_443:
		note F_, 10
		note C#, 8
Music_UnovaBattle4_branch_444:
		note G#, 2
		note C#, 2
		note G#, 2
		note F_, 2
		note D#, 6
Music_UnovaBattle4_branch_445:
		note A#, 10
		note G_, 2
		note F_, 2
		note G_, 2
Music_UnovaBattle4_branch_446:
		note A#, 4
		note G_, 2
		note A#, 2
		note D#, 2
		note C#, 2
		note __, 4
Music_UnovaBattle4_branch_447:
		note F_, 6
		note C#, 4
		note G#, 6
Music_UnovaBattle4_branch_448:
		note __, 2
		note G#, 2
		note C#, 2
		note G#, 2
		note F_, 2
		note D#, 6
Music_UnovaBattle4_branch_449:
		note A#, 6
		note D#, 4
		note G_, 2
		note F_, 2
		note G_, 6
Music_UnovaBattle4_branch_450:
		note A#, 2
		note __, 4
		note F_, 2
		note __, 4
Music_UnovaBattle4_branch_451:
		note C_, 6
		note F_, 4
		note A_, 6
Music_UnovaBattle4_branch_452:
		note C_, 1
		note C_, 1
		note A_, 2
		note F_, 2
		note C_, 2
		note A_, 2
		note G_, 2
		note __, 4
Music_UnovaBattle4_branch_453:
		note D_, 6
		note G_, 3
		note __, 1
		note G_, 2
		note B_, 4
Music_UnovaBattle4_branch_454:
		note D_, 1
		note D_, 1
		note B_, 2
		note G_, 2
		note D_, 2
		note B_, 2
		note A_, 2
		note __, 4
Music_UnovaBattle4_branch_455:
		note E_, 6
		note A_, 4
		note C#, 8
Music_UnovaBattle4_branch_456:
		note C#, 2
		note E_, 6
		note __, 6
Music_UnovaBattle4_branch_457:
		note C#, 1
		note __, 5
		note E_, 1
		note __, 3
		note A_, 15
Music_UnovaBattle4_branch_458:
		note __, 1
		note E_, 2
		note __, 4
Music_UnovaBattle4_branch_459:
		note G_, 6
		note A_, 4
		note A#, 14
Music_UnovaBattle4_branch_460:
		note B_, 1
		note C_, 1
		note C#, 1
		note __, 1
		note C#, 1
		note __, 1
		note D_, 4
Music_UnovaBattle4_branch_461:
		note C#, 1
		note __, 1
		note C#, 1
		note __, 1
		note E_, 4
		note C#, 1
		note __, 1
		note C#, 1
		note __, 1
		note F#, 4
Music_UnovaBattle4_branch_462:
		note C#, 1
		note __, 1
		note C#, 1
		note __, 1
		note G_, 4
		note D#, 1
		note __, 1
		note D#, 1
		note __, 1
		note E_, 4
Music_UnovaBattle4_branch_463:
		note D#, 1
		note __, 1
		note D#, 1
		note __, 1
		note F#, 4
		note D#, 1
		note __, 1
		note D#, 1
		note __, 1
		note G#, 4
Music_UnovaBattle4_branch_464:
		note D#, 1
		note __, 1
		note D#, 1
		note __, 1
		note G#, 1
		note __, 1
		note A_, 2
		note G#, 2
		note G#, 8
Music_UnovaBattle4_branch_465:
		note __, 5
		note G#, 16
Music_UnovaBattle4_branch_466:
		note A_, 16
Music_UnovaBattle4_branch_467:
		note C#, 6
Music_UnovaBattle4_branch_468:
		note B_, 6
		note A_, 4
		note B_, 16
Music_UnovaBattle4_branch_469:
		note B_, 15
Music_UnovaBattle4_branch_470:
		note __, 1
		note F#, 1
		note __, 1
		note F_, 13
Music_UnovaBattle4_branch_471:
		note __, 1
		note C#, 1
		note __, 2
		note __, 1
		note __, 1
		note __, 1
Music_UnovaBattle4_branch_472:
		note __, 1
		note G#, 1
		note __, 2
		note __, 1
		note __, 1
		note __, 1
		note __, 1
		note G#, 2
		note __, 16
Music_UnovaBattle4_branch_473:
		note __, 16
Music_UnovaBattle4_branch_474:
		note __, 16
Music_UnovaBattle4_branch_475:
		note __, 14
Music_UnovaBattle4_branch_476:
		note G#, 1
		note G_, 1
		note F#, 1
		note G_, 1
		note F#, 1
		note F_, 1
		note F#, 1
		note F_, 1
Music_UnovaBattle4_branch_477:
		note E_, 1
		note F_, 1
		note E_, 1
		note D#, 1
		note E_, 1
		note D#, 1
		note D_, 1
		note D#, 1
		note D_, 1
		note C#, 1
		note D_, 1
		note C#, 1
		note C_, 1
		note C#, 1
		note C_, 1
		note B_, 1
Music_UnovaBattle4_branch_478:
		note C_, 1
		note B_, 1
		note A#, 1
		note B_, 1
		note A#, 1
		note B_, 1
		note A#, 1
		note A_, 1
		note G#, 12
Music_UnovaBattle4_branch_479:
		note G#, 16
Music_UnovaBattle4_branch_480:
		note B_, 1
		note __, 1
		note B_, 1
		note __, 1
		note D_, 4
		note B_, 1
		note __, 1
		note B_, 1
		note __, 1
Music_UnovaBattle4_branch_481:
		note E_, 4
		note B_, 1
		note __, 1
		note B_, 1
		note __, 1
		note F_, 4
		note B_, 1
		note __, 1
		note B_, 1
		note __, 1
Music_UnovaBattle4_branch_482:
		note E_, 1
		note F_, 1
		note G_, 1
		note G#, 1
		note A_, 12
Music_UnovaBattle4_branch_483:
		note A_, 16
Music_UnovaBattle4_branch_484:
		note C_, 1
		note __, 1
		note C_, 1
		note __, 1
		note D#, 4
		note C_, 1
		note __, 1
		note C_, 1
		note __, 1
		note F_, 4
Music_UnovaBattle4_branch_485:
		note C_, 1
		note __, 1
		note C_, 1
		note __, 1
		note F#, 4
		note C_, 1
		note __, 1
		note C_, 1
		note __, 1
		note F_, 4
Music_UnovaBattle4_branch_486:
		note C_, 16
Music_UnovaBattle4_branch_487:
		note C_, 1
		note __, 1
		note F_, 6
		note C_, 1
		note __, 3
		note F_, 1
		note __, 3
Music_UnovaBattle4_branch_488:
		note F_, 1
		note __, 1
		note F#, 4
		note A#, 1
		note G#, 1
		note F#, 6
		note F#, 1
		note F_, 1
Music_UnovaBattle4_branch_489:
		note D#, 8
		note A#, 2
		note __, 2
		note __, 2
		note G#, 1
		note __, 1
Music_UnovaBattle4_branch_490:
		note C_, 16
Music_UnovaBattle4_branch_491:
		note C_, 1
		note __, 1
		note F_, 6
		note C_, 1
		note __, 3
		note F_, 1
		note __, 3
Music_UnovaBattle4_branch_492:
		note F_, 1
		note __, 1
		note D#, 4
		note G_, 1
		note F_, 1
		note D#, 6
		note D#, 1
		note D_, 1
Music_UnovaBattle4_branch_493:
		note C_, 8
		note A#, 2
		note C_, 2
		note __, 4
Music_UnovaBattle4_branch_494:
		note C#, 6
		note G#, 1
		note C_, 1
		note F_, 6
		note F_, 1
		note D#, 1
Music_UnovaBattle4_branch_495:
		note C#, 8
		note F_, 4
		note C#, 4
Music_UnovaBattle4_branch_496:
		note D#, 2
		note F_, 2
		note C#, 2
		note D#, 2
		note F_, 2
		note G_, 2
		note G#, 2
		note F_, 2
Music_UnovaBattle4_branch_497:
		note D#, 6
		note D_, 2
		note G_, 6
		note D#, 2
Music_UnovaBattle4_branch_498:
		note C#, 6
		note G#, 1
		note C#, 1
		note F_, 6
		note F_, 1
		note D#, 1
Music_UnovaBattle4_branch_499:
		note C#, 8
		note F_, 4
		note C#, 4
Music_UnovaBattle4_branch_500:
		note D#, 2
		note G_, 2
		note D_, 2
		note D#, 2
		note F_, 6
		note G#, 2
Music_UnovaBattle4_branch_501:
		note G_, 6
		note A#, 2
		note G_, 1
		note F_, 1
		note D#, 1
		note C#, 1
		note B_, 1
		note A#, 1
		note __, 1
		note D#, 5
Music_UnovaBattle4_branch_502:
		note E_, 10
		note C#, 8
Music_UnovaBattle4_branch_503:
		note A#, 2
		note C#, 2
		note G#, 1
		note E_, 2
		note D#, 6
Music_UnovaBattle4_branch_504:
		note A#, 10
		note G_, 8
Music_UnovaBattle4_branch_505:
		note D#, 2
		note A#, 2
		note G_, 1
		note G#, 1
		note E_, 2
		note D#, 2
		note __, 16
Music_UnovaBattle4_branch_506:
		note __, 16
Music_UnovaBattle4_branch_507:
		note __, 16
Music_UnovaBattle4_branch_508:
		note __, 6
Music_UnovaBattle4_branch_509:
		note D#, 2
		note B_, 2
		note G#, 1
		note F_, 2
		note E_, 16
Music_UnovaBattle4_branch_510:
		note E_, 4
Music_UnovaBattle4_branch_511:
		note __, 4
		note G#, 2
		note C#, 2
		note G#, 2
		note E_, 2
		note D#, 6
Music_UnovaBattle4_branch_512:
		note A#, 10
		note G_, 8
Music_UnovaBattle4_branch_513:
		note D#, 2
		note A#, 2
		note G_, 2
		note F_, 2
		note D#, 16
Music_UnovaBattle4_branch_514:
		note D#, 8
Music_UnovaBattle4_branch_515:
		note G_, 2
		note A#, 2
		note G_, 2
		note D#, 2
		note E_, 14
Music_UnovaBattle4_branch_516:
		note D#, 1
		note D_, 1
		note C#, 12
Music_UnovaBattle4_branch_517:
		note E_, 4
		note D#, 16
Music_UnovaBattle4_branch_518:
		note D#, 8
Music_UnovaBattle4_branch_519:
		note __, 1
		note D#, 2
		note G#, 2
		note F_, 2
		note G_, 14
Music_UnovaBattle4_branch_520:
		note G#, 2
		note A#, 12
Music_UnovaBattle4_branch_521:
		note D_, 4
		note C#, 16
Music_UnovaBattle4_branch_522:
		note C#, 1
		note __, 1
		note G#, 6
Music_UnovaBattle4_branch_523:
		note C#, 1
		note __, 3
		note G#, 1
		note __, 3
		note G#, 1
		note __, 1
		note G_, 14
Music_UnovaBattle4_branch_524:
		note F_, 1
		note __, 1
		note G_, 14
Music_UnovaBattle4_branch_525:
		note C#, 16
Music_UnovaBattle4_branch_526:
		note C#, 1
		note __, 1
		note G#, 6
Music_UnovaBattle4_branch_527:
		note C#, 1
		note __, 3
		note G#, 1
		note __, 3
		note G#, 1
		note __, 1
		note A#, 14
Music_UnovaBattle4_branch_528:
		note A#, 1
		note __, 1
		note G_, 14
Music_UnovaBattle4_branch_529:
		note D#, 1
		note __, 1
		note F_, 14
Music_UnovaBattle4_branch_530:
		note F_, 1
		note __, 1
		note C_, 14
Music_UnovaBattle4_branch_531:
		note F_, 1
		note __, 1
		note G_, 14
Music_UnovaBattle4_branch_532:
		note D_, 8
Music_UnovaBattle4_branch_533:
		note G_, 8
		note D_, 1
		note __, 1
		note E_, 14
Music_UnovaBattle4_branch_534:
		note G_, 1
		note __, 1
		note A_, 14
Music_UnovaBattle4_branch_535:
		note C#, 2
		note C#, 4
Music_UnovaBattle4_branch_536:
		note A_, 6
		note C#, 4
		note A_, 16
Music_UnovaBattle4_branch_537:
		note G_, 2
		note __, 4
Music_UnovaBattle4_branch_538:
		note A#, 6
		note C_, 4
		note C#, 16
Music_UnovaBattle4_branch_539:
		note F#, 1
		note __, 1
		note F#, 1
		note __, 1
		note G_, 4
Music_UnovaBattle4_branch_540:
		note F#, 1
		note __, 1
		note F#, 1
		note __, 1
		note A_, 4
		note F#, 1
		note __, 1
		note F#, 1
		note __, 1
		note B_, 4
Music_UnovaBattle4_branch_541:
		note F#, 1
		note __, 1
		note F#, 1
		note __, 1
		note C_, 4
		note G#, 1
		note __, 1
		note G#, 1
		note __, 1
		note A_, 4
Music_UnovaBattle4_branch_542:
		note G#, 1
		note __, 1
		note G#, 1
		note __, 1
		note B_, 4
		note G#, 1
		note __, 1
		note G#, 1
		note __, 1
		note C#, 4
Music_UnovaBattle4_branch_543:
		note G#, 1
		note __, 1
		note G#, 1
		note __, 1
		note C#, 1
		note __, 1
		note D_, 2
		note __, 16
Music_UnovaBattle4_branch_544:
		note __, 16
Music_UnovaBattle4_branch_545:
		note __, 16
Music_UnovaBattle4_branch_546:
		note __, 16
Music_UnovaBattle4_branch_547:
		note B_, 16
Music_UnovaBattle4_branch_548:
		note F#, 16
Music_UnovaBattle4_branch_549:
		note B_, 2
		note C#, 14
Music_UnovaBattle4_branch_550:
		note G#, 1
		note __, 2
		note G#, 1
		note __, 1
Music_UnovaBattle4_branch_551:
		note G#, 1
		note __, 1
		note G#, 1
		note __, 1
		note G#, 1
		note __, 1
		note C#, 1
		note __, 2
		note C#, 1
		note __, 1
		note C#, 1
		note __, 1
		note C#, 1
		note __, 1
		note C#, 1
Music_UnovaBattle4_branch_552:
		note __, 1
		note C#, 2
		note __, 2
		note C#, 4
		note C_, 1
		note __, 1
		note C_, 1
		note __, 1
		note D#, 4
Music_UnovaBattle4_branch_553:
		note C_, 1
		note __, 1
		note C_, 1
		note __, 1
		note F_, 4
		note C_, 1
		note __, 1
		note C_, 1
		note __, 1
		note F_, 4
Music_UnovaBattle4_branch_554:
		note C_, 1
		note __, 1
		note C_, 1
		note __, 1
		note C#, 4
		note C_, 1
		note __, 1
		note C_, 1
		note __, 1
		note D#, 4
Music_UnovaBattle4_branch_555:
		note C_, 1
		note __, 1
		note C_, 1
		note __, 1
		note F_, 4
		note C_, 1
		note __, 1
		note C_, 1
		note __, 1
		note F_, 4
Music_UnovaBattle4_branch_556:
		note __, 16
Music_UnovaBattle4_branch_557:
		note __, 16
Music_UnovaBattle4_branch_558:
		note __, 16
Music_UnovaBattle4_branch_559:
		note __, 16
Music_UnovaBattle4_branch_560:
		note __, 16
Music_UnovaBattle4_branch_561:
		note __, 16
Music_UnovaBattle4_branch_562:
		note __, 16
Music_UnovaBattle4_branch_563:
		note __, 16
Music_UnovaBattle4_branch_564:
		note __, 16
Music_UnovaBattle4_branch_565:
		note __, 16
Music_UnovaBattle4_branch_566:
		note __, 16
Music_UnovaBattle4_branch_567:
		note __, 16
Music_UnovaBattle4_branch_568:
		note __, 16
Music_UnovaBattle4_branch_569:
		note __, 16
Music_UnovaBattle4_branch_570:
		note __, 16
Music_UnovaBattle4_branch_571:
		note __, 16
Music_UnovaBattle4_branch_572:
		note __, 16
Music_UnovaBattle4_branch_573:
		note __, 16
Music_UnovaBattle4_branch_574:
		note __, 16
Music_UnovaBattle4_branch_575:
		note __, 16
Music_UnovaBattle4_branch_576:
		note __, 16
Music_UnovaBattle4_branch_577:
		note __, 16
Music_UnovaBattle4_branch_578:
		note __, 16
Music_UnovaBattle4_branch_579:
		note __, 16
Music_UnovaBattle4_branch_580:
		note __, 16
Music_UnovaBattle4_branch_581:
		note __, 16
Music_UnovaBattle4_branch_582:
		note __, 16
Music_UnovaBattle4_branch_583:
		note __, 16
Music_UnovaBattle4_branch_584:
		note __, 16
Music_UnovaBattle4_branch_585:
		note __, 16
Music_UnovaBattle4_branch_586:
		note __, 16
Music_UnovaBattle4_branch_587:
		note __, 16
Music_UnovaBattle4_branch_588:
		note __, 16
Music_UnovaBattle4_branch_589:
		note __, 16
Music_UnovaBattle4_branch_590:
		note __, 16
Music_UnovaBattle4_branch_591:
		note __, 16
Music_UnovaBattle4_branch_592:
		note __, 16
Music_UnovaBattle4_branch_593:
		note __, 16
Music_UnovaBattle4_branch_594:
		note __, 16
Music_UnovaBattle4_branch_595:
		note __, 16
Music_UnovaBattle4_branch_596:
		note __, 16
Music_UnovaBattle4_branch_597:
		note __, 16
Music_UnovaBattle4_branch_598:
		note __, 16
Music_UnovaBattle4_branch_599:
		note __, 16
Music_UnovaBattle4_branch_600:
		note __, 16
Music_UnovaBattle4_branch_601:
		note __, 16
Music_UnovaBattle4_branch_602:
		note __, 2
		note C#, 16
Music_UnovaBattle4_branch_603:
		note C#, 1
		note __, 1
		note G#, 6
		note C#, 1
		note __, 3
		note G#, 1
Music_UnovaBattle4_branch_604:
		note __, 3
		note G#, 1
		note __, 1
		note G_, 14
Music_UnovaBattle4_branch_605:
		note F_, 1
		note __, 1
		note G_, 14
Music_UnovaBattle4_branch_606:
		note C#, 16
Music_UnovaBattle4_branch_607:
		note C#, 1
		note __, 1
		note G#, 6
		note C#, 1
		note __, 3
		note G#, 1
Music_UnovaBattle4_branch_608:
		note __, 3
		note G#, 1
		note __, 1
		note A#, 14
Music_UnovaBattle4_branch_609:
		note A#, 1
		note __, 1
		note G_, 14
Music_UnovaBattle4_branch_610:
		note D#, 1
		note __, 1
		note F_, 14
Music_UnovaBattle4_branch_611:
		note F_, 1
		note __, 1
		note C_, 14
Music_UnovaBattle4_branch_612:
		note F_, 1
		note __, 1
		note G_, 14
Music_UnovaBattle4_branch_613:
		note D_, 8
		note G_, 8
Music_UnovaBattle4_branch_614:
		note D_, 1
		note __, 1
		note E_, 14
Music_UnovaBattle4_branch_615:
		note G_, 1
		note __, 1
		note A_, 14
Music_UnovaBattle4_branch_616:
		note __, 16
Music_UnovaBattle4_branch_617:
		note __, 16
Music_UnovaBattle4_branch_618:
		note __, 16
Music_UnovaBattle4_branch_619:
		note __, 14
Music_UnovaBattle4_branch_620:
		note C#, 1
		note __, 1
		note C#, 1
		note __, 1
		note D_, 4
		note C#, 1
		note __, 1
		note C#, 1
		note __, 1
		note E_, 4
Music_UnovaBattle4_branch_621:
		note C#, 1
		note __, 1
		note C#, 1
		note __, 1
		note F#, 4
		note C#, 1
		note __, 1
		note C#, 1
		note __, 1
		note G_, 4
Music_UnovaBattle4_branch_622:
		note D#, 1
		note __, 1
		note D#, 1
		note __, 1
		note E_, 4
		note D#, 1
		note __, 1
		note D#, 1
		note __, 1
		note F#, 4
Music_UnovaBattle4_branch_623:
		note D#, 1
		note __, 1
		note D#, 1
		note __, 1
		note G#, 4
		note D#, 1
		note __, 1
		note D#, 1
		note __, 1
		note G#, 1
		note __, 1
		note A_, 2
Music_UnovaBattle4_branch_624:
		note __, 16
Music_UnovaBattle4_branch_625:
		note __, 16
Music_UnovaBattle4_branch_626:
		note __, 16
Music_UnovaBattle4_branch_627:
		note __, 16
Music_UnovaBattle4_branch_628:
		note __, 16
Music_UnovaBattle4_branch_629:
		note __, 16
Music_UnovaBattle4_branch_630:
		note __, 16
Music_UnovaBattle4_branch_631:
		note __, 16
Music_UnovaBattle4_branch_632:
		note __, 16
Music_UnovaBattle4_branch_633:
		note __, 16
Music_UnovaBattle4_branch_634:
		note __, 16
Music_UnovaBattle4_branch_635:
		note __, 16
Music_UnovaBattle4_branch_636:
		note __, 1
		note __, 1
		note A#, 2
		note __, 1
		note __, 1
		note A#, 2
		note __, 1
		note __, 1
		note A#, 2
		note __, 1
		note __, 1
		note A#, 2
Music_UnovaBattle4_branch_637:
		note __, 1
		note __, 1
		note A#, 2
		note __, 1
		note __, 1
		note A#, 2
		note __, 1
		note __, 1
		note __, 1
		note __, 1
		note __, 1
		note A#, 2
Music_UnovaBattle4_branch_638:
		note F#, 1
		note __, 1
		note __, 2
		note __, 2
		note __, 2
		note __, 1
		note F#, 1
		note __, 2
		note __, 2
		note __, 2
Music_UnovaBattle4_branch_639:
		note F#, 1
		note __, 1
		note __, 2
		note __, 2
		note __, 2
		note F#, 1
		note __, 1
		note __, 2
		note __, 2
		note __, 2
Music_UnovaBattle4_branch_640:
		note F#, 1
		note __, 1
		note __, 2
		note __, 2
		note __, 2
		note A#, 2
		note __, 2
		note __, 2
		note A#, 2
Music_UnovaBattle4_branch_641:
		note __, 2
		note A#, 2
		note __, 2
		note __, 2
		note __, 1
		note __, 1
		note __, 2
		note __, 2
		note A#, 2
Music_UnovaBattle4_branch_642:
		note __, 2
		note __, 2
		note __, 2
		note __, 2
		note __, 1
		note __, 2
		note __, 2
		note __, 2
		note __, 2
Music_UnovaBattle4_branch_643:
		note __, 2
		note __, 2
		note __, 2
		note F#, 1
		note __, 1
		note __, 2
		note __, 2
		note A#, 2
		note F#, 1
Music_UnovaBattle4_branch_644:
		note __, 1
		note __, 2
		note __, 2
		note __, 2
		note A#, 2
		note __, 2
		note __, 2
		note A#, 2
		note F#, 1
Music_UnovaBattle4_branch_645:
		note __, 1
		note A#, 2
		note __, 2
		note A#, 2
		note __, 2
		note __, 2
		note __, 2
		note __, 2
		note __, 2
Music_UnovaBattle4_branch_646:
		note __, 2
		note __, 2
		note A#, 2
		note __, 2
		note __, 2
		note __, 2
		note __, 2
		note __, 1
Music_UnovaBattle4_branch_647:
		note __, 1
		note __, 2
		note __, 2
		note __, 2
		note __, 2
		note __, 2
		note __, 2
		note A#, 2
		note __, 2
Music_UnovaBattle4_branch_648:
		note __, 2
		note __, 2
		note A#, 2
		note __, 2
		note __, 2
		note __, 2
		note __, 2
		note __, 1
Music_UnovaBattle4_branch_649:
		note __, 1
		note __, 2
		note __, 2
		note __, 2
		note __, 2
		note __, 2
		note A#, 2
		note __, 2
		note __, 2
Music_UnovaBattle4_branch_650:
		note __, 2
		note __, 2
		note A#, 2
		note __, 2
		note __, 2
		note __, 2
		note __, 2
		note __, 1
Music_UnovaBattle4_branch_651:
		note __, 1
		note __, 2
		note __, 2
		note __, 2
		note __, 2
		note __, 2
		note __, 2
		note A#, 2
		note __, 2
Music_UnovaBattle4_branch_652:
		note __, 2
		note __, 2
		note A#, 2
		note __, 2
		note __, 2
		note __, 2
		note __, 2
		note __, 1
Music_UnovaBattle4_branch_653:
		note __, 1
		note __, 2
		note __, 2
		note __, 2
		note __, 2
		note __, 2
		note A#, 2
		note __, 2
		note __, 2
Music_UnovaBattle4_branch_654:
		note __, 2
		note __, 2
		note A#, 2
		note __, 2
		note __, 2
		note __, 2
		note __, 2
		note __, 1
Music_UnovaBattle4_branch_655:
		note __, 1
		note __, 2
		note __, 2
		note __, 2
		note __, 2
		note __, 2
		note __, 2
		note A#, 2
		note __, 2
Music_UnovaBattle4_branch_656:
		note __, 2
		note __, 2
		note A#, 2
		note __, 2
		note __, 2
		note __, 2
		note __, 2
		note __, 1
Music_UnovaBattle4_branch_657:
		note __, 1
		note __, 2
		note __, 2
		note __, 2
		note __, 2
		note __, 2
		note __, 2
		note A#, 2
		note __, 2
Music_UnovaBattle4_branch_658:
		note __, 2
		note __, 2
		note A#, 2
		note __, 2
		note __, 2
		note __, 2
		note __, 2
		note __, 1
Music_UnovaBattle4_branch_659:
		note __, 1
		note __, 2
		note __, 2
		note __, 2
		note __, 2
		note __, 2
		note __, 2
		note A#, 2
		note __, 2
Music_UnovaBattle4_branch_660:
		note __, 2
		note __, 2
		note A#, 2
		note __, 2
		note __, 2
		note __, 2
		note __, 2
		note __, 1
Music_UnovaBattle4_branch_661:
		note __, 1
		note __, 2
		note __, 2
		note __, 2
		note __, 2
		note __, 2
		note __, 2
		note A#, 2
		note G_, 2
Music_UnovaBattle4_branch_662:
		note __, 2
		note __, 2
		note A#, 2
		note __, 2
		note __, 2
		note __, 2
		note __, 2
		note __, 1
Music_UnovaBattle4_branch_663:
		note __, 1
		note __, 2
		note __, 2
		note __, 2
		note __, 2
		note __, 2
		note __, 2
		note A#, 2
		note __, 2
Music_UnovaBattle4_branch_664:
		note __, 2
		note __, 1
		note __, 1
		note G_, 2
		note __, 2
		note __, 2
		note __, 2
		note __, 2
		note __, 1
Music_UnovaBattle4_branch_665:
		note __, 1
		note __, 2
		note __, 2
		note __, 2
		note __, 2
		note __, 2
		note __, 2
		note A#, 2
		note __, 2
Music_UnovaBattle4_branch_666:
		note __, 2
		note __, 2
		note A#, 2
		note __, 2
		note __, 2
		note __, 2
		note __, 2
		note __, 1
Music_UnovaBattle4_branch_667:
		note __, 1
		note __, 2
		note __, 2
		note __, 2
		note __, 2
		note __, 2
		note __, 2
		note A#, 2
		note __, 2
Music_UnovaBattle4_branch_668:
		note __, 2
		note __, 2
		note A#, 2
		note __, 2
		note __, 2
		note __, 2
		note __, 2
		note __, 1
Music_UnovaBattle4_branch_669:
		note __, 1
		note __, 2
		note __, 2
		note __, 2
		note __, 2
		note __, 2
		note __, 4
		note __, 2
Music_UnovaBattle4_branch_670:
		note __, 2
		note __, 2
		note A#, 2
		note __, 2
		note __, 2
		note __, 2
		note __, 2
		note __, 1
Music_UnovaBattle4_branch_671:
		note __, 1
		note __, 2
		note __, 2
		note __, 2
		note __, 2
		note __, 2
		note __, 2
		note A#, 2
		note __, 2
Music_UnovaBattle4_branch_672:
		note __, 2
		note __, 2
		note A#, 2
		note __, 2
		note __, 2
		note __, 2
		note __, 2
		note __, 1
Music_UnovaBattle4_branch_673:
		note __, 1
		note __, 2
		note __, 2
		note __, 2
		note __, 2
		note __, 2
		note __, 4
		note __, 2
Music_UnovaBattle4_branch_674:
		note __, 2
		note __, 2
		note A#, 2
		note __, 2
		note __, 2
		note __, 2
		note __, 2
		note __, 1
Music_UnovaBattle4_branch_675:
		note __, 1
		note __, 2
		note __, 2
		note __, 2
		note __, 2
		note __, 2
		note __, 2
		note A#, 2
		note __, 2
Music_UnovaBattle4_branch_676:
		note __, 2
		note __, 2
		note A#, 2
		note __, 2
		note __, 2
		note __, 2
		note __, 2
		note __, 1
Music_UnovaBattle4_branch_677:
		note __, 1
		note __, 2
		note __, 2
		note __, 2
		note __, 2
		note __, 2
		note __, 2
		note A#, 2
		note __, 2
Music_UnovaBattle4_branch_678:
		note __, 2
		note __, 2
		note A#, 2
		note __, 2
		note __, 2
		note __, 2
		note __, 2
		note __, 1
Music_UnovaBattle4_branch_679:
		note __, 1
		note __, 2
		note __, 2
		note __, 2
		note __, 2
		note __, 2
		note __, 2
		note A#, 2
		note __, 2
Music_UnovaBattle4_branch_680:
		note __, 2
		note __, 2
		note A#, 2
		note __, 2
		note __, 2
		note __, 2
		note __, 2
		note __, 1
Music_UnovaBattle4_branch_681:
		note __, 1
		note __, 2
		note __, 2
		note __, 2
		note __, 2
		note __, 2
		note __, 2
		note A#, 2
		note __, 2
Music_UnovaBattle4_branch_682:
		note __, 2
		note __, 2
		note A#, 2
		note __, 2
		note __, 2
		note __, 2
		note __, 2
		note __, 1
Music_UnovaBattle4_branch_683:
		note __, 1
		note __, 2
		note __, 2
		note __, 2
		note __, 2
		note __, 2
		note __, 2
		note A#, 2
		note __, 2
Music_UnovaBattle4_branch_684:
		note __, 2
		note __, 2
		note A#, 2
		note __, 2
		note __, 2
		note __, 2
		note __, 2
		note __, 1
Music_UnovaBattle4_branch_685:
		note __, 1
		note __, 2
		note __, 2
		note __, 2
		note __, 2
		note __, 2
		note __, 2
		note A#, 2
		note __, 2
Music_UnovaBattle4_branch_686:
		note __, 2
		note __, 2
		note A#, 2
		note __, 2
		note __, 2
		note __, 2
		note __, 2
		note __, 1
Music_UnovaBattle4_branch_687:
		note __, 1
		note __, 2
		note __, 2
		note __, 2
		note __, 2
		note __, 2
		note __, 2
		note A#, 2
		note __, 2
Music_UnovaBattle4_branch_688:
		note __, 2
		note __, 2
		note A#, 2
		note __, 2
		note __, 2
		note __, 2
		note __, 2
		note __, 1
Music_UnovaBattle4_branch_689:
		note __, 1
		note __, 2
		note __, 2
		note __, 2
		note __, 2
		note __, 2
		note __, 2
		note A#, 2
		note __, 2
Music_UnovaBattle4_branch_690:
		note __, 2
		note __, 2
		note A#, 2
		note __, 2
		note __, 2
		note __, 2
		note __, 2
		note __, 1
Music_UnovaBattle4_branch_691:
		note __, 1
		note __, 2
		note __, 2
		note __, 2
		note __, 2
		note __, 2
		note __, 2
		note A#, 2
		note __, 2
Music_UnovaBattle4_branch_692:
		note __, 2
		note __, 2
		note A#, 2
		note __, 2
		note __, 2
		note __, 2
		note __, 2
		note __, 1
Music_UnovaBattle4_branch_693:
		note __, 1
		note __, 2
		note __, 2
		note __, 2
		note __, 2
		note __, 2
		note __, 2
		note A#, 2
		note __, 2
Music_UnovaBattle4_branch_694:
		note __, 2
		note __, 2
		note A#, 2
		note __, 2
		note __, 2
		note __, 2
		note __, 2
		note __, 1
Music_UnovaBattle4_branch_695:
		note __, 1
		note __, 2
		note __, 2
		note __, 2
		note __, 2
		note __, 2
		note __, 2
		note A#, 2
		note __, 2
Music_UnovaBattle4_branch_696:
		note __, 2
		note __, 2
		note A#, 2
		note __, 2
		note __, 2
		note __, 2
		note __, 2
		note __, 1
Music_UnovaBattle4_branch_697:
		note __, 1
		note __, 2
		note __, 2
		note __, 2
		note __, 2
		note __, 2
		note __, 2
		note A#, 2
		note __, 2
Music_UnovaBattle4_branch_698:
		note __, 2
		note __, 4
		note __, 2
		note __, 2
		note __, 2
		note __, 2
		note __, 1
Music_UnovaBattle4_branch_699:
		note __, 1
		note __, 2
		note __, 2
		note __, 2
		note __, 2
		note __, 2
		note __, 2
		note A#, 2
		note __, 4
Music_UnovaBattle4_branch_700:
		note E_, 1
		note C#, 1
		note F_, 2
		note __, 4
		note F#, 1
		note __, 1
		note F_, 2
		note __, 16
Music_UnovaBattle4_branch_701:
		note __, 16
Music_UnovaBattle4_branch_702:
		note __, 16
Music_UnovaBattle4_branch_703:
		note __, 16
Music_UnovaBattle4_branch_704:
		note __, 16
Music_UnovaBattle4_branch_705:
		note __, 16
Music_UnovaBattle4_branch_706:
		note G#, 8
Music_UnovaBattle4_branch_707:
		note __, 8
		note F_, 1
Music_UnovaBattle4_branch_708:
		note __, 1
		note F_, 1
		note __, 1
		note F_, 1
		note __, 9
		note D_, 1
		note __, 3
Music_UnovaBattle4_branch_709:
		note D_, 1
		note __, 1
		note D_, 1
		note __, 8
		note G#, 11
Music_UnovaBattle4_branch_710:
		note __, 16
Music_UnovaBattle4_branch_711:
		note __, 16
Music_UnovaBattle4_branch_712:
		note __, 16
Music_UnovaBattle4_branch_713:
		note __, 16
Music_UnovaBattle4_branch_714:
		note __, 16
Music_UnovaBattle4_branch_715:
		note __, 5
		note A_, 2
		note E_, 2
Music_UnovaBattle4_branch_716:
		note C_, 4
		note __, 4
		note C_, 4
		note C_, 2
		note E_, 2
Music_UnovaBattle4_branch_717:
		note C_, 2
		note E_, 2
		note __, 1
		note __, 1
		note __, 1
		note __, 1
		note __, 1
		note C_, 4
		note C_, 4
Music_UnovaBattle4_branch_718:
		note C_, 4
		note C_, 4
		note C_, 4
		note C_, 4
Music_UnovaBattle4_branch_719:
		note C_, 4
		note C_, 4
		note D_, 4
		note C_, 4
Music_UnovaBattle4_branch_720:
		note E_, 2
		note C_, 2
		note __, 2
		note C_, 2
		note C_, 2
		note E_, 2
		note C_, 2
		note __, 2
Music_UnovaBattle4_branch_721:
		note F_, 2
		note C_, 2
		note D_, 1
		note __, 1
		note E_, 1
		note C_, 2
		note __, 2
		note C_, 4
Music_UnovaBattle4_branch_722:
		note C_, 4
		note C_, 4
		note C_, 4
		note C_, 4
Music_UnovaBattle4_branch_723:
		note C_, 4
		note C_, 4
		note C#, 4
		note C_, 4
Music_UnovaBattle4_branch_724:
		note E_, 2
		note C_, 2
		note __, 2
		note C_, 2
		note E_, 2
		note C_, 2
		note C_, 2
		note E_, 2
Music_UnovaBattle4_branch_725:
		note C_, 2
		note E_, 2
		note C_, 4
		note E_, 3
		note __, 1
		note C_, 2
		note C_, 2
Music_UnovaBattle4_branch_726:
		note E_, 4
		note C_, 4
		note E_, 4
		note C_, 2
		note C_, 2
Music_UnovaBattle4_branch_727:
		note E_, 4
		note C_, 4
		note E_, 2
		note C_, 2
		note __, 2
		note E_, 2
Music_UnovaBattle4_branch_728:
		note E_, 2
		note C_, 2
		note C_, 4
		note E_, 2
		note C_, 2
		note __, 2
		note C_, 2
Music_UnovaBattle4_branch_729:
		note E_, 2
		note E_, 1
		note E_, 1
		note C_, 4
		note E_, 4
		note C_, 2
		note C_, 2
Music_UnovaBattle4_branch_730:
		note E_, 4
		note C_, 4
		note E_, 4
		note C_, 2
		note C_, 2
Music_UnovaBattle4_branch_731:
		note E_, 4
		note C_, 4
		note E_, 2
		note C_, 2
		note __, 2
		note E_, 2
Music_UnovaBattle4_branch_732:
		note E_, 2
		note C_, 2
		note C_, 4
		note E_, 2
		note C_, 2
		note __, 2
		note C_, 2
Music_UnovaBattle4_branch_733:
		note E_, 2
		note E_, 1
		note E_, 1
		note C_, 4
		note E_, 4
		note C_, 2
		note C_, 2
Music_UnovaBattle4_branch_734:
		note E_, 4
		note C_, 4
		note E_, 4
		note C_, 2
		note C_, 2
Music_UnovaBattle4_branch_735:
		note E_, 4
		note C_, 4
		note E_, 4
		note C_, 2
		note C_, 2
Music_UnovaBattle4_branch_736:
		note E_, 4
		note C_, 4
		note E_, 4
		note C_, 2
		note C_, 2
Music_UnovaBattle4_branch_737:
		note E_, 4
		note C_, 4
		note E_, 4
		note C_, 2
		note C_, 2
Music_UnovaBattle4_branch_738:
		note E_, 4
		note C_, 4
		note E_, 4
		note C_, 2
		note C_, 2
Music_UnovaBattle4_branch_739:
		note E_, 4
		note E_, 2
		note B_, 2
		note G_, 1
		note E_, 2
		note __, 2
		note C_, 1
		note __, 3
Music_UnovaBattle4_branch_740:
		note E_, 2
		note D#, 1
		note D_, 1
		note C_, 1
		note B_, 1
		note A_, 1
		note __, 1
		note G#, 1
		note __, 1
		note B_, 1
		note C_, 1
		note A_, 1
		note G_, 1
		note F_, 1
Music_UnovaBattle4_branch_741:
		note C_, 2
		note __, 1
		note __, 1
		note E_, 1
		note __, 1
		note E_, 2
		note C_, 2
		note E_, 2
		note __, 1
		note __, 1
		note E_, 2
Music_UnovaBattle4_branch_742:
		note E_, 2
		note __, 1
		note __, 1
		note E_, 2
		note __, 1
		note __, 1
		note C_, 2
		note E_, 2
		note __, 1
		note __, 1
		note E_, 2
Music_UnovaBattle4_branch_743:
		note E_, 4
		note E_, 1
		note __, 1
		note E_, 2
		note E_, 2
		note E_, 2
		note C_, 2
		note E_, 2
Music_UnovaBattle4_branch_744:
		note E_, 2
		note __, 1
		note __, 1
		note E_, 2
		note __, 1
		note C_, 2
		note E_, 1
		note E_, 1
		note E_, 2
		note E_, 1
		note E_, 1
		note E_, 4
Music_UnovaBattle4_branch_745:
		note E_, 4
		note C_, 2
		note C_, 2
		note E_, 4
		note C_, 4
Music_UnovaBattle4_branch_746:
		note E_, 4
		note C_, 2
		note C_, 2
		note E_, 4
		note C_, 4
Music_UnovaBattle4_branch_747:
		note E_, 4
		note C_, 2
		note C_, 2
		note E_, 4
		note C_, 4
Music_UnovaBattle4_branch_748:
		note E_, 4
		note C_, 2
		note C_, 2
		note E_, 2
		note E_, 1
		note E_, 1
		note C_, 4
Music_UnovaBattle4_branch_749:
		note E_, 4
		note C_, 2
		note C_, 2
		note E_, 4
		note C_, 4
Music_UnovaBattle4_branch_750:
		note E_, 4
		note C_, 2
		note C_, 2
		note E_, 4
		note C_, 4
Music_UnovaBattle4_branch_751:
		note E_, 4
		note C_, 2
		note C_, 2
		note E_, 4
		note C_, 4
Music_UnovaBattle4_branch_752:
		note E_, 4
		note C_, 2
		note C_, 2
		note E_, 2
		note E_, 1
		note E_, 1
		note C_, 4
Music_UnovaBattle4_branch_753:
		note E_, 4
		note C_, 2
		note C_, 2
		note E_, 4
		note C_, 4
Music_UnovaBattle4_branch_754:
		note E_, 4
		note C_, 2
		note C_, 2
		note E_, 4
		note C_, 4
Music_UnovaBattle4_branch_755:
		note E_, 4
		note C_, 2
		note C_, 2
		note E_, 4
		note C_, 4
Music_UnovaBattle4_branch_756:
		note E_, 4
		note C_, 2
		note C_, 2
		note E_, 4
		note C_, 4
Music_UnovaBattle4_branch_757:
		note E_, 4
		note C_, 2
		note C_, 2
		note E_, 4
		note C_, 4
Music_UnovaBattle4_branch_758:
		note E_, 4
		note C_, 2
		note C_, 2
		note E_, 4
		note C_, 4
Music_UnovaBattle4_branch_759:
		note E_, 4
		note C_, 2
		note C_, 2
		note E_, 4
		note C_, 2
Music_UnovaBattle4_branch_760:
		note E_, 4
		note C_, 2
		note E_, 2
		note F#, 2
		note E_, 1
		note E_, 1
		note C_, 3
Music_UnovaBattle4_branch_761:
		note __, 1
		note E_, 4
		note C_, 2
		note C_, 2
		note E_, 4
		note C_, 4
Music_UnovaBattle4_branch_762:
		note E_, 4
		note C_, 2
		note C_, 2
		note E_, 4
		note C_, 4
Music_UnovaBattle4_branch_763:
		note E_, 4
		note C_, 2
		note C_, 2
		note E_, 4
		note C_, 4
Music_UnovaBattle4_branch_764:
		note E_, 1
		note __, 3
		note C_, 2
		note C_, 2
		note F_, 4
		note C_, 4
Music_UnovaBattle4_branch_765:
		note E_, 4
		note C_, 2
		note C_, 2
		note E_, 4
		note C_, 4
Music_UnovaBattle4_branch_766:
		note E_, 4
		note C_, 2
		note C_, 2
		note E_, 4
		note C_, 4
Music_UnovaBattle4_branch_767:
		note E_, 4
		note C_, 2
		note C_, 2
		note E_, 4
		note C_, 4
Music_UnovaBattle4_branch_768:
		note E_, 4
		note E_, 2
		note C_, 2
		note __, 1
		note E_, 1
		note C_, 2
		note C_, 4
Music_UnovaBattle4_branch_769:
		note E_, 4
		note C_, 2
		note C_, 2
		note E_, 4
		note C_, 2
		note E_, 2
Music_UnovaBattle4_branch_770:
		note E_, 2
		note __, 2
		note E_, 2
		note E_, 2
		note C_, 2
		note E_, 2
		note C_, 4
Music_UnovaBattle4_branch_771:
		note E_, 4
		note C_, 2
		note C_, 2
		note E_, 4
		note C_, 3
Music_UnovaBattle4_branch_772:
		note __, 1
		note E_, 4
		note C_, 2
		note C_, 2
		note E_, 2
		note E_, 2
		note C_, 3
Music_UnovaBattle4_branch_773:
		note __, 1
		note E_, 4
		note C_, 2
		note C_, 2
		note E_, 4
		note E_, 2
		note C_, 2
Music_UnovaBattle4_branch_774:
		note E_, 4
		note E_, 1
		note E_, 1
		note C_, 2
		note C_, 2
		note E_, 2
		note C_, 2
		note E_, 1
Music_UnovaBattle4_branch_775:
		note __, 3
		note __, 2
		note C_, 2
		note C_, 2
		note E_, 4
		note C_, 4
Music_UnovaBattle4_branch_776:
		note E_, 4
		note C_, 2
		note E_, 2
		note E_, 2
		note E_, 1
		note E_, 1
		note C_, 2
		note E_, 2
Music_UnovaBattle4_branch_777:
		note E_, 4
		note C_, 1
		note __, 1
		note E_, 2
		note E_, 2
		note E_, 2
		note __, 1
		note __, 1
		note __, 1
Music_UnovaBattle4_branch_778:
		note F_, 2
		note C_, 2
		note F_, 2
		note F_, 1
		note E_, 1
		note F_, 1
		note E_, 1
		note C_, 2
		note C_, 2
		note D#, 2
Music_UnovaBattle4_branch_779:
		note E_, 2
		note C_, 2
		note C_, 2
		note G_, 4
		note C_, 2
		note C_, 2
		note C#, 4
Music_UnovaBattle4_branch_780:
		note C_, 2
		note C_, 2
		note A_, 2
		note E_, 2
		note C_, 2
		note C_, 2
		note E_, 2
Music_UnovaBattle4_branch_781:
		note E_, 2
		note C_, 2
		note C_, 2
		note E_, 2
		note E_, 2
		note C_, 2
		note C_, 2
		note G_, 2
Music_UnovaBattle4_branch_782:
		note E_, 2
		note C_, 2
		note C_, 2
		note E_, 2
		note A_, 2
		note E_, 1
		note E_, 1
		note B_, 1
		note G#, 1
		note __, 1
		note G_, 1
Music_UnovaBattle4_branch_783:
		note E_, 2
		note E_, 1
		note C_, 1
		note C_, 1
		note C_, 1
		note F#, 1
		note E_, 1
		note G#, 1
		note F_, 1
		note C_, 1
		note C_, 1
		note A#, 1
		note C_, 1
		note A_, 1
		note F_, 1
Music_UnovaBattle4_branch_784:
		note C_, 1
		note C_, 1
		note F#, 1
		note C_, 1
		note B_, 1
		note G#, 1
		note C_, 1
		note F_, 1
		note C#, 2
		note E_, 1
		note E_, 1
		note C_, 1
		note C_, 1
		note E_, 1
		note E_, 1
Music_UnovaBattle4_branch_785:
		note G#, 1
		note F_, 1
		note C_, 1
		note C_, 1
		note E_, 2
		note E_, 1
		note C_, 1
		note C_, 1
		note E_, 1
		note E_, 1
		note B_, 1
		note G#, 1
		note C_, 1
		note G_, 1
		note F#, 1
Music_UnovaBattle4_branch_786:
		note __, 1
		note F#, 1
		note C_, 1
		note F#, 1
		note C_, 1
		note E_, 1
		note E_, 1
		note G#, 1
		note F_, 1
		note C_, 1
		note A_, 1
		note G#, 1
		note __, 1
		note G#, 1
		note __, 1
		note G#, 1
Music_UnovaBattle4_branch_787:
		note __, 1
		note G#, 1
		note G#, 1
		note G#, 1
		note F#, 1
		note E_, 1
		note B_, 1
		note G#, 1
		note C_, 1
		note G_, 1
		note E_, 1
		note __, 1
		note E_, 1
		note __, 1
		note E_, 1
		note __, 1
Music_UnovaBattle4_branch_788:
		note E_, 1
		note E_, 1
		note E_, 1
		note G_, 1
		note __, 1
		note G#, 1
		note __, 1
		note C_, 1
		note G_, 1
		note E_, 2
		note E_, 1
		note G#, 1
		note B_, 1
		note F_, 1
		note F#, 4
Music_UnovaBattle4_branch_789:
		note B_, 4
		note B_, 4
		note B_, 4
		note B_, 4
Music_UnovaBattle4_branch_790:
		note B_, 4
		note B_, 4
		note B_, 4
		note B_, 4
Music_UnovaBattle4_branch_791:
		note B_, 4
		note B_, 4
		note B_, 4
		note B_, 4
Music_UnovaBattle4_branch_792:
		note B_, 4
		note B_, 2
		note B_, 2
		note E_, 2
		note E_, 1
		note E_, 1
		note __, 16
Music_UnovaBattle4_branch_793:
		note __, 16
Music_UnovaBattle4_branch_794:
		note __, 2
Music_UnovaBattle4_branch_795:
		note B_, 12
		note E_, 16
Music_UnovaBattle4_branch_796:
		note E_, 1
		note __, 1
		note E_, 1
Music_UnovaBattle4_branch_797:
		note __, 1
		note G_, 4
		note E_, 1
		note __, 1
		note E_, 1
		note __, 1
		note A_, 4
		note E_, 1
		note __, 1
		note E_, 1
Music_UnovaBattle4_branch_798:
		note __, 1
		note A#, 4
		note E_, 1
		note __, 1
		note E_, 1
		note __, 3
		note B_, 2
		note C_, 2
		note __, 10
Music_UnovaBattle4_branch_799:
		note F_, 16
Music_UnovaBattle4_branch_800:
		note F_, 1
		note __, 1
		note F_, 1
		note __, 1
		note G#, 4
Music_UnovaBattle4_branch_801:
		note F_, 1
		note __, 1
		note F_, 1
		note __, 1
		note A#, 4
		note F_, 1
		note __, 1
		note F_, 1
		note __, 1
		note B_, 4
Music_UnovaBattle4_branch_802:
		note F_, 1
		note __, 1
		note F_, 1
		note __, 1
		note C_, 4
		note F_, 16
Music_UnovaBattle4_branch_803:
		note F_, 1
		note __, 1
		note C_, 6
Music_UnovaBattle4_branch_804:
		note F_, 1
		note __, 3
		note C_, 1
		note __, 3
		note C_, 1
		note __, 1
		note C#, 16
Music_UnovaBattle4_branch_805:
		note C#, 12
Music_UnovaBattle4_branch_806:
		note __, 1
		note __, 1
		note F_, 16
Music_UnovaBattle4_branch_807:
		note F_, 1
		note __, 1
		note C_, 6
Music_UnovaBattle4_branch_808:
		note F_, 1
		note __, 3
		note C_, 1
		note __, 3
		note C_, 1
		note __, 1
		note A#, 16
Music_UnovaBattle4_branch_809:
		note A#, 10
Music_UnovaBattle4_branch_810:
		note __, 4
		note G#, 16
Music_UnovaBattle4_branch_811:
		note F_, 8
Music_UnovaBattle4_branch_812:
		note C_, 4
		note G#, 4
		note G_, 6
		note A#, 16
Music_UnovaBattle4_branch_813:
		note A#, 10
Music_UnovaBattle4_branch_814:
		note G#, 16
Music_UnovaBattle4_branch_815:
		note F_, 8
Music_UnovaBattle4_branch_816:
		note C_, 4
		note G#, 4
		note A#, 6
		note D#, 16
Music_UnovaBattle4_branch_817:
		note D#, 10
Music_UnovaBattle4_branch_818:
		note D#, 5
		note E_, 10
Music_UnovaBattle4_branch_819:
		note C#, 8
Music_UnovaBattle4_branch_820:
		note A#, 2
		note C#, 2
		note G#, 1
		note E_, 2
		note D#, 6
		note A#, 10
Music_UnovaBattle4_branch_821:
		note G_, 8
		note D#, 2
Music_UnovaBattle4_branch_822:
		note A#, 2
		note G_, 1
		note G#, 1
		note E_, 2
		note D#, 2
		note __, 16
Music_UnovaBattle4_branch_823:
		note __, 16
Music_UnovaBattle4_branch_824:
		note __, 16
Music_UnovaBattle4_branch_825:
		note __, 16
Music_UnovaBattle4_branch_826:
		note __, 16
Music_UnovaBattle4_branch_827:
		note __, 16
Music_UnovaBattle4_branch_828:
		note __, 16
Music_UnovaBattle4_branch_829:
		note __, 7
Music_UnovaBattle4_branch_830:
		note D#, 2
		note A#, 2
		note G_, 2
		note F_, 2
		note D#, 16
Music_UnovaBattle4_branch_831:
		note D#, 8
Music_UnovaBattle4_branch_832:
		note G_, 2
		note A#, 2
		note G_, 2
		note D#, 2
		note E_, 14
Music_UnovaBattle4_branch_833:
		note D#, 1
		note D_, 1
		note C#, 12
Music_UnovaBattle4_branch_834:
		note E_, 4
		note D#, 16
Music_UnovaBattle4_branch_835:
		note D#, 8
Music_UnovaBattle4_branch_836:
		note A#, 2
		note D#, 2
		note G#, 2
		note F_, 2
		note G_, 14
Music_UnovaBattle4_branch_837:
		note G#, 2
		note A#, 15
Music_UnovaBattle4_branch_838:
		note C#, 1
		note __, 1
		note C_, 2
		note C#, 2
		note F_, 6
Music_UnovaBattle4_branch_839:
		note C#, 4
		note C_, 1
		note C#, 7
		note G#, 2
Music_UnovaBattle4_branch_840:
		note C#, 2
		note G#, 2
		note F_, 2
		note D#, 6
		note A#, 10
Music_UnovaBattle4_branch_841:
		note G_, 2
		note F_, 2
		note G_, 2
		note A#, 4
Music_UnovaBattle4_branch_842:
		note G_, 2
		note A#, 2
		note D#, 2
		note C#, 2
		note __, 4
		note F_, 6
Music_UnovaBattle4_branch_843:
		note C#, 4
		note C_, 1
		note C#, 5
		note __, 2
		note G#, 2
Music_UnovaBattle4_branch_844:
		note C#, 2
		note G#, 2
		note F_, 2
		note D#, 6
		note A#, 6
Music_UnovaBattle4_branch_845:
		note D#, 4
		note G_, 2
		note F_, 2
		note G_, 6
Music_UnovaBattle4_branch_846:
		note A#, 2
		note __, 4
		note F_, 2
		note __, 4
		note C_, 6
Music_UnovaBattle4_branch_847:
		note F_, 4
		note A_, 6
		note C_, 1
		note C_, 1
		note A_, 2
Music_UnovaBattle4_branch_848:
		note F_, 2
		note __, 2
		note A_, 2
		note G_, 2
		note __, 4
		note D_, 6
Music_UnovaBattle4_branch_849:
		note G_, 3
		note __, 1
		note G_, 2
		note B_, 4
		note D_, 1
		note D_, 1
		note B_, 2
Music_UnovaBattle4_branch_850:
		note G_, 2
		note __, 2
		note B_, 2
		note A_, 2
		note __, 4
		note E_, 6
Music_UnovaBattle4_branch_851:
		note A_, 4
		note C#, 8
		note C#, 2
Music_UnovaBattle4_branch_852:
		note E_, 6
		note __, 16
Music_UnovaBattle4_branch_853:
		note __, 16
Music_UnovaBattle4_branch_854:
		note __, 16
Music_UnovaBattle4_branch_855:
		note __, 16
Music_UnovaBattle4_branch_856:
		note __, 16
Music_UnovaBattle4_branch_857:
		note __, 16
Music_UnovaBattle4_branch_858:
		note __, 16
Music_UnovaBattle4_branch_859:
		note __, 16
Music_UnovaBattle4_branch_860:
		note G#, 15
Music_UnovaBattle4_branch_861:
		note __, 1
		note G#, 16
Music_UnovaBattle4_branch_862:
		note A_, 16
Music_UnovaBattle4_branch_863:
		note C#, 6
		note B_, 6
Music_UnovaBattle4_branch_864:
		note A_, 4
		note B_, 16
Music_UnovaBattle4_branch_865:
		note B_, 16
Music_UnovaBattle4_branch_866:
		note B_, 2
		note C#, 12
		endchannel
