Music_UnovaBattle:
	musicheader 4, 1, Music_UnovaBattle_Ch1
	musicheader 1, 2, Music_UnovaBattle_Ch2
	musicheader 1, 3, Music_UnovaBattle_Ch3
	musicheader 1, 4, Music_UnovaBattle_Ch4
	
Music_UnovaBattle_Ch1:
		tempo $70
		volume $77
		dutycycle 1
		notetype 12, $B8
Music_UnovaBattle1_branch_1:
		octave 5
		dutycycle 2
		note E_, 1
		octave 4
		note B_, 1
		octave 5
		note E_, 2
		note E_, 1
		octave 4
		note B_, 1
		octave 5
		note E_, 2
		note E_, 1
		octave 4
		note B_, 1
		octave 5
		note E_, 2
		note E_, 1
		octave 4
		note B_, 1
		octave 5
		note E_, 2
Music_UnovaBattle1_branch_2:
		note E_, 1
		octave 4
		note B_, 1
		octave 5
		note E_, 2
		note E_, 1
		octave 4
		note B_, 1
		octave 5
		note E_, 2
		note E_, 1
		octave 4
		note B_, 1
		octave 5
		note E_, 1
		note B_, 1
		note E_, 1
		octave 4
		note B_, 1
		octave 5
		note E_, 1
		note B_, 1
Music_UnovaBattle1_branch_3:
		note E_, 16
Music_UnovaBattle1_branch_4:
		note E_, 16
Music_UnovaBattle1_branch_5:
		octave 3
		octave 4
		note E_, 2
		octave 3
		octave 4
		note E_, 2
		note G_, 4
		octave 3
		octave 4
		note E_, 2
		octave 3
		octave 4
		note E_, 2
		note A_, 4
Music_UnovaBattle1_branch_6:
		octave 3
		octave 4
		note E_, 2
		octave 3
		octave 4
		note E_, 2
		note A#, 4
		octave 3
		octave 4
		note E_, 2
		octave 3
		octave 4
		note E_, 2
		note B_, 16
Music_UnovaBattle1_branch_7:
		note B_, 16
Music_UnovaBattle1_branch_8:
		note B_, 4
Music_UnovaBattle1_branch_9:
		note F_, 2
		note F_, 2
		note G#, 4
		note F_, 2
		note F_, 2
		note A#, 4
Music_UnovaBattle1_branch_10:
		note F_, 2
		note F_, 2
		note B_, 4
		note F_, 2
		note F_, 2
		octave 5
		note C_, 16
Music_UnovaBattle1_branch_11:
		note C_, 16
Music_UnovaBattle1_branch_12:
		note C_, 16
Music_UnovaBattle1_branch_13:
		note C_, 4
Music_UnovaBattle1_branch_14:
		octave 4
		note F_, 2
		note F#, 10
		octave 3
		octave 4
		octave 3
		octave 4
		octave 3
		octave 4
		octave 3
		note A_, 1
		note F_, 1
		octave 4
		note C_, 16
Music_UnovaBattle1_branch_15:
		note C_, 16
Music_UnovaBattle1_branch_16:
		note C_, 16
Music_UnovaBattle1_branch_17:
		octave 3
		octave 4
		note D_, 2
Music_UnovaBattle1_branch_18:
		octave 3
		octave 4
		note D#, 10
		octave 3
		octave 4
		octave 3
		octave 4
		octave 3
		note F_, 1
		note G_, 1
		octave 4
		note C#, 6
Music_UnovaBattle1_branch_19:
		note C_, 2
		octave 3
		note G#, 6
		note G_, 2
		note F_, 6
Music_UnovaBattle1_branch_20:
		note G_, 2
		note G#, 6
		note A#, 2
		octave 4
		note C_, 14
Music_UnovaBattle1_branch_21:
		note C#, 2
		octave 3
		note A#, 2
		octave 4
		note D#, 4
Music_UnovaBattle1_branch_22:
		octave 3
		octave 4
		note D#, 2
		octave 3
		octave 4
		note D#, 1
		octave 3
		octave 4
		note D_, 1
		octave 3
		octave 4
		note D#, 4
		octave 3
		octave 4
		note D#, 2
		note F_, 6
Music_UnovaBattle1_branch_23:
		note D#, 2
		note C#, 6
		note C_, 2
		octave 3
		note A#, 6
Music_UnovaBattle1_branch_24:
		note G#, 2
		note F_, 6
		note G#, 2
		octave 2
		octave 3
		note G_, 2
		octave 2
		octave 3
		note G_, 4
Music_UnovaBattle1_branch_25:
		note A#, 2
		octave 4
		note D#, 1
		octave 3
		octave 4
		octave 3
		octave 4
		octave 3
		note A_, 6
		octave 4
		note D#, 2
		octave 3
		octave 4
		note D#, 4
Music_UnovaBattle1_branch_26:
		octave 3
		octave 4
		note D#, 2
		octave 3
		octave 4
		note D#, 1
		octave 3
		octave 4
		note D_, 1
		octave 3
		octave 4
		note D#, 2
		octave 3
		octave 4
		note D#, 2
		octave 3
		octave 4
		note C#, 2
		octave 3
		note A#, 2
		note A#, 8
Music_UnovaBattle1_branch_27:
		note A#, 2
		note A#, 6
		octave 4
		note E_, 2
		octave 3
		octave 4
		note E_, 4
Music_UnovaBattle1_branch_28:
		octave 3
		octave 4
		note D#, 2
		octave 3
		octave 4
		note D#, 2
		octave 3
		octave 4
		note C#, 1
		octave 3
		octave 4
		note D#, 1
		octave 3
		octave 4
		note D#, 1
		octave 3
		octave 4
		note D#, 1
		octave 2
		octave 3
		note C#, 16
Music_UnovaBattle1_branch_29:
		note C#, 8
Music_UnovaBattle1_branch_30:
		octave 4
		note C#, 16
Music_UnovaBattle1_branch_31:
		note C#, 16
Music_UnovaBattle1_branch_32:
		note C#, 8
		octave 3
		note D#, 2
		octave 4
		note D#, 2
		octave 3
		octave 4
		note D#, 2
Music_UnovaBattle1_branch_33:
		octave 3
		note D#, 2
		octave 4
		note E_, 2
		octave 3
		octave 4
		note E_, 2
		octave 3
		note D#, 2
		octave 4
		note F#, 2
		note F#, 2
		octave 3
		note D#, 2
		octave 4
		note G_, 2
Music_UnovaBattle1_branch_34:
		note G_, 16
Music_UnovaBattle1_branch_35:
		note G_, 16
Music_UnovaBattle1_branch_36:
		note G_, 16
Music_UnovaBattle1_branch_37:
		note G_, 16
Music_UnovaBattle1_branch_38:
		note G_, 10
		octave 3
		note G_, 8
Music_UnovaBattle1_branch_39:
		octave 2
		note G_, 4
		note G#, 4
		note A#, 8
Music_UnovaBattle1_branch_40:
		note G_, 8
		octave 3
		note E_, 8
Music_UnovaBattle1_branch_41:
		octave 2
		note G#, 4
		note A#, 4
		note B_, 8
Music_UnovaBattle1_branch_42:
		note G#, 4
		octave 3
		note E_, 4
		note D#, 8
Music_UnovaBattle1_branch_43:
		octave 2
		note A#, 12
		note G_, 12
Music_UnovaBattle1_branch_44:
		note D#, 8
Music_UnovaBattle1_branch_45:
		note C#, 4
		note D#, 4
		note A#, 8
Music_UnovaBattle1_branch_46:
		note A_, 4
		octave 3
		note D_, 16
Music_UnovaBattle1_branch_47:
		note D_, 16
Music_UnovaBattle1_branch_48:
		note D_, 16
Music_UnovaBattle1_branch_49:
		note D_, 16
Music_UnovaBattle1_branch_50:
		note D_, 16
Music_UnovaBattle1_branch_51:
		note D_, 16
Music_UnovaBattle1_branch_52:
		note D_, 16
Music_UnovaBattle1_branch_53:
		note D_, 16
Music_UnovaBattle1_branch_54:
		note D_, 16
Music_UnovaBattle1_branch_55:
		note D_, 16
Music_UnovaBattle1_branch_56:
		note D_, 16
Music_UnovaBattle1_branch_57:
		note D_, 16
Music_UnovaBattle1_branch_58:
		note D_, 16
Music_UnovaBattle1_branch_59:
		note D_, 16
Music_UnovaBattle1_branch_60:
		note D_, 16
Music_UnovaBattle1_branch_61:
		note D_, 16
Music_UnovaBattle1_branch_62:
		note D_, 4
		octave 2
		note E_, 6
Music_UnovaBattle1_branch_63:
		note G_, 6
		note A_, 4
		octave 3
		note C_, 1
		note C#, 13
Music_UnovaBattle1_branch_64:
		octave 1
		note G#, 1
		note G_, 1
		note F#, 2
		note F#, 2
		octave 2
		note C#, 4
Music_UnovaBattle1_branch_65:
		octave 1
		note F#, 2
		note F#, 2
		octave 2
		note D_, 4
		octave 1
		note F#, 2
		note F#, 2
		octave 2
		note C#, 4
Music_UnovaBattle1_branch_66:
		octave 1
		note F#, 2
		note F#, 2
		note F_, 4
		note F#, 2
		note F#, 2
		octave 2
		note D#, 4
Music_UnovaBattle1_branch_67:
		octave 1
		note F#, 2
		note F#, 2
		octave 2
		note E_, 4
		octave 1
		note F#, 2
		note F#, 2
		octave 2
		note D#, 4
Music_UnovaBattle1_branch_68:
		octave 1
		note F#, 2
		note F#, 2
		note G#, 2
		note D#, 16
Music_UnovaBattle1_branch_69:
		note D#, 16
Music_UnovaBattle1_branch_70:
		note D#, 16
Music_UnovaBattle1_branch_71:
		note D#, 16
Music_UnovaBattle1_branch_72:
		note D#, 16
Music_UnovaBattle1_branch_73:
		note D#, 16
Music_UnovaBattle1_branch_74:
		note D#, 16
Music_UnovaBattle1_branch_75:
		note D#, 10
Music_UnovaBattle1_branch_76:
		octave 3
		note C#, 3
		note C#, 1
		note C#, 1
		note C#, 1
		note C#, 1
		note C#, 16
Music_UnovaBattle1_branch_77:
		note C#, 16
Music_UnovaBattle1_branch_78:
		note C#, 16
Music_UnovaBattle1_branch_79:
		note C#, 12
Music_UnovaBattle1_branch_80:
		note A#, 1
		octave 4
		note C_, 1
		octave 3
		octave 4
		note D_, 1
		octave 3
		octave 4
		note E_, 2
		dutycycle 3
		octave 5
		note E_, 1
		octave 4
		note B_, 1
		octave 5
		note E_, 1
		note B_, 1
		note E_, 1
Music_UnovaBattle1_branch_81:
		octave 4
		note B_, 1
		octave 5
		note E_, 1
		note B_, 1
		note E_, 1
		octave 4
		note B_, 1
		octave 5
		note E_, 1
		note B_, 1
		note E_, 1
		octave 4
		note B_, 1
		octave 5
		note E_, 1
		note B_, 1
		note E_, 1
		octave 4
		note B_, 1
		octave 5
		note E_, 1
		note B_, 1
		note E_, 1
Music_UnovaBattle1_branch_82:
		octave 4
		note B_, 1
		octave 5
		note E_, 1
		note B_, 1
		note E_, 1
		octave 4
		note B_, 1
		octave 5
		note E_, 1
		note B_, 1
		note E_, 1
		octave 4
		note B_, 1
		octave 5
		note E_, 1
		note B_, 1
		octave 4
		octave 5
		note E_, 12
Music_UnovaBattle1_branch_83:
		octave 4
		octave 3
		octave 4
		note E_, 16
Music_UnovaBattle1_branch_84:
		note E_, 16
Music_UnovaBattle1_branch_85:
		note E_, 16
Music_UnovaBattle1_branch_86:
		octave 5
		note F_, 12
Music_UnovaBattle1_branch_87:
		octave 4
		note F_, 16
Music_UnovaBattle1_branch_88:
		note F_, 16
Music_UnovaBattle1_branch_89:
		note F_, 12
		octave 3
		note A#, 1
Music_UnovaBattle1_branch_90:
		octave 4
		note C_, 1
		octave 3
		octave 4
		note D_, 1
		octave 3
		octave 4
		note E_, 1
		octave 3
		octave 4
		note F_, 16
Music_UnovaBattle1_branch_91:
		octave 3
		octave 4
		note F_, 2
		octave 3
		octave 4
		note C_, 6
		octave 3
		octave 4
		note F_, 4
		octave 5
		note C_, 4
Music_UnovaBattle1_branch_92:
		octave 4
		octave 5
		note C_, 2
		octave 4
		octave 5
		note C#, 16
Music_UnovaBattle1_branch_93:
		note C#, 12
Music_UnovaBattle1_branch_94:
		octave 4
		note C_, 1
		note D#, 1
		octave 3
		octave 4
		note F_, 16
Music_UnovaBattle1_branch_95:
		octave 3
		octave 4
		note F_, 2
		octave 3
		octave 4
		note C_, 6
		octave 3
		octave 4
		note F_, 4
		octave 5
		note C_, 4
Music_UnovaBattle1_branch_96:
		octave 4
		octave 5
		note C_, 2
		octave 3
		octave 4
		note A#, 16
Music_UnovaBattle1_branch_97:
		note A#, 10
		octave 3
		octave 4
		note C#, 1
Music_UnovaBattle1_branch_98:
		octave 3
		octave 4
		note D#, 1
		octave 3
		octave 4
		note F_, 1
		octave 3
		octave 4
		note G_, 1
		octave 3
		octave 4
		note G#, 16
Music_UnovaBattle1_branch_99:
		octave 3
		octave 4
		note F_, 8
		octave 5
		note C_, 4
		octave 3
		octave 4
		note G#, 4
Music_UnovaBattle1_branch_100:
		octave 3
		octave 4
		note G_, 6
		octave 3
		octave 4
		note A#, 16
Music_UnovaBattle1_branch_101:
		note A#, 10
Music_UnovaBattle1_branch_102:
		octave 3
		octave 4
		note G#, 16
Music_UnovaBattle1_branch_103:
		octave 3
		octave 4
		note F_, 8
		octave 5
		note C_, 4
		octave 3
		octave 4
		note G#, 4
Music_UnovaBattle1_branch_104:
		octave 3
		octave 4
		note A#, 6
		octave 5
		note D#, 16
Music_UnovaBattle1_branch_105:
		note D#, 16
Music_UnovaBattle1_branch_106:
		note D#, 16
Music_UnovaBattle1_branch_107:
		note D#, 16
Music_UnovaBattle1_branch_108:
		note D#, 16
Music_UnovaBattle1_branch_109:
		note D#, 10
Music_UnovaBattle1_branch_110:
		octave 3
		note D#, 2
		octave 4
		note D#, 2
		octave 3
		octave 4
		note D#, 2
		octave 3
		note D#, 2
		octave 4
		note E_, 2
		octave 3
		octave 4
		note E_, 2
		octave 3
		note D#, 2
Music_UnovaBattle1_branch_111:
		octave 4
		note F#, 2
		note F#, 2
		octave 3
		note D#, 2
		octave 4
		note G_, 2
		note G_, 4
		octave 3
		note D#, 2
		note C#, 2
Music_UnovaBattle1_branch_112:
		note D#, 2
		note D#, 2
		octave 4
		note D#, 2
		octave 3
		octave 4
		note D#, 2
		octave 3
		note D#, 2
		octave 4
		note E_, 2
		octave 3
		octave 4
		note E_, 2
		octave 3
		note D#, 2
Music_UnovaBattle1_branch_113:
		octave 4
		note F#, 2
		note F#, 2
		octave 3
		note D#, 2
		octave 4
		note G_, 2
		note G_, 10
Music_UnovaBattle1_branch_114:
		octave 3
		note E_, 2
		octave 4
		note E_, 2
		octave 3
		octave 4
		note E_, 2
		octave 3
		note E_, 2
		octave 4
		note F_, 2
		note F_, 2
		octave 3
		note E_, 2
Music_UnovaBattle1_branch_115:
		octave 4
		note G_, 2
		note G_, 2
		octave 3
		note E_, 2
		octave 4
		note G#, 2
		note G#, 2
		note G#, 2
		octave 3
		note E_, 2
		note C#, 2
Music_UnovaBattle1_branch_116:
		note E_, 2
		note D#, 2
		octave 4
		note D#, 2
		octave 3
		octave 4
		note D_, 2
		octave 3
		note D#, 2
		octave 4
		note F_, 2
		octave 3
		octave 4
		note E_, 2
		octave 3
		note D#, 2
Music_UnovaBattle1_branch_117:
		octave 4
		note F#, 2
		note F_, 2
		octave 3
		note A#, 2
		octave 4
		note F#, 2
		note G_, 2
		octave 3
		note D#, 8
Music_UnovaBattle1_branch_118:
		octave 2
		note G_, 6
		note A#, 16
Music_UnovaBattle1_branch_119:
		note A#, 2
		octave 3
		note C#, 8
Music_UnovaBattle1_branch_120:
		octave 2
		note B_, 12
		note A#, 4
Music_UnovaBattle1_branch_121:
		note G#, 12
		note G_, 4
Music_UnovaBattle1_branch_122:
		note G#, 4
		note A#, 16
Music_UnovaBattle1_branch_123:
		note A#, 4
		octave 3
		note C#, 4
		note D_, 4
Music_UnovaBattle1_branch_124:
		note D#, 16
Music_UnovaBattle1_branch_125:
		note D#, 8
		note D_, 8
Music_UnovaBattle1_branch_126:
		octave 4
		note C#, 2
		octave 3
		octave 4
		note C_, 2
		octave 3
		octave 4
		note C#, 2
		octave 3
		octave 4
		note F_, 10
Music_UnovaBattle1_branch_127:
		octave 3
		octave 4
		note C#, 8
		octave 2
		octave 3
		note G#, 2
		octave 4
		note C#, 2
		octave 3
		octave 4
		note G#, 2
Music_UnovaBattle1_branch_128:
		octave 3
		octave 4
		note F_, 2
		octave 3
		octave 4
		note D#, 6
		octave 2
		octave 3
		note A#, 10
Music_UnovaBattle1_branch_129:
		octave 4
		note G_, 2
		octave 3
		octave 4
		note F_, 2
		octave 3
		octave 4
		note G_, 2
		octave 3
		octave 4
		note A#, 10
Music_UnovaBattle1_branch_130:
		octave 3
		octave 4
		note C#, 6
		octave 3
		octave 4
		note F_, 6
		octave 3
		octave 4
		note C#, 4
Music_UnovaBattle1_branch_131:
		octave 2
		octave 3
		note G#, 6
		octave 2
		note C#, 2
		octave 3
		note G#, 2
		octave 4
		note C#, 2
		octave 3
		octave 4
		note G#, 2
Music_UnovaBattle1_branch_132:
		octave 3
		octave 4
		note F_, 2
		octave 3
		octave 4
		note D#, 6
		octave 2
		octave 3
		note A#, 6
		octave 4
		note D#, 4
Music_UnovaBattle1_branch_133:
		octave 3
		octave 4
		note G_, 2
		octave 3
		octave 4
		note F_, 2
		octave 3
		octave 4
		note G_, 6
		octave 3
		octave 4
		note A#, 6
Music_UnovaBattle1_branch_134:
		octave 3
		octave 4
		note F_, 6
		octave 3
		octave 4
		note C_, 6
		octave 3
		octave 4
		note F_, 4
Music_UnovaBattle1_branch_135:
		octave 3
		octave 4
		note A_, 16
Music_UnovaBattle1_branch_136:
		octave 3
		octave 4
		note G_, 6
		octave 3
		octave 4
		note D_, 6
		octave 3
		octave 4
		note G_, 4
Music_UnovaBattle1_branch_137:
		octave 3
		octave 4
		note G_, 2
		octave 3
		octave 4
		note B_, 14
Music_UnovaBattle1_branch_138:
		octave 3
		octave 4
		note A_, 6
		octave 3
		octave 4
		note E_, 6
		octave 3
		octave 4
		note A_, 4
Music_UnovaBattle1_branch_139:
		octave 5
		note C#, 16
Music_UnovaBattle1_branch_140:
		octave 3
		octave 4
		note E_, 2
		octave 3
		octave 4
		note E_, 4
		octave 3
		octave 4
		note C#, 6
		octave 3
		octave 4
		note E_, 4
Music_UnovaBattle1_branch_141:
		octave 3
		octave 4
		note A_, 16
Music_UnovaBattle1_branch_142:
		octave 3
		note E_, 6
		note G_, 6
		note A_, 4
Music_UnovaBattle1_branch_143:
		octave 4
		note C#, 6
		octave 3
		octave 4
		note A_, 6
		note A_, 1
Music_UnovaBattle1_branch_144:
		note A#, 1
		note B_, 1
		octave 5
		note C_, 1
		octave 4
		octave 5
		note C#, 2
		octave 4
		octave 5
		note C#, 2
		octave 4
		octave 5
		note D_, 4
		octave 4
		octave 5
		note C#, 2
		octave 4
		octave 5
		note C#, 2
		octave 4
		octave 5
		note E_, 4
Music_UnovaBattle1_branch_145:
		octave 4
		octave 5
		note C#, 2
		octave 4
		octave 5
		note C#, 2
		octave 4
		octave 5
		note F#, 4
		octave 4
		octave 5
		note C#, 2
		octave 4
		octave 5
		note C#, 2
		note G_, 4
Music_UnovaBattle1_branch_146:
		octave 4
		octave 5
		note D#, 2
		octave 4
		octave 5
		note D#, 2
		octave 4
		octave 5
		note E_, 4
		octave 4
		octave 5
		note D#, 2
		octave 4
		octave 5
		note D#, 2
		octave 4
		octave 5
		note F#, 4
Music_UnovaBattle1_branch_147:
		octave 4
		octave 5
		note D#, 2
		octave 4
		octave 5
		note D#, 2
		note G#, 4
		octave 4
		octave 5
		note D#, 2
		octave 4
		octave 5
		note D#, 2
		note G#, 2
Music_UnovaBattle1_branch_148:
		note A_, 2
		octave 4
		note G#, 2
		octave 3
		octave 2
		note G#, 14
Music_UnovaBattle1_branch_149:
		octave 1
		octave 2
		octave 3
		note G#, 16
Music_UnovaBattle1_branch_150:
		octave 2
		octave 3
		octave 4
		note A_, 16
Music_UnovaBattle1_branch_151:
		octave 1
		octave 2
		octave 3
		octave 4
		octave 5
		note C#, 6
		octave 4
		note B_, 6
		note A_, 4
Music_UnovaBattle1_branch_152:
		octave 2
		octave 3
		octave 4
		note B_, 16
Music_UnovaBattle1_branch_153:
		octave 1
		octave 2
		octave 3
		note B_, 16
Music_UnovaBattle1_branch_154:
		octave 2
		octave 4
		note B_, 2
		octave 3
		octave 4
		octave 5
		note C#, 12
Music_UnovaBattle1_branch_155:
		note F_, 1
		note D#, 1
		octave 2
		octave 3
		octave 5
		note G#, 3
		note G#, 3
		note G#, 1
		note G#, 1
		octave 3
		octave 4
		octave 5
		note C#, 3
		octave 3
		octave 4
		octave 5
		note C#, 1
		octave 3
		octave 4
		octave 5
		note C#, 1
Music_UnovaBattle1_branch_156:
		octave 3
		octave 4
		octave 5
		note C#, 1
		octave 3
		octave 4
		octave 5
		note C#, 1
		octave 3
		octave 4
		octave 5
		note C#, 2
		octave 2
		note F_, 2
		note F#, 4
		note F_, 2
		note F_, 2
		note G#, 4
Music_UnovaBattle1_branch_157:
		note F_, 2
		note F_, 2
		note A#, 4
		note F_, 2
		note F_, 2
		note B_, 4
Music_UnovaBattle1_branch_158:
		note F_, 2
		note F_, 2
		note F#, 4
		note F_, 2
		note F_, 2
		note G#, 4
Music_UnovaBattle1_branch_159:
		note F_, 2
		note F_, 2
		note A#, 4
		note F_, 2
		note F_, 2
		note B_, 5
Music_UnovaBattle1_branch_160:
		dutycycle 6
		octave 4
		note G#, 1
		note G_, 1
		note F#, 1
		note G_, 1
		note F#, 1
		note F_, 1
		note F#, 1
		note F_, 1
		note E_, 1
		note F_, 1
		note E_, 1
		octave 3
		octave 4
		note D#, 1
		note E_, 1
Music_UnovaBattle1_branch_161:
		octave 3
		octave 4
		note D#, 1
		octave 3
		octave 4
		note D_, 1
		octave 3
		octave 4
		note D#, 1
		octave 3
		octave 4
		note D_, 1
		octave 3
		octave 4
		note C#, 1
		octave 3
		octave 4
		note D_, 1
		octave 3
		octave 4
		note C#, 1
		octave 3
		octave 4
		note C_, 1
		octave 3
		octave 4
		note C#, 1
		octave 3
		octave 4
		note C_, 1
		octave 3
		note B_, 1
		octave 4
		note C_, 1
		octave 3
		note B_, 1
		note A#, 1
		note B_, 1
		note A#, 1
Music_UnovaBattle1_branch_162:
		note B_, 1
		note A#, 1
		note A_, 1
		octave 4
		note G#, 12
		octave 3
		note G#, 16
Music_UnovaBattle1_branch_163:
		octave 2
		octave 3
		note B_, 2
Music_UnovaBattle1_branch_164:
		note B_, 2
		octave 4
		note D_, 4
		octave 3
		note B_, 2
		note B_, 2
		octave 4
		note E_, 4
		octave 3
		note B_, 2
Music_UnovaBattle1_branch_165:
		note B_, 2
		octave 4
		note F_, 4
		octave 3
		note B_, 2
		note B_, 2
		octave 4
		note E_, 1
		octave 3
		octave 4
		note F_, 1
		octave 3
		octave 4
		note G_, 1
		octave 3
		octave 4
		note G#, 1
		note A_, 12
Music_UnovaBattle1_branch_166:
		octave 3
		note A_, 16
Music_UnovaBattle1_branch_167:
		octave 4
		note C_, 2
		note C_, 2
		note D#, 4
Music_UnovaBattle1_branch_168:
		note C_, 2
		note C_, 2
		note F_, 4
		note C_, 2
		note C_, 2
		note F#, 4
Music_UnovaBattle1_branch_169:
		note C_, 2
		note C_, 2
		note F_, 4
		note C_, 16
Music_UnovaBattle1_branch_170:
		note C_, 2
		octave 3
		note F_, 6
Music_UnovaBattle1_branch_171:
		octave 4
		note C_, 4
		note F_, 4
		note F_, 2
		note F#, 4
Music_UnovaBattle1_branch_172:
		note A#, 1
		note G#, 1
		note F#, 6
		note F#, 1
		note F_, 1
		note D#, 8
Music_UnovaBattle1_branch_173:
		octave 3
		note A#, 2
		octave 4
		note C_, 4
		note G#, 2
		note C_, 16
Music_UnovaBattle1_branch_174:
		note C_, 2
		octave 3
		note F_, 6
Music_UnovaBattle1_branch_175:
		octave 4
		note C_, 4
		note F_, 4
		note F_, 2
		note D#, 4
Music_UnovaBattle1_branch_176:
		note G_, 1
		note F_, 1
		note D#, 6
		note D#, 1
		note D_, 1
		note C_, 8
Music_UnovaBattle1_branch_177:
		octave 3
		note A#, 2
		octave 4
		note C_, 6
		note C#, 6
Music_UnovaBattle1_branch_178:
		octave 3
		note G#, 1
		octave 4
		note C_, 1
		note F_, 6
		note F_, 1
		note D#, 1
		note C#, 8
Music_UnovaBattle1_branch_179:
		note F_, 4
		note C#, 4
		note D#, 2
		note F_, 2
		note C#, 2
Music_UnovaBattle1_branch_180:
		note D#, 2
		note F_, 2
		note G_, 2
		note G#, 2
		note F_, 2
		note D#, 6
Music_UnovaBattle1_branch_181:
		note D_, 2
		note G_, 6
		note D#, 2
		note C#, 6
Music_UnovaBattle1_branch_182:
		octave 3
		note G#, 1
		octave 4
		note C#, 1
		note F_, 6
		note F_, 1
		note D#, 1
		note C#, 8
Music_UnovaBattle1_branch_183:
		note F_, 4
		note C#, 4
		note D#, 2
		note G_, 2
		note D_, 2
Music_UnovaBattle1_branch_184:
		note D#, 2
		note F_, 6
		note G#, 2
		note G_, 6
Music_UnovaBattle1_branch_185:
		note A#, 2
		note G_, 1
		note F_, 1
		note D#, 1
		note C#, 1
		octave 3
		note B_, 1
		note A#, 1
		note F_, 2
		octave 4
		octave 5
		octave 4
		octave 5
		octave 4
		octave 5
		note D#, 5
Music_UnovaBattle1_branch_186:
		octave 3
		octave 4
		octave 5
		note E_, 10
		octave 3
		octave 4
		octave 5
		note C#, 8
Music_UnovaBattle1_branch_187:
		octave 2
		octave 3
		octave 4
		note A#, 2
		octave 3
		octave 4
		octave 5
		note C#, 2
		octave 3
		octave 4
		octave 5
		octave 3
		octave 4
		octave 5
		octave 3
		octave 4
		octave 5
		note G#, 1
		octave 3
		octave 4
		octave 5
		note E_, 2
		octave 3
		octave 4
		octave 5
		note D#, 6
		octave 2
		octave 3
		octave 4
		note A#, 10
Music_UnovaBattle1_branch_188:
		octave 2
		octave 3
		octave 4
		note G_, 8
Music_UnovaBattle1_branch_189:
		octave 2
		octave 3
		octave 4
		octave 5
		note D#, 2
		octave 2
		octave 3
		octave 4
		octave 5
		note A#, 2
		octave 3
		octave 4
		octave 5
		note G_, 1
		octave 3
		octave 4
		octave 5
		note G#, 1
		octave 3
		octave 4
		octave 5
		note E_, 2
		octave 3
		octave 4
		octave 5
		note D#, 16
Music_UnovaBattle1_branch_190:
		note D#, 16
Music_UnovaBattle1_branch_191:
		note D#, 16
Music_UnovaBattle1_branch_192:
		note D#, 8
Music_UnovaBattle1_branch_193:
		octave 2
		octave 3
		octave 4
		note D#, 2
		octave 2
		octave 3
		octave 4
		note B_, 2
		octave 3
		octave 4
		octave 5
		octave 3
		octave 4
		octave 5
		octave 3
		octave 4
		octave 5
		note G#, 1
		octave 3
		octave 4
		octave 5
		note F_, 2
		octave 3
		octave 4
		octave 5
		note E_, 16
Music_UnovaBattle1_branch_194:
		note E_, 8
Music_UnovaBattle1_branch_195:
		octave 2
		octave 3
		note G#, 2
		octave 4
		note C#, 2
		octave 3
		octave 4
		note G#, 2
		octave 3
		octave 4
		note E_, 2
		octave 3
		octave 4
		note D#, 6
		octave 2
		octave 3
		note A#, 10
Music_UnovaBattle1_branch_196:
		octave 2
		octave 3
		note G_, 8
Music_UnovaBattle1_branch_197:
		octave 2
		octave 3
		note D#, 2
		octave 2
		octave 3
		note A#, 2
		octave 4
		note G_, 2
		octave 3
		octave 4
		note F_, 2
		octave 3
		octave 4
		note D#, 16
Music_UnovaBattle1_branch_198:
		note D#, 8
Music_UnovaBattle1_branch_199:
		octave 2
		octave 3
		note G_, 2
		octave 2
		octave 3
		note A#, 2
		octave 4
		note G_, 2
		octave 3
		octave 4
		note D#, 2
		octave 3
		octave 4
		note E_, 14
Music_UnovaBattle1_branch_200:
		octave 3
		octave 4
		note D#, 1
		octave 3
		octave 4
		note D_, 1
		octave 3
		octave 4
		note C#, 12
Music_UnovaBattle1_branch_201:
		octave 3
		octave 4
		note E_, 4
		octave 3
		octave 4
		note D#, 16
Music_UnovaBattle1_branch_202:
		note D#, 8
Music_UnovaBattle1_branch_203:
		octave 2
		octave 3
		note A#, 2
		octave 4
		note D#, 2
		octave 3
		octave 4
		note G#, 2
		octave 3
		octave 4
		note F_, 2
		octave 3
		octave 4
		note G_, 14
Music_UnovaBattle1_branch_204:
		octave 3
		octave 4
		note G#, 2
		octave 3
		octave 4
		note A#, 12
Music_UnovaBattle1_branch_205:
		note D_, 4
		octave 3
		octave 4
		note C#, 16
Music_UnovaBattle1_branch_206:
		octave 3
		octave 4
		note C#, 2
		octave 2
		octave 3
		note G#, 6
Music_UnovaBattle1_branch_207:
		octave 4
		note C#, 4
		octave 3
		octave 4
		note G#, 4
		octave 3
		octave 4
		note G#, 2
		octave 3
		octave 4
		note G_, 14
Music_UnovaBattle1_branch_208:
		octave 3
		octave 4
		note F_, 2
		octave 3
		octave 4
		note G_, 14
Music_UnovaBattle1_branch_209:
		octave 3
		octave 4
		note C#, 16
Music_UnovaBattle1_branch_210:
		octave 3
		octave 4
		note C#, 2
		octave 2
		octave 3
		note G#, 6
Music_UnovaBattle1_branch_211:
		octave 4
		note C#, 4
		octave 3
		octave 4
		note G#, 4
		octave 3
		octave 4
		note G#, 2
		octave 3
		octave 4
		note A#, 14
Music_UnovaBattle1_branch_212:
		octave 3
		octave 4
		note A#, 2
		octave 3
		octave 4
		note G_, 14
Music_UnovaBattle1_branch_213:
		octave 3
		octave 4
		note D#, 2
		octave 3
		octave 4
		note F_, 14
Music_UnovaBattle1_branch_214:
		octave 3
		octave 4
		note F_, 2
		octave 3
		octave 4
		note C_, 14
Music_UnovaBattle1_branch_215:
		octave 3
		octave 4
		note F_, 2
		octave 3
		octave 4
		note G_, 14
Music_UnovaBattle1_branch_216:
		octave 3
		octave 4
		note D_, 8
Music_UnovaBattle1_branch_217:
		octave 3
		octave 4
		note G_, 8
		octave 3
		octave 4
		note D_, 2
		octave 3
		octave 4
		note E_, 14
Music_UnovaBattle1_branch_218:
		octave 3
		octave 4
		note G_, 2
		octave 3
		octave 4
		note A_, 14
Music_UnovaBattle1_branch_219:
		octave 2
		octave 3
		note C#, 2
		octave 2
		octave 3
		note C#, 4
		octave 2
		note A_, 6
Music_UnovaBattle1_branch_220:
		octave 3
		note C#, 4
		octave 2
		note A_, 16
Music_UnovaBattle1_branch_221:
		octave 3
		octave 4
		note G_, 6
		octave 3
		octave 4
		note A#, 6
Music_UnovaBattle1_branch_222:
		octave 5
		note C_, 4
		octave 4
		octave 5
		note C#, 16
Music_UnovaBattle1_branch_223:
		octave 2
		note F#, 2
		note F#, 2
		note G_, 4
Music_UnovaBattle1_branch_224:
		note F#, 2
		note F#, 2
		note A_, 4
		note F#, 2
		note F#, 2
		note B_, 4
Music_UnovaBattle1_branch_225:
		note F#, 2
		note F#, 2
		octave 3
		note C_, 4
		octave 2
		note G#, 2
		note G#, 2
		note A_, 4
Music_UnovaBattle1_branch_226:
		note G#, 2
		note G#, 2
		note B_, 4
		note G#, 2
		note G#, 2
		octave 3
		note C#, 4
Music_UnovaBattle1_branch_227:
		octave 2
		note G#, 2
		note G#, 2
		octave 3
		note C#, 2
		note D_, 2
		note C#, 16
Music_UnovaBattle1_branch_228:
		note C#, 16
Music_UnovaBattle1_branch_229:
		note C#, 16
Music_UnovaBattle1_branch_230:
		note C#, 16
Music_UnovaBattle1_branch_231:
		note B_, 16
Music_UnovaBattle1_branch_232:
		note F#, 16
Music_UnovaBattle1_branch_233:
		note B_, 2
		octave 4
		note C#, 14
Music_UnovaBattle1_branch_234:
		octave 2
		octave 3
		note G#, 3
		octave 2
		octave 3
		note G#, 1
		octave 2
		octave 3
		note G#, 1
		octave 2
		octave 3
		note G#, 1
		octave 2
		octave 3
		note G#, 1
		octave 4
		note C#, 3
Music_UnovaBattle1_branch_235:
		note C#, 1
		note C#, 1
		note C#, 1
		note C#, 1
		note C#, 4
		octave 2
		note C#, 4
		note C_, 2
Music_UnovaBattle1_branch_236:
		note C_, 2
		note D#, 4
		note C_, 2
		note C_, 2
		note F_, 4
		note C_, 2
Music_UnovaBattle1_branch_237:
		note C_, 2
		note F_, 4
		note C_, 2
		note C_, 2
		note C#, 4
		note C_, 2
Music_UnovaBattle1_branch_238:
		note C_, 2
		note D#, 4
		note C_, 2
		note C_, 2
		note F_, 4
		note C_, 2
Music_UnovaBattle1_branch_239:
		note C_, 2
		endchannel

; ===========================================================================
Music_UnovaBattle_Ch2:
		dutycycle 1
		notetype 12, $B8
Music_UnovaBattle2_branch_1:
		octave 1
		dutycycle 0
		note E_, 4
		note E_, 4
		note E_, 4
		note E_, 4
Music_UnovaBattle2_branch_2:
		note E_, 4
		note E_, 4
		note E_, 4
		note E_, 4
Music_UnovaBattle2_branch_3:
		note E_, 2
		note B_, 2
		octave 2
		note E_, 2
		octave 1
		note B_, 2
		octave 2
		note F_, 2
		note F_, 2
		octave 1
		note E_, 2
		note A_, 2
Music_UnovaBattle2_branch_4:
		octave 2
		note G_, 2
		octave 1
		note E_, 2
		octave 2
		note G#, 2
		note D_, 2
		octave 1
		note E_, 1
		note G#, 1
		note B_, 2
		octave 2
		note E_, 2
		note F_, 2
Music_UnovaBattle2_branch_5:
		octave 1
		note E_, 2
		note B_, 2
		octave 2
		note E_, 2
		octave 1
		note B_, 2
		octave 2
		note F_, 2
		note F_, 2
		octave 1
		note E_, 2
		note A#, 2
Music_UnovaBattle2_branch_6:
		octave 2
		note G_, 2
		octave 1
		note E_, 2
		octave 2
		note G#, 2
		note D_, 2
		octave 1
		note E_, 2
		note B_, 2
		octave 2
		note E_, 2
		note F_, 1
		note G_, 1
Music_UnovaBattle2_branch_7:
		octave 1
		note F_, 2
		octave 2
		note C_, 2
		note F_, 2
		note C_, 2
		note F#, 2
		note F#, 2
		octave 1
		note F_, 2
		note A#, 2
Music_UnovaBattle2_branch_8:
		octave 2
		note G#, 2
		octave 1
		note F_, 2
		octave 2
		note A_, 2
		note D#, 2
		octave 1
		note F_, 1
		note B_, 1
		octave 2
		note C_, 2
		note F_, 2
		note F#, 2
Music_UnovaBattle2_branch_9:
		octave 1
		note F_, 2
		octave 2
		note C_, 2
		note F_, 2
		note C_, 2
		note F#, 2
		note F#, 2
		octave 1
		note F_, 2
		note A#, 2
Music_UnovaBattle2_branch_10:
		octave 2
		note G#, 2
		octave 1
		note F_, 2
		octave 2
		note A_, 2
		note D#, 2
		octave 1
		note F_, 2
		octave 2
		note D_, 2
		note D#, 2
		note E_, 2
Music_UnovaBattle2_branch_11:
		octave 1
		note F_, 2
		octave 2
		note F_, 2
		octave 1
		note F_, 2
		octave 2
		note F_, 2
		octave 1
		note F_, 2
		octave 2
		note F_, 2
		octave 1
		note F_, 2
		octave 2
		note F_, 2
Music_UnovaBattle2_branch_12:
		octave 1
		note F_, 2
		octave 2
		note F_, 2
		octave 1
		note F_, 2
		octave 2
		note F_, 2
		octave 1
		note F_, 2
		octave 2
		note F_, 2
		octave 1
		note F_, 2
		octave 2
		note F_, 2
Music_UnovaBattle2_branch_13:
		octave 1
		note F#, 2
		octave 2
		note F#, 2
		note A#, 2
		octave 1
		note F#, 2
		octave 3
		note C_, 2
		octave 2
		note A#, 2
		octave 1
		note F#, 2
		octave 2
		note F#, 2
Music_UnovaBattle2_branch_14:
		octave 1
		note F#, 2
		octave 2
		note C#, 2
		note F#, 2
		octave 1
		note F#, 2
		octave 2
		note A#, 2
		octave 3
		note C_, 2
		octave 1
		note C#, 2
		note D#, 2
Music_UnovaBattle2_branch_15:
		note F_, 2
		octave 2
		note F_, 2
		octave 1
		note F_, 2
		octave 2
		note F_, 2
		octave 1
		note F_, 2
		octave 2
		note F_, 2
		octave 1
		note F_, 2
		octave 2
		note F_, 2
Music_UnovaBattle2_branch_16:
		octave 1
		note F_, 2
		octave 2
		note F_, 2
		octave 1
		note F_, 2
		octave 2
		note F_, 2
		octave 1
		note F_, 2
		octave 2
		note F_, 2
		octave 1
		note F_, 2
		octave 2
		note F_, 2
Music_UnovaBattle2_branch_17:
		octave 1
		note D#, 2
		octave 2
		note D#, 2
		note D#, 2
		octave 1
		note D#, 2
		octave 2
		note D#, 2
		note D#, 2
		octave 1
		note D#, 2
		octave 2
		note D#, 2
Music_UnovaBattle2_branch_18:
		octave 1
		note D#, 2
		note A#, 2
		octave 2
		note D#, 2
		octave 1
		note D#, 2
		octave 2
		note A#, 2
		octave 3
		note C_, 2
		octave 2
		note D#, 2
		note D_, 2
Music_UnovaBattle2_branch_19:
		octave 1
		note C#, 2
		octave 2
		note C#, 2
		octave 1
		note C#, 2
		octave 2
		note C#, 2
		octave 1
		note C#, 2
		octave 2
		note C#, 2
		octave 1
		note C#, 2
		octave 2
		note C#, 2
Music_UnovaBattle2_branch_20:
		octave 1
		note C#, 2
		octave 2
		note C#, 2
		octave 1
		note C#, 2
		octave 2
		note C#, 2
		octave 1
		note C#, 2
		octave 2
		note C#, 2
		octave 1
		note D_, 2
		octave 2
		note D_, 2
Music_UnovaBattle2_branch_21:
		octave 1
		note D#, 2
		octave 2
		note D#, 2
		octave 1
		note D#, 2
		octave 2
		note D#, 2
		octave 1
		note D#, 2
		octave 2
		note D#, 2
		octave 1
		note E_, 2
		note F_, 2
Music_UnovaBattle2_branch_22:
		note G_, 2
		octave 2
		note G_, 2
		octave 1
		note F_, 2
		octave 2
		note F_, 2
		octave 1
		note D#, 2
		octave 2
		note D#, 2
		octave 1
		note C#, 2
		octave 2
		note C#, 2
Music_UnovaBattle2_branch_23:
		octave 1
		note C#, 2
		octave 2
		note C#, 2
		octave 1
		note C#, 2
		octave 2
		note C#, 2
		octave 1
		note C#, 2
		octave 2
		note C#, 2
		octave 1
		note C#, 2
		octave 2
		note C#, 2
Music_UnovaBattle2_branch_24:
		octave 1
		note C#, 2
		octave 2
		note C#, 2
		octave 1
		note C#, 2
		octave 2
		note C#, 2
		octave 1
		note C#, 2
		octave 2
		note C#, 2
		octave 1
		note D_, 2
		octave 2
		note D_, 2
Music_UnovaBattle2_branch_25:
		octave 1
		note D#, 4
		note D#, 2
		octave 2
		note D#, 2
		octave 1
		note D#, 2
		octave 2
		note D#, 2
		octave 1
		note D#, 2
		octave 2
		note D#, 2
Music_UnovaBattle2_branch_26:
		octave 1
		note D#, 2
		octave 2
		note D#, 2
		octave 1
		note E_, 2
		octave 2
		note E_, 2
		note G_, 2
		note E_, 2
		note D#, 1
		note E_, 1
		note C#, 2
Music_UnovaBattle2_branch_27:
		octave 1
		note D#, 2
		note A#, 2
		note D#, 2
		note A#, 2
		octave 2
		note E_, 2
		note E_, 2
		octave 1
		note D#, 2
		note G#, 2
Music_UnovaBattle2_branch_28:
		octave 2
		note F#, 2
		octave 1
		note D#, 2
		octave 2
		note G_, 2
		note C#, 2
		octave 1
		note D#, 2
		note A#, 2
		note D#, 2
		note A#, 2
Music_UnovaBattle2_branch_29:
		note D#, 2
		note A#, 2
		note D#, 2
		note A#, 2
		octave 2
		note E_, 2
		note E_, 2
		octave 1
		note D#, 2
		note G#, 2
Music_UnovaBattle2_branch_30:
		octave 2
		note E_, 2
		octave 1
		note D#, 2
		octave 2
		note G_, 2
		note C#, 2
		octave 1
		note D#, 2
		octave 2
		note D#, 2
		octave 1
		note D#, 2
		octave 2
		note G_, 2
Music_UnovaBattle2_branch_31:
		octave 1
		note D#, 2
		octave 2
		note D#, 2
		octave 1
		note D#, 2
		octave 2
		note D#, 2
		octave 1
		note D#, 2
		octave 2
		note D#, 2
		octave 1
		note D#, 2
		octave 2
		note D#, 2
Music_UnovaBattle2_branch_32:
		octave 1
		note D#, 2
		octave 2
		note D#, 2
		octave 1
		note D#, 2
		octave 2
		note D#, 2
		octave 1
		note D#, 2
		octave 2
		note D#, 2
		octave 1
		note D#, 2
		octave 2
		note D#, 2
Music_UnovaBattle2_branch_33:
		octave 1
		note D#, 2
		octave 2
		note D#, 2
		octave 1
		note D#, 2
		octave 2
		note D#, 2
		octave 1
		note D#, 2
		octave 2
		note D#, 2
		octave 1
		note D#, 2
		octave 2
		note D#, 2
Music_UnovaBattle2_branch_34:
		octave 1
		note D#, 2
		octave 2
		note D#, 2
		octave 1
		note D#, 2
		octave 2
		note D#, 2
		octave 1
		note D#, 2
		octave 2
		note D#, 2
		octave 1
		note D#, 2
		octave 2
		note D#, 2
Music_UnovaBattle2_branch_35:
		octave 1
		note E_, 2
		octave 2
		note E_, 2
		octave 1
		note E_, 2
		octave 2
		note E_, 2
		octave 1
		note E_, 2
		octave 2
		note E_, 2
		octave 1
		note E_, 2
		octave 2
		note E_, 2
Music_UnovaBattle2_branch_36:
		octave 1
		note E_, 2
		octave 2
		note E_, 2
		octave 1
		note E_, 2
		octave 2
		note E_, 2
		octave 1
		note E_, 2
		octave 2
		note E_, 2
		octave 1
		note E_, 2
		octave 2
		note E_, 2
Music_UnovaBattle2_branch_37:
		octave 1
		note D#, 2
		octave 2
		note D#, 2
		octave 1
		note D#, 2
		octave 2
		note D#, 2
		octave 1
		note D#, 2
		octave 2
		note D#, 2
		octave 1
		note D#, 2
		octave 2
		note D#, 2
Music_UnovaBattle2_branch_38:
		octave 1
		note D#, 2
		octave 2
		note D#, 2
		octave 1
		note D#, 2
		octave 2
		note D#, 2
		octave 1
		note D#, 2
		octave 2
		note D#, 2
		octave 1
		note D#, 2
		octave 2
		note D#, 2
Music_UnovaBattle2_branch_39:
		octave 1
		note D#, 2
		octave 2
		note D#, 2
		octave 1
		note D#, 2
		octave 2
		note D#, 2
		octave 1
		note D#, 2
		octave 2
		note D#, 2
		octave 1
		note D#, 2
		octave 2
		note D#, 2
Music_UnovaBattle2_branch_40:
		octave 1
		note D#, 2
		octave 2
		note D#, 2
		octave 1
		note D#, 2
		octave 2
		note D#, 2
		octave 1
		note D#, 2
		octave 2
		note D#, 2
		octave 1
		note D#, 2
		octave 2
		note D#, 2
Music_UnovaBattle2_branch_41:
		octave 1
		note E_, 2
		octave 2
		note E_, 2
		octave 1
		note E_, 2
		octave 2
		note E_, 2
		octave 1
		note E_, 2
		octave 2
		note E_, 2
		octave 1
		note E_, 2
		octave 2
		note E_, 2
Music_UnovaBattle2_branch_42:
		octave 1
		note C#, 2
		octave 2
		note C#, 2
		octave 1
		note C#, 2
		octave 2
		note C#, 2
		octave 1
		note C#, 2
		octave 2
		note C#, 2
		octave 1
		note C#, 2
		note D_, 2
Music_UnovaBattle2_branch_43:
		note D#, 2
		octave 2
		note D#, 2
		octave 1
		note D#, 2
		octave 2
		note D#, 2
		octave 1
		note D#, 2
		octave 2
		note D#, 2
		octave 1
		note D#, 2
		octave 2
		note D#, 2
Music_UnovaBattle2_branch_44:
		octave 1
		note D#, 2
		octave 2
		note D#, 2
		octave 1
		note D#, 2
		octave 2
		note D#, 2
		octave 1
		note D#, 2
		octave 2
		note D#, 2
		octave 1
		note D#, 2
		octave 2
		note D#, 2
Music_UnovaBattle2_branch_45:
		octave 1
		note D#, 2
		octave 2
		note D#, 2
		octave 1
		note D#, 2
		octave 2
		note D#, 2
		octave 1
		note D#, 2
		octave 2
		note D#, 2
		octave 1
		note D#, 2
		octave 2
		note D#, 2
Music_UnovaBattle2_branch_46:
		octave 1
		note D#, 2
		octave 2
		note D#, 2
		note D_, 2
		note D#, 2
		octave 1
		note D#, 2
		note G#, 2
		octave 2
		note D_, 4
Music_UnovaBattle2_branch_47:
		octave 1
		note C#, 2
		octave 2
		note C#, 2
		octave 1
		note C#, 2
		octave 2
		note C#, 2
		octave 1
		note C#, 2
		octave 2
		note C#, 2
		octave 1
		note C#, 2
		octave 2
		note C#, 2
Music_UnovaBattle2_branch_48:
		octave 1
		note C#, 2
		octave 2
		note F_, 2
		octave 1
		note C#, 2
		octave 2
		note D#, 2
		octave 1
		note C#, 2
		octave 2
		note C#, 2
		octave 1
		note D_, 2
		octave 2
		note D_, 2
Music_UnovaBattle2_branch_49:
		octave 1
		note D#, 2
		octave 2
		note D#, 2
		octave 1
		note D#, 2
		octave 2
		note D#, 2
		note C#, 2
		note D#, 2
		octave 1
		note D#, 2
		octave 2
		note D#, 2
Music_UnovaBattle2_branch_50:
		octave 1
		note D#, 2
		octave 2
		note G_, 1
		note G_, 1
		octave 1
		note D#, 2
		octave 2
		note F_, 1
		note F_, 1
		note D#, 2
		note C#, 2
		note D#, 2
		octave 1
		note A#, 2
Music_UnovaBattle2_branch_51:
		note C#, 2
		octave 2
		note C#, 2
		octave 1
		note C#, 2
		octave 2
		note C#, 2
		octave 1
		note G#, 2
		octave 2
		note F_, 2
		note C_, 2
		note C#, 2
Music_UnovaBattle2_branch_52:
		octave 1
		note C#, 2
		octave 2
		note F_, 2
		octave 1
		note C#, 2
		octave 2
		note D#, 2
		octave 1
		note C#, 2
		octave 2
		note C#, 2
		octave 1
		note C#, 2
		octave 2
		note D_, 2
Music_UnovaBattle2_branch_53:
		octave 1
		note D#, 2
		octave 2
		note D#, 2
		octave 1
		note D#, 2
		octave 2
		note D#, 2
		note C#, 2
		note D#, 2
		octave 1
		note D#, 2
		octave 2
		note D#, 2
Music_UnovaBattle2_branch_54:
		octave 1
		note D#, 2
		octave 2
		note G_, 1
		note G_, 1
		octave 1
		note D#, 2
		octave 2
		note G_, 1
		note G_, 1
		octave 1
		note D#, 2
		octave 2
		note D#, 2
		octave 1
		note E_, 2
		octave 2
		note E_, 2
Music_UnovaBattle2_branch_55:
		octave 1
		note F_, 2
		octave 2
		note F_, 2
		octave 1
		note F_, 2
		octave 2
		note F_, 2
		octave 1
		note F_, 2
		octave 2
		note C_, 2
		note F_, 2
		note A_, 2
Music_UnovaBattle2_branch_56:
		note F_, 2
		note C_, 2
		note F_, 2
		octave 1
		note F_, 2
		note A_, 2
		note G#, 2
		octave 2
		note C_, 2
		octave 1
		note F_, 2
Music_UnovaBattle2_branch_57:
		note G_, 2
		octave 2
		note G_, 2
		octave 1
		note G_, 2
		octave 2
		note G_, 2
		octave 1
		note G_, 2
		octave 2
		note D_, 2
		note G_, 2
		note B_, 2
Music_UnovaBattle2_branch_58:
		note G_, 2
		note D_, 2
		note G_, 2
		octave 1
		note G_, 2
		octave 2
		note G_, 2
		note D_, 2
		octave 1
		note G_, 2
		note G#, 2
Music_UnovaBattle2_branch_59:
		note A_, 2
		octave 2
		note A_, 2
		octave 1
		note A_, 2
		octave 2
		note A_, 2
		octave 1
		note A_, 2
		octave 2
		note E_, 2
		note A_, 2
		octave 3
		note C#, 2
Music_UnovaBattle2_branch_60:
		octave 2
		note A_, 2
		note E_, 2
		note A_, 2
		octave 1
		note A_, 2
		octave 2
		note A_, 2
		note E_, 2
		octave 1
		note G_, 2
		note G#, 2
Music_UnovaBattle2_branch_61:
		note A_, 2
		octave 2
		note A_, 4
		note A_, 2
		octave 1
		note A_, 2
		octave 2
		note E_, 2
		note A_, 2
		octave 3
		note C#, 2
Music_UnovaBattle2_branch_62:
		octave 2
		note A_, 2
		note G_, 2
		note A_, 2
		octave 1
		note A_, 2
		note A#, 2
		note A_, 2
		note G_, 2
		note A#, 2
Music_UnovaBattle2_branch_63:
		note A_, 2
		octave 2
		note A_, 2
		note A_, 2
		octave 1
		note A_, 2
		octave 2
		note A_, 2
		note E_, 2
		note E_, 2
		note A#, 2
Music_UnovaBattle2_branch_64:
		octave 1
		note A_, 2
		octave 2
		note E_, 2
		note A_, 2
		octave 1
		note C#, 2
		note A_, 2
		note A#, 2
		note A_, 2
		note E_, 2
Music_UnovaBattle2_branch_65:
		note C#, 2
		note A_, 2
		note D_, 2
		note A#, 2
		note C#, 2
		note A_, 2
		note E_, 2
		octave 2
		note C_, 2
Music_UnovaBattle2_branch_66:
		octave 1
		note C#, 2
		note A_, 2
		note F#, 2
		octave 2
		note D_, 2
		octave 1
		note C#, 2
		note A_, 2
		note G_, 2
		octave 2
		note D#, 2
Music_UnovaBattle2_branch_67:
		octave 1
		note D#, 2
		note B_, 2
		note E_, 2
		octave 2
		note C_, 2
		octave 1
		note D#, 2
		note B_, 2
		note F#, 2
		octave 2
		note D_, 2
Music_UnovaBattle2_branch_68:
		octave 1
		note D#, 2
		note B_, 2
		note G#, 2
		octave 2
		note E_, 2
		octave 1
		note D#, 2
		note B_, 2
		note G#, 2
		octave 2
		note D#, 2
Music_UnovaBattle2_branch_69:
		octave 1
		note D#, 1
		note F#, 1
		note G#, 3
		note G#, 1
		note G#, 1
		note G#, 3
		note G#, 3
		note G#, 1
		note G#, 1
		note G#, 1
Music_UnovaBattle2_branch_70:
		note F#, 1
		note G#, 3
		note G#, 1
		note G#, 1
		note G#, 3
		note G#, 3
		note G#, 1
		note G#, 1
		note C#, 1
		note E_, 1
Music_UnovaBattle2_branch_71:
		note A_, 3
		note A_, 1
		note A_, 1
		note E_, 1
		note C#, 1
		note A_, 3
		note A_, 1
		note A_, 1
		note A_, 1
		note G#, 1
		note A_, 3
Music_UnovaBattle2_branch_72:
		note A_, 1
		note A_, 1
		note E_, 1
		note A_, 1
		octave 2
		note C#, 3
		note C#, 1
		note C#, 1
		octave 1
		note B_, 1
		note A_, 1
		note F#, 1
		note B_, 1
		note B_, 1
		note B_, 1
Music_UnovaBattle2_branch_73:
		note B_, 3
		note B_, 3
		note B_, 1
		note B_, 1
		note F#, 1
		note A_, 1
		note B_, 3
		note B_, 1
		note B_, 1
		note B_, 1
Music_UnovaBattle2_branch_74:
		note B_, 1
		note B_, 1
		note B_, 1
		note F#, 1
		note B_, 1
		octave 2
		note C#, 1
		note C#, 1
		note C#, 3
		note C#, 1
		note C#, 1
		octave 1
		note C#, 1
		note C#, 1
		note C#, 3
Music_UnovaBattle2_branch_75:
		note C#, 1
		note C#, 1
		note F_, 1
		note G#, 1
		octave 2
		note C#, 3
		note C#, 1
		note C#, 1
		octave 1
		note C#, 3
		note C#, 1
		note C#, 1
		note C#, 1
Music_UnovaBattle2_branch_76:
		note C#, 1
		note C#, 2
		octave 2
		note C_, 2
		note F_, 2
		note C_, 2
		note F#, 2
		note F#, 2
		octave 1
		note F_, 2
		note A#, 2
Music_UnovaBattle2_branch_77:
		octave 2
		note G#, 2
		octave 1
		note F_, 2
		octave 2
		note A_, 2
		note D#, 2
		octave 1
		note F_, 2
		octave 2
		note C_, 2
		note F_, 2
		note F#, 2
Music_UnovaBattle2_branch_78:
		octave 1
		note F_, 2
		octave 2
		note C_, 2
		note F_, 2
		note C_, 2
		note F#, 2
		note F#, 2
		octave 1
		note F_, 2
		note A#, 2
Music_UnovaBattle2_branch_79:
		octave 2
		note G#, 2
		octave 1
		note F_, 2
		octave 2
		note A_, 2
		note D#, 2
		octave 1
		note F_, 2
		octave 2
		note C_, 2
		note F_, 2
		note F#, 3
Music_UnovaBattle2_branch_80:
		dutycycle 5
		octave 1
		note B_, 3
		octave 2
		note B_, 1
		note C_, 3
		octave 3
		note C_, 1
		octave 2
		note C#, 3
		octave 3
		note C#, 1
		octave 2
		note D_, 3
Music_UnovaBattle2_branch_81:
		octave 3
		note D_, 1
		octave 2
		note D#, 3
		octave 3
		note D#, 1
		octave 2
		note E_, 3
		octave 3
		note E_, 1
		octave 2
		note F_, 3
		octave 3
		note F_, 1
		octave 2
		note F#, 3
Music_UnovaBattle2_branch_82:
		octave 3
		note F#, 1
		octave 2
		note E_, 16
Music_UnovaBattle2_branch_83:
		note E_, 16
Music_UnovaBattle2_branch_84:
		octave 3
		note E_, 2
		note E_, 2
		note G_, 4
		note E_, 2
		note E_, 2
		note A_, 4
Music_UnovaBattle2_branch_85:
		note E_, 2
		note E_, 2
		note A#, 4
		note E_, 2
		note E_, 2
		note B_, 16
Music_UnovaBattle2_branch_86:
		note B_, 16
Music_UnovaBattle2_branch_87:
		note B_, 4
Music_UnovaBattle2_branch_88:
		note F_, 2
		note F_, 2
		note G#, 4
		note F_, 2
		note F_, 2
		note A#, 4
Music_UnovaBattle2_branch_89:
		note F_, 2
		note F_, 2
		note B_, 4
		note F_, 2
		note F_, 2
		octave 4
		note C_, 4
Music_UnovaBattle2_branch_90:
		octave 2
		note A_, 15
Music_UnovaBattle2_branch_91:
		note F_, 2
		note F_, 6
		note A_, 4
		note A_, 4
Music_UnovaBattle2_branch_92:
		note A_, 2
		note F#, 14
Music_UnovaBattle2_branch_93:
		octave 3
		note C#, 2
		octave 2
		note A#, 12
		note A_, 1
Music_UnovaBattle2_branch_94:
		note A#, 1
		octave 3
		note C_, 14
		octave 2
		note B_, 1
Music_UnovaBattle2_branch_95:
		note A#, 1
		note A_, 2
		note F_, 6
		octave 3
		note C_, 4
		note D#, 4
Music_UnovaBattle2_branch_96:
		note D#, 2
		note C#, 14
Music_UnovaBattle2_branch_97:
		octave 2
		note D#, 2
		note G_, 12
		note D#, 1
Music_UnovaBattle2_branch_98:
		note G#, 6
		note C#, 6
		note F_, 4
Music_UnovaBattle2_branch_99:
		note G#, 6
		note F_, 6
		note G#, 4
Music_UnovaBattle2_branch_100:
		note A#, 6
		note G_, 6
		note G#, 4
Music_UnovaBattle2_branch_101:
		octave 3
		note D#, 6
		octave 2
		note A#, 6
		octave 3
		note G_, 4
Music_UnovaBattle2_branch_102:
		note F_, 6
		note C#, 6
		note F_, 4
Music_UnovaBattle2_branch_103:
		note G#, 6
		note F_, 6
		note G#, 4
Music_UnovaBattle2_branch_104:
		note A#, 6
		note G_, 6
		note G#, 4
Music_UnovaBattle2_branch_105:
		note A#, 6
		note B_, 2
		note G_, 16
Music_UnovaBattle2_branch_106:
		note G_, 16
Music_UnovaBattle2_branch_107:
		note G_, 16
Music_UnovaBattle2_branch_108:
		note G_, 16
Music_UnovaBattle2_branch_109:
		note G_, 8
Music_UnovaBattle2_branch_110:
		octave 4
		note D#, 2
		note A#, 2
		octave 5
		note D#, 2
		octave 4
		note A#, 2
		octave 5
		note D#, 2
		octave 4
		note A#, 2
		octave 5
		note D#, 2
		octave 4
		note A#, 2
Music_UnovaBattle2_branch_111:
		octave 5
		note D#, 2
		octave 4
		note A#, 2
		octave 5
		note D#, 2
		octave 4
		note A#, 2
		note D#, 2
		note D#, 2
		note C#, 2
		note D#, 2
Music_UnovaBattle2_branch_112:
		octave 3
		note A#, 2
		octave 4
		note A#, 2
		octave 5
		note D#, 2
		octave 4
		note A#, 2
		octave 5
		note D#, 2
		octave 4
		note A#, 2
		octave 5
		note D#, 2
		octave 4
		note A#, 2
Music_UnovaBattle2_branch_113:
		octave 5
		note D#, 2
		octave 4
		note A#, 2
		octave 5
		note D#, 2
		octave 4
		note A#, 2
		octave 5
		note D#, 2
		octave 4
		note A#, 2
		note E_, 2
		note C#, 16
Music_UnovaBattle2_branch_114:
		note C#, 12
Music_UnovaBattle2_branch_115:
		note E_, 2
		note C#, 2
		note E_, 2
Music_UnovaBattle2_branch_116:
		note D#, 16
Music_UnovaBattle2_branch_117:
		note D#, 16
Music_UnovaBattle2_branch_118:
		note D#, 8
		octave 3
		octave 4
		note D#, 2
		octave 3
		octave 4
		note F_, 2
		octave 3
		octave 4
		note G#, 2
		octave 3
		octave 4
		note F_, 2
Music_UnovaBattle2_branch_119:
		octave 3
		octave 4
		note G_, 16
Music_UnovaBattle2_branch_120:
		octave 3
		octave 4
		note G#, 8
		octave 2
		octave 3
		note B_, 4
		octave 4
		note C_, 4
Music_UnovaBattle2_branch_121:
		octave 3
		octave 4
		note C#, 12
		octave 3
		octave 4
		note E_, 4
Music_UnovaBattle2_branch_122:
		octave 3
		octave 4
		note G_, 8
		octave 3
		octave 4
		note D#, 4
		octave 3
		octave 4
		note F_, 4
Music_UnovaBattle2_branch_123:
		octave 3
		octave 4
		note G_, 8
		octave 3
		octave 4
		note G_, 2
		octave 3
		octave 4
		note F_, 2
		octave 3
		octave 4
		note D#, 2
		octave 3
		octave 4
		note F_, 2
Music_UnovaBattle2_branch_124:
		octave 3
		octave 4
		note G_, 8
		octave 3
		octave 4
		note D#, 2
		octave 3
		octave 4
		note F_, 2
		octave 3
		octave 4
		note A#, 2
		octave 3
		octave 4
		note G#, 2
Music_UnovaBattle2_branch_125:
		octave 3
		octave 4
		note G_, 12
		octave 3
		note A_, 4
Music_UnovaBattle2_branch_126:
		octave 4
		note C#, 2
		note C_, 2
		note C#, 2
		note F_, 10
Music_UnovaBattle2_branch_127:
		note C#, 8
		octave 3
		note G#, 2
		octave 4
		note C#, 2
		note G#, 2
		note F_, 2
Music_UnovaBattle2_branch_128:
		note D#, 6
		octave 3
		note A#, 10
Music_UnovaBattle2_branch_129:
		octave 4
		note G_, 2
		note F_, 2
		note G_, 2
		note A#, 4
		octave 3
		note G_, 2
		note A#, 2
		note D#, 2
Music_UnovaBattle2_branch_130:
		octave 4
		note C#, 6
		note F_, 6
		note C#, 4
Music_UnovaBattle2_branch_131:
		octave 3
		note G#, 8
		note G#, 2
		octave 4
		note C#, 2
		note G#, 2
		note F_, 2
Music_UnovaBattle2_branch_132:
		note D#, 6
		octave 3
		note A#, 6
		octave 4
		note D#, 4
Music_UnovaBattle2_branch_133:
		note G_, 2
		note F_, 2
		note G_, 6
		note A#, 6
Music_UnovaBattle2_branch_134:
		note F_, 6
		note C_, 6
		note F_, 4
Music_UnovaBattle2_branch_135:
		note A_, 6
		octave 5
		note C_, 1
		note C_, 1
		octave 4
		note A_, 2
		note F_, 2
		note C_, 2
		octave 3
		note A_, 2
Music_UnovaBattle2_branch_136:
		octave 4
		note G_, 6
		note D_, 6
		note G_, 4
Music_UnovaBattle2_branch_137:
		note G_, 2
		note B_, 4
		octave 5
		note D_, 1
		note D_, 1
		octave 4
		note B_, 2
		note G_, 2
		note D_, 2
		octave 3
		note B_, 2
Music_UnovaBattle2_branch_138:
		octave 4
		note A_, 6
		note E_, 6
		note A_, 4
Music_UnovaBattle2_branch_139:
		octave 5
		note C#, 8
		octave 4
		note C#, 2
		note E_, 12
Music_UnovaBattle2_branch_140:
		octave 3
		note C#, 6
		note E_, 4
Music_UnovaBattle2_branch_141:
		note A_, 16
Music_UnovaBattle2_branch_142:
		note E_, 6
		note G_, 6
		note A_, 4
Music_UnovaBattle2_branch_143:
		note A#, 14
		note B_, 1
		octave 4
		note C_, 1
Music_UnovaBattle2_branch_144:
		octave 3
		octave 4
		note C#, 2
		octave 3
		octave 4
		note C#, 2
		octave 3
		octave 4
		note D_, 4
		octave 3
		octave 4
		note C#, 2
		octave 3
		octave 4
		note C#, 2
		octave 3
		octave 4
		note E_, 4
Music_UnovaBattle2_branch_145:
		octave 3
		octave 4
		note C#, 2
		octave 3
		octave 4
		note C#, 2
		octave 3
		octave 4
		note F#, 4
		octave 3
		octave 4
		note C#, 2
		octave 3
		octave 4
		note C#, 2
		note G_, 4
Music_UnovaBattle2_branch_146:
		octave 3
		octave 4
		note D#, 2
		octave 3
		octave 4
		note D#, 2
		octave 3
		octave 4
		note E_, 4
		octave 3
		octave 4
		note D#, 2
		octave 3
		octave 4
		note D#, 2
		octave 3
		octave 4
		note F#, 4
Music_UnovaBattle2_branch_147:
		octave 3
		octave 4
		note D#, 2
		octave 3
		octave 4
		note D#, 2
		note G#, 4
		octave 3
		octave 4
		note D#, 2
		octave 3
		octave 4
		note D#, 2
		note G#, 2
		note A_, 2
Music_UnovaBattle2_branch_148:
		octave 2
		octave 3
		octave 4
		note G#, 3
		note G#, 13
Music_UnovaBattle2_branch_149:
		octave 1
		octave 2
		note G#, 16
Music_UnovaBattle2_branch_150:
		octave 3
		note A_, 16
Music_UnovaBattle2_branch_151:
		octave 4
		note C#, 6
		octave 2
		octave 3
		note B_, 6
		octave 2
		octave 3
		note A_, 4
Music_UnovaBattle2_branch_152:
		octave 2
		octave 3
		note B_, 16
Music_UnovaBattle2_branch_153:
		octave 1
		octave 2
		note B_, 16
Music_UnovaBattle2_branch_154:
		octave 3
		note F#, 2
		octave 2
		octave 3
		note F_, 14
Music_UnovaBattle2_branch_155:
		note C#, 3
		note C#, 1
		note C#, 1
		note C#, 1
		note C#, 1
		octave 2
		note G#, 3
		note G#, 1
		note G#, 1
		note G#, 1
		note G#, 1
		endchannel

; ===========================================================================
Music_UnovaBattle_Ch3:
		notetype 12, $15
Music_UnovaBattle3_branch_1:
		note __, 16
Music_UnovaBattle3_branch_2:
		intensity $11
		octave 3
		octave 4
		note D_, 1
		octave 3
		octave 4
		note C#, 1
		octave 3
		octave 4
		note D_, 1
		octave 3
		octave 4
		note C#, 1
		octave 3
		octave 4
		note C_, 1
		octave 3
		octave 4
		note C#, 1
		octave 3
		octave 4
		note C_, 1
		octave 3
		note B_, 1
		octave 4
		note C_, 1
		octave 3
		note B_, 1
		note A#, 1
		note B_, 1
		note A#, 1
		note B_, 1
		note A#, 1
		note F_, 1
Music_UnovaBattle3_branch_3:
		octave 4
		note E_, 16
Music_UnovaBattle3_branch_4:
		octave 3
		note B_, 16
Music_UnovaBattle3_branch_5:
		octave 4
		note E_, 2
		octave 3
		note E_, 6
		octave 4
		note E_, 2
		octave 3
		note E_, 4
		note E_, 2
Music_UnovaBattle3_branch_6:
		octave 4
		note E_, 4
		octave 3
		note E_, 4
		octave 4
		note E_, 4
		octave 3
		note E_, 4
Music_UnovaBattle3_branch_7:
		octave 4
		note F_, 16
Music_UnovaBattle3_branch_8:
		note C_, 16
Music_UnovaBattle3_branch_9:
		note F_, 2
		octave 3
		note F_, 6
		octave 4
		note F_, 2
		octave 3
		note F_, 4
		note F_, 2
Music_UnovaBattle3_branch_10:
		octave 4
		note F_, 4
		octave 3
		note F_, 4
		octave 4
		note F_, 4
		note C_, 1
		note C_, 1
		note C_, 1
		note C_, 1
Music_UnovaBattle3_branch_11:
		octave 3
		note F_, 16
Music_UnovaBattle3_branch_12:
		note F_, 16
Music_UnovaBattle3_branch_13:
		note F_, 16
Music_UnovaBattle3_branch_14:
		note F_, 6
		octave 4
		note F#, 2
		note F#, 2
		note C#, 6
Music_UnovaBattle3_branch_15:
		octave 3
		note F_, 16
Music_UnovaBattle3_branch_16:
		note F_, 16
Music_UnovaBattle3_branch_17:
		note F_, 16
Music_UnovaBattle3_branch_18:
		note A_, 6
		octave 4
		note D#, 2
		note D#, 2
		octave 3
		note A#, 4
		octave 4
		note D#, 2
Music_UnovaBattle3_branch_19:
		octave 3
		note G#, 16
Music_UnovaBattle3_branch_20:
		note G#, 16
Music_UnovaBattle3_branch_21:
		note G#, 16
Music_UnovaBattle3_branch_22:
		note G#, 16
Music_UnovaBattle3_branch_23:
		note G#, 16
Music_UnovaBattle3_branch_24:
		note G#, 16
Music_UnovaBattle3_branch_25:
		note G#, 16
Music_UnovaBattle3_branch_26:
		note G#, 16
Music_UnovaBattle3_branch_27:
		note D#, 2
		note A#, 2
		note D#, 2
		note A#, 2
		octave 4
		note E_, 2
		note E_, 2
		octave 3
		note D#, 2
		note G#, 2
Music_UnovaBattle3_branch_28:
		octave 4
		note F#, 2
		octave 3
		note D#, 2
		octave 4
		note G_, 2
		note C#, 2
		octave 3
		note D#, 2
		note A#, 2
		note D#, 2
		note A#, 2
Music_UnovaBattle3_branch_29:
		note D#, 2
		note A#, 2
		note D#, 2
		note A#, 2
		octave 4
		note E_, 2
		note E_, 2
		octave 3
		note D#, 2
		note G#, 2
Music_UnovaBattle3_branch_30:
		octave 4
		note E_, 2
		octave 3
		note D#, 2
		octave 4
		note G_, 2
		note C#, 2
		octave 3
		note D#, 2
		note G_, 2
		note D#, 2
		note G_, 16
Music_UnovaBattle3_branch_31:
		note G_, 16
Music_UnovaBattle3_branch_32:
		note G_, 16
Music_UnovaBattle3_branch_33:
		note G_, 16
Music_UnovaBattle3_branch_34:
		note G_, 16
Music_UnovaBattle3_branch_35:
		note G_, 16
Music_UnovaBattle3_branch_36:
		note G_, 16
Music_UnovaBattle3_branch_37:
		note G_, 16
Music_UnovaBattle3_branch_38:
		note G_, 11
Music_UnovaBattle3_branch_39:
		octave 4
		note D#, 2
		note F_, 2
		note G#, 2
		note F_, 2
Music_UnovaBattle3_branch_40:
		note G_, 16
Music_UnovaBattle3_branch_41:
		note G#, 8
		octave 3
		note B_, 4
		octave 4
		note C_, 4
Music_UnovaBattle3_branch_42:
		note C#, 12
		note E_, 4
Music_UnovaBattle3_branch_43:
		note G_, 8
		note D#, 4
		note F_, 4
Music_UnovaBattle3_branch_44:
		note G_, 8
		note G_, 2
		note F_, 2
		note D#, 2
		note F_, 2
Music_UnovaBattle3_branch_45:
		note G_, 8
		note D#, 2
		note F_, 2
		note A#, 2
		note G#, 2
Music_UnovaBattle3_branch_46:
		note G_, 15
Music_UnovaBattle3_branch_47:
		note F_, 2
		note D#, 2
		note F_, 2
		note G#, 6
		note F_, 4
Music_UnovaBattle3_branch_48:
		note E_, 1
		note F_, 7
		note C#, 2
		note F_, 2
		octave 5
		note C#, 2
		octave 4
		note G#, 2
Music_UnovaBattle3_branch_49:
		note G#, 6
		note G_, 10
Music_UnovaBattle3_branch_50:
		note A#, 2
		note A_, 2
		note A#, 2
		octave 5
		note D#, 10
Music_UnovaBattle3_branch_51:
		octave 4
		note F_, 6
		note G#, 6
		note F_, 4
Music_UnovaBattle3_branch_52:
		note F_, 8
		note C#, 2
		note F_, 2
		octave 5
		note C#, 2
		octave 4
		note G#, 2
Music_UnovaBattle3_branch_53:
		note A#, 6
		note D#, 6
		note A#, 4
Music_UnovaBattle3_branch_54:
		note A#, 2
		note A_, 2
		note A#, 6
		octave 5
		note D#, 6
Music_UnovaBattle3_branch_55:
		octave 4
		note A_, 6
		note F_, 6
		note A_, 4
Music_UnovaBattle3_branch_56:
		octave 5
		note C_, 16
Music_UnovaBattle3_branch_57:
		octave 4
		note B_, 6
		note G_, 6
		note B_, 4
Music_UnovaBattle3_branch_58:
		octave 5
		note D_, 16
Music_UnovaBattle3_branch_59:
		note C#, 6
		octave 4
		note A_, 6
		octave 5
		note C#, 4
Music_UnovaBattle3_branch_60:
		note E_, 16
Music_UnovaBattle3_branch_61:
		octave 4
		note G_, 2
		note G_, 4
		note E_, 6
		note G_, 4
Music_UnovaBattle3_branch_62:
		note C#, 16
Music_UnovaBattle3_branch_63:
		note C#, 16
Music_UnovaBattle3_branch_64:
		note C#, 8
		octave 3
		note G_, 1
		note G_, 1
		note G_, 1
		note G_, 1
		note G_, 1
		note G_, 1
		note G_, 1
		note G_, 1
Music_UnovaBattle3_branch_65:
		octave 4
		note C#, 6
		note C#, 6
		note C#, 6
Music_UnovaBattle3_branch_66:
		note C#, 6
		octave 3
		note F#, 4
		note F#, 4
Music_UnovaBattle3_branch_67:
		octave 4
		note D#, 6
		note D#, 6
		note D#, 6
Music_UnovaBattle3_branch_68:
		note D#, 6
		octave 3
		note G#, 4
		note G#, 4
Music_UnovaBattle3_branch_69:
		note G#, 16
Music_UnovaBattle3_branch_70:
		note G#, 16
Music_UnovaBattle3_branch_71:
		note G#, 16
Music_UnovaBattle3_branch_72:
		note G#, 16
Music_UnovaBattle3_branch_73:
		note G#, 16
Music_UnovaBattle3_branch_74:
		note G#, 16
Music_UnovaBattle3_branch_75:
		note G#, 16
Music_UnovaBattle3_branch_76:
		note G#, 16
Music_UnovaBattle3_branch_77:
		note G#, 16
Music_UnovaBattle3_branch_78:
		note G#, 16
Music_UnovaBattle3_branch_79:
		note G#, 16
Music_UnovaBattle3_branch_80:
		note G#, 12
		octave 4
		note C_, 1
		note C_, 1
		note C_, 1
		endchannel

; ===========================================================================
Music_UnovaBattle_Ch4:
		notetype $C
		togglenoise 0
Music_UnovaBattle4_branch_1:
		note __, 16
Music_UnovaBattle4_branch_2:
		note __, 16
Music_UnovaBattle4_branch_3:
		note __, 16
Music_UnovaBattle4_branch_4:
		note __, 16
Music_UnovaBattle4_branch_5:
		note E_, 2
		note E_, 2
		note B_, 4
		note E_, 2
		note E_, 2
		note C_, 4
Music_UnovaBattle4_branch_6:
		note E_, 2
		note E_, 2
		note B_, 4
		note E_, 2
		note E_, 2
		note D#, 16
Music_UnovaBattle4_branch_7:
		note D#, 16
Music_UnovaBattle4_branch_8:
		note D#, 4
Music_UnovaBattle4_branch_9:
		note F_, 2
		note F_, 2
		note C_, 4
		note F_, 2
		note F_, 2
		note C#, 4
Music_UnovaBattle4_branch_10:
		note F_, 2
		note F_, 2
		note C_, 4
		note F_, 2
		note F_, 2
		note E_, 4
Music_UnovaBattle4_branch_11:
		note A_, 14
		note G_, 1
		note F#, 1
Music_UnovaBattle4_branch_12:
		note F_, 2
		note C_, 6
		note A_, 4
		note F_, 4
Music_UnovaBattle4_branch_13:
		note C#, 2
		note A#, 14
Music_UnovaBattle4_branch_14:
		note G#, 2
		note F#, 14
Music_UnovaBattle4_branch_15:
		note A_, 14
		note F_, 1
		note G_, 1
Music_UnovaBattle4_branch_16:
		note A_, 2
		note C_, 6
		note A_, 4
		note F_, 4
Music_UnovaBattle4_branch_17:
		note G_, 2
		note A#, 14
Music_UnovaBattle4_branch_18:
		note C_, 2
		note A#, 14
Music_UnovaBattle4_branch_19:
		note G#, 6
		note G#, 10
Music_UnovaBattle4_branch_20:
		note C#, 6
		note C#, 10
Music_UnovaBattle4_branch_21:
		note D#, 6
		note D#, 10
Music_UnovaBattle4_branch_22:
		note G_, 4
		note F_, 4
		note D#, 4
		note C#, 4
Music_UnovaBattle4_branch_23:
		note G#, 6
		note C#, 10
Music_UnovaBattle4_branch_24:
		note F_, 6
		note G#, 10
Music_UnovaBattle4_branch_25:
		note D#, 6
		note D#, 10
Music_UnovaBattle4_branch_26:
		note D#, 4
		note C#, 4
		note G_, 2
		note F_, 16
Music_UnovaBattle4_branch_27:
		note F_, 16
Music_UnovaBattle4_branch_28:
		note F_, 16
Music_UnovaBattle4_branch_29:
		note F_, 16
Music_UnovaBattle4_branch_30:
		note F_, 6
Music_UnovaBattle4_branch_31:
		note D#, 4
		note D#, 4
		note D#, 4
		note D#, 4
Music_UnovaBattle4_branch_32:
		note D#, 4
		note D#, 4
		note D#, 4
		note D#, 4
Music_UnovaBattle4_branch_33:
		note D#, 4
		note D#, 4
		note D#, 4
		note D#, 4
Music_UnovaBattle4_branch_34:
		note D#, 4
		note D#, 4
		note D#, 4
		note D#, 2
		note D_, 1
		note D#, 1
Music_UnovaBattle4_branch_35:
		note E_, 2
		note E_, 2
		note E_, 4
		note F_, 2
		note F_, 4
		note G_, 2
Music_UnovaBattle4_branch_36:
		note G_, 4
		note G#, 2
		note G#, 2
		note G#, 10
Music_UnovaBattle4_branch_37:
		note D#, 2
		note D_, 4
		note F_, 2
		note E_, 4
		note F#, 2
Music_UnovaBattle4_branch_38:
		note F_, 2
		note A#, 2
		note F#, 2
		note G_, 16
Music_UnovaBattle4_branch_39:
		note G_, 16
Music_UnovaBattle4_branch_40:
		note G_, 16
Music_UnovaBattle4_branch_41:
		note G_, 16
Music_UnovaBattle4_branch_42:
		note G_, 16
Music_UnovaBattle4_branch_43:
		note G_, 16
Music_UnovaBattle4_branch_44:
		note G_, 16
Music_UnovaBattle4_branch_45:
		note G_, 16
Music_UnovaBattle4_branch_46:
		note G_, 16
Music_UnovaBattle4_branch_47:
		note G_, 16
Music_UnovaBattle4_branch_48:
		note G_, 16
Music_UnovaBattle4_branch_49:
		note G_, 16
Music_UnovaBattle4_branch_50:
		note G_, 16
Music_UnovaBattle4_branch_51:
		note G_, 16
Music_UnovaBattle4_branch_52:
		note G_, 16
Music_UnovaBattle4_branch_53:
		note G_, 16
Music_UnovaBattle4_branch_54:
		note G_, 16
Music_UnovaBattle4_branch_55:
		note G_, 16
Music_UnovaBattle4_branch_56:
		note G_, 10
Music_UnovaBattle4_branch_57:
		note B_, 16
Music_UnovaBattle4_branch_58:
		note G_, 8
		note D_, 4
		note B_, 4
Music_UnovaBattle4_branch_59:
		note A_, 6
		note C#, 16
Music_UnovaBattle4_branch_60:
		note C#, 16
Music_UnovaBattle4_branch_61:
		note C#, 16
Music_UnovaBattle4_branch_62:
		note C#, 16
Music_UnovaBattle4_branch_63:
		note C#, 16
Music_UnovaBattle4_branch_64:
		note C#, 16
Music_UnovaBattle4_branch_65:
		note C#, 16
Music_UnovaBattle4_branch_66:
		note C#, 16
Music_UnovaBattle4_branch_67:
		note C#, 16
Music_UnovaBattle4_branch_68:
		note C#, 16
Music_UnovaBattle4_branch_69:
		note C#, 16
Music_UnovaBattle4_branch_70:
		note C#, 16
Music_UnovaBattle4_branch_71:
		note C#, 16
Music_UnovaBattle4_branch_72:
		note C#, 16
Music_UnovaBattle4_branch_73:
		note C#, 16
Music_UnovaBattle4_branch_74:
		note C#, 16
Music_UnovaBattle4_branch_75:
		note C#, 16
Music_UnovaBattle4_branch_76:
		note C#, 12
Music_UnovaBattle4_branch_77:
		note C_, 2
		note F_, 2
		note F#, 2
		note F_, 2
		note C_, 2
		note A_, 2
		note F_, 2
Music_UnovaBattle4_branch_78:
		note F#, 2
		note F_, 2
		note C_, 2
		note C#, 2
		note C_, 2
		note G#, 2
		note A_, 2
		note E_, 2
Music_UnovaBattle4_branch_79:
		note F_, 2
		note B_, 2
		note E_, 2
		note F_, 2
		note E_, 2
		note B_, 2
		note G#, 2
		note E_, 2
Music_UnovaBattle4_branch_80:
		note F_, 2
		note E_, 2
		note B_, 2
		note C_, 2
		note B_, 2
		note G_, 2
		note G#, 2
		note D#, 3
Music_UnovaBattle4_branch_81:
		note F#, 1
		note F#, 1
		note A#, 2
		note F#, 1
		note F#, 1
		note A#, 2
		note F#, 1
		note F#, 1
		note A#, 2
		note F#, 1
		note F#, 1
		note A#, 2
Music_UnovaBattle4_branch_82:
		note F#, 1
		note F#, 1
		note A#, 2
		note F#, 1
		note F#, 1
		note A#, 2
		note F#, 1
		note F#, 1
		note F#, 1
		note F#, 1
		note F#, 1
		note A#, 2
Music_UnovaBattle4_branch_83:
		note F#, 2
		note F#, 2
		note F#, 2
		note F#, 2
		note F#, 1
		note F#, 2
		note F#, 2
		note F#, 2
		note F#, 2
Music_UnovaBattle4_branch_84:
		note F#, 2
		note F#, 2
		note F#, 2
		note F#, 2
		note F#, 2
		note F#, 2
		note F#, 2
		note F#, 2
Music_UnovaBattle4_branch_85:
		note F#, 2
		note F#, 2
		note F#, 2
		note A#, 2
		note F#, 2
		note F#, 2
		note A#, 2
		note F#, 2
Music_UnovaBattle4_branch_86:
		note A#, 4
		note F#, 2
		note F#, 1
		note F#, 1
		note F#, 2
		note F#, 2
		note A#, 2
		note F#, 2
Music_UnovaBattle4_branch_87:
		note F#, 2
		note F#, 2
		note F#, 2
		note F#, 1
		note F#, 2
		note F#, 2
		note F#, 2
		note F#, 2
Music_UnovaBattle4_branch_88:
		note F#, 2
		note F#, 2
		note F#, 2
		note F#, 2
		note F#, 2
		note F#, 2
		note A#, 2
		note F#, 2
Music_UnovaBattle4_branch_89:
		note F#, 2
		note F#, 2
		note F#, 2
		note A#, 2
		note F#, 2
		note F#, 2
		note A#, 2
		note F#, 2
Music_UnovaBattle4_branch_90:
		note A#, 2
		note F#, 2
		note A#, 2
		note F#, 2
		note F#, 2
		note F#, 2
		note F#, 2
		note F#, 2
Music_UnovaBattle4_branch_91:
		note F#, 2
		note F#, 2
		note A#, 2
		note F#, 2
		note F#, 2
		note F#, 2
		note F#, 2
		note F#, 1
		note F#, 1
Music_UnovaBattle4_branch_92:
		note F#, 2
		note F#, 2
		note F#, 2
		note F#, 2
		note F#, 2
		note F#, 2
		note A#, 2
		note F#, 2
Music_UnovaBattle4_branch_93:
		note F#, 2
		note F#, 2
		note A#, 2
		note F#, 2
		note F#, 2
		note F#, 2
		note F#, 2
		note F#, 1
		note F#, 1
Music_UnovaBattle4_branch_94:
		note F#, 2
		note F#, 2
		note F#, 2
		note F#, 2
		note F#, 2
		note A#, 2
		note F#, 2
		note F#, 2
Music_UnovaBattle4_branch_95:
		note F#, 2
		note F#, 2
		note A#, 2
		note F#, 2
		note F#, 2
		note F#, 2
		note F#, 2
		note F#, 1
		note F#, 1
Music_UnovaBattle4_branch_96:
		note F#, 2
		note F#, 2
		note F#, 2
		note F#, 2
		note F#, 2
		note F#, 2
		note A#, 2
		note F#, 2
Music_UnovaBattle4_branch_97:
		note F#, 2
		note F#, 2
		note A#, 2
		note F#, 2
		note F#, 2
		note F#, 2
		note F#, 2
		note F#, 1
		note F#, 1
Music_UnovaBattle4_branch_98:
		note F#, 2
		note F#, 2
		note F#, 2
		note F#, 2
		note F#, 2
		note A#, 2
		note F#, 2
		note F#, 2
Music_UnovaBattle4_branch_99:
		note F#, 2
		note F#, 2
		note A#, 2
		note F#, 2
		note F#, 2
		note F#, 2
		note F#, 2
		note F#, 1
		note F#, 1
Music_UnovaBattle4_branch_100:
		note F#, 2
		note F#, 2
		note F#, 2
		note F#, 2
		note F#, 2
		note F#, 2
		note A#, 2
		note F#, 2
Music_UnovaBattle4_branch_101:
		note F#, 2
		note F#, 2
		note A#, 2
		note F#, 2
		note F#, 2
		note F#, 2
		note F#, 2
		note F#, 1
		note F#, 1
Music_UnovaBattle4_branch_102:
		note F#, 2
		note F#, 2
		note F#, 2
		note F#, 2
		note F#, 2
		note F#, 2
		note A#, 2
		note F#, 2
Music_UnovaBattle4_branch_103:
		note F#, 2
		note F#, 2
		note A#, 2
		note F#, 2
		note F#, 2
		note F#, 2
		note F#, 2
		note F#, 1
		note F#, 1
Music_UnovaBattle4_branch_104:
		note F#, 2
		note F#, 2
		note F#, 2
		note F#, 2
		note F#, 2
		note F#, 2
		note A#, 2
		note F#, 2
Music_UnovaBattle4_branch_105:
		note F#, 2
		note F#, 2
		note A#, 2
		note F#, 2
		note F#, 2
		note F#, 2
		note F#, 2
		note F#, 1
		note F#, 1
Music_UnovaBattle4_branch_106:
		note F#, 2
		note F#, 2
		note F#, 2
		note F#, 2
		note F#, 2
		note F#, 2
		note A#, 2
		note G_, 2
Music_UnovaBattle4_branch_107:
		note F#, 2
		note F#, 2
		note A#, 2
		note F#, 2
		note F#, 2
		note F#, 2
		note F#, 2
		note F#, 1
		note F#, 1
Music_UnovaBattle4_branch_108:
		note F#, 2
		note F#, 2
		note F#, 2
		note F#, 2
		note F#, 2
		note F#, 2
		note A#, 2
		note G_, 2
Music_UnovaBattle4_branch_109:
		note F#, 2
		note F#, 2
		note G_, 2
		note F#, 2
		note F#, 2
		note F#, 2
		note F#, 2
		note F#, 1
		note F#, 1
Music_UnovaBattle4_branch_110:
		note F#, 2
		note F#, 2
		note F#, 2
		note F#, 2
		note F#, 2
		note F#, 2
		note A#, 2
		note F#, 2
Music_UnovaBattle4_branch_111:
		note F#, 2
		note F#, 2
		note A#, 2
		note F#, 2
		note F#, 2
		note F#, 2
		note F#, 2
		note F#, 1
		note F#, 1
Music_UnovaBattle4_branch_112:
		note F#, 2
		note F#, 2
		note F#, 2
		note F#, 2
		note F#, 2
		note F#, 2
		note A#, 2
		note F#, 2
Music_UnovaBattle4_branch_113:
		note F#, 2
		note F#, 2
		note A#, 2
		note F#, 2
		note F#, 2
		note F#, 2
		note F#, 2
		note F#, 1
		note F#, 1
Music_UnovaBattle4_branch_114:
		note F#, 2
		note F#, 2
		note F#, 2
		note F#, 2
		note F#, 2
		note F#, 4
		note F#, 2
Music_UnovaBattle4_branch_115:
		note F#, 2
		note F#, 2
		note A#, 2
		note F#, 2
		note F#, 2
		note F#, 2
		note F#, 2
		note F#, 1
		note F#, 1
Music_UnovaBattle4_branch_116:
		note F#, 2
		note F#, 2
		note F#, 2
		note F#, 2
		note F#, 2
		note F#, 2
		note A#, 2
		note F#, 2
Music_UnovaBattle4_branch_117:
		note F#, 2
		note F#, 2
		note A#, 2
		note F#, 2
		note F#, 2
		note F#, 2
		note F#, 2
		note F#, 1
		note F#, 1
Music_UnovaBattle4_branch_118:
		note F#, 2
		note F#, 2
		note F#, 2
		note F#, 2
		note F#, 2
		note F#, 4
		note F#, 2
Music_UnovaBattle4_branch_119:
		note F#, 2
		note F#, 2
		note A#, 2
		note F#, 2
		note F#, 2
		note F#, 2
		note F#, 2
		note F#, 1
		note F#, 1
Music_UnovaBattle4_branch_120:
		note F#, 2
		note F#, 2
		note F#, 2
		note F#, 2
		note F#, 2
		note F#, 2
		note A#, 2
		note F#, 2
Music_UnovaBattle4_branch_121:
		note F#, 2
		note F#, 2
		note A#, 2
		note F#, 2
		note F#, 2
		note F#, 2
		note F#, 2
		note F#, 1
		note F#, 1
Music_UnovaBattle4_branch_122:
		note F#, 2
		note F#, 2
		note F#, 2
		note F#, 2
		note F#, 2
		note F#, 2
		note A#, 2
		note F#, 2
Music_UnovaBattle4_branch_123:
		note F#, 2
		note F#, 2
		note A#, 2
		note F#, 2
		note F#, 2
		note F#, 2
		note F#, 2
		note F#, 1
		note F#, 1
Music_UnovaBattle4_branch_124:
		note F#, 2
		note F#, 2
		note F#, 2
		note F#, 2
		note F#, 2
		note F#, 2
		note A#, 2
		note F#, 2
Music_UnovaBattle4_branch_125:
		note F#, 2
		note F#, 2
		note A#, 2
		note F#, 2
		note F#, 2
		note F#, 2
		note F#, 2
		note F#, 1
		note F#, 1
Music_UnovaBattle4_branch_126:
		note F#, 2
		note F#, 2
		note F#, 2
		note F#, 2
		note F#, 2
		note F#, 2
		note A#, 2
		note F#, 2
Music_UnovaBattle4_branch_127:
		note F#, 2
		note F#, 2
		note A#, 2
		note F#, 2
		note F#, 2
		note F#, 2
		note F#, 2
		note F#, 1
		note F#, 1
Music_UnovaBattle4_branch_128:
		note F#, 2
		note F#, 2
		note F#, 2
		note F#, 2
		note F#, 2
		note F#, 2
		note A#, 2
		note F#, 2
Music_UnovaBattle4_branch_129:
		note F#, 2
		note F#, 2
		note A#, 2
		note F#, 2
		note F#, 2
		note F#, 2
		note F#, 2
		note F#, 1
		note F#, 1
Music_UnovaBattle4_branch_130:
		note F#, 2
		note F#, 2
		note F#, 2
		note F#, 2
		note F#, 2
		note F#, 2
		note A#, 2
		note F#, 2
Music_UnovaBattle4_branch_131:
		note F#, 2
		note F#, 2
		note A#, 2
		note F#, 2
		note F#, 2
		note F#, 2
		note F#, 2
		note F#, 1
		note F#, 1
Music_UnovaBattle4_branch_132:
		note F#, 2
		note F#, 2
		note F#, 2
		note F#, 2
		note F#, 2
		note F#, 2
		note A#, 2
		note F#, 2
Music_UnovaBattle4_branch_133:
		note F#, 2
		note F#, 2
		note A#, 2
		note F#, 2
		note F#, 2
		note F#, 2
		note F#, 2
		note F#, 1
		note F#, 1
Music_UnovaBattle4_branch_134:
		note F#, 2
		note F#, 2
		note F#, 2
		note F#, 2
		note F#, 2
		note F#, 2
		note A#, 2
		note F#, 2
Music_UnovaBattle4_branch_135:
		note F#, 2
		note F#, 2
		note A#, 2
		note F#, 2
		note F#, 2
		note F#, 2
		note F#, 2
		note F#, 1
		note F#, 1
Music_UnovaBattle4_branch_136:
		note F#, 2
		note F#, 2
		note F#, 2
		note F#, 2
		note F#, 2
		note F#, 2
		note A#, 2
		note F#, 2
Music_UnovaBattle4_branch_137:
		note F#, 2
		note F#, 2
		note A#, 2
		note F#, 2
		note F#, 2
		note F#, 2
		note F#, 2
		note F#, 1
		note F#, 1
Music_UnovaBattle4_branch_138:
		note F#, 2
		note F#, 2
		note F#, 2
		note F#, 2
		note F#, 2
		note F#, 2
		note A#, 2
		note F#, 2
Music_UnovaBattle4_branch_139:
		note F#, 2
		note F#, 2
		note A#, 2
		note F#, 2
		note F#, 2
		note F#, 2
		note F#, 2
		note F#, 1
		note F#, 1
Music_UnovaBattle4_branch_140:
		note F#, 2
		note F#, 2
		note F#, 2
		note F#, 2
		note F#, 2
		note F#, 2
		note A#, 2
		note F#, 2
Music_UnovaBattle4_branch_141:
		note F#, 2
		note F#, 2
		note A#, 2
		note F#, 2
		note F#, 2
		note F#, 2
		note F#, 2
		note F#, 1
		note F#, 1
Music_UnovaBattle4_branch_142:
		note F#, 2
		note F#, 2
		note F#, 2
		note F#, 2
		note F#, 2
		note F#, 2
		note A#, 2
		note F#, 2
Music_UnovaBattle4_branch_143:
		note F#, 2
		note F#, 4
		note F#, 2
		note F#, 2
		note F#, 2
		note F#, 2
		note F#, 1
		note F#, 1
Music_UnovaBattle4_branch_144:
		note F#, 2
		note F#, 2
		note F#, 2
		note F#, 2
		note F#, 2
		note F#, 2
		note A#, 6
Music_UnovaBattle4_branch_145:
		note E_, 1
		note C#, 1
		note F_, 6
		note F#, 1
		note E_, 1
		note F_, 16
Music_UnovaBattle4_branch_146:
		note F_, 16
Music_UnovaBattle4_branch_147:
		note F_, 16
Music_UnovaBattle4_branch_148:
		note F_, 16
Music_UnovaBattle4_branch_149:
		note F_, 16
Music_UnovaBattle4_branch_150:
		note F_, 16
Music_UnovaBattle4_branch_151:
		note F_, 2
		note G#, 16
Music_UnovaBattle4_branch_152:
		note F_, 3
Music_UnovaBattle4_branch_153:
		note F_, 3
		note F_, 11
		note D_, 4
Music_UnovaBattle4_branch_154:
		note D_, 3
		note D_, 9
		endchannel
