Music_UnovaCave:
	musicheader 3, 1, Music_UnovaCave_Ch1
	musicheader 1, 2, Music_UnovaCave_Ch2
	musicheader 1, 3, Music_UnovaCave_Ch3

Music_UnovaCave_Ch1:
	tempo $AE
	volume $77
	stereopanning $77
Music_UnovaCave_Ch1_loop:
Music_UnovaCave_Ch1_loop1:
	dutycycle 2
	octave 4
	notetype $C, $A5
	note D#, 4
	note C#, 2
	note G_, 4
	note F_, 2
	octave 3
	note B_, 6
	octave 4
	note C#, 6
	note D#, 4
	note C#, 2
	note G_, 4
	note F_, 2
	note A#, 6
	note B_, 6
	
	note D#, 4
	note C#, 2
	note G_, 4
	note F_, 2
	octave 3
	note B_, 12
	octave 4
	note D#, 4
	note C#, 2
	note G_, 4
	note F_, 2
	octave 3
	note A_, 10
	note __, 2
	loopchannel 2, Music_UnovaCave_Ch1_loop1
	
	octave 2
	note E_, 1
	note E_, 1
	note E_, 1
	note __, 7
	note E_, 2
	note D#, 1
	note D#, 1
	note D#, 1
	note __, 7
	note D#, 2
	note D_, 1
	note D_, 1
	note D_, 1
	note __, 7
	note D_, 2
	note C#, 1
	note C#, 1
	note C#, 1
	note __, 7
	note C#, 2
	note C_, 6
	note D#, 6
	note G#, 6
	note D_, 6
	octave 1
	note B_, 11
	notetype $6, $A5
	octave 2
	note C_, 1
	note C#, 1
	notetype $C, $A5
	note D_, 11
	note __, 1
	loopchannel 0, Music_UnovaCave_Ch1_loop

Music_UnovaCave_Ch2:
Music_UnovaCave_Ch2_loop:
Music_UnovaCave_Ch2_loop1:
	octave 3
	notetype $C, $5F
	note D#, 12
	note C#, 12
	note F#, 12
	note D#, 12
	note D#, 12
	note C#, 12
	note D#, 12
	note C#, 12
	loopchannel 2, Music_UnovaCave_Ch2_loop1
	
	note C#, 1
	note __, 9
	note C#, 2
	note C_, 1
	note __, 9
	note C_, 2
	note C#, 1
	note __, 9
	note C#, 2
	octave 2
	note B_, 1
	note __, 9
	note B_, 2
	octave 3
	note C_, 6
	note G_, 6
	note F#, 6
	note C_, 6
	octave 2
	note B_, 11
	notetype $6, $5F
	octave 3
	note C_, 1
	note C#, 1
	notetype $C, $5F
	note D_, 12
	loopchannel 0, Music_UnovaCave_Ch2_loop

Music_UnovaCave_Ch3:
Music_UnovaCave_Ch3_loop:
	notetype $C, $14
	octave 4
	note __, 16
	note __, 16
	note __, 16
	note __, 16
	note __, 16
	note __, 16
	note D#, 12
	note __, 6
	note C#, 6
	note D#, 12
	note F#, 6
	note D#, 16
	notetype $4, $14
	note C#, 2
	note D#, 2
	note C#, 2
	notetype $C, $14
	octave 3
	note B_, 6
	octave 4
	note C#, 6
	note D#, 10
	notetype $4, $14
	note E_, 2
	note D#, 2
	note C#, 2
	octave 3
	notetype $C, $14
	note A_, 11
	note __, 1
	
	notetype $C, $15
	octave 4
	note G_, 1
	note __, 1
	note G_, 1
	note __, 1
	note G_, 1
	note __, 1
	note G_, 1
	note __, 1
	note G_, 1
	note __, 1
	note G_, 2
	note F#, 1
	note __, 1
	note F#, 1
	note __, 1
	note F#, 1
	note __, 1
	note F#, 1
	note __, 1
	note F#, 1
	note __, 1
	note F#, 2
	note F_, 1
	note __, 1
	note F_, 1
	note __, 1
	note F_, 1
	note __, 1
	note F_, 1
	note __, 1
	note F_, 1
	note __, 1
	note F_, 2
	note E_, 1
	note __, 1
	note E_, 1
	note __, 1
	note E_, 1
	note __, 1
	note E_, 1
	note __, 1
	note E_, 1
	note __, 1
	note E_, 2
	note C_, 4
	notetype $4, $15
	octave 3
	note B_, 2
	octave 4
	note C_, 2
	note D_, 2
	notetype $C, $15
	note D#, 2
	octave 3
	note A#, 2
	octave 4
	note G_, 2
	note F#, 6
	note F_, 2
	note D_, 2
	octave 5
	note C_, 2
	octave 4
	note B_, 10
	notetype $4, $15
	note G#, 2
	note F_, 2
	note D_, 2
	notetype $C, $15
	octave 5
	note D_, 11
	note __, 1
	loopchannel 0, Music_UnovaCave_Ch3_loop
